<?xml version="1.0" encoding="UTF-8"?>
<svg width="450" height="52" version="1.2" viewBox="0 0 337.5 39" xmlns="http://www.w3.org/2000/svg" xmlns:cc="http://creativecommons.org/ns#" xmlns:dc="http://purl.org/dc/elements/1.1/" xmlns:rdf="http://www.w3.org/1999/02/22-rdf-syntax-ns#">
 <metadata>
  <rdf:RDF>
   <cc:Work rdf:about="">
    <dc:format>image/svg+xml</dc:format>
    <dc:type rdf:resource="http://purl.org/dc/dcmitype/StillImage"/>
    <dc:title/>
   </cc:Work>
  </rdf:RDF>
 </metadata>
 <g>
  <path d="m3.75 27.295h10.162v0.31757h-10.162z"/>
  <path d="m3.75 24.12h10.162v0.31757h-10.162z"/>
  <path d="m3.75 20.944h10.162v0.31757h-10.162z"/>
  <path d="m3.75 17.768h10.162v0.31757h-10.162z"/>
  <path d="m3.75 14.593h10.162v0.31757h-10.162z"/>
  <path d="m11.307 11.005c0.22329 0.41185 0.41929 0.92046 0.588 1.5233 0.16871 0.58304 0.26547 1.1289 0.28532 1.6375-0.0521 1.7987-0.75175 3.3816-2.094 4.7462l0.41185 2.1287 0.49124-0.04713c0.82618 0.01982 1.4936 0.33245 2.0022 0.93534 0.4962 0.60289 0.75175 1.3224 0.76167 2.161-0.0099 0.68724-0.20096 1.2752-0.57064 1.7615-0.37215 0.4962-0.8634 0.89317-1.4787 1.1909l0.52598 2.5728 0.02977 0.58801c-0.04218 1.3323-0.76664 2.094-2.1734 2.285-0.55079 0.052085-1.0644-0.08435-1.5407-0.41185-0.47636-0.32998-0.75671-0.77904-0.84107-1.3497-0.022332-0.40192 0.071949-0.76167 0.28532-1.0792 0.22081-0.30765 0.5235-0.49373 0.90557-0.55575 0.33742-0.03227 0.63514 0.07195 0.8882 0.31757 0.25306 0.23073 0.392 0.52846 0.41185 0.8882-0.0099 0.48628-0.17367 0.82122-0.49124 0.99985-0.31757 0.19104-0.588 0.26051-0.80881 0.20593 0.04218 0.21337 0.196 0.36719 0.45899 0.46147l0.69965 0.09428c1.1636-0.17863 1.7566-0.80881 1.7789-1.8881 0.0099-0.28531-0.02233-0.59296-0.09676-0.92045l-0.4441-2.0344-1.1438 0.17616c-1.1214-0.032261-2.0692-0.4441-2.8408-1.238-0.77408-0.79393-1.2182-1.8062-1.3348-3.0343-0.04218-1.2281 0.30268-2.3222 1.0321-3.2874 0.72942-0.95271 1.5085-1.8211 2.3346-2.6026-0.24314-0.92046-0.37215-1.8583-0.38208-2.811 0-0.64506 0.1439-1.3918 0.42922-2.2379 0.28532-0.85844 0.72446-1.4291 1.3174-1.7169 0.18111-0.04218 0.38208 0.13894 0.60289 0.54086m-0.36471 1.3348c-0.51853 0.15878-0.8882 0.56567-1.1115 1.2207-0.22081 0.64755-0.33742 1.2281-0.34982 1.7466 0.012404 0.54086 0.086835 1.0644 0.22329 1.573 0.51853-0.43418 0.97504-0.98 1.3646-1.635 0.38208-0.6674 0.56815-1.367 0.55575-2.0965 0-0.21089-0.05706-0.39696-0.17367-0.55575-0.11661-0.15879-0.28532-0.24314-0.50861-0.25306m-1.4613 10.877c-0.25306 0.31757-0.3796 0.67732-0.3796 1.0792 0.052101 0.66739 0.3796 1.1264 0.98497 1.3819l0.09428 0.12653-0.17367 0.12653c-0.48876-0.18111-0.88573-0.47636-1.1909-0.8882-0.30764-0.42427-0.46147-0.90558-0.46147-1.4465 0.022332-0.53838 0.20096-1.0371 0.54086-1.4911 0.33742-0.44659 0.75175-0.76416 1.238-0.95271l-0.38208-1.9228c-0.70957 0.59297-1.3497 1.2653-1.9203 2.0171-0.57312 0.74183-0.87828 1.5978-0.92046 2.5728 0.029769 1.0048 0.3796 1.7839 1.047 2.3346 0.67732 0.56071 1.4936 0.8237 2.4463 0.79393l0.8237-0.15878-0.8237-4.2252c-0.37215 0.11661-0.67732 0.33494-0.92294 0.65251m1.3025-0.69965 0.84107 4.1433c0.82618-0.45402 1.2455-1.1636 1.2554-2.1262-0.0521-0.60289-0.27043-1.0867-0.65003-1.4464-0.38208-0.36967-0.8634-0.56071-1.4464-0.57064"/>
  <path d="m13.912 27.295h319.84v0.31757h-319.84z"/>
  <path d="m13.912 24.12h319.84v0.31757h-319.84z"/>
  <path d="m13.912 20.944h319.84v0.31757h-319.84z"/>
  <path d="m13.912 17.768h319.84v0.31757h-319.84z"/>
  <path d="m13.912 14.593h319.84v0.31757h-319.84z"/>
  <path d="m21.628 8.8763h0.55575v20.007h-0.55575z"/>
  <path d="m20.735 8.0426h6.1058v0.39696h-6.1058z"/>
  <path d="m20.735 11.218h6.1058v0.39696h-6.1058z"/>
  <path d="m25.63 5.0654h-3.8431v-0.50613h3.8431v0.50613"/>
  <path d="m25.757 7.7499c-0.04218 0.58304-0.34238 1.0792-0.90309 1.4936-0.58304 0.41185-1.1909 0.6277-1.826 0.65003-0.40441-0.0099271-0.7319-0.11661-0.98497-0.31757-0.26547-0.22329-0.40192-0.51357-0.41433-0.87332 0.042184-0.55079 0.34486-1.0321 0.90557-1.444 0.55079-0.42425 1.1214-0.64755 1.7144-0.66739 0.46643-0.012404 0.82618 0.084355 1.0817 0.28532 0.27539 0.17863 0.41681 0.47139 0.42674 0.87332"/>
  <path d="m20.74 5.8916v6.7657h-0.39696v-2.62l-1.826 0.45899v-6.7633h0.39696v2.62l1.826-0.46147m-1.826 1.6846v1.6176l1.4291-0.3796v-1.6052l-1.4291 0.36719"/>
  <path d="m38.005 13.64h0.55575v16.017h-0.55575z"/>
  <path d="m42.134 12.513c-0.04218 0.58304-0.34238 1.0792-0.90309 1.4936-0.58304 0.41184-1.1909 0.6277-1.826 0.65002-0.40441-0.0099-0.7319-0.11661-0.98496-0.31757-0.26547-0.22329-0.40193-0.51357-0.41433-0.87332 0.04218-0.55078 0.34486-1.0321 0.90557-1.4439 0.55079-0.42426 1.1214-0.64755 1.7144-0.6674 0.46643-0.01239 0.82618 0.08436 1.0817 0.28531 0.27539 0.17863 0.41681 0.4714 0.42674 0.87332"/>
  <path d="m50.716 16.816h0.55575v13.442h-0.55575z"/>
  <path d="m54.844 15.689c-0.04217 0.58304-0.34486 1.0792-0.90557 1.4936-0.58304 0.41184-1.1909 0.6277-1.826 0.65002-0.40192-0.0099-0.72942-0.1166-0.98496-0.31757-0.26299-0.22329-0.40192-0.51357-0.41185-0.87332 0.04217-0.55078 0.34238-1.0321 0.90557-1.444 0.54831-0.42426 1.1214-0.64754 1.7144-0.66739 0.46644-0.01239 0.82618 0.08436 1.0792 0.28531 0.2754 0.17863 0.41929 0.4714 0.42922 0.87332"/>
  <path d="m47.699 14.801c0.3275-0.2878 0.70461-0.44659 1.1264-0.47636 0.26547 0 0.49869 0.1042 0.69965 0.31757 0.20096 0.20096 0.30021 0.44906 0.30021 0.7443-0.02979 0.38208-0.17863 0.71453-0.4441 1.0023l-0.82618 0.7443-1.238 1.2083v-8.5124h0.38208v4.972m0.69717 0.01486c-0.15879-0.0099-0.31013 0.05208-0.45899 0.19104-0.14886 0.14637-0.22825 0.27043-0.23818 0.3647v2.1436l0.74679-0.93782c0.2754-0.35974 0.42178-0.71949 0.4441-1.0792-0.03227-0.40192-0.196-0.63017-0.49372-0.68228"/>
  <path d="m63.424 18.403h0.55575v12.455h-0.55575z"/>
  <path d="m67.552 17.277c-0.04217 0.58304-0.34238 1.0792-0.90557 1.4936-0.58056 0.41184-1.1909 0.6277-1.826 0.65002-0.40192-0.0099-0.72942-0.11661-0.98248-0.31757-0.26547-0.22329-0.40441-0.51357-0.41433-0.87332 0.04217-0.55078 0.34486-1.0321 0.90557-1.4439 0.55078-0.42426 1.1214-0.64755 1.7144-0.6674 0.46644-0.01239 0.82618 0.08436 1.0792 0.28531 0.2754 0.17863 0.41929 0.4714 0.42922 0.87332"/>
  <path d="m60.407 16.389c0.32749-0.2878 0.70461-0.44659 1.1289-0.47636 0.26299 0 0.4962 0.1042 0.69717 0.31757 0.20096 0.20096 0.30268 0.44906 0.30268 0.7443-0.03227 0.38208-0.18112 0.71454-0.4441 1.0023l-0.82618 0.7443-1.238 1.2083v-8.5124h0.3796v4.972m0.69965 0.01487c-0.15878-0.0099-0.31261 0.05208-0.46147 0.19104-0.14886 0.14637-0.22826 0.27043-0.23818 0.3647v2.1436l0.74679-0.93782c0.27539-0.35974 0.42426-0.71949 0.4441-1.0792-0.03227-0.40192-0.196-0.63018-0.49124-0.68228"/>
  <path d="m76.134 21.579h0.55575v9.8794h-0.55575z"/>
  <path d="m80.262 20.453c-0.04217 0.58304-0.34486 1.0792-0.90557 1.4936-0.58304 0.41184-1.1909 0.6277-1.826 0.65002-0.40192-0.0099-0.7319-0.11661-0.98496-0.31757-0.26547-0.22329-0.40192-0.51357-0.41185-0.87332 0.04217-0.55078 0.34238-1.0321 0.90309-1.4439 0.55079-0.42426 1.1239-0.64755 1.7169-0.66739 0.46395-0.01239 0.8237 0.08436 1.0792 0.28531 0.2754 0.17863 0.41681 0.4714 0.42922 0.87332"/>
  <path d="m73.117 19.565c0.3275-0.2878 0.70213-0.44659 1.1264-0.47636 0.26547 0 0.49869 0.1042 0.69965 0.31757 0.20096 0.20096 0.3002 0.44906 0.3002 0.7443-0.03227 0.38208-0.17863 0.71453-0.4441 1.0023l-0.82618 0.7443-1.238 1.2083v-8.5124h0.38208v4.972m0.69717 0.01486c-0.15878-0.0099-0.31261 0.05208-0.45899 0.19104-0.14886 0.14638-0.22825 0.27043-0.23818 0.36471v2.1436l0.74431-0.93782c0.27539-0.35974 0.42426-0.7195 0.44658-1.0792-0.03227-0.40192-0.196-0.63017-0.49372-0.68228"/>
  <path d="m88.842 23.167h0.55575v8.892h-0.55575z"/>
  <path d="m92.97 22.041c-0.04217 0.58304-0.34486 1.0792-0.90558 1.4936-0.58056 0.41184-1.1909 0.6277-1.826 0.65002-0.40192-0.0099-0.72942-0.1166-0.98496-0.31757-0.26299-0.22329-0.40192-0.51357-0.41184-0.87332 0.04217-0.55078 0.34486-1.0321 0.90557-1.444 0.55078-0.42426 1.1214-0.64754 1.7144-0.66739 0.46643-0.01239 0.82618 0.08436 1.0792 0.28531 0.2754 0.17863 0.4193 0.4714 0.42922 0.87332"/>
  <path d="m85.825 21.152c0.32749-0.2878 0.70461-0.44659 1.1264-0.47636 0.26547 0 0.49869 0.1042 0.69965 0.31757 0.20096 0.20096 0.30268 0.44906 0.30268 0.7443-0.03227 0.38208-0.18112 0.71453-0.44659 1.0023l-0.8237 0.7443-1.2405 1.2083v-8.5124h0.38208v4.972m0.69964 0.01486c-0.15878-0.0099-0.31261 0.05208-0.46147 0.19104-0.14886 0.14638-0.22826 0.27043-0.23818 0.3647v2.1436l0.74679-0.93782c0.27539-0.35974 0.42177-0.7195 0.4441-1.0792-0.03227-0.40192-0.196-0.63017-0.49124-0.68228"/>
  <path d="m105.11 14.593h0.55574v10.48h-0.55574z"/>
  <path d="m105.55 29.392h-3.8431v-0.50861h3.8431v0.50861"/>
  <path d="m105.68 25.216c-0.0422 0.58304-0.34237 1.0792-0.90309 1.4936-0.58304 0.41184-1.1909 0.6277-1.826 0.65002-0.40441-0.0099-0.7319-0.1166-0.98497-0.31757-0.26547-0.22329-0.40192-0.51357-0.41432-0.87332 0.0422-0.55078 0.34486-1.0321 0.90557-1.4439 0.55079-0.42426 1.1214-0.64755 1.7144-0.66739 0.46643-0.01239 0.82618 0.08436 1.0817 0.28531 0.27539 0.17863 0.4168 0.4714 0.42673 0.87332"/>
  <path d="m121.48 16.18h0.55576v12.068h-0.55576z"/>
  <path d="m121.93 32.568h-3.8431v-0.50861h3.8431v0.50861"/>
  <path d="m122.05 28.392c-0.0422 0.58304-0.34238 1.0792-0.9031 1.4936-0.58303 0.41184-1.1909 0.6277-1.826 0.65002-0.40441-0.0099-0.7319-0.11661-0.98496-0.31757-0.26547-0.22329-0.40193-0.51357-0.41434-0.87332 0.0422-0.55078 0.34486-1.0321 0.90558-1.4439 0.55078-0.42426 1.1214-0.64755 1.7144-0.6674 0.46643-0.01239 0.82618 0.08436 1.0817 0.28531 0.27539 0.17863 0.41681 0.4714 0.42674 0.87332"/>
  <path d="m117.04 26.534v6.7657h-0.39697v-2.62l-1.826 0.45898v-6.7633h0.39697v2.62l1.826-0.46148m-1.826 1.6846v1.6176l1.4291-0.3796v-1.6052l-1.4291 0.36719"/>
  <path d="m137.86 11.417h0.55574v10.48h-0.55574z"/>
  <path d="m138.43 22.041c-0.0422 0.58304-0.34237 1.0792-0.90308 1.4936-0.58304 0.41184-1.1909 0.6277-1.826 0.65002-0.4044-0.0099-0.7319-0.1166-0.98497-0.31757-0.26546-0.22329-0.40192-0.51357-0.41432-0.87332 0.0422-0.55078 0.34486-1.0321 0.90557-1.444 0.55078-0.42426 1.1214-0.64754 1.7144-0.66739 0.46643-0.01239 0.82618 0.08436 1.0817 0.28531 0.2754 0.17863 0.41682 0.4714 0.42673 0.87332"/>
  <path d="m131.57 18.071v2.3818l0.84105-0.22329v-2.4612h0.39697v2.3818l0.60289-0.15878v1.2877l-0.60289 0.14141v1.826l0.60289-0.15879v1.3199l-0.60289 0.15878v2.3495h-0.39697v-2.2553l-0.84105 0.20592v2.4612h-0.39697v-2.3644l-0.62025 0.14142v-1.3025l0.62025-0.15878v-1.8087l-0.62025 0.15879v-1.2877l0.62025-0.15878v-2.4761h0.39697m0 3.6669v1.8111l0.84105-0.22329v-1.8087l-0.84105 0.22081"/>
  <path d="m150.57 12.806h0.55575v13.854h-0.55575z"/>
  <path d="m151.14 26.804c-0.0422 0.58304-0.34487 1.0792-0.90558 1.4936-0.58304 0.41184-1.1909 0.6277-1.826 0.65002-0.40192-0.0099-0.72942-0.11661-0.98497-0.31757-0.26299-0.22329-0.40192-0.51357-0.41184-0.87332 0.0422-0.55078 0.34237-1.0321 0.90556-1.444 0.54832-0.42426 1.1214-0.64755 1.7144-0.66739 0.46643-0.01239 0.82618 0.08436 1.0792 0.28531 0.27539 0.17863 0.41929 0.4714 0.42922 0.87332"/>
  <path d="m146.12 24.946v6.7657h-0.39696v-2.62l-1.826 0.45898v-6.7633h0.39696v2.62l1.826-0.46148m-1.826 1.6846v1.6176l1.4291-0.37959v-1.6052l-1.4291 0.36719"/>
  <path d="m166.95 14.593h0.55574v15.243h-0.55574z"/>
  <path d="m162.5 30.273h6.1058v0.39696h-6.1058z"/>
  <path d="m167.52 29.98c-0.0422 0.58304-0.34486 1.0792-0.90557 1.4936-0.58304 0.41184-1.1909 0.6277-1.826 0.65002-0.40192-0.0099-0.72941-0.11661-0.98496-0.31757-0.26299-0.22329-0.40193-0.51357-0.41184-0.87332 0.0422-0.55078 0.34237-1.0321 0.90557-1.4439 0.5483-0.42426 1.1214-0.64755 1.7144-0.6674 0.46642-0.01239 0.82617 0.08436 1.0792 0.28532 0.27539 0.17863 0.4193 0.4714 0.42922 0.87332"/>
  <path d="m160.66 26.01v2.3818l0.84107-0.22329v-2.4612h0.39697v2.3818l0.60288-0.15879v1.2876l-0.60288 0.14142v1.826l0.60288-0.15878v1.3199l-0.60288 0.15878v2.3495h-0.39697v-2.2552l-0.84107 0.20592v2.4612h-0.39696v-2.3644l-0.62025 0.14141v-1.3025l0.62025-0.15878v-1.8087l-0.62025 0.15878v-1.2876l0.62025-0.15878v-2.4761h0.39696m0 3.667v1.8111l0.84107-0.22329v-1.8087l-0.84107 0.22081"/>
  <path d="m183.32 14.593h0.55575v10.48h-0.55575z"/>
  <path d="m183.9 25.216c-0.0422 0.58304-0.34487 1.0792-0.90558 1.4936-0.58304 0.41184-1.1909 0.6277-1.826 0.65002-0.40193-0.0099-0.72943-0.1166-0.98497-0.31757-0.26299-0.22329-0.40192-0.51357-0.41186-0.87332 0.0422-0.55078 0.34487-1.0321 0.90558-1.4439 0.55079-0.42426 1.1214-0.64755 1.7144-0.66739 0.46644-0.01239 0.82618 0.08436 1.0792 0.28531 0.2754 0.17863 0.4193 0.4714 0.42923 0.87332"/>
  <path d="m177.04 21.247v2.3818l0.84107-0.22329v-2.4612h0.39696v2.3818l0.6029-0.15878v1.2877l-0.6029 0.14142v1.826l0.6029-0.15878v1.3199l-0.6029 0.15878v2.3495h-0.39696v-2.2552l-0.84107 0.20593v2.4612h-0.39696v-2.3644l-0.62025 0.14141v-1.3025l0.62025-0.15879v-1.8087l-0.62025 0.15878v-1.2877l0.62025-0.15879v-2.4761h0.39696m0 3.667v1.8111l0.84107-0.22329v-1.8087l-0.84107 0.22081"/>
  <path d="m199.7 15.386h0.55575v11.274h-0.55575z"/>
  <path d="m200.27 26.804c-0.0422 0.58304-0.34487 1.0792-0.90558 1.4936-0.58304 0.41184-1.1909 0.6277-1.826 0.65002-0.40193-0.0099-0.72942-0.11661-0.98497-0.31757-0.26299-0.22329-0.40193-0.51357-0.41184-0.87332 0.0422-0.55078 0.34485-1.0321 0.90556-1.444 0.5508-0.42426 1.1214-0.64755 1.7144-0.66739 0.46642-0.01239 0.82618 0.08436 1.0792 0.28531 0.27539 0.17863 0.41929 0.4714 0.42922 0.87332"/>
  <path d="m193.13 25.916c0.3275-0.2878 0.70462-0.44659 1.1264-0.47636 0.26546 0 0.49867 0.1042 0.69963 0.31757 0.20097 0.20096 0.3002 0.44906 0.3002 0.7443-0.0298 0.38208-0.17863 0.71453-0.44409 1.0023l-0.82619 0.7443-1.238 1.2083v-8.5124h0.38207v4.972m0.69717 0.01487c-0.15879-0.0099-0.31013 0.05208-0.45899 0.19104-0.14886 0.14638-0.22825 0.27043-0.23818 0.3647v2.1436l0.74679-0.93782c0.2754-0.35974 0.42177-0.71949 0.4441-1.0792-0.0323-0.40192-0.196-0.63018-0.49372-0.68228"/>
  <path d="m212.41 11.417h0.55575v10.48h-0.55575z"/>
  <path d="m212.98 22.041c-0.0422 0.58304-0.34238 1.0792-0.90557 1.4936-0.58056 0.41184-1.1909 0.6277-1.826 0.65002-0.40191-0.0099-0.72941-0.1166-0.98248-0.31757-0.26547-0.22329-0.40192-0.51357-0.41433-0.87332 0.0422-0.55078 0.34487-1.0321 0.90557-1.444 0.55079-0.42426 1.1214-0.64754 1.7144-0.66739 0.46643-0.01239 0.82618 0.08436 1.0792 0.28531 0.2754 0.17863 0.4193 0.4714 0.42922 0.87332"/>
  <path d="m207.97 20.182v6.7657h-0.39697v-2.62l-1.826 0.45899v-6.7633h0.39697v2.62l1.826-0.46148m-1.826 1.6846v1.6176l1.4291-0.37959v-1.6052l-1.4291 0.3672"/>
  <path d="m228.79 14.593h0.55575v13.656h-0.55575z"/>
  <path d="m229.36 28.392c-0.0422 0.58304-0.34239 1.0792-0.90557 1.4936-0.58057 0.41184-1.1909 0.6277-1.826 0.65002-0.40193-0.0099-0.72941-0.11661-0.98248-0.31757-0.26547-0.22329-0.40193-0.51357-0.41433-0.87332 0.0422-0.55078 0.34486-1.0321 0.90557-1.4439 0.55079-0.42426 1.1214-0.64755 1.7144-0.6674 0.46643-0.01239 0.82617 0.08436 1.0792 0.28531 0.2754 0.17863 0.41929 0.4714 0.42922 0.87332"/>
  <path d="m224.34 26.534v6.7657h-0.39696v-2.62l-1.826 0.45898v-6.7633h0.39696v2.62l1.826-0.46148m-1.826 1.6846v1.6176l1.4291-0.3796v-1.6052l-1.4291 0.36719"/>
  <path d="m245.17 19.356h0.55574v10.48h-0.55574z"/>
  <path d="m240.71 30.273h6.1058v0.39696h-6.1058z"/>
  <path d="m245.74 29.98c-0.0422 0.58304-0.34238 1.0792-0.90558 1.4936-0.58055 0.41184-1.1909 0.6277-1.826 0.65002-0.40192-0.0099-0.72943-0.11661-0.98248-0.31757-0.26547-0.22329-0.40193-0.51357-0.41434-0.87332 0.0422-0.55078 0.34487-1.0321 0.90558-1.4439 0.55078-0.42426 1.1214-0.64755 1.7144-0.6674 0.46644-0.01239 0.82618 0.08436 1.0792 0.28532 0.27539 0.17863 0.41929 0.4714 0.42921 0.87332"/>
  <path d="m240.72 28.122v6.7657h-0.39696v-2.62l-1.826 0.45898v-6.7633h0.39696v2.62l1.826-0.46147m-1.826 1.6846v1.6176l1.4291-0.3796v-1.6052l-1.4291 0.36719"/>
  <path d="m261.54 17.768h0.55575v8.892h-0.55575z"/>
  <path d="m261.99 30.98h-3.8431v-0.50861h3.8431v0.50861"/>
  <path d="m262.11 26.804c-0.0422 0.58304-0.34238 1.0792-0.9031 1.4936-0.58303 0.41184-1.1909 0.6277-1.826 0.65002-0.40439-0.0099-0.73189-0.11661-0.98497-0.31757-0.26546-0.22329-0.40191-0.51357-0.41432-0.87332 0.0422-0.55078 0.34487-1.0321 0.90557-1.444 0.55079-0.42426 1.1214-0.64755 1.7144-0.66739 0.46642-0.01239 0.82618 0.08436 1.0817 0.28531 0.27292 0.17863 0.41681 0.4714 0.42674 0.87332"/>
  <path d="m257.1 24.946v6.7657h-0.39696v-2.62l-1.826 0.45898v-6.7633h0.39697v2.62l1.826-0.46148m-1.826 1.6846v1.6176l1.4291-0.37959v-1.6052l-1.4291 0.36719"/>
  <path d="m277.92 16.18h0.55575v10.48h-0.55575z"/>
  <path d="m278.36 30.98h-3.8431v-0.50861h3.8431v0.50861"/>
  <path d="m278.49 26.804c-0.0422 0.58304-0.34238 1.0792-0.9031 1.4936-0.58303 0.41184-1.1909 0.6277-1.826 0.65002-0.40441-0.0099-0.73189-0.11661-0.98496-0.31757-0.26547-0.22329-0.40193-0.51357-0.41433-0.87332 0.0422-0.55078 0.34485-1.0321 0.90557-1.444 0.55078-0.42426 1.1214-0.64755 1.7144-0.66739 0.46644-0.01239 0.82618 0.08436 1.0817 0.28531 0.27291 0.17863 0.41681 0.4714 0.42674 0.87332"/>
  <path d="m271.35 25.916c0.32998-0.2878 0.7046-0.44659 1.1289-0.47636 0.26299 0 0.49621 0.1042 0.69717 0.31757 0.20096 0.20096 0.30268 0.44906 0.30268 0.7443-0.0323 0.38208-0.18111 0.71453-0.4441 1.0023l-0.82618 0.7443-1.238 1.2083v-8.5124h0.3796v4.972m0.69965 0.01487c-0.15879-0.0099-0.31262 0.05208-0.46147 0.19104-0.14639 0.14638-0.22578 0.27043-0.23818 0.3647v2.1436l0.74679-0.93782c0.27538-0.35974 0.42425-0.71949 0.4441-1.0792-0.0298-0.40192-0.196-0.63018-0.49124-0.68228"/>
  <path d="m294.3 15.386h0.55575v9.6859h-0.55575z"/>
  <path d="m294.74 29.392h-3.8431v-0.50861h3.8431v0.50861"/>
  <path d="m294.87 25.216c-0.0422 0.58304-0.34238 1.0792-0.90308 1.4936-0.58305 0.41184-1.1909 0.6277-1.826 0.65002-0.4044-0.0099-0.73191-0.1166-0.98496-0.31757-0.26547-0.22329-0.40193-0.51357-0.41434-0.87332 0.0422-0.55078 0.34487-1.0321 0.90558-1.4439 0.55078-0.42426 1.1214-0.64755 1.7144-0.66739 0.46644-0.01239 0.82618 0.08436 1.0817 0.28531 0.27291 0.17863 0.41681 0.4714 0.42673 0.87332"/>
  <path d="m296.87 25.66c-0.0422 0.35975-0.24314 0.56568-0.60289 0.62026-0.37216-0.05456-0.57312-0.26051-0.60537-0.62026 0.0322-0.35974 0.23321-0.55575 0.60537-0.588 0.35975 0.03227 0.56071 0.22826 0.60289 0.588"/>
  <path d="m288.01 21.247v2.3818l0.84107-0.22329v-2.4612h0.39697v2.3818l0.60288-0.15878v1.2877l-0.60288 0.14142v1.826l0.60288-0.15878v1.3199l-0.60288 0.15878v2.3495h-0.39697v-2.2552l-0.84107 0.20593v2.4612h-0.39696v-2.3644l-0.62026 0.14141v-1.3025l0.62026-0.15879v-1.8087l-0.62026 0.15878v-1.2877l0.62026-0.15879v-2.4761h0.39696m0 3.667v1.8111l0.84107-0.22329v-1.8087l-0.84107 0.22081"/>
  <path d="m313.67 19.356h0.55576v10.48h-0.55576z"/>
  <path d="m309.23 30.273h6.1058v0.39696h-6.1058z"/>
  <path d="m314.12 34.155h-3.8431v-0.50861h3.8431v0.50861"/>
  <path d="m311.45 30.171c-0.57063 0.41185-0.86587 0.80385-0.8882 1.1735-9e-3 0.17119 0.0942 0.26547 0.31757 0.2878 0.22328 0.0099 0.49125-0.04961 0.80882-0.17616 0.31757-0.12653 0.63514-0.3002 0.95271-0.5235l0.84354-0.72942c0.22081-0.26547 0.33246-0.49869 0.33246-0.69965-0.0323-0.12653-0.12654-0.20096-0.28533-0.22329-0.31757-0.02979-0.68972 0.05951-1.1115 0.27043-0.41432 0.22329-0.73687 0.42922-0.97008 0.62025m2.3024-1.238c0.37215 0.30516 0.5359 0.70212 0.49372 1.1909-0.0545 0.56071-0.35974 1.0371-0.92045 1.4291-0.5632 0.38952-1.1438 0.59792-1.7466 0.61777-0.34982 0.03227-0.66739-0.03227-0.95272-0.19104-0.38207-0.30517-0.54582-0.70213-0.49372-1.1909 0.0546-0.57064 0.35478-1.047 0.90558-1.4291 0.55078-0.392 1.1338-0.59793 1.7466-0.61778 0.35975-0.03227 0.68229 0.03227 0.9676 0.19104"/>
  <path d="m309.23 28.122v6.7657h-0.39697v-2.62l-1.826 0.45898v-6.7633h0.39696v2.62l1.826-0.46147m-1.826 1.6846v1.6176l1.4291-0.3796v-1.6052l-1.4291 0.36719"/>
  <path d="m21.628 28.883v-1.5879l67.213 3.1757v1.5879l-67.213-3.1757"/>
  <path d="m38.005 27.273v-1.5903l50.836 2.4041v1.5878l-50.836-2.4016"/>
  <path d="m105.66 14.593v1.5953l16.377 1.5879v-1.5953l-16.377-1.5879"/>
  <path d="m138.42 11.417v1.5978l29.085 3.1757v-1.5978l-29.085-3.1757"/>
  <path d="m138.42 13.814v1.5978l3.9696 0.43418v-1.5978l-3.9696-0.43418"/>
  <path d="m183.88 14.593v1.5903l16.377 0.79393v-1.5903l-16.377-0.79393"/>
  <path d="m196.29 17.58v1.5903l3.9696 0.19104v-1.5903l-3.9696-0.19104"/>
  <path d="m212.97 11.417v1.6176l16.377 3.1757v-1.6176l-16.377-3.1757"/>
  <path d="m245.72 19.356v1.5953l16.377-1.5879v-1.5953l-16.377 1.5879"/>
  <path d="m278.48 16.18v1.5903l16.377-0.79393v-1.5903l-16.377 0.79393"/>
  <path d="m136.37 25.708c0.7964 1.7739 2.6745 3.2625 5.6394 4.4658 2.9648 1.0495 5.3218 1.1487 7.0709 0.29772-1.7491 0.74183-4.1061 0.5235-7.0709-0.65003-2.9648-1.0197-4.843-2.3892-5.6394-4.1135" stroke="#000" stroke-linejoin="bevel" stroke-width=".31757"/>
  <path d="m210.92 25.708c0.9676 2.2156 3.3916 4.1235 7.2694 5.7212 3.8803 1.4415 6.9171 1.6499 9.1078 0.63018-2.1908 0.9155-5.2275 0.588-9.1078-0.98248-3.8778-1.4092-6.3018-3.2005-7.2694-5.3689" stroke="#000" stroke-linejoin="bevel" stroke-width=".31757"/>
 </g>
</svg>
