<?xml version="1.0" encoding="UTF-8" standalone="no"?>
<!-- Created with Inkscape (http://www.inkscape.org/) -->

<svg
   xmlns:dc="http://purl.org/dc/elements/1.1/"
   xmlns:cc="http://creativecommons.org/ns#"
   xmlns:rdf="http://www.w3.org/1999/02/22-rdf-syntax-ns#"
   xmlns:svg="http://www.w3.org/2000/svg"
   xmlns="http://www.w3.org/2000/svg"
   xmlns:sodipodi="http://sodipodi.sourceforge.net/DTD/sodipodi-0.dtd"
   xmlns:inkscape="http://www.inkscape.org/namespaces/inkscape"
   width="531.12225"
   height="392.125"
   id="svg2"
   version="1.1"
   inkscape:version="0.48.5 r10040"
   sodipodi:docname="20140914101202!Basic_constituent_structure_analysis_English_sentence.svg">
  <defs
     id="defs4" />
  <sodipodi:namedview
     id="base"
     pagecolor="#ffffff"
     bordercolor="#666666"
     borderopacity="1.0"
     inkscape:pageopacity="0.0"
     inkscape:pageshadow="2"
     inkscape:zoom="1.0079365"
     inkscape:cx="371.35976"
     inkscape:cy="97.630448"
     inkscape:document-units="px"
     inkscape:current-layer="layer1"
     showgrid="false"
     inkscape:window-width="1058"
     inkscape:window-height="834"
     inkscape:window-x="811"
     inkscape:window-y="155"
     inkscape:window-maximized="0"
     fit-margin-top="0"
     fit-margin-left="0"
     fit-margin-right="0"
     fit-margin-bottom="0" />
  <metadata
     id="metadata7">
    <rdf:RDF>
      <cc:Work
         rdf:about="">
        <dc:format>image/svg+xml</dc:format>
        <dc:type
           rdf:resource="http://purl.org/dc/dcmitype/StillImage" />
        <dc:title />
      </cc:Work>
    </rdf:RDF>
  </metadata>
  <g
     inkscape:label="Layer 1"
     inkscape:groupmode="layer"
     id="layer1"
     transform="translate(-16.065427,-11.717)">
    <path
       inkscape:connector-curvature="0"
       d="m 24.299567,12.242 v 0.5 c 2.1838,0.126 2.4581,0.404 2.4581,2.275 v 11.1 c 0,1.85 -0.3331,2.174 -2.4581,2.249 v 0.475 h 8.6838 c 2.0279,0 3.8743,-0.525 4.836,-1.374 0.9358,-0.8 1.4383,-1.925 1.4383,-3.125 0,-1.1 -0.4613,-2.1 -1.2562,-2.825 -0.7798,-0.675 -1.4819,-0.975 -3.1719,-1.375 1.3518,-0.325 1.898,-0.575 2.522,-1.1 0.6499,-0.55 1.1061,-1.475 1.1061,-2.5 0,-2.799 -2.3361,-4.299 -6.8781,-4.299 l -7.28,-10e-4 z m 5.1581,8.4 c 2.5167,0 3.7098,0.137 4.6437,0.55 1.4819,0.6 2.1563,1.6 2.1563,3.175 0,1.35 -0.5365,2.325 -1.5584,2.9 -0.8318,0.45 -1.898,0.674 -3.6138,0.674 -1.2739,0 -1.6278,-0.23 -1.6278,-1.049 v -6.25 z m 0,-1 v -5.675 c 0,-0.525 0.1788,-0.825 0.5616,-0.825 h 1.1438 c 2.99,0 4.5946,1.226 4.5946,3.5 0,1.95 -1.3854,3 -3.8404,3 z"
       id="path2991" />
    <path
       inkscape:connector-curvature="0"
       d="m 52.649667,27.192 c -0.4419,0.35 -0.7539,0.425 -1.1438,0.425 -0.5979,0 -0.7482,-0.338 -0.7482,-1.4 v -4.875 c 0,-1.3 -0.1375,-2.025 -0.5514,-2.625 -0.5717,-0.899 -1.6899,-1.424 -3.2238,-1.424 -2.4439,0 -4.324,1.247 -4.324,2.85 0,0.574 0.4997,1.074 1.074,1.074 0.6237,0 1.2258,-0.499 1.2258,-1.049 0,-0.1 -0.054,-0.225 -0.1079,-0.4 -0.0518,-0.225 -0.022,-0.425 -0.022,-0.6 0,-0.675 0.8069,-1.275 1.8159,-1.275 1.2739,0 2.0139,0.742 2.0139,2.125 v 1.525 c -4.0307,1.549 -4.4758,1.749 -5.6018,2.7 -0.5717,0.499 -0.8979,1.349 -0.8979,2.174 0,1.575 1.1279,2.675 2.6919,2.675 1.1438,0 2.2099,-0.525 3.7959,-1.825 0.1299,1.3 0.5979,1.825 1.6638,1.825 0.8838,0 1.4299,-0.3 2.3398,-1.25 l -2e-4,-0.65 z m -3.992,-1.425 c 0,0.775 -0.1372,1 -0.7141,1.3 -0.6237,0.35 -1.3518,0.525 -1.8979,0.525 -0.9099,0 -1.588,-0.828 -1.588,-1.875 v -0.1 c 0,-1.475 1.0631,-2.375 4.2,-3.475 z"
       id="path2993" />
    <path
       inkscape:connector-curvature="0"
       d="m 60.899667,20.992 -0.1038,-3.45 h -0.2382 l -0.0513,0.1 c -0.2339,0.175 -0.2598,0.15 -0.3638,0.15 -0.1557,0 -0.4158,-0.036 -0.7019,-0.125 -0.5718,-0.2 -1.1438,-0.35 -1.8198,-0.35 -2.054,0 -3.5618,1.296 -3.5618,3.125 0,1.4 0.8389,2.4 3.0679,3.6 l 1.5078,0.825 c 0.9099,0.5 1.324,1.1 1.324,1.875 0,1.1 -0.8208,1.749 -2.1299,1.749 -0.8838,0 -1.6899,-0.305 -2.1838,-0.825 -0.5459,-0.624 -0.7798,-1.199 -1.118,-2.624 h -0.4419 v 3.9 h 0.3638 c 0.1819,-0.25 0.2859,-0.3 0.5979,-0.3 0.2339,0 0.5979,0.05 1.1958,0.2 0.7278,0.15 1.4299,0.25 1.898,0.25 2.0019,0 3.6179,-1.45 3.6179,-3.2 0,-1.25 -0.6099,-2.075 -2.136,-2.975 l -2.8079,-1.6 c -0.7278,-0.4 -1.1557,-1.025 -1.1557,-1.7 0,-1 0.8208,-1.7 2.0398,-1.7 1.4819,0 2.2619,0.85 2.8598,3.075 z"
       id="path2995" />
    <path
       inkscape:connector-curvature="0"
       d="m 67.407467,17.342 -4.0298,1.375 v 0.375 l 0.2078,-0.025 c 0.3118,-0.05 0.6499,-0.075 0.8838,-0.075 0.6238,0 0.8884,0.4 0.8884,1.5 v 5.799 c 0,1.8 -0.2644,2.075 -2.0845,2.175 v 0.375 h 6.1619 v -0.375 c -1.7158,-0.124 -1.8774,-0.374 -1.8774,-2.175 v -8.874 l -0.1502,-0.075 z m -1.2219,-5.625 c -0.7019,0 -1.2998,0.598 -1.2998,1.325 0,0.7 0.5719,1.275 1.2998,1.275 0.7539,0 1.3518,-0.55 1.3518,-1.275 0,-0.7 -0.5979,-1.325 -1.3518,-1.325 z"
       id="path2997" />
    <path
       inkscape:connector-curvature="0"
       d="m 80.405567,24.942 c -1.2479,1.75 -2.1839,2.35 -3.6658,2.35 -2.366,0 -3.9821,-2 -3.9821,-4.875 0,-2.575 1.411,-4.425 3.4879,-4.425 0.9358,0 1.274,0.292 1.534,1.275 l 0.1557,0.55 c 0.2078,0.7 0.6758,1.15 1.2224,1.15 0.6753,0 1.2474,-0.475 1.2474,-1.05 0,-1.4 -1.8199,-2.625 -4.0039,-2.625 -1.274,0 -2.5999,0.518 -3.6658,1.45 -1.2998,1.1 -1.9777,2.8 -1.9777,4.775 0,3.25 2.0329,5.575 4.8898,5.575 1.1699,0 2.2102,-0.4 3.146,-1.175 0.7019,-0.599 1.1958,-1.274 1.9758,-2.749 z"
       id="path2999" />
    <path
       inkscape:connector-curvature="0"
       d="m 98.505568,24.942 c -1.2479,1.75 -2.1838,2.35 -3.6657,2.35 -2.366001,0 -3.982201,-2 -3.982201,-4.875 0,-2.575 1.4111,-4.425 3.488001,-4.425 0.9358,0 1.274,0.292 1.534,1.275 l 0.1557,0.55 c 0.2078,0.7 0.6758,1.15 1.2223,1.15 0.6754,0 1.2475,-0.475 1.2475,-1.05 0,-1.4 -1.8199,-2.625 -4.0039,-2.625 -1.274,0 -2.599901,0.518 -3.665801,1.45 -1.2998,1.1 -1.9778,2.8 -1.9778,4.775 0,3.25 2.033,5.575 4.889901,5.575 1.1699,0 2.2101,-0.4 3.146,-1.175 0.7019,-0.599 1.1958,-1.274 1.9758,-2.749 z"
       id="path3001" />
    <path
       inkscape:connector-curvature="0"
       d="m 106.15767,17.292 c -3.3801,0 -5.7,2.421 -5.7,5.9 0,3.375 2.3978,5.9 5.6478,5.9 3.2759,0 5.7522,-2.65 5.7522,-6.1 0,-3.275 -2.384,-5.7 -5.7,-5.7 z m -0.3381,0.7 c 2.1839,0 3.7381,2.421 3.7381,5.875 0,2.825 -1.1783,4.525 -3.1402,4.525 -1.0139,0 -1.9758,-0.6 -2.522,-1.6 -0.7277,-1.3 -1.1378,-3.05 -1.1378,-4.825 0,-2.375 1.2199,-3.975 3.0617,-3.975 z"
       id="path3003" />
    <path
       inkscape:connector-curvature="0"
       d="m 113.07367,18.892 c 0.156,-0.075 0.416,-0.1 0.702,-0.1 0.728,0 0.982,0.375 0.982,1.6 v 6.2 c 0,1.425 -0.29,1.775 -1.632,1.875 v 0.375 h 5.512 v -0.375 c -1.326,-0.1 -1.68,-0.4 -1.68,-1.3 v -7.025 c 1.231,-1.125 1.796,-1.45 2.642,-1.45 1.274,0 1.858,0.783 1.858,2.45 v 5.225 c 0,1.575 -0.33,2 -1.598,2.1 v 0.375 h 5.408 v -0.375 c -1.274,-0.125 -1.61,-0.425 -1.61,-1.65 v -5.725 c 0,-2.35 -1.135,-3.8 -3.044,-3.8 -1.185,0 -1.983,0.435 -3.734,2.075 v -1.975 l -0.218,-0.05 c -1.274,0.45 -2.158,0.725 -3.588,1.125 z"
       id="path3005" />
    <path
       inkscape:connector-curvature="0"
       d="m 133.79967,20.992 -0.104,-3.45 h -0.238 l -0.051,0.1 c -0.234,0.175 -0.26,0.15 -0.364,0.15 -0.156,0 -0.416,-0.036 -0.702,-0.125 -0.572,-0.2 -1.144,-0.35 -1.82,-0.35 -2.054,0 -3.562,1.296 -3.562,3.125 0,1.4 0.839,2.4 3.068,3.6 l 1.508,0.825 c 0.91,0.5 1.324,1.1 1.324,1.875 0,1.1 -0.821,1.749 -2.13,1.749 -0.884,0 -1.69,-0.305 -2.184,-0.825 -0.546,-0.624 -0.78,-1.199 -1.118,-2.624 h -0.442 v 3.9 h 0.364 c 0.182,-0.25 0.286,-0.3 0.598,-0.3 0.234,0 0.598,0.05 1.196,0.2 0.728,0.15 1.43,0.25 1.898,0.25 2.002,0 3.618,-1.45 3.618,-3.2 0,-1.25 -0.61,-2.075 -2.136,-2.975 l -2.808,-1.6 c -0.728,-0.4 -1.156,-1.025 -1.156,-1.7 0,-1 0.821,-1.7 2.04,-1.7 1.482,0 2.262,0.85 2.86,3.075 z"
       id="path3007" />
    <path
       inkscape:connector-curvature="0"
       d="m 142.38767,17.542 h -2.63 v -2.85 c 0,-0.249 -0.025,-0.325 -0.178,-0.325 -0.182,0.225 -0.338,0.45 -0.52,0.7 -0.988,1.375 -2.106,2.575 -2.522,2.675 -0.286,0.175 -0.442,0.35 -0.442,0.475 0,0.054 0.026,0.089 0.104,0.125 h 1.358 v 7.575 c 0,2.1 0.787,3.175 2.334,3.175 1.274,0 2.262,-0.6 3.12,-1.9 l -0.338,-0.275 c -0.546,0.624 -0.988,0.874 -1.56,0.874 -0.962,0 -1.356,-0.674 -1.356,-2.249 v -7.2 h 2.63 z"
       id="path3009" />
    <path
       inkscape:connector-curvature="0"
       d="m 147.60767,17.342 -4.03,1.375 v 0.375 l 0.208,-0.025 c 0.312,-0.05 0.65,-0.075 0.884,-0.075 0.623,0 0.887,0.4 0.887,1.5 v 5.799 c 0,1.8 -0.263,2.075 -2.084,2.175 v 0.375 h 6.162 v -0.375 c -1.715,-0.124 -1.878,-0.374 -1.878,-2.175 v -8.874 l -0.149,-0.075 z m -1.222,-5.625 c -0.702,0 -1.3,0.598 -1.3,1.325 0,0.7 0.572,1.275 1.3,1.275 0.754,0 1.352,-0.55 1.352,-1.275 0,-0.7 -0.598,-1.325 -1.352,-1.325 z"
       id="path3011" />
    <path
       inkscape:connector-curvature="0"
       d="m 156.88767,17.542 h -2.63 v -2.85 c 0,-0.249 -0.025,-0.325 -0.178,-0.325 -0.182,0.225 -0.338,0.45 -0.52,0.7 -0.988,1.375 -2.106,2.575 -2.522,2.675 -0.286,0.175 -0.442,0.35 -0.442,0.475 0,0.054 0.026,0.089 0.104,0.125 h 1.358 v 7.575 c 0,2.1 0.787,3.175 2.334,3.175 1.274,0 2.262,-0.6 3.12,-1.9 l -0.338,-0.275 c -0.546,0.624 -0.988,0.874 -1.56,0.874 -0.962,0 -1.356,-0.674 -1.356,-2.249 v -7.2 h 2.63 z"
       id="path3013" />
    <path
       inkscape:connector-curvature="0"
       d="m 169.91167,27.592 h -0.13 c -1.196,0 -1.524,-0.275 -1.524,-1.425 v -8.624 h -4.066 v 0.4 c 1.612,0.078 1.866,0.339 1.866,1.649 v 5.875 c 0,0.7 -0.115,1.05 -0.436,1.325 -0.701,0.55 -1.507,0.8 -2.287,0.8 -1.014,0 -1.876,-0.828 -1.876,-1.85 v -8.2 h -3.766 v 0.4 c 1.248,0.075 1.566,0.45 1.566,1.6 v 6.3 c 0,1.975 1.266,3.25 3.192,3.25 0.961,0 1.975,-0.4 2.678,-1.075 l 1.059,-1.075 v 2.075 l 0.162,0.049 c 1.3,-0.499 2.236,-0.775 3.562,-1.124 z"
       id="path3015" />
    <path
       inkscape:connector-curvature="0"
       d="m 181.06567,24.742 c -1.248,1.9 -2.366,2.65 -4.03,2.65 -1.482,0 -2.6,-0.733 -3.354,-2.175 -0.468,-0.943 -0.65,-1.762 -0.702,-3.275 h 8.008 c -0.208,-1.638 -0.468,-2.369 -1.118,-3.174 -0.78,-0.9 -1.976,-1.475 -3.328,-1.475 -1.299,0 -2.522,0.466 -3.509,1.35 -1.222,1.024 -1.924,2.799 -1.924,4.849 0,3.45 1.872,5.6 4.862,5.6 2.47,0 4.419,-1.475 5.512,-4.175 l -0.417,-0.175 z m -8.034,-3.6 c 0.286,-1.967 1.17,-2.95 2.756,-2.95 1.586,0 2.21,0.718 2.548,2.95 z"
       id="path3017" />
    <path
       inkscape:connector-curvature="0"
       d="m 182.47367,18.892 c 0.156,-0.075 0.416,-0.1 0.702,-0.1 0.728,0 0.982,0.375 0.982,1.6 v 6.2 c 0,1.425 -0.29,1.775 -1.632,1.875 v 0.375 h 5.512 v -0.375 c -1.326,-0.1 -1.68,-0.4 -1.68,-1.3 v -7.025 c 1.231,-1.125 1.796,-1.45 2.642,-1.45 1.274,0 1.858,0.783 1.858,2.45 v 5.225 c 0,1.575 -0.33,2 -1.598,2.1 v 0.375 h 5.408 v -0.375 c -1.274,-0.125 -1.61,-0.425 -1.61,-1.65 v -5.725 c 0,-2.35 -1.135,-3.8 -3.044,-3.8 -1.185,0 -1.983,0.435 -3.734,2.075 v -1.975 l -0.218,-0.05 c -1.274,0.45 -2.158,0.725 -3.588,1.125 z"
       id="path3019" />
    <path
       inkscape:connector-curvature="0"
       d="m 201.68767,17.542 h -2.63 v -2.85 c 0,-0.249 -0.025,-0.325 -0.178,-0.325 -0.182,0.225 -0.338,0.45 -0.52,0.7 -0.988,1.375 -2.106,2.575 -2.522,2.675 -0.286,0.175 -0.442,0.35 -0.442,0.475 0,0.054 0.026,0.089 0.104,0.125 h 1.358 v 7.575 c 0,2.1 0.787,3.175 2.334,3.175 1.274,0 2.262,-0.6 3.12,-1.9 l -0.338,-0.275 c -0.546,0.624 -0.988,0.874 -1.56,0.874 -0.962,0 -1.356,-0.674 -1.356,-2.249 v -7.2 h 2.63 z"
       id="path3021" />
    <path
       inkscape:connector-curvature="0"
       d="m 216.89967,20.992 -0.104,-3.45 h -0.238 l -0.052,0.1 c -0.233,0.175 -0.259,0.15 -0.363,0.15 -0.156,0 -0.416,-0.036 -0.702,-0.125 -0.572,-0.2 -1.144,-0.35 -1.82,-0.35 -2.054,0 -3.562,1.296 -3.562,3.125 0,1.4 0.839,2.4 3.068,3.6 l 1.508,0.825 c 0.91,0.5 1.324,1.1 1.324,1.875 0,1.1 -0.821,1.749 -2.13,1.749 -0.884,0 -1.69,-0.305 -2.184,-0.825 -0.546,-0.624 -0.78,-1.199 -1.118,-2.624 h -0.442 v 3.9 h 0.364 c 0.182,-0.25 0.286,-0.3 0.598,-0.3 0.234,0 0.598,0.05 1.196,0.2 0.728,0.15 1.43,0.25 1.898,0.25 2.002,0 3.618,-1.45 3.618,-3.2 0,-1.25 -0.61,-2.075 -2.136,-2.975 l -2.808,-1.6 c -0.728,-0.4 -1.156,-1.025 -1.156,-1.7 0,-1 0.821,-1.7 2.04,-1.7 1.482,0 2.262,0.85 2.86,3.075 z"
       id="path3023" />
    <path
       inkscape:connector-curvature="0"
       d="m 225.48767,17.542 h -2.63 v -2.85 c 0,-0.249 -0.025,-0.325 -0.178,-0.325 -0.182,0.225 -0.338,0.45 -0.52,0.7 -0.988,1.375 -2.106,2.575 -2.522,2.675 -0.286,0.175 -0.442,0.35 -0.442,0.475 0,0.054 0.026,0.089 0.104,0.125 h 1.358 v 7.575 c 0,2.1 0.787,3.175 2.334,3.175 1.274,0 2.262,-0.6 3.12,-1.9 l -0.338,-0.275 c -0.546,0.624 -0.988,0.874 -1.56,0.874 -0.962,0 -1.356,-0.674 -1.356,-2.249 v -7.2 h 2.63 z"
       id="path3025" />
    <path
       inkscape:connector-curvature="0"
       d="m 226.23967,19.092 c 0.364,-0.075 0.598,-0.1 0.91,-0.1 0.65,0 0.908,0.4 0.908,1.5 v 6.25 c 0,1.25 -0.184,1.425 -1.87,1.725 v 0.375 h 6.24 v -0.4 c -1.768,-0.074 -2.17,-0.444 -2.17,-1.85 v -5.625 c 0,-0.8 1.093,-2.05 1.78,-2.05 0.155,0 0.39,0.125 0.675,0.375 0.416,0.35 0.702,0.5 1.04,0.5 0.624,0 1.014,-0.425 1.014,-1.125 0,-0.825 -0.546,-1.375 -1.43,-1.375 -1.078,0 -1.822,0.587 -3.08,2.4 v -2.3 l -0.17,-0.05 c -1.377,0.55 -2.313,0.875 -3.847,1.35 z"
       id="path3027" />
    <path
       inkscape:connector-curvature="0"
       d="m 247.21167,27.592 h -0.13 c -1.196,0 -1.524,-0.275 -1.524,-1.425 v -8.624 h -4.066 v 0.4 c 1.612,0.078 1.866,0.339 1.866,1.649 v 5.875 c 0,0.7 -0.115,1.05 -0.436,1.325 -0.702,0.55 -1.508,0.8 -2.288,0.8 -1.014,0 -1.876,-0.828 -1.876,-1.85 v -8.2 h -3.765 v 0.4 c 1.247,0.075 1.565,0.45 1.565,1.6 v 6.3 c 0,1.975 1.266,3.25 3.192,3.25 0.962,0 1.976,-0.4 2.678,-1.075 l 1.06,-1.075 v 2.075 l 0.162,0.049 c 1.3,-0.499 2.236,-0.775 3.562,-1.124 z"
       id="path3029" />
    <path
       inkscape:connector-curvature="0"
       d="m 258.10567,24.942 c -1.248,1.75 -2.184,2.35 -3.666,2.35 -2.366,0 -3.982,-2 -3.982,-4.875 0,-2.575 1.411,-4.425 3.488,-4.425 0.936,0 1.274,0.292 1.534,1.275 l 0.156,0.55 c 0.207,0.7 0.675,1.15 1.222,1.15 0.675,0 1.247,-0.475 1.247,-1.05 0,-1.4 -1.82,-2.625 -4.004,-2.625 -1.274,0 -2.599,0.518 -3.665,1.45 -1.3,1.1 -1.978,2.8 -1.978,4.775 0,3.25 2.033,5.575 4.89,5.575 1.17,0 2.21,-0.4 3.146,-1.175 0.702,-0.599 1.196,-1.274 1.976,-2.749 z"
       id="path3031" />
    <path
       inkscape:connector-curvature="0"
       d="m 265.88767,17.542 h -2.63 v -2.85 c 0,-0.249 -0.025,-0.325 -0.178,-0.325 -0.182,0.225 -0.338,0.45 -0.52,0.7 -0.988,1.375 -2.106,2.575 -2.522,2.675 -0.286,0.175 -0.442,0.35 -0.442,0.475 0,0.054 0.026,0.089 0.104,0.125 h 1.358 v 7.575 c 0,2.1 0.787,3.175 2.334,3.175 1.274,0 2.262,-0.6 3.12,-1.9 l -0.338,-0.275 c -0.546,0.624 -0.988,0.874 -1.56,0.874 -0.962,0 -1.356,-0.674 -1.356,-2.249 v -7.2 h 2.63 z"
       id="path3033" />
    <path
       inkscape:connector-curvature="0"
       d="m 279.01167,27.592 h -0.13 c -1.196,0 -1.524,-0.275 -1.524,-1.425 v -8.624 h -4.066 v 0.4 c 1.612,0.078 1.866,0.339 1.866,1.649 v 5.875 c 0,0.7 -0.115,1.05 -0.436,1.325 -0.702,0.55 -1.508,0.8 -2.288,0.8 -1.013,0 -1.876,-0.828 -1.876,-1.85 v -8.2 h -3.765 v 0.4 c 1.247,0.075 1.565,0.45 1.565,1.6 v 6.3 c 0,1.975 1.266,3.25 3.192,3.25 0.962,0 1.976,-0.4 2.678,-1.075 l 1.06,-1.075 v 2.075 l 0.162,0.049 c 1.3,-0.499 2.236,-0.775 3.562,-1.124 z"
       id="path3035" />
    <path
       inkscape:connector-curvature="0"
       d="m 279.73967,19.092 c 0.364,-0.075 0.598,-0.1 0.91,-0.1 0.65,0 0.908,0.4 0.908,1.5 v 6.25 c 0,1.25 -0.184,1.425 -1.87,1.725 v 0.375 h 6.24 v -0.4 c -1.768,-0.074 -2.17,-0.444 -2.17,-1.85 v -5.625 c 0,-0.8 1.093,-2.05 1.78,-2.05 0.155,0 0.39,0.125 0.675,0.375 0.416,0.35 0.702,0.5 1.04,0.5 0.624,0 1.014,-0.425 1.014,-1.125 0,-0.825 -0.546,-1.375 -1.43,-1.375 -1.078,0 -1.822,0.587 -3.08,2.4 v -2.3 l -0.17,-0.05 c -1.377,0.55 -2.313,0.875 -3.847,1.35 z"
       id="path3037" />
    <path
       inkscape:connector-curvature="0"
       d="m 298.76567,24.742 c -1.248,1.9 -2.366,2.65 -4.03,2.65 -1.482,0 -2.6,-0.733 -3.354,-2.175 -0.467,-0.943 -0.649,-1.762 -0.701,-3.275 h 8.007 c -0.207,-1.638 -0.467,-2.369 -1.118,-3.174 -0.779,-0.9 -1.975,-1.475 -3.327,-1.475 -1.3,0 -2.522,0.466 -3.51,1.35 -1.222,1.024 -1.924,2.799 -1.924,4.849 0,3.45 1.872,5.6 4.862,5.6 2.47,0 4.42,-1.475 5.512,-4.175 l -0.417,-0.175 z m -8.034,-3.6 c 0.286,-1.967 1.17,-2.95 2.756,-2.95 1.586,0 2.21,0.718 2.547,2.95 z"
       id="path3039" />
    <path
       inkscape:connector-curvature="0"
       d="m 317.74967,27.192 c -0.442,0.35 -0.754,0.425 -1.144,0.425 -0.598,0 -0.748,-0.338 -0.748,-1.4 v -4.875 c 0,-1.3 -0.138,-2.025 -0.552,-2.625 -0.571,-0.899 -1.689,-1.424 -3.223,-1.424 -2.444,0 -4.324,1.247 -4.324,2.85 0,0.574 0.499,1.074 1.074,1.074 0.623,0 1.225,-0.499 1.225,-1.049 0,-0.1 -0.054,-0.225 -0.107,-0.4 -0.052,-0.225 -0.022,-0.425 -0.022,-0.6 0,-0.675 0.806,-1.275 1.815,-1.275 1.274,0 2.014,0.742 2.014,2.125 v 1.525 c -4.03,1.549 -4.475,1.749 -5.601,2.7 -0.572,0.499 -0.898,1.349 -0.898,2.174 0,1.575 1.128,2.675 2.692,2.675 1.143,0 2.209,-0.525 3.795,-1.825 0.13,1.3 0.598,1.825 1.664,1.825 0.884,0 1.43,-0.3 2.34,-1.25 v -0.65 z m -3.992,-1.425 c 0,0.775 -0.137,1 -0.714,1.3 -0.624,0.35 -1.352,0.525 -1.898,0.525 -0.91,0 -1.588,-0.828 -1.588,-1.875 v -0.1 c 0,-1.475 1.063,-2.375 4.2,-3.475 z"
       id="path3041" />
    <path
       inkscape:connector-curvature="0"
       d="m 318.17367,18.892 c 0.156,-0.075 0.416,-0.1 0.702,-0.1 0.728,0 0.982,0.375 0.982,1.6 v 6.2 c 0,1.425 -0.29,1.775 -1.632,1.875 v 0.375 h 5.512 v -0.375 c -1.326,-0.1 -1.68,-0.4 -1.68,-1.3 v -7.025 c 1.231,-1.125 1.796,-1.45 2.642,-1.45 1.274,0 1.858,0.783 1.858,2.45 v 5.225 c 0,1.575 -0.33,2 -1.598,2.1 v 0.375 h 5.408 v -0.375 c -1.274,-0.125 -1.61,-0.425 -1.61,-1.65 v -5.725 c 0,-2.35 -1.135,-3.8 -3.044,-3.8 -1.185,0 -1.983,0.435 -3.734,2.075 v -1.975 l -0.218,-0.05 c -1.274,0.45 -2.158,0.725 -3.588,1.125 z"
       id="path3043" />
    <path
       inkscape:connector-curvature="0"
       d="m 342.24967,27.192 c -0.442,0.35 -0.754,0.425 -1.144,0.425 -0.598,0 -0.748,-0.338 -0.748,-1.4 v -4.875 c 0,-1.3 -0.138,-2.025 -0.552,-2.625 -0.571,-0.899 -1.689,-1.424 -3.223,-1.424 -2.444,0 -4.324,1.247 -4.324,2.85 0,0.574 0.499,1.074 1.074,1.074 0.623,0 1.225,-0.499 1.225,-1.049 0,-0.1 -0.054,-0.225 -0.107,-0.4 -0.052,-0.225 -0.022,-0.425 -0.022,-0.6 0,-0.675 0.806,-1.275 1.815,-1.275 1.274,0 2.014,0.742 2.014,2.125 v 1.525 c -4.03,1.549 -4.475,1.749 -5.601,2.7 -0.572,0.499 -0.898,1.349 -0.898,2.174 0,1.575 1.128,2.675 2.692,2.675 1.143,0 2.209,-0.525 3.795,-1.825 0.13,1.3 0.598,1.825 1.664,1.825 0.884,0 1.43,-0.3 2.34,-1.25 v -0.65 z m -3.992,-1.425 c 0,0.775 -0.137,1 -0.714,1.3 -0.624,0.35 -1.352,0.525 -1.898,0.525 -0.91,0 -1.588,-0.828 -1.588,-1.875 v -0.1 c 0,-1.475 1.063,-2.375 4.2,-3.475 z"
       id="path3045" />
    <path
       inkscape:connector-curvature="0"
       d="m 342.75167,13.267 h 0.156 c 0.285,-0.025 0.597,-0.05 0.805,-0.05 0.832,0 1.044,0.35 1.044,1.525 v 11.925 c 0,1.35 -0.355,1.675 -1.953,1.8 v 0.375 h 6.136 v -0.4 c -1.638,-0.099 -1.982,-0.345 -1.982,-1.7 V 11.817 l -0.072,-0.05 c -1.352,0.425 -2.34,0.675 -4.134,1.1 z"
       id="path3047" />
    <path
       inkscape:connector-curvature="0"
       d="m 361.90767,17.542 h -3.51 v 0.4 c 0.832,0 1.248,0.234 1.248,0.65 0,0.1 -0.026,0.25 -0.104,0.425 l -2.522,6.9 -2.99,-6.325 c -0.156,-0.35 -0.26,-0.675 -0.26,-0.95 0,-0.45 0.39,-0.625 1.508,-0.675 v -0.425 h -5.356 v 0.4 c 0.676,0.1 1.118,0.375 1.326,0.8 l 2.964,6.15 0.078,0.2 0.39,0.75 c 0.728,1.249 1.144,2.149 1.144,2.524 0,0.375 -0.598,1.95 -1.04,2.7 -0.364,0.65 -0.936,1.125 -1.3,1.125 -0.156,0 -0.39,-0.05 -0.65,-0.175 -0.494,-0.174 -0.936,-0.275 -1.378,-0.275 -0.598,0 -1.118,0.5 -1.118,1.1 0,0.825 0.832,1.5 1.924,1.5 1.742,0 2.99,-1.414 4.394,-5.05 l 4.004,-10.2 c 0.338,-0.8 0.624,-1.05 1.248,-1.124 z"
       id="path3049" />
    <path
       inkscape:connector-curvature="0"
       d="m 370.69967,20.992 -0.104,-3.45 h -0.238 l -0.052,0.1 c -0.233,0.175 -0.259,0.15 -0.363,0.15 -0.156,0 -0.416,-0.036 -0.702,-0.125 -0.572,-0.2 -1.144,-0.35 -1.82,-0.35 -2.054,0 -3.562,1.296 -3.562,3.125 0,1.4 0.839,2.4 3.068,3.6 l 1.508,0.825 c 0.91,0.5 1.324,1.1 1.324,1.875 0,1.1 -0.821,1.749 -2.13,1.749 -0.884,0 -1.69,-0.305 -2.184,-0.825 -0.546,-0.624 -0.78,-1.199 -1.118,-2.624 h -0.442 v 3.9 h 0.364 c 0.182,-0.25 0.286,-0.3 0.598,-0.3 0.234,0 0.598,0.05 1.196,0.2 0.728,0.15 1.43,0.25 1.898,0.25 2.002,0 3.618,-1.45 3.618,-3.2 0,-1.25 -0.61,-2.075 -2.136,-2.975 l -2.808,-1.6 c -0.728,-0.4 -1.156,-1.025 -1.156,-1.7 0,-1 0.821,-1.7 2.04,-1.7 1.482,0 2.262,0.85 2.86,3.075 z"
       id="path3051" />
    <path
       inkscape:connector-curvature="0"
       d="m 377.20767,17.342 -4.03,1.375 v 0.375 l 0.208,-0.025 c 0.312,-0.05 0.65,-0.075 0.884,-0.075 0.623,0 0.888,0.4 0.888,1.5 v 5.799 c 0,1.8 -0.264,2.075 -2.084,2.175 v 0.375 h 6.161 v -0.375 c -1.715,-0.124 -1.877,-0.374 -1.877,-2.175 v -8.874 l -0.15,-0.075 z m -1.222,-5.625 c -0.702,0 -1.3,0.598 -1.3,1.325 0,0.7 0.572,1.275 1.3,1.275 0.754,0 1.352,-0.55 1.352,-1.275 0,-0.7 -0.598,-1.325 -1.352,-1.325 z"
       id="path3053" />
    <path
       inkscape:connector-curvature="0"
       d="m 387.99967,20.992 -0.104,-3.45 h -0.238 l -0.051,0.1 c -0.234,0.175 -0.26,0.15 -0.364,0.15 -0.156,0 -0.416,-0.036 -0.702,-0.125 -0.572,-0.2 -1.144,-0.35 -1.82,-0.35 -2.054,0 -3.562,1.296 -3.562,3.125 0,1.4 0.839,2.4 3.068,3.6 l 1.508,0.825 c 0.91,0.5 1.324,1.1 1.324,1.875 0,1.1 -0.821,1.749 -2.13,1.749 -0.884,0 -1.69,-0.305 -2.184,-0.825 -0.546,-0.624 -0.78,-1.199 -1.118,-2.624 h -0.442 v 3.9 h 0.364 c 0.182,-0.25 0.286,-0.3 0.598,-0.3 0.234,0 0.598,0.05 1.196,0.2 0.728,0.15 1.43,0.25 1.898,0.25 2.002,0 3.618,-1.45 3.618,-3.2 0,-1.25 -0.61,-2.075 -2.136,-2.975 l -2.808,-1.6 c -0.728,-0.4 -1.156,-1.025 -1.156,-1.7 0,-1 0.821,-1.7 2.04,-1.7 1.482,0 2.262,0.85 2.86,3.075 z"
       id="path3055" />
    <path
       inkscape:connector-curvature="0"
       d="m 402.95767,17.292 c -3.38,0 -5.7,2.421 -5.7,5.9 0,3.375 2.398,5.9 5.648,5.9 3.276,0 5.752,-2.65 5.752,-6.1 0,-3.275 -2.384,-5.7 -5.7,-5.7 z m -0.338,0.7 c 2.184,0 3.738,2.421 3.738,5.875 0,2.825 -1.178,4.525 -3.14,4.525 -1.014,0 -1.976,-0.6 -2.522,-1.6 -0.728,-1.3 -1.138,-3.05 -1.138,-4.825 0,-2.375 1.22,-3.975 3.062,-3.975 z"
       id="path3057" />
    <path
       inkscape:connector-curvature="0"
       d="m 417.49167,17.542 h -3.16 v -2.85 c 0,-1.45 0.481,-2.225 1.444,-2.225 0.546,0 0.91,0.25 1.378,0.975 0.415,0.65 0.727,0.9 1.17,0.9 0.597,0 1.091,-0.45 1.091,-1.025 0,-0.9 -1.143,-1.549 -2.703,-1.549 -1.612,0 -2.99,0.674 -3.666,1.824 -0.676,1.086 -0.862,1.975 -0.888,3.95 h -2.154 v 0.8 h 2.154 v 7.9 c 0,1.825 -0.289,2.125 -2.18,2.225 v 0.375 h 6.76 v -0.4 c -2.132,-0.074 -2.38,-0.346 -2.38,-2.2 v -7.9 h 3.134 z"
       id="path3059" />
    <path
       inkscape:connector-curvature="0"
       d="m 436.14967,27.192 c -0.442,0.35 -0.754,0.425 -1.144,0.425 -0.598,0 -0.748,-0.338 -0.748,-1.4 v -4.875 c 0,-1.3 -0.138,-2.025 -0.552,-2.625 -0.571,-0.899 -1.69,-1.424 -3.223,-1.424 -2.444,0 -4.324,1.247 -4.324,2.85 0,0.574 0.499,1.074 1.074,1.074 0.623,0 1.225,-0.499 1.225,-1.049 0,-0.1 -0.054,-0.225 -0.108,-0.4 -0.051,-0.225 -0.022,-0.425 -0.022,-0.6 0,-0.675 0.807,-1.275 1.816,-1.275 1.274,0 2.014,0.742 2.014,2.125 v 1.525 c -4.03,1.549 -4.476,1.749 -5.602,2.7 -0.571,0.499 -0.897,1.349 -0.897,2.174 0,1.575 1.127,2.675 2.691,2.675 1.144,0 2.21,-0.525 3.796,-1.825 0.13,1.3 0.598,1.825 1.664,1.825 0.884,0 1.43,-0.3 2.34,-1.25 v -0.65 z m -3.992,-1.425 c 0,0.775 -0.137,1 -0.714,1.3 -0.624,0.35 -1.352,0.525 -1.898,0.525 -0.91,0 -1.588,-0.828 -1.588,-1.875 v -0.1 c 0,-1.475 1.063,-2.375 4.2,-3.475 z"
       id="path3061" />
    <path
       inkscape:connector-curvature="0"
       d="m 450.79967,20.992 -0.104,-3.45 h -0.238 l -0.051,0.1 c -0.234,0.175 -0.26,0.15 -0.364,0.15 -0.156,0 -0.416,-0.036 -0.702,-0.125 -0.572,-0.2 -1.144,-0.35 -1.82,-0.35 -2.054,0 -3.562,1.296 -3.562,3.125 0,1.4 0.839,2.4 3.068,3.6 l 1.508,0.825 c 0.91,0.5 1.324,1.1 1.324,1.875 0,1.1 -0.821,1.749 -2.13,1.749 -0.884,0 -1.69,-0.305 -2.184,-0.825 -0.546,-0.624 -0.78,-1.199 -1.118,-2.624 h -0.442 v 3.9 h 0.364 c 0.182,-0.25 0.286,-0.3 0.598,-0.3 0.234,0 0.598,0.05 1.196,0.2 0.728,0.15 1.43,0.25 1.898,0.25 2.002,0 3.618,-1.45 3.618,-3.2 0,-1.25 -0.61,-2.075 -2.136,-2.975 l -2.808,-1.6 c -0.728,-0.4 -1.156,-1.025 -1.156,-1.7 0,-1 0.821,-1.7 2.04,-1.7 1.482,0 2.262,0.85 2.86,3.075 z"
       id="path3063" />
    <path
       inkscape:connector-curvature="0"
       d="m 463.36567,24.742 c -1.248,1.9 -2.366,2.65 -4.03,2.65 -1.482,0 -2.6,-0.733 -3.354,-2.175 -0.468,-0.943 -0.65,-1.762 -0.702,-3.275 h 8.008 c -0.208,-1.638 -0.468,-2.369 -1.118,-3.174 -0.78,-0.9 -1.976,-1.475 -3.328,-1.475 -1.299,0 -2.522,0.466 -3.509,1.35 -1.222,1.024 -1.924,2.799 -1.924,4.849 0,3.45 1.872,5.6 4.862,5.6 2.47,0 4.42,-1.475 5.512,-4.175 l -0.417,-0.175 z m -8.034,-3.6 c 0.286,-1.967 1.17,-2.95 2.756,-2.95 1.586,0 2.21,0.718 2.548,2.95 z"
       id="path3065" />
    <path
       inkscape:connector-curvature="0"
       d="m 464.77367,18.892 c 0.156,-0.075 0.416,-0.1 0.702,-0.1 0.727,0 0.982,0.375 0.982,1.6 v 6.2 c 0,1.425 -0.29,1.775 -1.632,1.875 v 0.375 h 5.512 v -0.375 c -1.326,-0.1 -1.68,-0.4 -1.68,-1.3 v -7.025 c 1.231,-1.125 1.796,-1.45 2.642,-1.45 1.274,0 1.858,0.783 1.858,2.45 v 5.225 c 0,1.575 -0.33,2 -1.598,2.1 v 0.375 h 5.408 v -0.375 c -1.274,-0.125 -1.61,-0.425 -1.61,-1.65 v -5.725 c 0,-2.35 -1.135,-3.8 -3.044,-3.8 -1.185,0 -1.983,0.435 -3.734,2.075 v -1.975 l -0.218,-0.05 c -1.274,0.45 -2.158,0.725 -3.588,1.125 z"
       id="path3067" />
    <path
       inkscape:connector-curvature="0"
       d="m 483.98767,17.542 h -2.63 v -2.85 c 0,-0.249 -0.025,-0.325 -0.178,-0.325 -0.182,0.225 -0.338,0.45 -0.52,0.7 -0.988,1.375 -2.106,2.575 -2.522,2.675 -0.286,0.175 -0.442,0.35 -0.442,0.475 0,0.054 0.026,0.089 0.104,0.125 h 1.358 v 7.575 c 0,2.1 0.787,3.175 2.334,3.175 1.274,0 2.262,-0.6 3.12,-1.9 l -0.338,-0.275 c -0.546,0.624 -0.988,0.874 -1.56,0.874 -0.962,0 -1.356,-0.674 -1.356,-2.249 v -7.2 h 2.63 z"
       id="path3069" />
    <path
       inkscape:connector-curvature="0"
       d="m 495.16567,24.742 c -1.248,1.9 -2.366,2.65 -4.03,2.65 -1.482,0 -2.6,-0.733 -3.354,-2.175 -0.467,-0.943 -0.65,-1.762 -0.702,-3.275 h 8.008 c -0.208,-1.638 -0.468,-2.369 -1.118,-3.174 -0.779,-0.9 -1.976,-1.475 -3.328,-1.475 -1.299,0 -2.522,0.466 -3.509,1.35 -1.222,1.024 -1.924,2.799 -1.924,4.849 0,3.45 1.872,5.6 4.862,5.6 2.47,0 4.42,-1.475 5.512,-4.175 l -0.417,-0.175 z m -8.034,-3.6 c 0.286,-1.967 1.17,-2.95 2.756,-2.95 1.586,0 2.21,0.718 2.548,2.95 z"
       id="path3071" />
    <path
       inkscape:connector-curvature="0"
       d="m 496.57367,18.892 c 0.156,-0.075 0.416,-0.1 0.702,-0.1 0.728,0 0.982,0.375 0.982,1.6 v 6.2 c 0,1.425 -0.29,1.775 -1.632,1.875 v 0.375 h 5.512 v -0.375 c -1.326,-0.1 -1.68,-0.4 -1.68,-1.3 v -7.025 c 1.231,-1.125 1.796,-1.45 2.642,-1.45 1.274,0 1.858,0.783 1.858,2.45 v 5.225 c 0,1.575 -0.33,2 -1.598,2.1 v 0.375 h 5.408 v -0.375 c -1.274,-0.125 -1.61,-0.425 -1.61,-1.65 v -5.725 c 0,-2.35 -1.135,-3.8 -3.044,-3.8 -1.185,0 -1.983,0.435 -3.734,2.075 v -1.975 l -0.218,-0.05 c -1.274,0.45 -2.158,0.725 -3.588,1.125 z"
       id="path3073" />
    <path
       inkscape:connector-curvature="0"
       d="m 519.50567,24.942 c -1.248,1.75 -2.184,2.35 -3.666,2.35 -2.366,0 -3.982,-2 -3.982,-4.875 0,-2.575 1.411,-4.425 3.488,-4.425 0.936,0 1.274,0.292 1.534,1.275 l 0.156,0.55 c 0.207,0.7 0.676,1.15 1.222,1.15 0.675,0 1.247,-0.475 1.247,-1.05 0,-1.4 -1.819,-2.625 -4.003,-2.625 -1.274,0 -2.6,0.518 -3.666,1.45 -1.3,1.1 -1.978,2.8 -1.978,4.775 0,3.25 2.033,5.575 4.89,5.575 1.17,0 2.21,-0.4 3.146,-1.175 0.702,-0.599 1.196,-1.274 1.976,-2.749 z"
       id="path3075" />
    <path
       inkscape:connector-curvature="0"
       d="m 531.26567,24.742 c -1.248,1.9 -2.366,2.65 -4.03,2.65 -1.482,0 -2.6,-0.733 -3.354,-2.175 -0.467,-0.943 -0.649,-1.762 -0.701,-3.275 h 8.007 c -0.207,-1.638 -0.467,-2.369 -1.118,-3.174 -0.779,-0.9 -1.975,-1.475 -3.327,-1.475 -1.3,0 -2.522,0.466 -3.51,1.35 -1.222,1.024 -1.924,2.799 -1.924,4.849 0,3.45 1.872,5.6 4.862,5.6 2.47,0 4.42,-1.475 5.512,-4.175 l -0.417,-0.175 z m -8.034,-3.6 c 0.286,-1.967 1.17,-2.95 2.756,-2.95 1.586,0 2.21,0.718 2.547,2.95 z"
       id="path3077" />
    <path
       inkscape:connector-curvature="0"
       d="m 535.79367,17.317 c -0.78,0 -1.43,0.673 -1.43,1.475 0,0.725 0.65,1.325 1.404,1.325 0.806,0 1.482,-0.613 1.482,-1.325 0,-0.775 -0.676,-1.475 -1.456,-1.475 z m 0,9 c -0.78,0 -1.43,0.661 -1.43,1.45 0,0.725 0.65,1.35 1.404,1.35 0.806,0 1.482,-0.625 1.482,-1.35 0,-0.775 -0.676,-1.45 -1.456,-1.45 z"
       id="path3079" />
    <path
       inkscape:connector-curvature="0"
       d="m 213.99067,52.442 v -4.968 h -0.691 c -0.161,0.561 -0.345,0.734 -0.736,0.734 -0.207,0 -0.46,-0.069 -0.966,-0.253 -1.081,-0.368 -1.817,-0.457 -2.691,-0.457 -3.128,0 -5.049,1.752 -5.049,4.62 0,2.024 1.2,3.473 3.945,4.784 l 1.541,0.736 c 2.024,0.966 2.614,1.564 2.614,2.76 0,1.587 -1.142,2.581 -2.936,2.581 -1.334,0 -2.484,-0.561 -3.358,-1.661 -0.621,-0.851 -0.943,-1.61 -1.334,-3.22 h -0.667 v 5.681 h 0.667 c 0.138,-0.575 0.322,-0.782 0.69,-0.782 0.184,0 0.437,0.069 0.943,0.23 1.15,0.391 2.001,0.552 2.99,0.552 3.404,0 5.705,-1.955 5.705,-4.853 0,-1.725 -1.058,-3.45 -2.531,-4.186 l -3.381,-1.679 c -1.863,-0.92 -2.388,-1.495 -2.388,-2.599 0,-1.426 0.973,-2.165 2.549,-2.165 1.035,0 2.001,0.391 2.829,1.153 0.782,0.812 1.15,1.484 1.61,2.992 z"
       id="path3081" />
    <path
       inkscape:connector-curvature="0"
       d="m 224.90367,60.467 c -0.92,1.127 -1.633,1.497 -2.622,1.497 -0.897,0 -1.564,-0.399 -2.047,-1.175 -0.414,-0.728 -0.598,-1.478 -0.69,-3.047 h 5.796 c -0.138,-1.949 -0.483,-3.039 -1.219,-3.921 -0.759,-0.897 -1.817,-1.354 -3.082,-1.354 -2.874,0 -4.807,2.276 -4.807,5.632 0,3.358 1.886,5.566 4.738,5.566 1.863,0 2.99,-0.736 4.485,-2.875 l -0.552,-0.323 z m -5.474,-3.625 c 0.069,-2.749 0.483,-3.576 1.61,-3.576 0.643,0 1.08,0.337 1.265,0.991 0.115,0.437 0.16,1.081 0.206,2.254 v 0.331 z"
       id="path3083" />
    <path
       inkscape:connector-curvature="0"
       d="m 230.73467,52.742 h -4.394 v 0.549 c 1.012,0.161 1.217,0.391 1.217,1.357 v 6.762 c 0,0.966 -0.184,1.173 -1.217,1.38 v 0.552 h 5.543 V 62.79 c -0.851,-0.115 -1.126,-0.46 -1.126,-1.311 v -6.141 c 0,-0.092 0.161,-0.322 0.39,-0.529 0.506,-0.529 1.058,-0.805 1.587,-0.805 0.805,0 1.223,0.621 1.223,1.909 v 5.566 c 0,0.851 -0.306,1.219 -1.108,1.311 v 0.552 h 5.405 V 62.79 c -0.897,-0.069 -1.097,-0.345 -1.097,-1.311 v -5.773 c 0,-1.978 -1.231,-3.243 -3.135,-3.243 -1.38,0 -2.437,0.644 -3.288,2.001 z"
       id="path3085" />
    <path
       inkscape:connector-curvature="0"
       d="m 245.67267,52.742 h -2.115 v -3.89 h -0.622 c -1.403,1.978 -2.323,3.013 -3.818,4.278 v 0.612 h 1.24 v 7.461 c 0,1.495 0.972,2.415 2.532,2.415 1.541,0 2.461,-0.69 3.404,-2.576 l -0.575,-0.253 c -0.46,0.874 -0.828,1.196 -1.311,1.196 -0.644,0 -0.85,-0.391 -0.85,-1.311 v -6.932 h 2.115 z"
       id="path3087" />
    <path
       inkscape:connector-curvature="0"
       d="m 255.50367,60.467 c -0.92,1.127 -1.633,1.497 -2.622,1.497 -0.897,0 -1.564,-0.399 -2.047,-1.175 -0.414,-0.728 -0.598,-1.478 -0.69,-3.047 h 5.796 c -0.138,-1.949 -0.483,-3.039 -1.219,-3.921 -0.759,-0.897 -1.817,-1.354 -3.082,-1.354 -2.875,0 -4.807,2.276 -4.807,5.632 0,3.358 1.886,5.566 4.738,5.566 1.863,0 2.99,-0.736 4.485,-2.875 l -0.552,-0.323 z m -5.474,-3.625 c 0.069,-2.749 0.483,-3.576 1.61,-3.576 0.644,0 1.081,0.337 1.265,0.991 0.115,0.437 0.161,1.081 0.206,2.254 v 0.331 z"
       id="path3089" />
    <path
       inkscape:connector-curvature="0"
       d="m 261.43467,52.742 h -4.394 v 0.549 c 1.012,0.161 1.217,0.391 1.217,1.357 v 6.762 c 0,0.966 -0.184,1.173 -1.217,1.38 v 0.552 h 5.543 V 62.79 c -0.851,-0.115 -1.126,-0.46 -1.126,-1.311 v -6.141 c 0,-0.092 0.161,-0.322 0.39,-0.529 0.506,-0.529 1.058,-0.805 1.587,-0.805 0.805,0 1.223,0.621 1.223,1.909 v 5.566 c 0,0.851 -0.306,1.219 -1.108,1.311 v 0.552 h 5.405 V 62.79 c -0.897,-0.069 -1.097,-0.345 -1.097,-1.311 v -5.773 c 0,-1.978 -1.231,-3.243 -3.135,-3.243 -1.38,0 -2.437,0.644 -3.288,2.001 z"
       id="path3091" />
    <path
       inkscape:connector-curvature="0"
       d="m 278.73367,60.835 c -0.851,0.966 -1.449,1.288 -2.392,1.288 -2.001,0 -3.284,-2.001 -3.284,-5.129 0,-2.369 0.743,-3.805 1.95,-3.805 0.368,0 0.713,0.179 0.851,0.424 0.115,0.207 0.099,0.207 0.099,1.173 0.023,1.127 0.442,1.656 1.304,1.656 0.966,0 1.596,-0.552 1.596,-1.449 0,-1.426 -1.555,-2.53 -3.597,-2.53 -3.128,0 -5.403,2.438 -5.403,5.75 0,3.173 2.059,5.451 4.897,5.451 1.771,0 3.059,-0.713 4.393,-2.415 z"
       id="path3093" />
    <path
       inkscape:connector-curvature="0"
       d="m 288.80367,60.467 c -0.92,1.127 -1.633,1.497 -2.622,1.497 -0.897,0 -1.564,-0.399 -2.047,-1.175 -0.414,-0.728 -0.598,-1.478 -0.69,-3.047 h 5.796 c -0.138,-1.949 -0.483,-3.039 -1.219,-3.921 -0.759,-0.897 -1.817,-1.354 -3.082,-1.354 -2.874,0 -4.807,2.276 -4.807,5.632 0,3.358 1.886,5.566 4.738,5.566 1.863,0 2.99,-0.736 4.485,-2.875 l -0.552,-0.323 z m -5.474,-3.625 c 0.069,-2.749 0.483,-3.576 1.61,-3.576 0.644,0 1.081,0.337 1.265,0.991 0.115,0.437 0.161,1.081 0.206,2.254 v 0.331 z"
       id="path3095" />
    <path
       inkscape:connector-curvature="0"
       d="m 33.147467,218.842 h -4.8528 v 0.6 c 0.4619,0 0.8538,0.33 1.963,1.583 v 10.902 c 0,1.311 -0.346,1.633 -2.0321,1.84 v 0.575 h 5.221 v -0.575 c -1.771,-0.207 -2.1889,-0.644 -2.1889,-2.277 v -9.246 l 10.2848,12.512 h 0.6152 v -13.547 c 0,-1.311 0.3038,-1.61 1.8228,-1.84 v -0.527 h -4.9448 v 0.527 c 1.7019,0.161 2.122,0.644 2.122,2.277 v 7.015 z"
       id="path3119" />
    <path
       inkscape:connector-curvature="0"
       d="m 50.230467,223.466 c -2.9209,0 -5.1728,2.414 -5.1728,5.54 0,3.289 2.1738,5.658 5.1728,5.658 2.9668,0 5.2272,-2.392 5.2272,-5.589 0,-3.22 -2.2304,-5.609 -5.2272,-5.609 z m 0.0232,0.8 c 1.334,0 1.804,1.242 1.804,4.947 0,3.542 -0.4678,4.651 -1.827,4.651 -1.3569,0 -1.773,-1.15 -1.773,-4.444 0,-4.048 0.4039,-5.154 1.796,-5.154 z"
       id="path3121" />
    <path
       inkscape:connector-curvature="0"
       d="m 63.880567,234.641 c 0.9778,-0.345 1.524,-0.437 3.002,-0.598 l 1.4258,-0.161 v -0.529 c -1.012,-0.045 -1.2507,-0.344 -1.2507,-1.334 v -8.276 h -4.6602 v 0.548 c 1.1499,0.092 1.4602,0.368 1.4602,1.357 v 6.509 c -0.7732,0.759 -1.2642,1.012 -1.9202,1.012 -0.9428,0 -1.2798,-0.46 -1.2798,-1.633 v -7.794 h -4.3317 v 0.549 c 0.9428,0.184 1.1317,0.391 1.1317,1.357 v 5.796 c 0,2.024 1.148,3.22 3.0541,3.22 1.2077,0 2.0209,-0.368 3.3688,-1.518 z"
       id="path3123" />
    <path
       inkscape:connector-curvature="0"
       d="m 73.634567,223.742 h -4.3938 v 0.549 c 1.0119,0.161 1.2169,0.391 1.2169,1.357 v 6.762 c 0,0.966 -0.184,1.173 -1.2169,1.38 v 0.552 h 5.5429 v -0.552 c -0.8508,-0.115 -1.126,-0.46 -1.126,-1.311 v -6.141 c 0,-0.092 0.1609,-0.322 0.3899,-0.529 0.5059,-0.529 1.0579,-0.805 1.587,-0.805 0.8049,0 1.2231,0.621 1.2231,1.909 v 5.566 c 0,0.851 -0.3062,1.219 -1.1082,1.311 v 0.552 h 5.4048 v -0.552 c -0.8966,-0.069 -1.0966,-0.345 -1.0966,-1.311 v -5.773 c 0,-1.978 -1.2312,-3.243 -3.1351,-3.243 -1.3798,0 -2.4367,0.644 -3.2878,2.001 z"
       id="path3125" />
    <path
       inkscape:connector-curvature="0"
       d="m 93.257668,227.342 c 3.1208,-0.022 3.9079,-0.086 4.9247,-0.475 1.862802,-0.713 2.875302,-2.116 2.875302,-3.887 0,-2.668 -2.185402,-4.138 -6.026402,-4.138 h -7.405801 v 0.527 c 1.6099,0.138 1.9322,0.506 1.9322,2.116 v 10.166 c 0,1.426 -0.2991,1.886 -1.3802,2.024 -0.0688,0 -0.2988,0.046 -0.5517,0.092 v 0.575 h 7.681901 v -0.575 c -1.8169,-0.23 -2.05,-0.437 -2.05,-2.116 v -4.309 z m 0,-6.938 c 0,-0.529 0.4,-0.762 1.1757,-0.762 1.9089,0 2.6243,1 2.6243,3.453 0,1.449 -0.2625,2.323 -0.8304,2.852 -0.5569,0.46 -1.323,0.595 -2.9696,0.595 z"
       id="path3127" />
    <path
       inkscape:connector-curvature="0"
       d="m 106.15767,218.842 h -4.4321 v 0.504 c 1.0579,0.207 1.2321,0.391 1.2321,1.334 v 11.73 c 0,0.966 -0.1859,1.173 -1.2321,1.38 v 0.552 h 5.543 v -0.552 c -0.8508,-0.115 -1.1109,-0.46 -1.1109,-1.311 v -6.141 c 0,-0.091 0.1539,-0.321 0.3748,-0.528 0.5059,-0.529 1.0579,-0.805 1.5869,-0.805 0.805,0 1.2383,0.62 1.2383,1.909 v 5.565 c 0,0.851 -0.3113,1.219 -1.1233,1.311 v 0.552 h 5.4043 v -0.552 c -0.827,-0.069 -1.081,-0.414 -1.081,-1.38 v -5.703 c 0,-1.978 -1.237,-3.243 -3.1502,-3.243 -1.2129,0 -2.0598,0.46 -3.2498,1.794 z"
       id="path3129" />
    <path
       inkscape:connector-curvature="0"
       d="m 119.16567,223.742 h -4.341 v 0.549 c 0.989,0.138 1.233,0.437 1.233,1.357 v 6.762 c 0,0.943 -0.228,1.196 -1.233,1.38 v 0.552 h 6.118 v -0.552 c -1.403,-0.092 -1.685,-0.391 -1.685,-1.817 v -4.347 c 0,-1.196 0.647,-2.185 1.409,-2.185 0.184,0 0.391,0.161 0.644,0.529 0.437,0.621 0.782,0.796 1.38,0.796 0.851,0 1.449,-0.631 1.449,-1.509 0,-1.035 -0.782,-1.791 -1.863,-1.791 -1.152,0 -2.028,0.62 -3.111,2.159 z"
       id="path3131" />
    <path
       inkscape:connector-curvature="0"
       d="m 135.23667,232.87 -0.23,0.23 c -0.069,0.069 -0.138,0.092 -0.253,0.092 -0.322,0 -0.496,-0.207 -0.496,-0.575 v -6.003 c 0,-1.932 -1.743,-3.151 -4.541,-3.151 -2.599,0 -4.359,1.173 -4.359,2.898 0,0.943 0.556,1.518 1.507,1.518 0.92,0 1.593,-0.552 1.593,-1.334 0,-0.322 -0.148,-0.621 -0.443,-0.989 -0.207,-0.23 -0.247,-0.368 -0.247,-0.506 0,-0.483 0.631,-0.761 1.42,-0.761 1.334,0 1.893,0.593 1.893,1.934 v 1.679 c -2.714,0.828 -3.832,1.288 -4.676,1.863 -0.988,0.69 -1.446,1.472 -1.446,2.461 0,1.403 1.069,2.438 2.527,2.438 1.311,0 2.369,-0.46 3.634,-1.61 0.253,1.173 0.759,1.61 1.886,1.61 0.989,0 1.702,-0.368 2.576,-1.311 l -0.345,-0.483 z m -4.179,-0.828 c -0.606,0.713 -1.055,0.989 -1.594,0.989 -0.69,0 -1.106,-0.621 -1.106,-1.541 0,-1.334 0.929,-2.3 2.7,-2.783 z"
       id="path3133" />
    <path
       inkscape:connector-curvature="0"
       d="m 143.67467,226.844 v -3.332 h -0.503 c -0.138,0.343 -0.276,0.46 -0.552,0.46 -0.138,0 -0.368,-0.047 -0.736,-0.163 -0.758,-0.253 -1.287,-0.342 -1.794,-0.342 -2.092,0 -3.631,1.425 -3.631,3.355 0,1.518 0.949,2.576 3.286,3.565 1.564,0.69 2.213,1.265 2.213,2.001 0,0.897 -0.692,1.454 -1.73,1.454 -1.61,0 -2.668,-1.021 -3.151,-2.995 h -0.643 v 3.795 h 0.575 c 0.253,-0.483 0.391,-0.644 0.598,-0.644 0.115,0 0.298,0.046 0.528,0.138 0.621,0.276 1.84,0.529 2.484,0.529 2.093,0 3.539,-1.426 3.539,-3.496 0,-1.633 -0.896,-2.622 -3.171,-3.588 -1.564,-0.667 -2.229,-1.242 -2.229,-2.024 0,-0.759 0.653,-1.29 1.539,-1.29 0.598,0 1.219,0.238 1.725,0.692 0.483,0.46 0.736,0.874 1.081,1.886 z"
       id="path3135" />
    <path
       inkscape:connector-curvature="0"
       d="m 154.00367,231.467 c -0.92,1.127 -1.633,1.497 -2.622,1.497 -0.897,0 -1.564,-0.399 -2.047,-1.175 -0.414,-0.728 -0.598,-1.478 -0.69,-3.047 h 5.796 c -0.138,-1.949 -0.483,-3.039 -1.219,-3.921 -0.759,-0.897 -1.817,-1.354 -3.082,-1.354 -2.875,0 -4.807,2.276 -4.807,5.632 0,3.358 1.886,5.566 4.738,5.566 1.863,0 2.99,-0.736 4.485,-2.875 l -0.552,-0.323 z m -5.474,-3.625 c 0.069,-2.749 0.483,-3.576 1.61,-3.576 0.644,0 1.081,0.337 1.265,0.991 0.115,0.437 0.161,1.081 0.206,2.254 v 0.331 z"
       id="path3137" />
    <path
       inkscape:connector-curvature="0"
       d="m 320.85767,183.342 c 3.121,-0.022 3.908,-0.086 4.925,-0.475 1.862,-0.713 2.874,-2.116 2.874,-3.887 0,-2.668 -2.184,-4.138 -6.026,-4.138 h -7.405 v 0.527 c 1.61,0.138 1.932,0.506 1.932,2.116 v 10.166 c 0,1.426 -0.299,1.886 -1.38,2.024 -0.069,0 -0.299,0.046 -0.552,0.092 v 0.575 h 7.682 v -0.575 c -1.817,-0.23 -2.05,-0.437 -2.05,-2.116 v -4.309 z m 0,-6.938 c 0,-0.529 0.4,-0.762 1.176,-0.762 1.908,0 2.623,1 2.623,3.453 0,1.449 -0.262,2.323 -0.83,2.852 -0.556,0.46 -1.323,0.595 -2.969,0.595 z"
       id="path3139" />
    <path
       inkscape:connector-curvature="0"
       d="m 333.96567,179.742 h -4.341 v 0.549 c 0.989,0.138 1.233,0.437 1.233,1.357 v 6.762 c 0,0.943 -0.228,1.196 -1.233,1.38 v 0.552 h 6.118 v -0.552 c -1.403,-0.092 -1.685,-0.391 -1.685,-1.817 v -4.347 c 0,-1.196 0.647,-2.185 1.409,-2.185 0.184,0 0.391,0.161 0.644,0.529 0.437,0.621 0.782,0.796 1.38,0.796 0.851,0 1.449,-0.631 1.449,-1.509 0,-1.035 -0.782,-1.791 -1.863,-1.791 -1.152,0 -2.028,0.62 -3.111,2.159 z"
       id="path3141" />
    <path
       inkscape:connector-curvature="0"
       d="m 348.40367,187.467 c -0.92,1.127 -1.633,1.497 -2.622,1.497 -0.897,0 -1.564,-0.399 -2.047,-1.175 -0.414,-0.728 -0.598,-1.478 -0.69,-3.047 h 5.796 c -0.138,-1.949 -0.483,-3.039 -1.219,-3.921 -0.759,-0.897 -1.817,-1.354 -3.082,-1.354 -2.874,0 -4.807,2.276 -4.807,5.632 0,3.358 1.886,5.566 4.738,5.566 1.863,0 2.99,-0.736 4.485,-2.875 l -0.552,-0.323 z m -5.474,-3.625 c 0.069,-2.749 0.483,-3.576 1.61,-3.576 0.643,0 1.08,0.337 1.265,0.991 0.115,0.437 0.16,1.081 0.206,2.254 v 0.331 z"
       id="path3143" />
    <path
       inkscape:connector-curvature="0"
       d="m 354.21167,179.742 h -4.371 v 0.549 c 1.012,0.161 1.217,0.391 1.217,1.357 v 11.523 c 0,0.943 -0.18,1.15 -1.263,1.334 v 0.537 h 6.279 v -0.5 c -1.403,-0.068 -1.816,-0.521 -1.816,-2.038 v -3.243 c 1.112,1.081 1.715,1.38 2.735,1.38 2.576,0 4.464,-2.392 4.464,-5.796 0,-3.197 -1.744,-5.379 -4.326,-5.379 -1.367,0 -2.201,0.528 -2.919,1.86 v -1.584 z m 0.046,2.642 c 0,-0.161 0.216,-0.529 0.505,-0.828 0.46,-0.506 0.989,-0.789 1.495,-0.789 1.195,0 1.799,1.382 1.799,4.4 0,2.852 -0.66,4.174 -2.006,4.174 -0.768,0 -1.444,-0.516 -1.793,-1.368 z"
       id="path3145" />
    <path
       inkscape:connector-curvature="0"
       d="m 367.93067,179.466 c -2.921,0 -5.173,2.414 -5.173,5.54 0,3.289 2.174,5.658 5.173,5.658 2.967,0 5.227,-2.392 5.227,-5.589 0,-3.22 -2.23,-5.609 -5.227,-5.609 z m 0.023,0.8 c 1.334,0 1.804,1.242 1.804,4.947 0,3.542 -0.468,4.651 -1.827,4.651 -1.357,0 -1.773,-1.15 -1.773,-4.444 0,-4.048 0.404,-5.154 1.796,-5.154 z"
       id="path3147" />
    <path
       inkscape:connector-curvature="0"
       d="m 381.47467,182.844 v -3.332 h -0.503 c -0.138,0.343 -0.276,0.46 -0.552,0.46 -0.138,0 -0.368,-0.047 -0.736,-0.163 -0.758,-0.253 -1.287,-0.342 -1.794,-0.342 -2.092,0 -3.631,1.425 -3.631,3.355 0,1.518 0.949,2.576 3.287,3.565 1.563,0.69 2.212,1.265 2.212,2.001 0,0.897 -0.692,1.454 -1.73,1.454 -1.609,0 -2.668,-1.021 -3.15,-2.995 h -0.644 v 3.795 h 0.575 c 0.253,-0.483 0.391,-0.644 0.598,-0.644 0.115,0 0.298,0.046 0.528,0.138 0.621,0.276 1.84,0.529 2.484,0.529 2.093,0 3.539,-1.426 3.539,-3.496 0,-1.633 -0.896,-2.622 -3.171,-3.588 -1.564,-0.667 -2.229,-1.242 -2.229,-2.024 0,-0.759 0.653,-1.29 1.539,-1.29 0.598,0 1.219,0.238 1.725,0.692 0.483,0.46 0.736,0.874 1.081,1.886 z"
       id="path3149" />
    <path
       inkscape:connector-curvature="0"
       d="m 387.35767,179.742 h -4.432 v 0.549 c 1.012,0.207 1.232,0.414 1.232,1.357 v 6.762 c 0,0.943 -0.163,1.127 -1.232,1.38 v 0.552 h 5.497 v -0.552 c -0.805,-0.115 -1.065,-0.437 -1.065,-1.311 v -8.737 z m -1.626,-5.245 c -0.989,0 -1.794,0.783 -1.794,1.723 0,1.035 0.759,1.877 1.771,1.877 1.012,0 1.794,-0.795 1.794,-1.854 0,-0.989 -0.782,-1.746 -1.771,-1.746 z"
       id="path3151" />
    <path
       inkscape:connector-curvature="0"
       d="m 395.97267,179.742 h -2.115 v -3.89 h -0.622 c -1.403,1.978 -2.323,3.013 -3.818,4.278 v 0.612 h 1.24 v 7.461 c 0,1.495 0.972,2.415 2.532,2.415 1.541,0 2.461,-0.69 3.404,-2.576 l -0.575,-0.253 c -0.46,0.874 -0.828,1.196 -1.311,1.196 -0.644,0 -0.85,-0.391 -0.85,-1.311 v -6.932 h 2.115 z"
       id="path3153" />
    <path
       inkscape:connector-curvature="0"
       d="m 401.45767,179.742 h -4.432 v 0.549 c 1.012,0.207 1.232,0.414 1.232,1.357 v 6.762 c 0,0.943 -0.163,1.127 -1.232,1.38 v 0.552 h 5.497 v -0.552 c -0.805,-0.115 -1.065,-0.437 -1.065,-1.311 v -8.737 z m -1.626,-5.245 c -0.989,0 -1.794,0.783 -1.794,1.723 0,1.035 0.759,1.877 1.771,1.877 1.012,0 1.794,-0.795 1.794,-1.854 0,-0.989 -0.782,-1.746 -1.771,-1.746 z"
       id="path3155" />
    <path
       inkscape:connector-curvature="0"
       d="m 408.83067,179.466 c -2.921,0 -5.173,2.414 -5.173,5.54 0,3.289 2.174,5.658 5.173,5.658 2.967,0 5.227,-2.392 5.227,-5.589 0,-3.22 -2.23,-5.609 -5.227,-5.609 z m 0.023,0.8 c 1.334,0 1.804,1.242 1.804,4.947 0,3.542 -0.468,4.651 -1.827,4.651 -1.357,0 -1.773,-1.15 -1.773,-4.444 0,-4.048 0.404,-5.154 1.796,-5.154 z"
       id="path3157" />
    <path
       inkscape:connector-curvature="0"
       d="m 419.43467,179.742 h -4.394 v 0.549 c 1.012,0.161 1.217,0.391 1.217,1.357 v 6.762 c 0,0.966 -0.184,1.173 -1.217,1.38 v 0.552 h 5.543 v -0.552 c -0.851,-0.115 -1.126,-0.46 -1.126,-1.311 v -6.141 c 0,-0.092 0.161,-0.322 0.39,-0.529 0.506,-0.529 1.058,-0.805 1.587,-0.805 0.805,0 1.223,0.621 1.223,1.909 v 5.566 c 0,0.851 -0.306,1.219 -1.108,1.311 v 0.552 h 5.405 v -0.552 c -0.897,-0.069 -1.097,-0.345 -1.097,-1.311 v -5.773 c 0,-1.978 -1.231,-3.243 -3.135,-3.243 -1.38,0 -2.437,0.644 -3.288,2.001 z"
       id="path3159" />
    <path
       inkscape:connector-curvature="0"
       d="m 438.13667,188.87 -0.23,0.23 c -0.069,0.069 -0.138,0.092 -0.253,0.092 -0.322,0 -0.496,-0.207 -0.496,-0.575 v -6.003 c 0,-1.932 -1.743,-3.151 -4.541,-3.151 -2.599,0 -4.359,1.173 -4.359,2.898 0,0.943 0.556,1.518 1.507,1.518 0.92,0 1.593,-0.552 1.593,-1.334 0,-0.322 -0.148,-0.621 -0.443,-0.989 -0.207,-0.23 -0.247,-0.368 -0.247,-0.506 0,-0.483 0.631,-0.761 1.42,-0.761 1.334,0 1.893,0.593 1.893,1.934 v 1.679 c -2.714,0.828 -3.832,1.288 -4.676,1.863 -0.989,0.69 -1.447,1.472 -1.447,2.461 0,1.403 1.07,2.438 2.528,2.438 1.311,0 2.369,-0.46 3.634,-1.61 0.253,1.173 0.759,1.61 1.886,1.61 0.989,0 1.702,-0.368 2.576,-1.311 l -0.345,-0.483 z m -4.179,-0.828 c -0.606,0.713 -1.055,0.989 -1.594,0.989 -0.69,0 -1.106,-0.621 -1.106,-1.541 0,-1.334 0.929,-2.3 2.7,-2.783 z"
       id="path3161" />
    <path
       inkscape:connector-curvature="0"
       d="m 443.45767,174.842 h -4.332 v 0.504 c 0.805,0.069 1.132,0.483 1.132,1.334 v 11.73 c 0,0.851 -0.377,1.311 -1.132,1.38 v 0.552 h 5.497 v -0.6 c -0.759,-0.022 -1.165,-0.444 -1.165,-1.332 z"
       id="path3163" />
    <path
       inkscape:connector-curvature="0"
       d="m 472.55767,174.842 h -4.432 v 0.504 c 1.058,0.207 1.232,0.391 1.232,1.334 v 11.73 c 0,0.966 -0.186,1.173 -1.232,1.38 v 0.552 h 5.543 v -0.552 c -0.851,-0.115 -1.111,-0.46 -1.111,-1.311 v -6.141 c 0,-0.091 0.154,-0.321 0.375,-0.528 0.506,-0.529 1.058,-0.805 1.587,-0.805 0.805,0 1.238,0.62 1.238,1.909 v 5.565 c 0,0.851 -0.311,1.219 -1.123,1.311 v 0.552 h 5.405 v -0.552 c -0.828,-0.069 -1.082,-0.414 -1.082,-1.38 v -5.703 c 0,-1.978 -1.237,-3.243 -3.15,-3.243 -1.213,0 -2.06,0.46 -3.25,1.794 z"
       id="path3167" />
    <path
       inkscape:connector-curvature="0"
       d="m 485.56567,179.742 h -4.341 v 0.549 c 0.989,0.138 1.233,0.437 1.233,1.357 v 6.762 c 0,0.943 -0.228,1.196 -1.233,1.38 v 0.552 h 6.118 v -0.552 c -1.403,-0.092 -1.685,-0.391 -1.685,-1.817 v -4.347 c 0,-1.196 0.647,-2.185 1.409,-2.185 0.184,0 0.391,0.161 0.644,0.529 0.437,0.621 0.782,0.796 1.38,0.796 0.85,0 1.449,-0.631 1.449,-1.509 0,-1.035 -0.782,-1.791 -1.863,-1.791 -1.152,0 -2.028,0.62 -3.111,2.159 z"
       id="path3169" />
    <path
       inkscape:connector-curvature="0"
       d="m 501.63667,188.87 -0.23,0.23 c -0.069,0.069 -0.138,0.092 -0.253,0.092 -0.322,0 -0.496,-0.207 -0.496,-0.575 v -6.003 c 0,-1.932 -1.743,-3.151 -4.541,-3.151 -2.599,0 -4.359,1.173 -4.359,2.898 0,0.943 0.556,1.518 1.507,1.518 0.92,0 1.593,-0.552 1.593,-1.334 0,-0.322 -0.148,-0.621 -0.443,-0.989 -0.207,-0.23 -0.247,-0.368 -0.247,-0.506 0,-0.483 0.631,-0.761 1.42,-0.761 1.334,0 1.893,0.593 1.893,1.934 v 1.679 c -2.714,0.828 -3.832,1.288 -4.676,1.863 -0.989,0.69 -1.447,1.472 -1.447,2.461 0,1.403 1.07,2.438 2.528,2.438 1.311,0 2.369,-0.46 3.634,-1.61 0.253,1.173 0.759,1.61 1.886,1.61 0.989,0 1.702,-0.368 2.576,-1.311 l -0.345,-0.483 z m -4.179,-0.828 c -0.606,0.713 -1.055,0.989 -1.594,0.989 -0.69,0 -1.106,-0.621 -1.106,-1.541 0,-1.334 0.929,-2.3 2.7,-2.783 z"
       id="path3171" />
    <path
       inkscape:connector-curvature="0"
       d="m 510.07467,182.844 v -3.332 h -0.503 c -0.138,0.343 -0.276,0.46 -0.552,0.46 -0.138,0 -0.368,-0.047 -0.736,-0.163 -0.759,-0.253 -1.288,-0.342 -1.794,-0.342 -2.092,0 -3.632,1.425 -3.632,3.355 0,1.518 0.949,2.576 3.287,3.565 1.564,0.69 2.213,1.265 2.213,2.001 0,0.897 -0.692,1.454 -1.73,1.454 -1.61,0 -2.668,-1.021 -3.151,-2.995 h -0.643 v 3.795 h 0.575 c 0.252,-0.483 0.39,-0.644 0.597,-0.644 0.115,0 0.299,0.046 0.529,0.138 0.621,0.276 1.84,0.529 2.484,0.529 2.093,0 3.539,-1.426 3.539,-3.496 0,-1.633 -0.896,-2.622 -3.171,-3.588 -1.564,-0.667 -2.229,-1.242 -2.229,-2.024 0,-0.759 0.653,-1.29 1.539,-1.29 0.598,0 1.219,0.238 1.725,0.692 0.483,0.46 0.736,0.874 1.081,1.886 z"
       id="path3173" />
    <path
       inkscape:connector-curvature="0"
       d="m 520.40367,187.467 c -0.92,1.127 -1.633,1.497 -2.622,1.497 -0.897,0 -1.564,-0.399 -2.047,-1.175 -0.414,-0.728 -0.598,-1.478 -0.69,-3.047 h 5.796 c -0.138,-1.949 -0.483,-3.039 -1.219,-3.921 -0.759,-0.897 -1.817,-1.354 -3.082,-1.354 -2.874,0 -4.807,2.276 -4.807,5.632 0,3.358 1.886,5.566 4.738,5.566 1.863,0 2.99,-0.736 4.485,-2.875 l -0.552,-0.323 z m -5.474,-3.625 c 0.069,-2.749 0.483,-3.576 1.61,-3.576 0.643,0 1.08,0.337 1.265,0.991 0.115,0.437 0.16,1.081 0.206,2.254 v 0.331 z"
       id="path3175" />
    <path
       inkscape:connector-curvature="0"
       d="m 393.14767,247.842 h -4.853 v 0.6 c 0.462,0 0.854,0.33 1.963,1.583 v 10.902 c 0,1.311 -0.346,1.633 -2.032,1.84 v 0.575 h 5.221 v -0.575 c -1.771,-0.207 -2.189,-0.644 -2.189,-2.277 v -9.246 l 10.285,12.512 h 0.615 v -13.547 c 0,-1.311 0.304,-1.61 1.823,-1.84 v -0.527 h -4.945 v 0.527 c 1.702,0.161 2.122,0.644 2.122,2.277 v 7.015 z"
       id="path3177" />
    <path
       inkscape:connector-curvature="0"
       d="m 410.23067,252.466 c -2.921,0 -5.173,2.414 -5.173,5.54 0,3.289 2.174,5.658 5.173,5.658 2.967,0 5.227,-2.392 5.227,-5.589 0,-3.22 -2.23,-5.609 -5.227,-5.609 z m 0.023,0.8 c 1.334,0 1.804,1.242 1.804,4.947 0,3.542 -0.468,4.651 -1.827,4.651 -1.357,0 -1.773,-1.15 -1.773,-4.444 0,-4.048 0.404,-5.154 1.796,-5.154 z"
       id="path3179" />
    <path
       inkscape:connector-curvature="0"
       d="m 423.88067,263.641 c 0.978,-0.345 1.524,-0.437 3.002,-0.598 l 1.426,-0.161 v -0.529 c -1.012,-0.045 -1.251,-0.344 -1.251,-1.334 v -8.276 h -4.66 v 0.548 c 1.15,0.092 1.46,0.368 1.46,1.357 v 6.509 c -0.773,0.759 -1.264,1.012 -1.92,1.012 -0.943,0 -1.28,-0.46 -1.28,-1.633 v -7.794 h -4.332 v 0.549 c 0.943,0.184 1.132,0.391 1.132,1.357 v 5.796 c 0,2.024 1.148,3.22 3.054,3.22 1.208,0 2.021,-0.368 3.369,-1.518 z"
       id="path3181" />
    <path
       inkscape:connector-curvature="0"
       d="m 433.63467,252.742 h -4.394 v 0.549 c 1.012,0.161 1.217,0.391 1.217,1.357 v 6.762 c 0,0.966 -0.184,1.173 -1.217,1.38 v 0.552 h 5.543 v -0.552 c -0.851,-0.115 -1.126,-0.46 -1.126,-1.311 v -6.141 c 0,-0.092 0.161,-0.322 0.39,-0.529 0.506,-0.529 1.058,-0.805 1.587,-0.805 0.805,0 1.223,0.621 1.223,1.909 v 5.566 c 0,0.851 -0.306,1.219 -1.108,1.311 v 0.552 h 5.405 v -0.552 c -0.897,-0.069 -1.097,-0.345 -1.097,-1.311 v -5.773 c 0,-1.978 -1.231,-3.243 -3.135,-3.243 -1.38,0 -2.437,0.644 -3.288,2.001 z"
       id="path3183" />
    <path
       inkscape:connector-curvature="0"
       d="m 453.25767,256.342 c 3.121,-0.022 3.908,-0.086 4.925,-0.475 1.863,-0.713 2.874,-2.116 2.874,-3.887 0,-2.668 -2.184,-4.138 -6.025,-4.138 h -7.406 v 0.527 c 1.61,0.138 1.932,0.506 1.932,2.116 v 10.166 c 0,1.426 -0.299,1.886 -1.38,2.024 -0.069,0 -0.299,0.046 -0.552,0.092 v 0.575 h 7.682 v -0.575 c -1.817,-0.23 -2.05,-0.437 -2.05,-2.116 v -4.309 z m 0,-6.938 c 0,-0.529 0.4,-0.762 1.176,-0.762 1.909,0 2.623,1 2.623,3.453 0,1.449 -0.261,2.323 -0.829,2.852 -0.557,0.46 -1.323,0.595 -2.97,0.595 z"
       id="path3185" />
    <path
       inkscape:connector-curvature="0"
       d="m 466.15767,247.842 h -4.432 v 0.504 c 1.058,0.207 1.232,0.391 1.232,1.334 v 11.73 c 0,0.966 -0.186,1.173 -1.232,1.38 v 0.552 h 5.543 v -0.552 c -0.851,-0.115 -1.111,-0.46 -1.111,-1.311 v -6.141 c 0,-0.091 0.154,-0.321 0.375,-0.528 0.506,-0.529 1.058,-0.805 1.587,-0.805 0.805,0 1.238,0.62 1.238,1.909 v 5.565 c 0,0.851 -0.311,1.219 -1.123,1.311 v 0.552 h 5.404 v -0.552 c -0.827,-0.069 -1.081,-0.414 -1.081,-1.38 v -5.703 c 0,-1.978 -1.237,-3.243 -3.15,-3.243 -1.213,0 -2.06,0.46 -3.25,1.794 z"
       id="path3187" />
    <path
       inkscape:connector-curvature="0"
       d="m 479.16567,252.742 h -4.341 v 0.549 c 0.989,0.138 1.233,0.437 1.233,1.357 v 6.762 c 0,0.943 -0.228,1.196 -1.233,1.38 v 0.552 h 6.118 v -0.552 c -1.403,-0.092 -1.685,-0.391 -1.685,-1.817 v -4.347 c 0,-1.196 0.647,-2.185 1.409,-2.185 0.184,0 0.391,0.161 0.644,0.529 0.437,0.621 0.782,0.796 1.38,0.796 0.851,0 1.449,-0.631 1.449,-1.509 0,-1.035 -0.782,-1.791 -1.863,-1.791 -1.152,0 -2.028,0.62 -3.111,2.159 z"
       id="path3189" />
    <path
       inkscape:connector-curvature="0"
       d="m 495.23667,261.87 -0.23,0.23 c -0.069,0.069 -0.138,0.092 -0.253,0.092 -0.322,0 -0.496,-0.207 -0.496,-0.575 v -6.003 c 0,-1.932 -1.743,-3.151 -4.541,-3.151 -2.599,0 -4.359,1.173 -4.359,2.898 0,0.943 0.556,1.518 1.507,1.518 0.92,0 1.593,-0.552 1.593,-1.334 0,-0.322 -0.148,-0.621 -0.443,-0.989 -0.207,-0.23 -0.247,-0.368 -0.247,-0.506 0,-0.483 0.631,-0.761 1.42,-0.761 1.334,0 1.893,0.593 1.893,1.934 v 1.679 c -2.714,0.828 -3.832,1.288 -4.676,1.863 -0.988,0.69 -1.446,1.472 -1.446,2.461 0,1.403 1.069,2.438 2.527,2.438 1.311,0 2.369,-0.46 3.634,-1.61 0.253,1.173 0.759,1.61 1.886,1.61 0.989,0 1.702,-0.368 2.576,-1.311 l -0.345,-0.483 z m -4.179,-0.828 c -0.606,0.713 -1.055,0.989 -1.594,0.989 -0.69,0 -1.106,-0.621 -1.106,-1.541 0,-1.334 0.929,-2.3 2.7,-2.783 z"
       id="path3191" />
    <path
       inkscape:connector-curvature="0"
       d="m 503.67467,255.844 v -3.332 h -0.503 c -0.138,0.343 -0.276,0.46 -0.552,0.46 -0.138,0 -0.368,-0.047 -0.736,-0.163 -0.758,-0.253 -1.287,-0.342 -1.794,-0.342 -2.092,0 -3.631,1.425 -3.631,3.355 0,1.518 0.949,2.576 3.286,3.565 1.564,0.69 2.213,1.265 2.213,2.001 0,0.897 -0.692,1.454 -1.73,1.454 -1.61,0 -2.668,-1.021 -3.151,-2.995 h -0.643 v 3.795 h 0.575 c 0.253,-0.483 0.391,-0.644 0.598,-0.644 0.115,0 0.298,0.046 0.528,0.138 0.621,0.276 1.84,0.529 2.484,0.529 2.093,0 3.539,-1.426 3.539,-3.496 0,-1.633 -0.896,-2.622 -3.171,-3.588 -1.564,-0.667 -2.229,-1.242 -2.229,-2.024 0,-0.759 0.653,-1.29 1.539,-1.29 0.598,0 1.219,0.238 1.725,0.692 0.483,0.46 0.736,0.874 1.081,1.886 z"
       id="path3193" />
    <path
       inkscape:connector-curvature="0"
       d="m 514.00367,260.467 c -0.92,1.127 -1.633,1.497 -2.622,1.497 -0.897,0 -1.564,-0.399 -2.047,-1.175 -0.414,-0.728 -0.598,-1.478 -0.69,-3.047 h 5.796 c -0.138,-1.949 -0.483,-3.039 -1.219,-3.921 -0.759,-0.897 -1.817,-1.354 -3.082,-1.354 -2.875,0 -4.807,2.276 -4.807,5.632 0,3.358 1.886,5.566 4.738,5.566 1.863,0 2.99,-0.736 4.485,-2.875 l -0.552,-0.323 z m -5.474,-3.625 c 0.069,-2.749 0.483,-3.576 1.61,-3.576 0.644,0 1.081,0.337 1.265,0.991 0.115,0.437 0.161,1.081 0.206,2.254 v 0.331 z"
       id="path3195" />
    <path
       inkscape:connector-curvature="0"
       d="m 31.704567,335.742 h -0.0918 c -0.8969,0 -1.2649,-0.4786 -2.4148,-3.1717 l -5.1289,-12.0498 h -0.6438 l -5.10593,12.5559 c -0.87378,2.1389 -1.1499,2.4839 -2.25391,2.6909 v 0.5747 h 4.66894 v -0.5747 c -1.35692,-0.0918 -1.88598,-0.345 -1.88598,-0.9429 0,-0.2988 0.18384,-0.8738 0.66699,-2.1159 l 0.34499,-0.8665 h 5.1748 c 0.782,1.7764 1.0579,2.5964 1.0579,3.0974 0,0.4829 -0.2989,0.7129 -1.1038,0.7588 -0.115,0 -0.4138,0.023 -0.7358,0.0688 v 0.575 h 7.4519 l -8e-4,-0.6 z m -11.5,-4.8 2.1619,-5.6168 2.323,5.6168 z"
       id="path3197" />
    <path
       inkscape:connector-curvature="0"
       d="m 37.465567,325.742 h -4.3408 v 0.549 c 0.9888,0.1379 1.2329,0.4367 1.2329,1.3569 v 6.762 c 0,0.9428 -0.2278,1.1958 -1.2329,1.3799 v 0.5517 h 6.1179 v -0.5517 c -1.4028,-0.0918 -1.685,-0.3909 -1.685,-1.8169 v -4.347 c 0,-1.1958 0.6472,-2.1848 1.4091,-2.1848 0.1839,0 0.3909,0.1609 0.6438,0.5288 0.4368,0.6209 0.782,0.7959 1.3799,0.7959 0.8508,0 1.449,-0.6308 1.449,-1.5088 0,-1.0349 -0.7818,-1.7907 -1.8628,-1.7907 -1.1519,0 -2.0278,0.6198 -3.1108,2.1589 z"
       id="path3199" />
    <path
       inkscape:connector-curvature="0"
       d="m 49.672567,325.742 h -2.1149 v -3.8897 h -0.6219 c -1.4028,1.9777 -2.323,3.0129 -3.8178,4.2778 v 0.6119 h 1.2397 v 7.4608 c 0,1.4949 0.9722,2.4148 2.5322,2.4148 1.5408,0 2.461,-0.6899 3.4038,-2.5756 l -0.5749,-0.2532 c -0.46,0.8738 -0.8279,1.1958 -1.3108,1.1958 -0.6438,0 -0.8503,-0.3909 -0.8503,-1.3108 v -6.9318 h 2.1154 z"
       id="path3201" />
    <path
       inkscape:connector-curvature="0"
       d="m 55.157667,325.742 h -4.4321 v 0.549 c 1.012,0.2068 1.2321,0.4138 1.2321,1.3569 v 6.762 c 0,0.9428 -0.163,1.1269 -1.2321,1.3799 v 0.5517 h 5.4968 v -0.5517 c -0.8049,-0.115 -1.0647,-0.4368 -1.0647,-1.3108 v -8.737 z m -1.6262,-5.245 c -0.9887,0 -1.7939,0.783 -1.7939,1.7229 0,1.0349 0.7588,1.877 1.771,1.877 1.0119,0 1.7939,-0.7949 1.7939,-1.8538 0,-0.9887 -0.782,-1.7458 -1.771,-1.7458 z"
       id="path3203" />
    <path
       inkscape:connector-curvature="0"
       d="m 66.233667,333.8352 c -0.8509,0.9658 -1.449,1.2878 -2.3919,1.2878 -2.0009,0 -3.2841,-2.001 -3.2841,-5.1289 0,-2.3689 0.7431,-3.8049 1.9501,-3.8049 0.368,0 0.7129,0.1789 0.8509,0.4238 0.115,0.2068 0.099,0.2068 0.099,1.1728 0.0228,1.127 0.4417,1.6562 1.3038,1.6562 0.9658,0 1.5962,-0.5521 1.5962,-1.4494 0,-1.4257 -1.5552,-2.5298 -3.5972,-2.5298 -3.1279,0 -5.4028,2.438 -5.4028,5.7498 0,3.1738 2.0588,5.4509 4.897,5.4509 1.771,0 3.0588,-0.7129 4.3928,-2.4148 z"
       id="path3205" />
    <path
       inkscape:connector-curvature="0"
       d="m 71.657667,320.842 h -4.332 v 0.5042 c 0.8049,0.0688 1.132,0.4829 1.132,1.3339 v 11.73 c 0,0.8508 -0.3771,1.3108 -1.132,1.3799 v 0.552 h 5.4968 v -0.6 c -0.7587,-0.0221 -1.1648,-0.4439 -1.1648,-1.3319 z"
       id="path3207" />
    <path
       inkscape:connector-curvature="0"
       d="m 82.603467,333.4672 c -0.9199,1.127 -1.6328,1.4969 -2.6218,1.4969 -0.8969,0 -1.5639,-0.399 -2.0469,-1.1748 -0.4138,-0.7278 -0.5979,-1.4778 -0.6899,-3.0473 h 5.7959 c -0.1379,-1.9486 -0.4831,-3.0394 -1.219,-3.9215 -0.7588,-0.897 -1.8169,-1.3537 -3.0818,-1.3537 -2.8747,0 -4.8069,2.2752 -4.8069,5.6318 0,3.3579 1.886,5.5659 4.7378,5.5659 1.8628,0 2.99,-0.7358 4.4849,-2.8747 l -0.5523,-0.3226 z m -5.4738,-3.6252 c 0.0688,-2.7485 0.4829,-3.5757 1.6098,-3.5757 0.6438,0 1.0808,0.3369 1.2649,0.991 0.115,0.4368 0.1609,1.0808 0.2068,2.2539 v 0.3308 z"
       id="path3209" />
    <path
       inkscape:connector-curvature="0"
       d="m 102.14747,320.842 h -4.852802 v 0.6 c 0.4619,0 0.8538,0.3299 1.963,1.5829 v 10.9018 c 0,1.3108 -0.346,1.6328 -2.0321,1.8399 v 0.5749 h 5.221002 v -0.5749 c -1.771,-0.2068 -2.1889,-0.6438 -2.1889,-2.2769 v -9.2458 l 10.285,12.5119 h 0.615 v -13.5469 c 0,-1.3107 0.304,-1.6098 1.823,-1.8398 v -0.5271 h -4.945 v 0.5271 c 1.7019,0.1609 2.122,0.6438 2.122,2.2769 v 7.0148 z"
       id="path3211" />
    <path
       inkscape:connector-curvature="0"
       d="m 119.23067,325.466 c -2.921,0 -5.173,2.4138 -5.173,5.5398 0,3.2888 2.174,5.658 5.173,5.658 2.967,0 5.227,-2.3919 5.227,-5.5889 0,-3.22 -2.23,-5.6089 -5.227,-5.6089 z m 0.023,0.8001 c 1.334,0 1.804,1.2419 1.804,4.9467 0,3.542 -0.468,4.6509 -1.827,4.6509 -1.357,0 -1.773,-1.1499 -1.773,-4.4438 0,-4.0479 0.404,-5.1538 1.796,-5.1538 z"
       id="path3213" />
    <path
       inkscape:connector-curvature="0"
       d="m 132.88067,336.6411 c 0.978,-0.345 1.524,-0.4368 3.002,-0.5979 l 1.426,-0.1609 v -0.5288 c -1.012,-0.0459 -1.251,-0.345 -1.251,-1.334 v -8.2775 h -4.66 v 0.5495 c 1.15,0.0918 1.46,0.3679 1.46,1.3569 v 6.5088 c -0.773,0.7588 -1.264,1.0119 -1.92,1.0119 -0.943,0 -1.28,-0.4599 -1.28,-1.6328 v -7.7943 h -4.332 v 0.5492 c 0.943,0.1839 1.132,0.3909 1.132,1.357 v 5.7959 c 0,2.0239 1.148,3.2199 3.054,3.2199 1.208,0 2.021,-0.3679 3.369,-1.5178 z"
       id="path3215" />
    <path
       inkscape:connector-curvature="0"
       d="m 142.63467,325.742 h -4.394 v 0.549 c 1.012,0.1609 1.217,0.3908 1.217,1.3569 v 6.762 c 0,0.9658 -0.184,1.1728 -1.217,1.3799 v 0.5517 h 5.543 v -0.5517 c -0.851,-0.115 -1.126,-0.46 -1.126,-1.3108 v -6.1409 c 0,-0.0918 0.161,-0.3218 0.39,-0.5288 0.506,-0.5288 1.058,-0.8049 1.587,-0.8049 0.805,0 1.223,0.6208 1.223,1.9089 v 5.5659 c 0,0.8508 -0.306,1.219 -1.108,1.3108 v 0.552 h 5.405 v -0.552 c -0.897,-0.0688 -1.097,-0.345 -1.097,-1.3108 v -5.7729 c 0,-1.9778 -1.231,-3.243 -3.135,-3.243 -1.38,0 -2.437,0.6438 -3.288,2.001 z"
       id="path3217" />
    <path
       inkscape:connector-curvature="0"
       d="m 193.98067,320.842 h -4.899 v 0.5271 c 1.633,0.115 1.978,0.2759 1.978,1.012 0,0.3679 -0.069,0.6438 -0.46,1.6328 l -2.921,7.5669 -3.174,-7.6819 c -0.437,-1.0349 -0.529,-1.3108 -0.529,-1.6558 0,-0.5288 0.345,-0.782 1.219,-0.8279 0.115,0 0.414,-0.0229 0.759,-0.0459 v -0.5273 h -7.728 v 0.5273 c 1.15,0.1609 1.357,0.345 1.932,1.6099 l 5.888,13.7769 h 0.621 l 5.244,-13.501 c 0.551,-1.4258 0.874,-1.7249 2.07,-1.886 z"
       id="path3219" />
    <path
       inkscape:connector-curvature="0"
       d="m 203.70367,333.4672 c -0.92,1.127 -1.633,1.4969 -2.622,1.4969 -0.897,0 -1.564,-0.399 -2.047,-1.1748 -0.414,-0.7278 -0.598,-1.4778 -0.69,-3.0473 h 5.796 c -0.138,-1.9486 -0.483,-3.0394 -1.219,-3.9215 -0.759,-0.897 -1.817,-1.3537 -3.082,-1.3537 -2.874,0 -4.806,2.2752 -4.806,5.6318 0,3.3579 1.886,5.5659 4.737,5.5659 1.863,0 2.99,-0.7358 4.485,-2.8747 l -0.552,-0.3226 z m -5.474,-3.6252 c 0.069,-2.7485 0.483,-3.5757 1.61,-3.5757 0.643,0 1.081,0.3369 1.265,0.991 0.115,0.4368 0.16,1.0808 0.206,2.2539 v 0.3308 z"
       id="path3221" />
    <path
       inkscape:connector-curvature="0"
       d="m 209.66567,325.742 h -4.341 v 0.549 c 0.989,0.1379 1.233,0.4367 1.233,1.3569 v 6.762 c 0,0.9428 -0.228,1.1958 -1.233,1.3799 v 0.5517 h 6.118 v -0.5517 c -1.403,-0.0918 -1.685,-0.3909 -1.685,-1.8169 v -4.347 c 0,-1.1958 0.647,-2.1848 1.409,-2.1848 0.184,0 0.391,0.1609 0.644,0.5288 0.437,0.6209 0.782,0.7959 1.38,0.7959 0.851,0 1.449,-0.6308 1.449,-1.5088 0,-1.0349 -0.782,-1.7907 -1.863,-1.7907 -1.152,0 -2.028,0.6198 -3.111,2.1589 z"
       id="path3223" />
    <path
       inkscape:connector-curvature="0"
       d="m 219.75767,320.842 h -4.509 v 0.5042 c 1.058,0.2067 1.309,0.4138 1.309,1.3339 v 13.961 h 0.232 l 1.817,-1.2879 c 1.058,0.9429 1.886,1.3108 3.036,1.3108 3.059,0 5.215,-2.3918 5.215,-5.8188 0,-3.1739 -1.778,-5.3789 -4.341,-5.3789 -1.086,0 -1.922,0.3899 -2.759,1.2849 v -5.9092 z m 0,7.2202 c 0.38,-0.9888 0.826,-1.396 1.563,-1.396 1.426,0 2.137,1.554 2.137,4.5928 0,3.1738 -0.689,4.5818 -2.16,4.5818 -0.966,0 -1.54,-0.679 -1.54,-1.73 z"
       id="path3225" />
    <path
       inkscape:connector-curvature="0"
       d="m 264.85767,329.342 c 3.121,-0.0217 3.908,-0.0857 4.925,-0.4746 1.862,-0.7129 2.874,-2.116 2.874,-3.887 0,-2.6679 -2.184,-4.1384 -6.026,-4.1384 h -7.405 v 0.5273 c 1.61,0.138 1.932,0.5059 1.932,2.116 v 10.1658 c 0,1.4258 -0.299,1.886 -1.38,2.0239 -0.069,0 -0.299,0.0459 -0.552,0.0918 v 0.5752 h 7.682 v -0.5752 c -1.817,-0.23 -2.05,-0.4368 -2.05,-2.116 v -4.3088 z m 0,-6.938 c 0,-0.5288 0.4,-0.762 1.176,-0.762 1.908,0 2.623,1 2.623,3.4529 0,1.449 -0.262,2.323 -0.83,2.8518 -0.556,0.46 -1.323,0.5953 -2.969,0.5953 z"
       id="path3227" />
    <path
       inkscape:connector-curvature="0"
       d="m 277.96567,325.742 h -4.341 v 0.549 c 0.989,0.1379 1.233,0.4367 1.233,1.3569 v 6.762 c 0,0.9428 -0.228,1.1958 -1.233,1.3799 v 0.5517 h 6.118 v -0.5517 c -1.403,-0.0918 -1.685,-0.3909 -1.685,-1.8169 v -4.347 c 0,-1.1958 0.647,-2.1848 1.409,-2.1848 0.184,0 0.391,0.1609 0.644,0.5288 0.437,0.6209 0.782,0.7959 1.38,0.7959 0.851,0 1.449,-0.6308 1.449,-1.5088 0,-1.0349 -0.782,-1.7907 -1.863,-1.7907 -1.152,0 -2.028,0.6198 -3.111,2.1589 z"
       id="path3229" />
    <path
       inkscape:connector-curvature="0"
       d="m 292.40367,333.4672 c -0.92,1.127 -1.633,1.4969 -2.622,1.4969 -0.897,0 -1.564,-0.399 -2.047,-1.1748 -0.414,-0.7278 -0.598,-1.4778 -0.69,-3.0473 h 5.796 c -0.138,-1.9486 -0.483,-3.0394 -1.219,-3.9215 -0.759,-0.897 -1.817,-1.3537 -3.082,-1.3537 -2.874,0 -4.807,2.2752 -4.807,5.6318 0,3.3579 1.886,5.5659 4.738,5.5659 1.863,0 2.99,-0.7358 4.485,-2.8747 l -0.552,-0.3226 z m -5.474,-3.6252 c 0.069,-2.7485 0.483,-3.5757 1.61,-3.5757 0.643,0 1.08,0.3369 1.265,0.991 0.115,0.4368 0.16,1.0808 0.206,2.2539 v 0.3308 z"
       id="path3231" />
    <path
       inkscape:connector-curvature="0"
       d="m 298.21167,325.742 h -4.371 v 0.549 c 1.012,0.1609 1.217,0.3908 1.217,1.3569 v 11.523 c 0,0.9428 -0.18,1.1499 -1.263,1.3339 v 0.5372 h 6.279 v -0.5 c -1.403,-0.0679 -1.816,-0.521 -1.816,-2.0379 v -3.2429 c 1.112,1.0808 1.715,1.3799 2.735,1.3799 2.576,0 4.464,-2.3919 4.464,-5.7959 0,-3.1968 -1.744,-5.3789 -4.326,-5.3789 -1.367,0 -2.201,0.5278 -2.919,1.8598 v -1.5841 z m 0.046,2.6422 c 0,-0.1609 0.216,-0.5288 0.505,-0.8278 0.46,-0.5059 0.989,-0.7898 1.495,-0.7898 1.195,0 1.799,1.3828 1.799,4.4008 0,2.8518 -0.66,4.1739 -2.006,4.1739 -0.768,0 -1.444,-0.5159 -1.793,-1.368 z"
       id="path3233" />
    <path
       inkscape:connector-curvature="0"
       d="m 311.93067,325.466 c -2.921,0 -5.173,2.4138 -5.173,5.5398 0,3.2888 2.174,5.658 5.173,5.658 2.967,0 5.227,-2.3919 5.227,-5.5889 0,-3.22 -2.23,-5.6089 -5.227,-5.6089 z m 0.023,0.8001 c 1.334,0 1.804,1.2419 1.804,4.9467 0,3.542 -0.468,4.6509 -1.827,4.6509 -1.357,0 -1.773,-1.1499 -1.773,-4.4438 0,-4.0479 0.404,-5.1538 1.796,-5.1538 z"
       id="path3235" />
    <path
       inkscape:connector-curvature="0"
       d="m 325.47467,328.8442 v -3.3318 h -0.503 c -0.138,0.3428 -0.276,0.46 -0.552,0.46 -0.138,0 -0.368,-0.0469 -0.736,-0.1638 -0.758,-0.253 -1.287,-0.3418 -1.794,-0.3418 -2.092,0 -3.631,1.4248 -3.631,3.3549 0,1.5179 0.949,2.576 3.287,3.565 1.563,0.6899 2.212,1.2649 2.212,2.001 0,0.8969 -0.692,1.4538 -1.73,1.4538 -1.609,0 -2.668,-1.021 -3.15,-2.9949 h -0.644 v 3.7954 h 0.575 c 0.253,-0.4833 0.391,-0.6442 0.598,-0.6442 0.115,0 0.298,0.0459 0.528,0.1379 0.621,0.2759 1.84,0.5288 2.484,0.5288 2.093,0 3.539,-1.4258 3.539,-3.4958 0,-1.6329 -0.896,-2.6219 -3.171,-3.5879 -1.564,-0.667 -2.229,-1.242 -2.229,-2.024 0,-0.7587 0.653,-1.2898 1.539,-1.2898 0.598,0 1.219,0.2378 1.725,0.6919 0.483,0.46 0.736,0.8738 1.081,1.886 z"
       id="path3237" />
    <path
       inkscape:connector-curvature="0"
       d="m 331.35767,325.742 h -4.432 v 0.549 c 1.012,0.2068 1.232,0.4138 1.232,1.3569 v 6.762 c 0,0.9428 -0.163,1.1269 -1.232,1.3799 v 0.5517 h 5.497 v -0.5517 c -0.805,-0.115 -1.065,-0.4368 -1.065,-1.3108 v -8.737 z m -1.626,-5.245 c -0.989,0 -1.794,0.783 -1.794,1.7229 0,1.0349 0.759,1.877 1.771,1.877 1.012,0 1.794,-0.7949 1.794,-1.8538 0,-0.9887 -0.782,-1.7458 -1.771,-1.7458 z"
       id="path3239" />
    <path
       inkscape:connector-curvature="0"
       d="m 339.97267,325.742 h -2.115 v -3.8897 h -0.622 c -1.403,1.9777 -2.323,3.0129 -3.818,4.2778 v 0.6119 h 1.24 v 7.4608 c 0,1.4949 0.972,2.4148 2.532,2.4148 1.541,0 2.461,-0.6899 3.404,-2.5756 l -0.575,-0.2532 c -0.46,0.8738 -0.828,1.1958 -1.311,1.1958 -0.644,0 -0.85,-0.3909 -0.85,-1.3108 v -6.9318 h 2.115 z"
       id="path3241" />
    <path
       inkscape:connector-curvature="0"
       d="m 345.45767,325.742 h -4.432 v 0.549 c 1.012,0.2068 1.232,0.4138 1.232,1.3569 v 6.762 c 0,0.9428 -0.163,1.1269 -1.232,1.3799 v 0.5517 h 5.497 v -0.5517 c -0.805,-0.115 -1.065,-0.4368 -1.065,-1.3108 v -8.737 z m -1.626,-5.245 c -0.989,0 -1.794,0.783 -1.794,1.7229 0,1.0349 0.759,1.877 1.771,1.877 1.012,0 1.794,-0.7949 1.794,-1.8538 0,-0.9887 -0.782,-1.7458 -1.771,-1.7458 z"
       id="path3243" />
    <path
       inkscape:connector-curvature="0"
       d="m 352.83067,325.466 c -2.921,0 -5.173,2.4138 -5.173,5.5398 0,3.2888 2.174,5.658 5.173,5.658 2.967,0 5.227,-2.3919 5.227,-5.5889 0,-3.22 -2.23,-5.6089 -5.227,-5.6089 z m 0.023,0.8001 c 1.334,0 1.804,1.2419 1.804,4.9467 0,3.542 -0.468,4.6509 -1.827,4.6509 -1.357,0 -1.773,-1.1499 -1.773,-4.4438 0,-4.0479 0.404,-5.1538 1.796,-5.1538 z"
       id="path3245" />
    <path
       inkscape:connector-curvature="0"
       d="m 363.43467,325.742 h -4.394 v 0.549 c 1.012,0.1609 1.217,0.3908 1.217,1.3569 v 6.762 c 0,0.9658 -0.184,1.1728 -1.217,1.3799 v 0.5517 h 5.543 v -0.5517 c -0.851,-0.115 -1.126,-0.46 -1.126,-1.3108 v -6.1409 c 0,-0.0918 0.161,-0.3218 0.39,-0.5288 0.506,-0.5288 1.058,-0.8049 1.587,-0.8049 0.805,0 1.223,0.6208 1.223,1.9089 v 5.5659 c 0,0.8508 -0.306,1.219 -1.108,1.3108 v 0.552 h 5.405 v -0.552 c -0.897,-0.0688 -1.097,-0.345 -1.097,-1.3108 v -5.7729 c 0,-1.9778 -1.231,-3.243 -3.135,-3.243 -1.38,0 -2.437,0.6438 -3.288,2.001 z"
       id="path3247" />
    <path
       inkscape:connector-curvature="0"
       d="m 402.70467,335.742 h -0.092 c -0.897,0 -1.265,-0.4786 -2.415,-3.1717 l -5.129,-12.0498 h -0.643 l -5.106,12.5559 c -0.874,2.1389 -1.15,2.4839 -2.254,2.6909 v 0.5747 h 4.669 v -0.5747 c -1.357,-0.0918 -1.886,-0.345 -1.886,-0.9429 0,-0.2988 0.184,-0.8738 0.667,-2.1159 l 0.345,-0.8665 h 5.174 c 0.782,1.7764 1.058,2.5964 1.058,3.0974 0,0.4829 -0.298,0.7129 -1.103,0.7588 -0.115,0 -0.414,0.023 -0.736,0.0688 v 0.575 h 7.452 l -10e-4,-0.6 z m -11.5,-4.8 2.162,-5.6168 2.323,5.6168 z"
       id="path3249" />
    <path
       inkscape:connector-curvature="0"
       d="m 408.46567,325.742 h -4.341 v 0.549 c 0.989,0.1379 1.233,0.4367 1.233,1.3569 v 6.762 c 0,0.9428 -0.228,1.1958 -1.233,1.3799 v 0.5517 h 6.118 v -0.5517 c -1.403,-0.0918 -1.685,-0.3909 -1.685,-1.8169 v -4.347 c 0,-1.1958 0.647,-2.1848 1.409,-2.1848 0.184,0 0.391,0.1609 0.644,0.5288 0.437,0.6209 0.782,0.7959 1.38,0.7959 0.851,0 1.449,-0.6308 1.449,-1.5088 0,-1.0349 -0.782,-1.7907 -1.863,-1.7907 -1.152,0 -2.028,0.6198 -3.111,2.1589 z"
       id="path3251" />
    <path
       inkscape:connector-curvature="0"
       d="m 420.67267,325.742 h -2.115 v -3.8897 h -0.622 c -1.403,1.9777 -2.323,3.0129 -3.818,4.2778 v 0.6119 h 1.24 v 7.4608 c 0,1.4949 0.972,2.4148 2.532,2.4148 1.541,0 2.461,-0.6899 3.404,-2.5756 l -0.575,-0.2532 c -0.46,0.8738 -0.828,1.1958 -1.311,1.1958 -0.644,0 -0.85,-0.3909 -0.85,-1.3108 v -6.9318 h 2.115 z"
       id="path3253" />
    <path
       inkscape:connector-curvature="0"
       d="m 426.15767,325.742 h -4.432 v 0.549 c 1.012,0.2068 1.232,0.4138 1.232,1.3569 v 6.762 c 0,0.9428 -0.163,1.1269 -1.232,1.3799 v 0.5517 h 5.497 v -0.5517 c -0.805,-0.115 -1.065,-0.4368 -1.065,-1.3108 v -8.737 z m -1.626,-5.245 c -0.989,0 -1.794,0.783 -1.794,1.7229 0,1.0349 0.759,1.877 1.771,1.877 1.012,0 1.794,-0.7949 1.794,-1.8538 0,-0.9887 -0.782,-1.7458 -1.771,-1.7458 z"
       id="path3255" />
    <path
       inkscape:connector-curvature="0"
       d="m 437.23367,333.8352 c -0.851,0.9658 -1.449,1.2878 -2.392,1.2878 -2.001,0 -3.284,-2.001 -3.284,-5.1289 0,-2.3689 0.743,-3.8049 1.95,-3.8049 0.368,0 0.713,0.1789 0.851,0.4238 0.115,0.2068 0.099,0.2068 0.099,1.1728 0.023,1.127 0.442,1.6562 1.304,1.6562 0.965,0 1.596,-0.5521 1.596,-1.4494 0,-1.4257 -1.555,-2.5298 -3.597,-2.5298 -3.128,0 -5.403,2.438 -5.403,5.7498 0,3.1738 2.059,5.4509 4.897,5.4509 1.771,0 3.059,-0.7129 4.393,-2.4148 z"
       id="path3257" />
    <path
       inkscape:connector-curvature="0"
       d="m 442.65767,320.842 h -4.332 v 0.5042 c 0.805,0.0688 1.132,0.4829 1.132,1.3339 v 11.73 c 0,0.8508 -0.377,1.3108 -1.132,1.3799 v 0.552 h 5.497 v -0.6 c -0.759,-0.0221 -1.165,-0.4439 -1.165,-1.3319 z"
       id="path3259" />
    <path
       inkscape:connector-curvature="0"
       d="m 453.60367,333.4672 c -0.92,1.127 -1.633,1.4969 -2.622,1.4969 -0.897,0 -1.564,-0.399 -2.047,-1.1748 -0.414,-0.7278 -0.598,-1.4778 -0.69,-3.0473 h 5.796 c -0.138,-1.9486 -0.483,-3.0394 -1.219,-3.9215 -0.759,-0.897 -1.817,-1.3537 -3.082,-1.3537 -2.874,0 -4.807,2.2752 -4.807,5.6318 0,3.3579 1.886,5.5659 4.738,5.5659 1.863,0 2.99,-0.7358 4.485,-2.8747 l -0.552,-0.3226 z m -5.474,-3.6252 c 0.069,-2.7485 0.483,-3.5757 1.61,-3.5757 0.644,0 1.081,0.3369 1.265,0.991 0.115,0.4368 0.161,1.0808 0.207,2.2539 v 0.3308 z"
       id="path3261" />
    <path
       inkscape:connector-curvature="0"
       d="m 479.14767,320.842 h -4.853 v 0.6 c 0.462,0 0.854,0.3299 1.963,1.5829 v 10.9018 c 0,1.3108 -0.346,1.6328 -2.032,1.8399 v 0.5749 h 5.221 v -0.5749 c -1.771,-0.2068 -2.189,-0.6438 -2.189,-2.2769 v -9.2458 l 10.285,12.5119 h 0.615 v -13.5469 c 0,-1.3107 0.304,-1.6098 1.823,-1.8398 v -0.5271 h -4.945 v 0.5271 c 1.702,0.1609 2.122,0.6438 2.122,2.2769 v 7.0148 z"
       id="path3263" />
    <path
       inkscape:connector-curvature="0"
       d="m 496.23067,325.466 c -2.921,0 -5.173,2.4138 -5.173,5.5398 0,3.2888 2.174,5.658 5.173,5.658 2.967,0 5.227,-2.3919 5.227,-5.5889 0,-3.22 -2.23,-5.6089 -5.227,-5.6089 z m 0.023,0.8001 c 1.334,0 1.804,1.2419 1.804,4.9467 0,3.542 -0.468,4.6509 -1.827,4.6509 -1.357,0 -1.773,-1.1499 -1.773,-4.4438 0,-4.0479 0.404,-5.1538 1.796,-5.1538 z"
       id="path3265" />
    <path
       inkscape:connector-curvature="0"
       d="m 509.88067,336.6411 c 0.978,-0.345 1.524,-0.4368 3.002,-0.5979 l 1.426,-0.1609 v -0.5288 c -1.012,-0.0459 -1.251,-0.345 -1.251,-1.334 v -8.2775 h -4.66 v 0.5495 c 1.15,0.0918 1.46,0.3679 1.46,1.3569 v 6.5088 c -0.773,0.7588 -1.264,1.0119 -1.92,1.0119 -0.943,0 -1.28,-0.4599 -1.28,-1.6328 v -7.7943 h -4.332 v 0.5492 c 0.943,0.1839 1.132,0.3909 1.132,1.357 v 5.7959 c 0,2.0239 1.148,3.2199 3.054,3.2199 1.208,0 2.021,-0.3679 3.369,-1.5178 z"
       id="path3267" />
    <path
       inkscape:connector-curvature="0"
       d="m 519.63467,325.742 h -4.394 v 0.549 c 1.012,0.1609 1.217,0.3908 1.217,1.3569 v 6.762 c 0,0.9658 -0.184,1.1728 -1.217,1.3799 v 0.5517 h 5.543 v -0.5517 c -0.851,-0.115 -1.126,-0.46 -1.126,-1.3108 v -6.1409 c 0,-0.0918 0.161,-0.3218 0.39,-0.5288 0.506,-0.5288 1.058,-0.8049 1.587,-0.8049 0.805,0 1.223,0.6208 1.223,1.9089 v 5.5659 c 0,0.8508 -0.306,1.219 -1.108,1.3108 v 0.552 h 5.405 v -0.552 c -0.897,-0.0688 -1.097,-0.345 -1.097,-1.3108 v -5.7729 c 0,-1.9778 -1.231,-3.243 -3.135,-3.243 -1.38,0 -2.437,0.6438 -3.288,2.001 z"
       id="path3269" />
    <path
       inkscape:connector-curvature="0"
       d="m 23.057667,403.342 h 6.5 v -23.7 h 6.5856 v -5 h -19.61372 v 5 h 6.52812 z"
       id="path3271" />
    <path
       inkscape:connector-curvature="0"
       d="m 39.557667,403.342 h 6 v -12.4316 c 1.2595,-2.2684 1.8896,-2.9458 3.3176,-2.9458 1.7639,0 2.3824,1.1774 2.3824,3.4919 v 11.8855 h 6 v -12.6414 c 0,-5.2919 -3.1627,-7.1359 -6.2408,-7.1359 -2.2678,0 -3.99,0.8818 -5.376,2.8979 h -0.0832 V 374.642 h -6 z"
       id="path3273" />
    <path
       inkscape:connector-curvature="0"
       d="m 77.211467,398.1342 c -1.9309,1.1338 -3.4009,1.586 -5.0379,1.586 -2.8559,0 -4.5779,-1.825 -4.8718,-5.1782 h 10.4559 c 0.1259,-7.5447 -3.485,-10.9776 -7.9779,-10.9776 -4.9558,0 -8.6221,4.408 -8.6221,10.4539 0,3.9057 1.7662,9.70187 9,9.70187 2.5188,0 4.7869,-0.58789 7.054,-1.93187 l -2e-4,-3.6541 z m -9.9538,-6.3922 c 0,-2.9928 0.8549,-4.7777 2.5219,-4.7777 1.5959,0 2.3518,1.5928 2.3938,4.7777 z"
       id="path3275" />
    <path
       inkscape:connector-curvature="0"
       d="m 110.44767,397.7981 c -1.5961,1.0078 -2.6462,1.3217 -3.9482,1.3217 -2.8559,0 -4.8418,-2.2588 -4.8418,-5.6059 0,-3.1079 1.9368,-5.3499 4.6319,-5.3499 1.2598,0 2.4358,0.3828 3.9061,1.2759 v -4.5779 c -2.0582,-0.9658 -3.4442,-1.2978 -5.1661,-1.2978 -5.586002,0 -9.671902,4.282 -9.671902,10.2019 0,5.7119 4.1628,9.95383 9.671902,9.95383 1.6799,0 3.1919,-0.33594 5.4181,-1.25977 z"
       id="path3277" />
    <path
       inkscape:connector-curvature="0"
       d="m 131.79767,398.3862 c -0.798,0.5459 -1.344,0.7558 -1.764,0.7558 -0.504,0 -0.576,-0.2519 -0.576,-2.1 v -7.8958 c 0,-4.3679 -3.324,-5.5818 -7.068,-5.5818 -3.176,0 -5.42,0.7129 -8.13,2.6419 v 4.4099 c 2.63,-2.0999 4.581,-2.9519 6.702,-2.9519 1.68,0 2.496,0.8017 2.496,2.6579 v 0.6719 c -6.125,2.0159 -10.5,3.8638 -10.5,7.8538 0,2.7719 2.213,4.87179 5.064,4.87179 2.058,0 3.57,-0.75586 5.628,-2.72999 0.294,1.80591 1.302,2.68799 3.108,2.68799 1.47,0 2.898,-0.5459 5.04,-1.84789 v -3.4436 z m -8.34,-0.042 c -1.33,1.0498 -1.887,1.2759 -2.874,1.2759 -1.26,0 -2.126,-0.8289 -2.126,-2.032 0,-1.7219 1.709,-2.73 5,-3.9058 z"
       id="path3279" />
    <path
       inkscape:connector-curvature="0"
       d="m 147.77167,397.6301 c -1.722,1.0498 -2.688,1.3899 -3.654,1.3899 -1.596,0 -2.16,-1.2439 -2.16,-3.0279 v -8.2501 h 5.52 v -3.8 h -5.52 v -6.0092 h -1.074 l -7.77,9.0718 v 0.7374 h 2.844 v 9.3842 c 0,4.9558 3.405,6.59397 6.354,6.59397 1.722,0 3.15,-0.41992 5.46,-1.63797 z"
       id="path3281" />
    <path
       inkscape:connector-curvature="0"
       d="m 180.49367,402.0822 c 2.579,1.17582 4.609,1.63797 6.638,1.63797 4.242,0 7.226,-2.60377 7.226,-6.29977 0,-6.594 -9.5,-6.0479 -9.5,-8.6519 0,-0.8398 0.9,-1.4038 2.4,-1.4038 0.924,0 1.848,0.1309 2.856,0.438 1.051,0.3359 2.143,0.7978 3.488,1.512 v -3.99 c -2.185,-1.2178 -4.201,-1.7598 -6.302,-1.7598 -4.158,0 -7.142,2.5178 -7.142,6.1699 0,6.0899 8.8,5.544 8.8,8.19 0,1.0918 -0.915,1.6958 -2.204,1.6958 -1.861,0 -3.807,-0.6348 -6.26,-2.032 z"
       id="path3283" />
    <path
       inkscape:connector-curvature="0"
       d="m 215.49767,398.3862 c -0.798,0.5459 -1.344,0.7558 -1.764,0.7558 -0.504,0 -0.576,-0.2519 -0.576,-2.1 v -7.8958 c 0,-4.3679 -3.324,-5.5818 -7.068,-5.5818 -3.176,0 -5.42,0.7129 -8.13,2.6419 v 4.4099 c 2.63,-2.0999 4.581,-2.9519 6.702,-2.9519 1.68,0 2.496,0.8017 2.496,2.6579 v 0.6719 c -6.125,2.0159 -10.5,3.8638 -10.5,7.8538 0,2.7719 2.213,4.87179 5.064,4.87179 2.058,0 3.57,-0.75586 5.628,-2.72999 0.294,1.80591 1.302,2.68799 3.108,2.68799 1.47,0 2.898,-0.5459 5.04,-1.84789 v -3.4436 z m -8.34,-0.042 c -1.33,1.0498 -1.887,1.2759 -2.874,1.2759 -1.26,0 -2.126,-0.8289 -2.126,-2.032 0,-1.7219 1.709,-2.73 5,-3.9058 z"
       id="path3285" />
    <path
       inkscape:connector-curvature="0"
       d="m 231.47167,397.6301 c -1.722,1.0498 -2.688,1.3899 -3.654,1.3899 -1.596,0 -2.16,-1.2439 -2.16,-3.0279 v -8.2501 h 5.52 v -3.8 h -5.52 v -6.0092 h -1.074 l -7.77,9.0718 v 0.7374 h 2.844 v 9.3842 c 0,4.9558 3.405,6.59397 6.354,6.59397 1.722,0 3.15,-0.41992 5.46,-1.63797 z"
       id="path3287" />
    <path
       inkscape:connector-curvature="0"
       d="m 310.25767,393.7241 c 0,-6.2998 -4.508,-10.1599 -9.48,-10.1599 -4.746,0 -9.42,3.6528 -9.42,10.1599 0,5.7959 3.953,10.1179 9.42,10.1179 5.544,0 9.48,-4.24 9.48,-10.1179 z m -6.4,0 c 0,3.948 -0.928,5.7179 -3.08,5.7179 -2.1,0 -3.12,-1.766 -3.12,-5.7179 0,-3.7378 1.012,-5.7598 3.12,-5.7598 2.142,0 3.08,2.0178 3.08,5.7598 z"
       id="path3289" />
    <path
       inkscape:connector-curvature="0"
       d="m 314.35767,403.342 h 6 v -12.2637 c 0.797,-2.0158 1.889,-3.1363 3.317,-3.1363 1.68,0 2.382,1.3553 2.382,3.5143 v 11.8857 h 6 v -12.8516 c 0,-4.4939 -2.471,-6.9257 -6.156,-6.9257 -2.268,0 -4.032,1.0068 -5.46,3.1037 h -0.084 v -2.7264 h -5.999 z"
       id="path3291" />
    <path
       inkscape:connector-curvature="0"
       d="m 408.27167,397.6301 c -1.722,1.0498 -2.688,1.3899 -3.654,1.3899 -1.596,0 -2.16,-1.2439 -2.16,-3.0279 v -8.2501 h 5.52 v -3.8 h -5.52 v -6.0092 h -1.074 l -7.77,9.0718 v 0.7374 h 2.844 v 9.3842 c 0,4.9558 3.405,6.59397 6.354,6.59397 1.722,0 3.15,-0.41992 5.46,-1.63797 z"
       id="path3293" />
    <path
       inkscape:connector-curvature="0"
       d="m 412.15767,403.342 h 6 v -12.4316 c 1.259,-2.2684 1.889,-2.9458 3.317,-2.9458 1.764,0 2.382,1.1774 2.382,3.4919 v 11.8855 h 6 v -12.6414 c 0,-5.2919 -3.162,-7.1359 -6.24,-7.1359 -2.268,0 -3.99,0.8818 -5.376,2.8979 h -0.084 V 374.642 h -6 z"
       id="path3295" />
    <path
       inkscape:connector-curvature="0"
       d="m 449.81167,398.1342 c -1.931,1.1338 -3.401,1.586 -5.038,1.586 -2.856,0 -4.578,-1.825 -4.872,-5.1782 h 10.456 c 0.126,-7.5447 -3.485,-10.9776 -7.978,-10.9776 -4.956,0 -8.622,4.408 -8.622,10.4539 0,3.9057 1.766,9.70187 9,9.70187 2.519,0 4.787,-0.58789 7.054,-1.93187 v -3.6541 z m -9.954,-6.3922 c 0,-2.9928 0.855,-4.7777 2.522,-4.7777 1.596,0 2.352,1.5928 2.394,4.7777 z"
       id="path3297" />
    <path
       inkscape:connector-curvature="0"
       d="m 468.85767,403.342 h 6 v -12.4316 c 1.152,-1.9319 2.176,-2.846 3.457,-2.846 1.512,0 2.242,1.4658 2.242,3.8538 v 11.4238 h 6 v -12.6 c 1.072,-1.8058 2.273,-2.6778 3.602,-2.6778 1.89,0 2.198,1.6757 2.198,4.7358 v 10.542 h 6 v -12.8938 c 0,-4.9138 -3.406,-6.8838 -6.266,-6.8838 -2.646,0 -4.578,1.3008 -5.922,3.9439 -0.924,-2.5198 -2.856,-3.9439 -5.418,-3.9439 -2.268,0 -4.158,1.0498 -5.754,3.3599 h -0.14 v -2.9823 h -6 z"
       id="path3299" />
    <path
       inkscape:connector-curvature="0"
       d="m 520.59767,398.3862 c -0.798,0.5459 -1.344,0.7558 -1.764,0.7558 -0.504,0 -0.576,-0.2519 -0.576,-2.1 v -7.8958 c 0,-4.3679 -3.324,-5.5818 -7.068,-5.5818 -3.176,0 -5.42,0.7129 -8.13,2.6419 v 4.4099 c 2.63,-2.0999 4.581,-2.9519 6.702,-2.9519 1.68,0 2.496,0.8017 2.496,2.6579 v 0.6719 c -6.125,2.0159 -10.5,3.8638 -10.5,7.8538 0,2.7719 2.213,4.87179 5.064,4.87179 2.058,0 3.57,-0.75586 5.628,-2.72999 0.294,1.80591 1.302,2.68799 3.108,2.68799 1.47,0 2.898,-0.5459 5.04,-1.84789 v -3.4436 z m -8.34,-0.042 c -1.33,1.0498 -1.887,1.2759 -2.874,1.2759 -1.26,0 -2.126,-0.8289 -2.126,-2.032 0,-1.7219 1.709,-2.73 5,-3.9058 z"
       id="path3301" />
    <path
       inkscape:connector-curvature="0"
       d="m 536.67167,397.6301 c -1.722,1.0498 -2.688,1.3899 -3.654,1.3899 -1.596,0 -2.16,-1.2439 -2.16,-3.0279 v -8.2501 h 5.52 v -3.8 h -5.52 v -6.0092 h -1.074 l -7.77,9.0718 v 0.7374 h 2.844 v 9.3842 c 0,4.9558 3.405,6.59397 6.354,6.59397 1.722,0 3.15,-0.41992 5.46,-1.63797 z"
       id="path3303" />
    <path
       inkscape:connector-curvature="0"
       d="m 543.86967,397.042 c -1.848,0 -3.36,1.4702 -3.36,3.3181 0,1.8479 1.512,3.35983 3.36,3.35983 1.848,0 3.318,-1.51193 3.318,-3.35983 0,-1.8479 -1.47,-3.3181 -3.318,-3.3181 z"
       id="path3305" />
    <path
       style="fill:none;stroke:#000000;stroke-width:4"
       id="path3311"
       d="m 48.857667,343.342 v 22 m 73.000003,-22 v 22 m 81,-22 v 22 m 108,-22 v 22 m 111,-22 v 22 m 81,-22 v 22"
       inkscape:connector-curvature="0" />
    <text
       xml:space="preserve"
       style="font-size:24px;font-style:normal;font-variant:normal;font-weight:bold;font-stretch:normal;text-align:start;line-height:125%;letter-spacing:0px;word-spacing:0px;writing-mode:lr-tb;text-anchor:start;fill:#000000;fill-opacity:1;stroke:none;font-family:Times;-inkscape-font-specification:Times Bold"
       x="250.01572"
       y="127.70077"
       id="text3679"
       sodipodi:linespacing="125%"><tspan
         sodipodi:role="line"
         id="tspan3681"
         x="250.01572"
         y="127.70077">Predicate /</tspan></text>
    <path
       style="fill:none;stroke:#000000;stroke-width:3.57838583;stroke-linecap:butt;stroke-linejoin:miter;stroke-miterlimit:4;stroke-opacity:1;stroke-dasharray:none"
       d="m 314.41813,318.27476 67.79005,-120.21885 47.46818,47.00429"
       id="path3689"
       inkscape:connector-curvature="0"
       sodipodi:nodetypes="ccc" />
    <path
       style="fill:none;stroke:#000000;stroke-width:3.75;stroke-linecap:butt;stroke-linejoin:miter;stroke-miterlimit:4;stroke-opacity:1;stroke-dasharray:none"
       d="m 423.63779,315.21258 28.77166,-45.6378 49.6063,49.6063"
       id="path3691"
       inkscape:connector-curvature="0" />
    <path
       style="fill:none;stroke:#000000;stroke-width:3.69444323;stroke-linecap:butt;stroke-linejoin:miter;stroke-miterlimit:4;stroke-opacity:1;stroke-dasharray:none"
       d="M 115.30291,213.60013 252.50585,70.930604 287.83059,105.13078"
       id="path3683-1"
       inkscape:connector-curvature="0"
       sodipodi:nodetypes="ccc" />
    <path
       style="fill:none;stroke:#000000;stroke-width:3.77620196;stroke-linecap:butt;stroke-linejoin:miter;stroke-miterlimit:4;stroke-opacity:1;stroke-dasharray:none"
       d="M 201.57804,316.83689 319.509,135.72687 l 38.75748,38.02304"
       id="path3683-1-4"
       inkscape:connector-curvature="0"
       sodipodi:nodetypes="ccc" />
    <path
       style="fill:none;stroke:#000000;stroke-width:3.65939164;stroke-linecap:butt;stroke-linejoin:miter;stroke-miterlimit:4;stroke-opacity:1;stroke-dasharray:none"
       d="m 55.209095,313.59659 41.237892,-69.53218 26.317283,70.53155"
       id="path3691-9"
       inkscape:connector-curvature="0"
       sodipodi:nodetypes="ccc" />
    <path
       inkscape:connector-curvature="0"
       d="m 380.55955,112.13691 h -4.899 v 0.5271 c 1.633,0.115 1.978,0.2759 1.978,1.012 0,0.3679 -0.069,0.6438 -0.46,1.6328 l -2.921,7.5669 -3.174,-7.6819 c -0.437,-1.0349 -0.529,-1.3108 -0.529,-1.6558 0,-0.5288 0.345,-0.782 1.219,-0.8279 0.115,0 0.414,-0.0229 0.759,-0.0459 v -0.5273 h -7.728 v 0.5273 c 1.15,0.1609 1.357,0.345 1.932,1.6099 l 5.888,13.7769 h 0.621 l 5.244,-13.501 c 0.551,-1.4258 0.874,-1.7249 2.07,-1.886 z"
       id="path3219-4" />
    <path
       inkscape:connector-curvature="0"
       d="m 390.28255,124.76211 c -0.92,1.127 -1.633,1.4969 -2.622,1.4969 -0.897,0 -1.564,-0.399 -2.047,-1.1748 -0.414,-0.7278 -0.598,-1.4778 -0.69,-3.0473 h 5.796 c -0.138,-1.9486 -0.483,-3.0394 -1.219,-3.9215 -0.759,-0.897 -1.817,-1.3537 -3.082,-1.3537 -2.874,0 -4.806,2.2752 -4.806,5.6318 0,3.3579 1.886,5.5659 4.737,5.5659 1.863,0 2.99,-0.7358 4.485,-2.8747 l -0.552,-0.3226 z m -5.474,-3.6252 c 0.069,-2.7485 0.483,-3.5757 1.61,-3.5757 0.643,0 1.081,0.3369 1.265,0.991 0.115,0.4368 0.16,1.0808 0.206,2.2539 v 0.3308 z"
       id="path3221-8" />
    <path
       inkscape:connector-curvature="0"
       d="m 396.24455,117.03691 h -4.341 v 0.549 c 0.989,0.1379 1.233,0.4367 1.233,1.3569 v 6.762 c 0,0.9428 -0.228,1.1958 -1.233,1.3799 v 0.5517 h 6.118 v -0.5517 c -1.403,-0.0918 -1.685,-0.3909 -1.685,-1.8169 v -4.347 c 0,-1.1958 0.647,-2.1848 1.409,-2.1848 0.184,0 0.391,0.1609 0.644,0.5288 0.437,0.6209 0.782,0.7959 1.38,0.7959 0.851,0 1.449,-0.6308 1.449,-1.5088 0,-1.0349 -0.782,-1.7907 -1.863,-1.7907 -1.152,0 -2.028,0.6198 -3.111,2.1589 z"
       id="path3223-8" />
    <path
       inkscape:connector-curvature="0"
       d="m 406.33655,112.13691 h -4.509 v 0.5042 c 1.058,0.2067 1.309,0.4138 1.309,1.3339 v 13.961 h 0.232 l 1.817,-1.2879 c 1.058,0.9429 1.886,1.3108 3.036,1.3108 3.059,0 5.215,-2.3918 5.215,-5.8188 0,-3.1739 -1.778,-5.3789 -4.341,-5.3789 -1.086,0 -1.922,0.3899 -2.759,1.2849 v -5.9092 z m 0,7.2202 c 0.38,-0.9888 0.826,-1.396 1.563,-1.396 1.426,0 2.137,1.554 2.137,4.5928 0,3.1738 -0.689,4.5818 -2.16,4.5818 -0.966,0 -1.54,-0.679 -1.54,-1.73 z"
       id="path3225-2" />
    <path
       inkscape:connector-curvature="0"
       d="m 424.79946,120.68246 c 3.1208,-0.022 3.9079,-0.086 4.9247,-0.475 1.8628,-0.713 2.8753,-2.116 2.8753,-3.887 0,-2.668 -2.1854,-4.138 -6.0264,-4.138 h -7.4058 v 0.527 c 1.6099,0.138 1.9322,0.506 1.9322,2.116 v 10.166 c 0,1.426 -0.2991,1.886 -1.3802,2.024 -0.0688,0 -0.2988,0.046 -0.5517,0.092 v 0.575 h 7.6819 v -0.575 c -1.8169,-0.23 -2.05,-0.437 -2.05,-2.116 v -4.309 z m 0,-6.938 c 0,-0.529 0.4,-0.762 1.1757,-0.762 1.9089,0 2.6243,1 2.6243,3.453 0,1.449 -0.2625,2.323 -0.8304,2.852 -0.5569,0.46 -1.323,0.595 -2.9696,0.595 z"
       id="path3127-4" />
    <path
       inkscape:connector-curvature="0"
       d="m 437.69946,112.18246 h -4.4321 v 0.504 c 1.0579,0.207 1.2321,0.391 1.2321,1.334 v 11.73 c 0,0.966 -0.1859,1.173 -1.2321,1.38 v 0.552 h 5.543 v -0.552 c -0.8508,-0.115 -1.1109,-0.46 -1.1109,-1.311 v -6.141 c 0,-0.091 0.1539,-0.321 0.3748,-0.528 0.5059,-0.529 1.0579,-0.805 1.5869,-0.805 0.805,0 1.2383,0.62 1.2383,1.909 v 5.565 c 0,0.851 -0.3113,1.219 -1.1233,1.311 v 0.552 h 5.4043 v -0.552 c -0.827,-0.069 -1.081,-0.414 -1.081,-1.38 v -5.703 c 0,-1.978 -1.237,-3.243 -3.1502,-3.243 -1.2129,0 -2.0598,0.46 -3.2498,1.794 z"
       id="path3129-5" />
    <path
       inkscape:connector-curvature="0"
       d="m 450.70746,117.08246 h -4.341 v 0.549 c 0.989,0.138 1.233,0.437 1.233,1.357 v 6.762 c 0,0.943 -0.228,1.196 -1.233,1.38 v 0.552 h 6.118 v -0.552 c -1.403,-0.092 -1.685,-0.391 -1.685,-1.817 v -4.347 c 0,-1.196 0.647,-2.185 1.409,-2.185 0.184,0 0.391,0.161 0.644,0.529 0.437,0.621 0.782,0.796 1.38,0.796 0.851,0 1.449,-0.631 1.449,-1.509 0,-1.035 -0.782,-1.791 -1.863,-1.791 -1.152,0 -2.028,0.62 -3.111,2.159 z"
       id="path3131-5" />
    <path
       inkscape:connector-curvature="0"
       d="m 466.77846,126.21046 -0.23,0.23 c -0.069,0.069 -0.138,0.092 -0.253,0.092 -0.322,0 -0.496,-0.207 -0.496,-0.575 v -6.003 c 0,-1.932 -1.743,-3.151 -4.541,-3.151 -2.599,0 -4.359,1.173 -4.359,2.898 0,0.943 0.556,1.518 1.507,1.518 0.92,0 1.593,-0.552 1.593,-1.334 0,-0.322 -0.148,-0.621 -0.443,-0.989 -0.207,-0.23 -0.247,-0.368 -0.247,-0.506 0,-0.483 0.631,-0.761 1.42,-0.761 1.334,0 1.893,0.593 1.893,1.934 v 1.679 c -2.714,0.828 -3.832,1.288 -4.676,1.863 -0.988,0.69 -1.446,1.472 -1.446,2.461 0,1.403 1.069,2.438 2.527,2.438 1.311,0 2.369,-0.46 3.634,-1.61 0.253,1.173 0.759,1.61 1.886,1.61 0.989,0 1.702,-0.368 2.576,-1.311 l -0.345,-0.483 z m -4.179,-0.828 c -0.606,0.713 -1.055,0.989 -1.594,0.989 -0.69,0 -1.106,-0.621 -1.106,-1.541 0,-1.334 0.929,-2.3 2.7,-2.783 z"
       id="path3133-1" />
    <path
       inkscape:connector-curvature="0"
       d="m 475.21646,120.18446 v -3.332 h -0.503 c -0.138,0.343 -0.276,0.46 -0.552,0.46 -0.138,0 -0.368,-0.047 -0.736,-0.163 -0.758,-0.253 -1.287,-0.342 -1.794,-0.342 -2.092,0 -3.631,1.425 -3.631,3.355 0,1.518 0.949,2.576 3.286,3.565 1.564,0.69 2.213,1.265 2.213,2.001 0,0.897 -0.692,1.454 -1.73,1.454 -1.61,0 -2.668,-1.021 -3.151,-2.995 h -0.643 v 3.795 h 0.575 c 0.253,-0.483 0.391,-0.644 0.598,-0.644 0.115,0 0.298,0.046 0.528,0.138 0.621,0.276 1.84,0.529 2.484,0.529 2.093,0 3.539,-1.426 3.539,-3.496 0,-1.633 -0.896,-2.622 -3.171,-3.588 -1.564,-0.667 -2.229,-1.242 -2.229,-2.024 0,-0.759 0.653,-1.29 1.539,-1.29 0.598,0 1.219,0.238 1.725,0.692 0.483,0.46 0.736,0.874 1.081,1.886 z"
       id="path3135-7" />
    <path
       inkscape:connector-curvature="0"
       d="m 485.54546,124.80746 c -0.92,1.127 -1.633,1.497 -2.622,1.497 -0.897,0 -1.564,-0.399 -2.047,-1.175 -0.414,-0.728 -0.598,-1.478 -0.69,-3.047 h 5.796 c -0.138,-1.949 -0.483,-3.039 -1.219,-3.921 -0.759,-0.897 -1.817,-1.354 -3.082,-1.354 -2.875,0 -4.807,2.276 -4.807,5.632 0,3.358 1.886,5.566 4.738,5.566 1.863,0 2.99,-0.736 4.485,-2.875 l -0.552,-0.323 z m -5.474,-3.625 c 0.069,-2.749 0.483,-3.576 1.61,-3.576 0.644,0 1.081,0.337 1.265,0.991 0.115,0.437 0.161,1.081 0.206,2.254 v 0.331 z"
       id="path3137-1" />
    <path
       inkscape:connector-curvature="0"
       d="m 458.74531,183.48964 c 3.1208,-0.022 3.9079,-0.086 4.9247,-0.475 1.8628,-0.713 2.8753,-2.116 2.8753,-3.887 0,-2.668 -2.1854,-4.138 -6.0264,-4.138 h -7.4058 v 0.527 c 1.6099,0.138 1.9322,0.506 1.9322,2.116 v 10.166 c 0,1.426 -0.2991,1.886 -1.3802,2.024 -0.0688,0 -0.2988,0.046 -0.5517,0.092 v 0.575 h 7.6819 v -0.575 c -1.8169,-0.23 -2.05,-0.437 -2.05,-2.116 v -4.309 z m 0,-6.938 c 0,-0.529 0.4,-0.762 1.1757,-0.762 1.9089,0 2.6243,1 2.6243,3.453 0,1.449 -0.2625,2.323 -0.8304,2.852 -0.5569,0.46 -1.323,0.595 -2.9696,0.595 z"
       id="path3127-4-1" />
  </g>
</svg>
