<?xml version="1.0" encoding="UTF-8" standalone="no"?>
<!-- Created with Inkscape (http://www.inkscape.org/) -->
<svg
   xmlns:svg="http://www.w3.org/2000/svg"
   xmlns="http://www.w3.org/2000/svg"
   version="1.0"
   width="1024"
   height="1024"
   id="svg2">
  <defs
     id="defs4" />
  <path
     d="M 471.17921,90.64133 C 526.93948,90.64206 576.66062,106.94063 620.34279,139.53709 C 664.02382,172.1349 685.86462,215.30894 685.86525,269.05931 C 685.86462,304.6819 679.31238,335.25902 666.20852,360.79076 C 653.10342,386.32342 634.6259,406.14933 610.77589,420.26855 C 586.92477,434.38856 561.05419,444.46814 533.16407,450.50732 C 505.27299,456.54723 474.19343,459.56701 439.9253,459.56665 C 401.61635,459.56701 365.497,453.18396 331.56714,440.41748 C 297.63671,427.65175 268.74123,406.99015 244.88061,378.43261 C 221.0196,349.87595 209.08919,316.10474 209.08935,277.11888 C 209.08919,242.8509 216.98469,212.95054 232.77587,187.41771 C 248.56669,161.88613 269.73586,142.3986 296.28344,128.95506 C 322.83054,115.51289 350.55195,105.76656 379.44776,99.71604 C 408.34291,93.66696 438.92003,90.64206 471.17921,90.64133 L 471.17921,90.64133 z M 283.68652,275.11937 C 283.68629,314.76148 299.64648,344.32859 331.56714,363.82079 C 363.48724,383.3139 400.61147,393.06023 442.93995,393.05981 C 471.15828,393.06023 497.19805,389.86614 521.05934,383.47753 C 544.91969,377.08979 566.25804,364.65694 585.07448,346.17895 C 603.88984,327.7019 613.2978,304.01539 613.29836,275.11937 C 613.2978,236.1346 596.16353,206.56236 561.89552,186.40257 C 527.62649,166.24404 489.65631,156.16446 447.98487,156.1638 C 404.30287,156.16446 365.99944,165.91079 333.07446,185.40281 C 300.14892,204.8961 283.68629,234.80159 283.68652,275.11937 L 283.68652,275.11937 z M 830.01468,62.43284 L 896.55225,62.43284 C 905.28775,62.43359 909.65595,65.45849 909.65675,71.50754 C 909.65595,75.52782 908.31265,80.73167 905.62695,87.11912 C 902.93965,93.50802 901.59635,98.38375 901.59725,101.74631 L 901.59725,961.56716 L 830.01468,961.56716 L 830.01468,62.43284 z M 114.34325,560.37276 C 405.98451,546.94046 624.72064,536.5225 770.55227,529.1189 L 770.55227,594.64136 C 738.96955,596.67186 691.42736,599.70186 627.92555,603.73146 C 564.4226,607.76146 516.87015,610.78126 485.26807,612.79076 L 485.26807,930.31326 L 412.70118,930.31326 L 412.70118,617.83566 C 366.3327,621.87596 296.78051,627.24896 204.04442,633.95486 C 197.33822,633.95506 188.10459,636.97996 176.3435,643.02956 C 164.58215,649.07956 155.33826,652.10446 148.6118,652.10426 C 140.55215,652.10446 135.50723,648.41306 133.47704,641.03006 L 114.34325,560.37276 z"
     id="path4" />
</svg>
