<?xml version="1.0" encoding="UTF-8" standalone="no"?>
<!DOCTYPE svg PUBLIC "-//W3C//DTD SVG 1.1//EN" "http://www.w3.org/Graphics/SVG/1.1/DTD/svg11.dtd">
<svg xmlns="http://www.w3.org/2000/svg" xmlns:xlink="http://www.w3.org/1999/xlink" version="1.1" width="411pt" height="182pt" viewBox="0 0 411 182">
<g enable-background="new">
<clipPath id="cp0">
<path transform="matrix(1,0,0,-1,-148,668)" d="M 0 0 L 612 0 L 612 792 L 0 792 Z "/>
</clipPath>
<g clip-path="url(#cp0)">
<path transform="matrix(1,0,0,-1,-27.598,181.302)" stroke-width="1" stroke-linecap="butt" stroke-linejoin="bevel" fill="none" stroke="#0000ff" d="M 89.69315 143.70183 C 89.69315 132.85172 89.69315 118.92151 89.69315 108.10138 "/>
<path transform="matrix(1,0,0,-1,-27.598,181.302)" stroke-width="1" stroke-linecap="butt" stroke-linejoin="bevel" fill="none" stroke="#ff0000" d="M 109.06139 72.05591 C 121.64156 61.04977 137.96178 46.76459 150.50193 35.78944 "/>
<path transform="matrix(1,0,0,-1,-27.598,181.302)" stroke-width="1" stroke-linecap="butt" stroke-linejoin="bevel" fill="none" stroke="#0000ff" d="M 231.91298 72.76591 C 219.10283 61.69878 202.18259 47.07959 189.22243 35.87845 "/>
<path transform="matrix(1,0,0,-1,-27.598,181.302)" stroke-width="1" stroke-linecap="butt" stroke-linejoin="bevel" fill="none" stroke="#0000ff" d="M 296.7838 144.76186 C 287.2237 133.6217 274.58354 118.8715 264.9534 107.63138 "/>
<path transform="matrix(1,0,0,-1,-27.598,181.302)" stroke-width="1" stroke-linecap="butt" stroke-linejoin="bevel" fill="none" stroke="#ff0000" d="M 324.61418 144.76186 C 334.1643 133.6217 346.81449 118.8715 356.43458 107.63138 "/>
<path transform="matrix(1,0,0,-1,-27.598,181.302)" stroke-width="1" stroke-linecap="butt" stroke-linejoin="bevel" fill="none" stroke="#0000ff" d="M 404.35523 103.03131 C 421.75544 105.03134 437.44563 100.69128 437.44563 90.00114 C 437.44563 79.313 421.75544 74.97194 404.35523 76.97598 "/>
<path transform="matrix(1,0,0,-1,-27.598,181.302)" stroke-width="1" stroke-linecap="butt" stroke-linejoin="bevel" fill="none" stroke="#000000" d="M 129.48165 162.00208 C 129.48165 171.94345 111.66711 180.0023 89.69115 180.0023 C 67.71518 180.0023 49.90065 171.94345 49.90065 162.00208 C 49.90065 152.06072 67.71518 144.00186 89.69115 144.00186 C 111.66711 144.00186 129.48165 152.06072 129.48165 162.00208 Z M 89.69115 162.00208 "/>
<path transform="matrix(1,0,0,-1,-27.598,181.302)" stroke-width="1" stroke-linecap="butt" stroke-linejoin="bevel" fill="none" stroke="#000000" d="M 89.69315 162.00208 "/>
<symbol id="font_1_9">
<path d="M .63 .67700007 L .019000002 .67700007 L 0 .45200003 L .025000003 .45200003 C .039 .61300006 .054 .646 .20500002 .646 C .223 .646 .24900003 .646 .259 .64400008 C .28 .64000007 .28 .629 .28 .606 L .28 .079 C .28 .045 .28 .031000002 .17500001 .031000002 L .135 .031000002 L .135 0 C .17600002 .003 .278 .003 .324 .003 C .37 .003 .473 .003 .514 0 L .514 .031000002 L .47400005 .031000002 C .36900003 .031000002 .36900003 .045 .36900003 .079 L .36900003 .606 C .36900003 .62600007 .36900003 .64000007 .387 .64400008 C .398 .646 .425 .646 .444 .646 C .595 .646 .61 .61300006 .624 .45200003 L .64900007 .45200003 L .63 .67700007 Z "/>
</symbol>
<symbol id="font_1_14">
<path d="M .39600004 .541 C .42200003 .60400006 .47300003 .605 .48900003 .605 L .48900003 .63600006 C .46600003 .63400009 .43700005 .633 .41400004 .633 C .39600004 .633 .34900005 .635 .32700003 .63600006 L .32700003 .605 C .358 .60400006 .374 .587 .374 .56200006 C .374 .55200007 .37300004 .5500001 .36800004 .538 L .26700003 .29200004 L .15600002 .561 C .15200001 .57100006 .15 .57500007 .15 .579 C .15 .605 .187 .605 .206 .605 L .206 .63600006 C .18 .635 .114 .633 .097 .633 C .07 .633 .030000002 .63400009 0 .63600006 L 0 .605 C .048 .605 .067 .605 .081 .57000008 L .231 .20500002 C .22600001 .19200002 .21200001 .15900001 .206 .14600002 C .18400002 .091000009 .15600002 .022 .09200001 .022 C .087000008 .022 .064 .022 .045 .040000008 C .076000008 .044 .08400001 .066 .08400001 .08200001 C .08400001 .10800001 .065000008 .12400001 .042000005 .12400001 C .022 .12400001 0 .11100001 0 .08100001 C 0 .036 .042000005 0 .09200001 0 C .155 0 .19600001 .05700001 .22 .11400001 L .39600004 .541 Z "/>
</symbol>
<symbol id="font_1_11">
<path d="M .14400001 .57000008 L .14400001 .63600006 L 0 .625 L 0 .594 C .07100001 .594 .07800001 .58800008 .07800001 .544 L .07800001 .076 C .07800001 .031000004 .067 .031000004 0 .031000004 L 0 0 C .034 .001000002 .08600001 .0029999912 .112 .0029999912 C .13900002 .0029999912 .19000001 .001000002 .22500003 0 L .22500003 .031000004 C .158 .031000004 .14700002 .031000004 .14700002 .076 L .14700002 .244 L .14700002 .25300003 C .15200001 .237 .19400002 .183 .27 .183 C .38900004 .183 .49300004 .28100003 .49300004 .41000004 C .49300004 .53700008 .39600004 .63600006 .284 .63600006 C .20600002 .63600006 .164 .592 .14400001 .57000008 M .14700002 .30800004 L .14700002 .531 C .17600002 .582 .22500003 .61100009 .27600003 .61100009 C .349 .61100009 .41000004 .523 .41000004 .41000004 C .41000004 .289 .34000004 .20500002 .266 .20500002 C .22600001 .20500002 .18800001 .22500001 .16100002 .266 C .14700002 .287 .14700002 .28800003 .14700002 .30800004 Z "/>
</symbol>
<symbol id="font_1_d">
<path d="M .08400001 .263 C .09 .41200004 .17400001 .43700005 .20800002 .43700005 C .31100003 .43700005 .321 .30200003 .321 .263 L .08400001 .263 M .083000008 .24200002 L .36200003 .24200002 C .38400004 .24200002 .38700003 .24200002 .38700003 .263 C .38700003 .36200003 .33300004 .45900003 .20800002 .45900003 C .09200001 .45900003 0 .35600005 0 .23100002 C 0 .097 .105000007 0 .22000002 0 C .342 0 .38700003 .111 .38700003 .13000001 C .38700003 .14000002 .379 .14200002 .374 .14200002 C .365 .14200002 .36300005 .136 .36100004 .128 C .326 .025000003 .236 .025000003 .22600001 .025000003 C .17600002 .025000003 .136 .055000005 .113000009 .092 C .083000008 .14000002 .083000008 .20600002 .083000008 .24200002 Z "/>
</symbol>
<symbol id="font_1_7">
<path d="M .19700001 .605 C .19700001 .64100006 .20000002 .652 .279 .652 L .305 .652 L .305 .683 C .27 .68 .19100002 .68 .15300001 .68 C .11400001 .68 .035 .68 0 .683 L 0 .652 L .026 .652 C .105000007 .652 .10800001 .64100006 .10800001 .605 L .10800001 .078 C .10800001 .042000005 .105000007 .031000002 .026 .031000002 L 0 .031000002 L 0 0 C .035 .003 .11400001 .003 .15200001 .003 C .19100002 .003 .27 .003 .305 0 L .305 .031000002 L .279 .031000002 C .20000002 .031000002 .19700001 .042000005 .19700001 .078 L .19700001 .605 Z "/>
</symbol>
<use xlink:href="#font_1_9" transform="matrix(9.9626,0,0,-9.9626,47.785657,21.737)"/>
<use xlink:href="#font_1_14" transform="matrix(9.9626,0,0,-9.9626,54.53034,23.779334)"/>
<use xlink:href="#font_1_11" transform="matrix(9.9626,0,0,-9.9626,59.880258,23.669745)"/>
<use xlink:href="#font_1_d" transform="matrix(9.9626,0,0,-9.9626,65.6984,21.846589)"/>
<use xlink:href="#font_1_7" transform="matrix(9.9626,0,0,-9.9626,73.439357,21.737)"/>
<path transform="matrix(1,0,0,-1,-27.598,181.302)" stroke-width="1" stroke-linecap="butt" stroke-linejoin="bevel" fill="none" stroke="#000000" d="M 150.57193 90.00114 C 150.57193 99.9425 123.3151 108.00137 89.69115 108.00137 C 56.0672 108.00137 28.81036 99.9425 28.81036 90.00114 C 28.81036 80.05978 56.0672 72.00093 89.69115 72.00093 C 123.3151 72.00093 150.57193 80.05978 150.57193 90.00114 Z M 89.69115 90.00114 "/>
<path transform="matrix(1,0,0,-1,-27.598,181.302)" stroke-width="1" stroke-linecap="butt" stroke-linejoin="bevel" fill="none" stroke="#000000" d="M 89.69315 90.00114 "/>
<symbol id="font_2_3">
<path d="M .59300008 .71700009 C .59300008 .72 .591 .72700008 .582 .72700008 C .577 .72700008 .57600006 .7260001 .56400009 .7120001 L .51600006 .65500006 C .49000008 .702 .43800003 .72700008 .37300004 .72700008 C .246 .72700008 .126 .61200007 .126 .49100004 C .126 .41000004 .179 .36400003 .23 .34900005 L .337 .32100005 C .374 .31200005 .42900003 .29700003 .42900003 .215 C .42900003 .12500002 .347 .031000004 .24900003 .031000004 C .18500002 .031000004 .074 .053000004 .074 .177 C .074 .201 .07900001 .22500001 .08 .231 C .081 .23500002 .082 .23600002 .082 .238 C .082 .24800001 .075 .24900002 .07000001 .24900002 C .065000008 .24900002 .063 .24800001 .060000004 .245 C .056 .24100001 0 .013000001 0 .010000002 C 0 .0040000008 .0050000029 0 .011 0 C .016000003 0 .017000005 .0010000002 .029 .0150000019 L .07800001 .072000008 C .12100001 .014000001 .18900001 0 .24700003 0 C .38300003 0 .50100007 .13300002 .50100007 .25700004 C .50100007 .32600004 .46700008 .36000005 .45200003 .37400005 C .42900003 .39700005 .41400004 .40100003 .325 .42400003 C .30300004 .43000005 .26700003 .44000004 .25800003 .44200004 C .23100002 .45100004 .19700001 .48000006 .19700001 .53300008 C .19700001 .614 .277 .69900009 .37200005 .69900009 C .45500005 .69900009 .51600006 .656 .51600006 .544 C .51600006 .512 .512 .49400006 .512 .48800005 C .512 .48700006 .512 .47800005 .52400007 .47800005 C .53400006 .47800005 .535 .48100005 .53900006 .49800004 L .59300008 .71700009 Z "/>
</symbol>
<symbol id="font_2_2">
<path d="M .691 .45800004 C .691 .619 .585 .72700008 .43600003 .72700008 C .22000003 .72700008 0 .5 0 .26700003 C 0 .101 .11200001 0 .256 0 C .46800003 0 .691 .21900001 .691 .45800004 M .26200003 .026000003 C .16300002 .026000003 .093 .107 .093 .23900001 C .093 .28300003 .107 .42900003 .18400002 .54600009 C .25300003 .65000006 .351 .702 .43000005 .702 C .512 .702 .602 .646 .602 .49700005 C .602 .42500005 .575 .26900003 .47600005 .14600002 C .42800004 .085 .34600003 .026000003 .26200003 .026000003 Z "/>
</symbol>
<use xlink:href="#font_2_3" transform="matrix(9.9626,0,0,-9.9626,24.739048,94.01221)"/>
<use xlink:href="#font_2_2" transform="matrix(9.9626,0,0,-9.9626,31.394066,94.01221)"/>
<symbol id="font_1_1">
<path d="M .23200003 .00999999 C .23200003 .012999982 .23200003 .014999986 .215 .03199999 C .09 .15799999 .058 .347 .058 .5 C .058 .674 .096 .84800007 .21900001 .97300007 C .23200003 .985 .23200003 .98700007 .23200003 .99 C .23200003 .99700006 .22800002 1 .222 1 C .21200001 1 .12200001 .93200007 .06299999 .805 C .012000002 .69500008 0 .584 0 .5 C 0 .422 .011 .301 .066 .188 C .126 .065 .21200001 0 .222 0 C .22800002 0 .23200003 .0029999912 .23200003 .00999999 Z "/>
</symbol>
<symbol id="font_1_5">
<path d="M .24800003 .37400005 C .33 .40100003 .388 .47100006 .388 .55 C .388 .632 .3 .688 .204 .688 C .10300001 .688 .027000003 .628 .027000003 .55200007 C .027000003 .519 .049000004 .5 .078 .5 C .109000008 .5 .12900001 .522 .12900001 .55100008 C .12900001 .6010001 .082 .6010001 .067 .6010001 C .098 .65000006 .164 .66300007 .20000002 .66300007 C .24100003 .66300007 .29600004 .64100006 .29600004 .55100008 C .29600004 .53900006 .29400004 .48100005 .268 .43700005 C .238 .38900004 .204 .38600005 .17900002 .38500003 C .171 .38400004 .14700002 .38200004 .14000002 .38200004 C .132 .38100005 .125 .38000003 .125 .37000004 C .125 .35900004 .132 .35900004 .14900002 .35900004 L .19300002 .35900004 C .275 .35900004 .312 .29100005 .312 .193 C .312 .057000005 .24300003 .028 .199 .028 C .15600002 .028 .081 .045 .046000005 .104 C .081 .09900001 .11200001 .12100001 .11200001 .15900001 C .11200001 .19500001 .085 .215 .056 .215 C .031999999 .215 0 .201 0 .157 C 0 .06600001 .093 0 .20200002 0 C .32400004 0 .41500003 .091000009 .41500003 .193 C .41500003 .27500005 .35200004 .35300005 .24800003 .37400005 Z "/>
</symbol>
<symbol id="font_1_4">
<path d="M .07700001 .07700001 L .18300002 .18 C .33900003 .31800003 .39900003 .372 .39900003 .47200004 C .39900003 .586 .30900003 .666 .18700002 .666 C .074 .666 0 .574 0 .485 C 0 .42900003 .05 .42900003 .053000008 .42900003 C .07000001 .42900003 .105000007 .441 .105000007 .48200003 C .105000007 .508 .08700001 .53400006 .052000006 .53400006 C .044000005 .53400006 .042000008 .53400006 .039 .53300008 C .062000004 .59800007 .11600001 .63500007 .17400001 .63500007 C .26500003 .63500007 .308 .554 .308 .47200004 C .308 .39200003 .25800003 .31300003 .20300003 .25100003 L .011000004 .037 C 0 .026 0 .024 0 0 L .37100003 0 L .39900003 .17400001 L .374 .17400001 C .36900003 .14400001 .36200003 .1 .352 .085 C .345 .07700001 .279 .07700001 .257 .07700001 L .07700001 .07700001 Z "/>
</symbol>
<symbol id="font_1_2">
<path d="M .232 .5 C .232 .578 .22100002 .699 .16600001 .81200006 C .106 .93500009 .020000004 1 .009999998 1 C .0040000008 1 0 .99600008 0 .99 C 0 .98700007 0 .985 .019000002 .967 C .117000009 .86800006 .174 .709 .174 .5 C .174 .329 .137 .153 .012999997 .026999996 C 0 .014999986 0 .012999982 0 .00999999 C 0 .003999993 .0040000008 0 .009999998 0 C .020000004 0 .11000001 .06799999 .169 .195 C .22 .305 .232 .416 .232 .5 Z "/>
</symbol>
<symbol id="font_1_6">
<path d="M .58000007 .605 C .58000007 .64100006 .582 .652 .65900006 .652 L .683 .652 L .683 .683 C .64800009 .68 .57400009 .68 .536 .68 C .49800004 .68 .42300005 .68 .38800005 .683 L .38800005 .652 L .41200004 .652 C .48900003 .652 .49100007 .64100006 .49100007 .605 L .49100007 .37100003 L .192 .37100003 L .192 .605 C .192 .64100006 .194 .652 .27100004 .652 L .29500003 .652 L .29500003 .683 C .26000003 .68 .18600002 .68 .148 .68 C .11000001 .68 .035000005 .68 0 .683 L 0 .652 L .024000004 .652 C .101 .652 .10300001 .64100006 .10300001 .605 L .10300001 .078 C .10300001 .042000005 .101 .031000002 .024000004 .031000002 L 0 .031000002 L 0 0 C .035000005 .003 .109000008 .003 .14700002 .003 C .185 .003 .26000003 .003 .29500003 0 L .29500003 .031000002 L .27100004 .031000002 C .194 .031000002 .192 .042000005 .192 .078 L .192 .34 L .49100007 .34 L .49100007 .078 C .49100007 .042000005 .48900003 .031000002 .41200004 .031000002 L .38800005 .031000002 L .38800005 0 C .42300005 .003 .49700005 .003 .535 .003 C .573 .003 .64800009 .003 .683 0 L .683 .031000002 L .65900006 .031000002 C .582 .031000002 .58000007 .042000005 .58000007 .078 L .58000007 .605 Z "/>
</symbol>
<symbol id="font_1_13">
<path d="M .15400002 .411 L .29700003 .411 L .29700003 .44200004 L .15400002 .44200004 L .15400002 .626 L .12900001 .626 C .12799999 .544 .098000008 .43700005 0 .43300004 L 0 .411 L .085 .411 L .085 .135 C .085 .012000001 .178 0 .21400002 0 C .28500004 0 .31300003 .071 .31300003 .135 L .31300003 .19200002 L .28800003 .19200002 L .28800003 .13700001 C .28800003 .063 .25800003 .025000003 .22100002 .025000003 C .15400002 .025000003 .15400002 .116000007 .15400002 .13300002 L .15400002 .411 Z "/>
</symbol>
<symbol id="font_1_12">
<path d="M .13900002 .33200003 L .13900002 .44200004 L 0 .43100003 L 0 .4 C .07000001 .4 .07800001 .393 .07800001 .344 L .07800001 .076000008 C .07800001 .031000002 .067 .031000002 0 .031000002 L 0 0 C .039 .001 .08600001 .003 .11400001 .003 C .15400002 .003 .20100002 .003 .24100003 0 L .24100003 .031000002 L .22000002 .031000002 C .14600002 .031000002 .14400001 .042000005 .14400001 .078 L .14400001 .23200001 C .14400001 .33100004 .18600002 .42000003 .26200003 .42000003 C .26900003 .42000003 .27100004 .42000003 .27300004 .41900004 C .27 .418 .25000004 .40600003 .25000004 .38000003 C .25000004 .35200004 .27100004 .337 .293 .337 C .31100003 .337 .33600004 .349 .33600004 .381 C .33600004 .41300003 .305 .44200004 .26200003 .44200004 C .18900001 .44200004 .15300001 .37500004 .13900002 .33200003 Z "/>
</symbol>
<symbol id="font_1_10">
<path d="M .44300003 .22500003 C .44300003 .35300002 .34300003 .45900003 .222 .45900003 C .097 .45900003 0 .35000003 0 .22500003 C 0 .096 .104 0 .22100002 0 C .342 0 .44300003 .098000008 .44300003 .22500003 M .222 .025000003 C .17900002 .025000003 .135 .046 .10800001 .092 C .083000008 .136 .083000008 .19700001 .083000008 .23300003 C .083000008 .272 .083000008 .32600004 .10700001 .37000004 C .134 .41600005 .18100001 .43700005 .22100002 .43700005 C .26500003 .43700005 .30800004 .41500003 .33400003 .37200005 C .36 .32900004 .36 .27100004 .36 .23300003 C .36 .19700001 .36 .143 .33800004 .09900001 C .316 .054 .272 .025000003 .222 .025000003 Z "/>
</symbol>
<symbol id="font_1_f">
<path d="M .144 .44200004 L .0040000008 .43100003 L .0040000008 .4 C .069000009 .4 .07800001 .39400003 .07800001 .34500004 L .07800001 .076000008 C .07800001 .031000002 .067 .031000002 0 .031000002 L 0 0 C .032000007 .001 .086 .003 .11000001 .003 C .14500001 .003 .18 .001 .21400002 0 L .21400002 .031000002 C .148 .031000002 .144 .036000004 .144 .075 L .144 .44200004 M .148 .61600008 C .148 .648 .123 .669 .095000009 .669 C .064 .669 .042000005 .642 .042000005 .61600008 C .042000005 .58900007 .064 .563 .095000009 .563 C .123 .563 .148 .58400008 .148 .61600008 Z "/>
</symbol>
<symbol id="font_1_c">
<path d="M .083000008 .22900002 C .083000008 .39200003 .16500002 .43400003 .218 .43400003 C .227 .43400003 .29 .43300004 .32500003 .397 C .284 .39400003 .278 .36400003 .278 .351 C .278 .32500003 .296 .305 .324 .305 C .35 .305 .37 .32200004 .37 .35200004 C .37 .42000003 .294 .45900003 .21700001 .45900003 C .092 .45900003 0 .351 0 .22700002 C 0 .09900001 .099 0 .215 0 C .349 0 .381 .120000008 .381 .13000001 C .381 .14000002 .37100003 .14000002 .368 .14000002 C .359 .14000002 .35700003 .136 .35500003 .13000001 C .326 .037 .261 .025000003 .224 .025000003 C .171 .025000003 .083000008 .068 .083000008 .22900002 Z "/>
</symbol>
<use xlink:href="#font_1_1" transform="matrix(9.9626,0,0,-9.9626,39.766298,96.283679)"/>
<use xlink:href="#font_1_5" transform="matrix(9.9626,0,0,-9.9626,43.073888,94.01221)"/>
<use xlink:href="#font_1_4" transform="matrix(9.9626,0,0,-9.9626,48.13488,93.79303)"/>
<use xlink:href="#font_1_2" transform="matrix(9.9626,0,0,-9.9626,53.18591,96.283679)"/>
<use xlink:href="#font_1_6" transform="matrix(9.9626,0,0,-9.9626,60.139818,93.79303)"/>
<use xlink:href="#font_1_d" transform="matrix(9.9626,0,0,-9.9626,67.56196,93.90262)"/>
<use xlink:href="#font_1_13" transform="matrix(9.9626,0,0,-9.9626,71.8957,93.90262)"/>
<use xlink:href="#font_1_d" transform="matrix(9.9626,0,0,-9.9626,75.86082,93.90262)"/>
<use xlink:href="#font_1_12" transform="matrix(9.9626,0,0,-9.9626,80.28422,93.79303)"/>
<use xlink:href="#font_1_10" transform="matrix(9.9626,0,0,-9.9626,84.18955,93.90262)"/>
<use xlink:href="#font_1_13" transform="matrix(9.9626,0,0,-9.9626,89.081188,93.90262)"/>
<use xlink:href="#font_1_f" transform="matrix(9.9626,0,0,-9.9626,93.096118,93.79303)"/>
<use xlink:href="#font_1_c" transform="matrix(9.9626,0,0,-9.9626,95.87569,93.90262)"/>
<path transform="matrix(1,0,0,-1,-27.598,181.302)" stroke-width="1" stroke-linecap="butt" stroke-linejoin="bevel" fill="none" stroke="#000000" d="M 230.57295 18.00021 C 230.57295 27.94157 203.31613 36.00044 169.69219 36.00044 C 136.06824 36.00044 108.8114 27.94157 108.8114 18.00021 C 108.8114 8.05885 136.06824 0 169.69219 0 C 203.31613 0 230.57295 8.05885 230.57295 18.00021 Z M 169.69219 18.00021 "/>
<path transform="matrix(1,0,0,-1,-27.598,181.302)" stroke-width="1" stroke-linecap="butt" stroke-linejoin="bevel" fill="none" stroke="#000000" d="M 169.69219 18.00021 "/>
<symbol id="font_2_1">
<path d="M .67 .23300001 C .67200008 .238 .6750001 .245 .6750001 .24700001 C .6750001 .24800001 .6750001 .25800003 .66300007 .25800003 C .65400007 .25800003 .65200009 .252 .65000006 .246 C .58500006 .098000008 .54800006 .031000002 .37700004 .031000002 L .23100002 .031000002 C .21700002 .031000002 .21500002 .031000002 .209 .032 C .19900002 .033 .19600001 .034 .19600001 .042000005 C .19600001 .045 .19600001 .047000003 .201 .065000008 L .269 .33800004 L .36800004 .33800004 C .453 .33800004 .453 .317 .453 .29200004 C .453 .28500004 .453 .273 .44600005 .24300002 C .444 .238 .44300003 .23500002 .44300003 .23200001 C .44300003 .22700002 .44700004 .22100002 .45600004 .22100002 C .46400006 .22100002 .467 .22600001 .47100003 .24100001 L .52800008 .47500003 C .52800008 .48100005 .52300009 .48600004 .51600006 .48600004 C .507 .48600004 .50500008 .48000003 .50200006 .46800003 C .48100008 .39200003 .46300007 .36900003 .371 .36900003 L .277 .36900003 L .337 .61 C .34600003 .64500007 .347 .64900007 .39100004 .64900007 L .53200009 .64900007 C .65400007 .64900007 .6840001 .62 .6840001 .53800007 C .6840001 .514 .6840001 .512 .68000009 .485 C .68000009 .47900004 .679 .47200004 .679 .467 C .679 .462 .68200007 .455 .69100007 .455 C .702 .455 .70300009 .46100004 .70500007 .48000003 L .725 .65300008 C .72800007 .68 .72300007 .68 .6980001 .68 L .193 .68 C .17300001 .68 .163 .68 .163 .66 C .163 .64900007 .172 .64900007 .19100002 .64900007 C .228 .64900007 .25599999 .64900007 .25599999 .63100007 C .25599999 .62700006 .25599999 .625 .251 .60700008 L .119 .078 C .109 .039 .10700001 .031000002 .027999998 .031000002 C .011 .031000002 0 .031000002 0 .012 C 0 0 .009 0 .027999998 0 L .54700008 0 C .57000008 0 .57100006 .001 .57800009 .017 L .67 .23300001 Z "/>
</symbol>
<use xlink:href="#font_2_1" transform="matrix(9.9626,0,0,-9.9626,102.82058,165.95902)"/>
<symbol id="font_3_1">
<path d="M .30100004 .38100005 C .37900005 .41900004 .42900003 .46600003 .42900003 .535 C .42900003 .632 .32800005 .684 .23100002 .684 C .12100001 .684 .031 .612 .031 .517 C .031 .47000004 .053000008 .43600003 .070999998 .41600005 C .089 .39500005 .096 .39100004 .155 .35600005 C .09900001 .33200003 0 .27800004 0 .17300001 C 0 .062000008 .11500001 0 .22900002 0 C .35600005 0 .46 .08100001 .46 .18900001 C .46 .25500003 .42100004 .31100003 .36300005 .34500004 C .35000003 .35300002 .31500004 .37300004 .30100004 .38100005 M .138 .47600005 C .112 .49100004 .08400001 .518 .08400001 .555 C .08400001 .61800006 .157 .65500006 .22900002 .65500006 C .30700005 .65500006 .37600003 .606 .37600003 .535 C .37600003 .44600005 .272 .40100003 .27 .40100003 C .26800005 .40100003 .26600004 .40200005 .25900004 .40600003 L .138 .47600005 M .187 .337 L .32400004 .25800003 C .35000003 .243 .40000005 .213 .40000005 .154 C .40000005 .079 .31700004 .032 .23100002 .032 C .139 .032 .060000007 .091000009 .060000007 .17300001 C .060000007 .24700001 .11500001 .30400003 .187 .337 Z "/>
</symbol>
<use xlink:href="#font_3_1" transform="matrix(6.9738,0,0,-6.9738,110.173587,167.59249)"/>
<symbol id="font_4_1">
<path d="M .24200003 .26900003 L .04200001 .46800003 C .030000002 .48000003 .028000012 .48200003 .02000001 .48200003 C .010000005 .48200003 0 .47300003 0 .462 C 0 .455 .002000004 .453 .013000011 .44200004 L .21300002 .241 L .013000011 .040000004 C .002000004 .029000003 0 .027000003 0 .02 C 0 .009000001 .010000005 0 .02000001 0 C .028000012 0 .030000002 .0020000004 .04200001 .014000001 L .24100001 .21300002 L .448 .006 C .45 .005 .45700003 0 .463 0 C .47500003 0 .48300005 .009000001 .48300005 .02 C .48300005 .022 .48300005 .026 .48000003 .031000004 C .47900004 .033000005 .32 .19000001 .27000005 .241 L .453 .42400003 C .458 .43 .473 .44300003 .478 .44900004 C .47900004 .451 .48300005 .455 .48300005 .462 C .48300005 .47300003 .47500003 .48200003 .463 .48200003 C .45500005 .48200003 .45100004 .47800002 .44 .467 L .24200003 .26900003 Z "/>
</symbol>
<use xlink:href="#font_4_1" transform="matrix(9.9626,0,0,-9.9626,117.94451,165.86936)"/>
<use xlink:href="#font_2_1" transform="matrix(9.9626,0,0,-9.9626,126.8216,165.95902)"/>
<use xlink:href="#font_3_1" transform="matrix(6.9738,0,0,-6.9738,134.17362,167.59249)"/>
<use xlink:href="#font_1_6" transform="matrix(9.9626,0,0,-9.9626,141.9158,165.95902)"/>
<use xlink:href="#font_1_d" transform="matrix(9.9626,0,0,-9.9626,149.33794,166.0686)"/>
<use xlink:href="#font_1_13" transform="matrix(9.9626,0,0,-9.9626,153.67168,166.0686)"/>
<use xlink:href="#font_1_d" transform="matrix(9.9626,0,0,-9.9626,157.6368,166.0686)"/>
<use xlink:href="#font_1_12" transform="matrix(9.9626,0,0,-9.9626,162.0602,165.95902)"/>
<use xlink:href="#font_1_10" transform="matrix(9.9626,0,0,-9.9626,165.96553,166.0686)"/>
<use xlink:href="#font_1_13" transform="matrix(9.9626,0,0,-9.9626,170.85717,166.0686)"/>
<use xlink:href="#font_1_f" transform="matrix(9.9626,0,0,-9.9626,174.8721,165.95902)"/>
<use xlink:href="#font_1_c" transform="matrix(9.9626,0,0,-9.9626,177.65166,166.0686)"/>
<path transform="matrix(1,0,0,-1,-27.598,181.302)" stroke-width="1" stroke-linecap="butt" stroke-linejoin="bevel" fill="none" stroke="#000000" d="M 197.60254 72.00092 L 197.60254 108.00139 L 303.7839 108.00139 L 303.7839 72.00092 Z M 303.7839 108.00139 "/>
<path transform="matrix(1,0,0,-1,-27.598,181.302)" stroke-width="1" stroke-linecap="butt" stroke-linejoin="bevel" fill="none" stroke="#000000" d="M 250.69322 90.00114 "/>
<symbol id="font_1_8">
<path d="M .20400001 .661 C .19500001 .683 .19200002 .683 .16900002 .683 L 0 .683 L 0 .652 L .024000004 .652 C .10100001 .652 .103 .64100006 .103 .605 L .103 .105000007 C .103 .078 .103 .031000002 0 .031000002 L 0 0 C .035000005 .001 .08400001 .003 .11700001 .003 C .15 .003 .19900002 .001 .23400003 0 L .23400003 .031000002 C .13100001 .031000002 .13100001 .078 .13100001 .105000007 L .13100001 .64400008 L .13200002 .64400008 L .37300004 .022000002 C .37800003 .009000001 .38300003 0 .393 0 C .404 0 .40700004 .008 .411 .019000002 L .657 .652 L .65800008 .652 L .65800008 .078 C .65800008 .042000005 .656 .031000002 .57900008 .031000002 L .555 .031000002 L .555 0 C .592 .003 .66 .003 .69900009 .003 C .73800006 .003 .80500009 .003 .84200009 0 L .84200009 .031000002 L .818 .031000002 C .74100008 .031000002 .739 .042000005 .739 .078 L .739 .605 C .739 .64100006 .74100008 .652 .818 .652 L .84200009 .652 L .84200009 .683 L .67300006 .683 C .647 .683 .647 .68200007 .64000007 .66400006 L .42100004 .101 L .20400001 .661 Z "/>
</symbol>
<symbol id="font_1_3">
<path d="M .26500003 0 L .26500003 .058 L 0 .058 L 0 0 L .26500003 0 Z "/>
</symbol>
<symbol id="font_1_e">
<path d="M .07800001 .076000008 C .07800001 .031000002 .067 .031000002 0 .031000002 L 0 0 C .035 .001 .08600001 .003 .113000009 .003 C .139 .003 .191 .001 .225 0 L .225 .031000002 C .158 .031000002 .147 .031000002 .147 .076000008 L .147 .26000003 C .147 .36400003 .218 .42000003 .282 .42000003 C .345 .42000003 .356 .36600004 .356 .30900003 L .356 .076000008 C .356 .031000002 .345 .031000002 .278 .031000002 L .278 0 C .31300003 .001 .36400003 .003 .391 .003 C .41700004 .003 .46900005 .001 .503 0 L .503 .031000002 C .451 .031000002 .42600004 .031000002 .425 .061000006 L .425 .252 C .425 .33800004 .425 .36900003 .39400003 .40500004 C .38000003 .42200003 .347 .44200004 .289 .44200004 C .20500002 .44200004 .161 .38200004 .14400001 .344 L .14400001 .694 L 0 .683 L 0 .652 C .07000001 .652 .07800001 .64500007 .07800001 .596 L .07800001 .076000008 Z "/>
</symbol>
<use xlink:href="#font_1_8" transform="matrix(9.9626,0,0,-9.9626,201.58463,93.79303)"/>
<use xlink:href="#font_1_3" transform="matrix(9.9626,0,0,-9.9626,210.4613,91.93002)"/>
<use xlink:href="#font_1_9" transform="matrix(9.9626,0,0,-9.9626,214.02791,93.79303)"/>
<use xlink:href="#font_1_e" transform="matrix(9.9626,0,0,-9.9626,221.18105,93.79303)"/>
<use xlink:href="#font_1_d" transform="matrix(9.9626,0,0,-9.9626,226.6804,93.90262)"/>
<use xlink:href="#font_1_10" transform="matrix(9.9626,0,0,-9.9626,231.1038,93.90262)"/>
<use xlink:href="#font_1_12" transform="matrix(9.9626,0,0,-9.9626,236.0851,93.79303)"/>
<use xlink:href="#font_1_14" transform="matrix(9.9626,0,0,-9.9626,239.90077,95.835369)"/>
<path transform="matrix(1,0,0,-1,-27.598,181.302)" stroke-width="1" stroke-linecap="butt" stroke-linejoin="bevel" fill="none" stroke="#000000" d="M 358.8846 162.00208 C 358.8846 171.94345 337.30928 180.0023 310.694 180.0023 C 284.0787 180.0023 262.50337 171.94345 262.50337 162.00208 C 262.50337 152.06072 284.0787 144.00186 310.694 144.00186 C 337.30928 144.00186 358.8846 152.06072 358.8846 162.00208 Z M 310.694 162.00208 "/>
<path transform="matrix(1,0,0,-1,-27.598,181.302)" stroke-width="1" stroke-linecap="butt" stroke-linejoin="bevel" fill="none" stroke="#000000" d="M 310.694 162.00208 "/>
<symbol id="font_1_a">
<path d="M .291 .087000008 C .29500003 .047000003 .32200004 .005000001 .36900003 .005000001 C .39000003 .005000001 .45100004 .019000002 .45100004 .1 L .45100004 .15600002 L .42600004 .15600002 L .42600004 .1 C .42600004 .042000005 .40100003 .036000004 .39000003 .036000004 C .35700003 .036000004 .35300002 .081 .35300002 .086 L .35300002 .286 C .35300002 .328 .35300002 .367 .31700004 .404 C .27800004 .44300003 .22800002 .45900003 .18 .45900003 C .098 .45900003 .029 .41200004 .029 .34600003 C .029 .316 .049000004 .29900003 .075 .29900003 C .10300001 .29900003 .121 .31900005 .121 .34500004 C .121 .35700003 .116000007 .39000003 .07 .39100004 C .09700001 .42600004 .146 .43700005 .178 .43700005 C .22700003 .43700005 .284 .39800004 .284 .30900003 L .284 .272 C .23300001 .26900003 .16300002 .26600004 .1 .23600002 C .024999999 .20200002 0 .15000002 0 .106000009 C 0 .025000003 .09700001 0 .16 0 C .22600001 0 .272 .040000004 .291 .087000008 M .284 .25100003 L .284 .15100001 C .284 .056 .21200001 .022000002 .167 .022000002 C .11800001 .022000002 .077 .057000005 .077 .107 C .077 .16200002 .11900001 .24500002 .284 .25100003 Z "/>
</symbol>
<use xlink:href="#font_1_9" transform="matrix(9.9626,0,0,-9.9626,264.35566,21.737)"/>
<use xlink:href="#font_1_14" transform="matrix(9.9626,0,0,-9.9626,271.10035,23.779334)"/>
<use xlink:href="#font_1_11" transform="matrix(9.9626,0,0,-9.9626,276.45027,23.669745)"/>
<use xlink:href="#font_1_d" transform="matrix(9.9626,0,0,-9.9626,282.26844,21.846589)"/>
<use xlink:href="#font_1_7" transform="matrix(9.9626,0,0,-9.9626,290.00938,21.737)"/>
<use xlink:href="#font_1_7" transform="matrix(9.9626,0,0,-9.9626,293.88484,21.737)"/>
<use xlink:href="#font_1_a" transform="matrix(9.9626,0,0,-9.9626,297.6208,21.846589)"/>
<path transform="matrix(1,0,0,-1,-27.598,181.302)" stroke-width="1" stroke-linecap="butt" stroke-linejoin="bevel" fill="none" stroke="#000000" d="M 419.6854 90.00114 C 419.6854 99.9425 397.7519 108.00137 370.69477 108.00137 C 343.63768 108.00137 321.70414 99.9425 321.70414 90.00114 C 321.70414 80.05978 343.63768 72.00093 370.69477 72.00093 C 397.7519 72.00093 419.6854 80.05978 419.6854 90.00114 Z M 370.69477 90.00114 "/>
<path transform="matrix(1,0,0,-1,-27.598,181.302)" stroke-width="1" stroke-linecap="butt" stroke-linejoin="bevel" fill="none" stroke="#000000" d="M 370.69477 90.00114 "/>
<symbol id="font_1_b">
<path d="M .14400001 .388 L .14400001 .705 L 0 .694 L 0 .663 C .07000001 .663 .07800001 .656 .07800001 .607 L .07800001 .011000001 L .103000018 .011000001 C .104 .012000001 .112 .026 .13900002 .07300001 C .15400002 .05 .19600001 0 .27 0 C .38900004 0 .49300004 .098000008 .49300004 .22700002 C .49300004 .35400004 .395 .45300005 .28100003 .45300005 C .20300001 .45300005 .16000001 .40600003 .14400001 .388 M .14700002 .12500002 L .14700002 .33100004 C .14700002 .35000003 .14700002 .351 .158 .367 C .19700001 .42300005 .252 .43100003 .27600003 .43100003 C .321 .43100003 .35700003 .40500004 .381 .367 C .40700004 .32600004 .41000004 .26900003 .41000004 .22800002 C .41000004 .19100002 .40800003 .13100001 .379 .086 C .358 .055000005 .32000003 .022000002 .266 .022000002 C .22100002 .022000002 .18500002 .046 .16100002 .083000008 C .14700002 .104 .14700002 .107 .14700002 .12500002 Z "/>
</symbol>
<use xlink:href="#font_1_9" transform="matrix(9.9626,0,0,-9.9626,324.07865,93.79303)"/>
<use xlink:href="#font_1_14" transform="matrix(9.9626,0,0,-9.9626,330.82334,95.835369)"/>
<use xlink:href="#font_1_11" transform="matrix(9.9626,0,0,-9.9626,336.17326,95.72578)"/>
<use xlink:href="#font_1_d" transform="matrix(9.9626,0,0,-9.9626,341.99143,93.90262)"/>
<use xlink:href="#font_1_7" transform="matrix(9.9626,0,0,-9.9626,349.73237,93.79303)"/>
<use xlink:href="#font_1_7" transform="matrix(9.9626,0,0,-9.9626,353.60783,93.79303)"/>
<use xlink:href="#font_1_b" transform="matrix(9.9626,0,0,-9.9626,357.2043,93.90262)"/>
</g>
</g>
</svg>
