<?xml version="1.0" encoding="UTF-8" standalone="no"?>
<!-- Created with Inkscape (http://www.inkscape.org/) -->

<svg
   xmlns:dc="http://purl.org/dc/elements/1.1/"
   xmlns:cc="http://creativecommons.org/ns#"
   xmlns:rdf="http://www.w3.org/1999/02/22-rdf-syntax-ns#"
   xmlns:svg="http://www.w3.org/2000/svg"
   xmlns="http://www.w3.org/2000/svg"
   xmlns:sodipodi="http://sodipodi.sourceforge.net/DTD/sodipodi-0.dtd"
   xmlns:inkscape="http://www.inkscape.org/namespaces/inkscape"
   version="1.1"
   id="svg3808"
   width="64"
   height="64"
   viewBox="0 0 64 64"
   sodipodi:docname="Proto-Sinaitic-349-ħ.svg"
   inkscape:version="0.92.1 r15371">
  <metadata
     id="metadata3814">
    <rdf:RDF>
      <cc:Work
         rdf:about="">
        <dc:format>image/svg+xml</dc:format>
        <dc:type
           rdf:resource="http://purl.org/dc/dcmitype/StillImage" />
        <dc:title></dc:title>
      </cc:Work>
    </rdf:RDF>
  </metadata>
  <defs
     id="defs3812" />
  <sodipodi:namedview
     pagecolor="#ffffff"
     bordercolor="#666666"
     borderopacity="1"
     objecttolerance="10"
     gridtolerance="10"
     guidetolerance="10"
     inkscape:pageopacity="0"
     inkscape:pageshadow="2"
     inkscape:window-width="1920"
     inkscape:window-height="1019"
     id="namedview3810"
     showgrid="false"
     inkscape:zoom="1.4142136"
     inkscape:cx="-22.407667"
     inkscape:cy="-17.909205"
     inkscape:window-x="0"
     inkscape:window-y="0"
     inkscape:window-maximized="1"
     inkscape:current-layer="svg3808" />
  <path
     style="fill:#000000;stroke-width:0.51218981"
     d="m 33.456299,51.767713 c -3.386456,-3.284882 -1.908175,-4.156009 -5.104884,-0.241911 -2.18137,2.568114 -4.545926,5.30285 -5.580529,4.905836 -1.629866,-1.786261 2.430715,-5.293842 3.205676,-6.686089 2.998142,-3.712839 2.842989,-2.976736 -0.508724,-7.237079 -2.173724,-2.763009 -2.509895,-7.587591 -1.3513,-9.910239 1.785672,-3.150172 2.323634,-4.103854 3.698771,-5.44838 1.836054,-1.795173 2.104262,-1.319909 -1.370665,-5.236198 -2.76102,-3.111707 -4.454781,-6.018718 -4.454781,-7.62577 0,-0.680622 -0.255209,-2.86129 2.183408,-5.8147775 2.344176,-2.6368165 4.223727,-2.8176873 8.740281,-2.7491968 5.019346,0.076116 6.44072,1.248177 8.542551,3.8903903 2.329744,2.928719 2.380804,6.372057 0.692333,9.601157 -1.044442,1.997459 -1.979782,2.941808 -4.097518,4.136984 -1.352499,1.113043 -2.733204,2.446475 -2.888468,2.819395 1.254899,1.980948 2.306713,3.615439 2.767001,5.105574 1.348257,3.914869 -0.354177,8.207701 -1.618391,10.12139 -3.927953,5.744363 -3.331221,4.575301 -1.203948,7.12471 3.288295,3.725775 8.573386,8.918952 5.203598,9.269438 -2.745549,-1.20503 -4.769006,-3.966567 -6.854411,-6.025234 z M 33.225561,40.393828 c 1.899953,-2.995921 2.125211,-7.302756 1.35109,-8.689635 -0.638294,-1.143548 -1.680838,-3.427598 -2.77159,-3.299716 -0.922082,0.10811 -2.391779,1.493898 -3.485294,3.457533 -0.840356,1.509035 -2.827065,5.129751 -0.517855,8.476329 2.00992,2.912839 1.581155,2.483288 2.749768,3.734537 0.765887,-0.17624 1.803261,-2.306225 2.673881,-3.679048 z m 2.595051,-19.482006 c 1.442587,-1.036396 3.431227,-2.511643 3.922724,-4.788359 0.528361,-2.105151 -0.793704,-3.884222 -2.393597,-5.669643 -1.308034,-1.4597208 -3.812986,-1.8895924 -6.976624,-1.6403887 -2.273862,0.1791154 -3.88133,2.5562547 -4.036983,4.9648977 -0.100883,1.561094 0.908493,3.742744 2.475946,5.651536 2.092988,1.825829 2.770579,4.002961 3.474553,4.013407 1.1112,0.02579 2.12326,-1.51795 3.533981,-2.53145 z"
     id="path5192"
     inkscape:connector-curvature="0"
     sodipodi:nodetypes="ccccscssscssccccccccsssscsssssscsss" />
</svg>
