<svg width="114" height="50" viewBox="0 0 114 50" fill="none" xmlns="http://www.w3.org/2000/svg">
<rect y="28" width="7" height="66" transform="rotate(-90 0 28)" fill="black"/>
<rect x="22" width="7" height="50" fill="black"/>
<path d="M114 25C114 38.8071 102.807 50 89 50C75.1929 50 64 38.8071 64 25C64 11.1929 75.1929 0 89 0C102.807 0 114 11.1929 114 25ZM71.4064 25C71.4064 34.7167 79.2833 42.5936 89 42.5936C98.7167 42.5936 106.594 34.7167 106.594 25C106.594 15.2833 98.7167 7.40641 89 7.40641C79.2833 7.40641 71.4064 15.2833 71.4064 25Z" fill="black"/>
</svg>
