<svg width="116" height="26" viewBox="0 0 116 26" fill="none" xmlns="http://www.w3.org/2000/svg">
<path d="M14.5 19L12.8887 20.1848L13.0498 20.4039L13.2637 20.5721L14.5 19ZM26 19L24.8783 17.3442L24.8559 17.3593L24.8339 17.3751L26 19ZM41.5 8.5L42.529 6.78501C41.8616 6.38461 41.0226 6.40768 40.3783 6.84416L41.5 8.5ZM59 19L60.2192 17.4146L60.1278 17.3443L60.029 17.285L59 19ZM70 19L71.3744 20.4529L71.3946 20.4338L71.4142 20.4142L70 19ZM80.5 8.5L81.8099 6.98862C81.0169 6.30142 79.8277 6.34384 79.0858 7.08579L80.5 8.5ZM95.5 21.5L94.1901 23.0114L94.3124 23.1173L94.4501 23.2023L95.5 21.5ZM105 21.5L106.17 23.1222L106.343 22.997L106.487 22.8379L105 21.5ZM0.388698 3.18478L12.8887 20.1848L16.1113 17.8152L3.6113 0.815219L0.388698 3.18478ZM13.2637 20.5721C15.6301 22.4331 17.842 23.5872 20.2938 23.5333C22.6921 23.4805 24.8706 22.2722 27.1661 20.6249L24.8339 17.3751C22.6369 18.9518 21.3113 19.5099 20.2057 19.5342C19.1537 19.5574 17.8619 19.0995 15.7363 17.4279L13.2637 20.5721ZM27.1217 20.6558L42.6217 10.1558L40.3783 6.84416L24.8783 17.3442L27.1217 20.6558ZM40.471 10.215L57.971 20.715L60.029 17.285L42.529 6.78501L40.471 10.215ZM57.7808 20.5854C59.9047 22.2187 62.0263 23.6255 64.3868 23.7593C66.897 23.9016 69.0964 22.608 71.3744 20.4529L68.6256 17.5471C66.6083 19.4555 65.4554 19.8134 64.6132 19.7657C63.6214 19.7095 62.3907 19.0845 60.2192 17.4146L57.7808 20.5854ZM71.4142 20.4142L81.9142 9.91421L79.0858 7.08579L68.5858 17.5858L71.4142 20.4142ZM79.1901 10.0114L94.1901 23.0114L96.8099 19.9886L81.8099 6.98862L79.1901 10.0114ZM94.4501 23.2023C96.3402 24.368 98.1739 25.2928 100.183 25.36C102.269 25.4297 104.156 24.5747 106.17 23.1222L103.83 19.8778C102.135 21.1002 101.127 21.3893 100.317 21.3622C99.4312 21.3326 98.3695 20.92 96.5499 19.7977L94.4501 23.2023ZM106.487 22.8379L115.487 12.8379L112.513 10.1621L103.513 20.1621L106.487 22.8379Z" fill="black"/>
</svg>
