<svg width="66" height="133" viewBox="0 0 66 133" fill="none" xmlns="http://www.w3.org/2000/svg">
<path d="M55 18.5L55.8029 15.6094C55.4949 15.5239 55.1752 15.4881 54.8559 15.5035L55 18.5ZM55 97.5L56.1256 100.281C56.1989 100.251 56.2709 100.219 56.3416 100.183L55 97.5ZM62 40.25H65V40.1931L64.9978 40.1361L62 40.25ZM6 21V0H0V21H6ZM3.14406 23.9965L55.1441 21.4965L54.8559 15.5035L2.85594 18.0035L3.14406 23.9965ZM6 132.5V106H0V132.5H6ZM55 97.5C53.8744 94.7192 53.875 94.7189 53.8754 94.7188C53.8754 94.7188 53.8757 94.7186 53.8758 94.7186C53.8759 94.7186 53.8756 94.7187 53.8749 94.7189C53.8737 94.7195 53.8709 94.7206 53.8668 94.7222C53.8584 94.7256 53.8444 94.7312 53.8246 94.739C53.7851 94.7547 53.7228 94.7792 53.6385 94.8119C53.4699 94.8774 53.2129 94.9756 52.8724 95.1017C52.1914 95.3538 51.177 95.7171 49.8681 96.1514C47.2492 97.0203 43.457 98.1719 38.8018 99.2876C29.4753 101.523 16.767 103.594 3.12985 103.003L2.87015 108.997C17.2355 109.62 30.5272 107.44 40.2001 105.122C45.0446 103.961 49.0019 102.76 51.7576 101.846C53.136 101.389 54.2151 101.003 54.9559 100.728C55.3263 100.591 55.6122 100.482 55.8088 100.406C55.9071 100.368 55.983 100.338 56.036 100.317C56.0625 100.306 56.0833 100.298 56.0982 100.292C56.1057 100.289 56.1117 100.286 56.1163 100.285C56.1186 100.284 56.1205 100.283 56.122 100.282C56.1228 100.282 56.1237 100.282 56.1241 100.281C56.1249 100.281 56.1256 100.281 55 97.5ZM62 62C59 62 59 61.9998 59 61.9997C59 61.9999 59 61.9999 59 62.0002C59 62.0007 59 62.0017 59 62.0032C59 62.0063 59 62.0112 59 62.018C59 62.0316 58.9999 62.0528 58.9998 62.0813C58.9996 62.1384 58.9992 62.2247 58.9984 62.3384C58.9967 62.566 58.9934 62.9032 58.9867 63.3353C58.9733 64.1999 58.9464 65.4431 58.8925 66.9473C58.7846 69.9612 58.5692 73.9986 58.141 78.128C57.7101 82.2829 57.0751 86.4139 56.1594 89.6626C55.7006 91.2903 55.2015 92.5855 54.686 93.5166C54.1446 94.4945 53.7506 94.7706 53.6584 94.8167L56.3416 100.183C57.9994 99.3544 59.1367 97.8649 59.9351 96.4229C60.7594 94.934 61.4088 93.155 61.9344 91.2905C62.9874 87.5548 63.6649 83.0296 64.109 78.747C64.5558 74.4389 64.7779 70.2576 64.8887 67.162C64.9442 65.6116 64.972 64.3275 64.986 63.4283C64.9929 62.9787 64.9964 62.6249 64.9982 62.382C64.9991 62.2606 64.9995 62.1667 64.9998 62.1025C64.9999 62.0703 64.9999 62.0456 65 62.0284C65 62.0198 65 62.0132 65 62.0084C65 62.006 65 62.0042 65 62.0027C65 62.002 65 62.0014 65 62.001C65 62.0004 65 62 62 62ZM6 106V69.5H0V106H6ZM61.6217 59.0239L2.62169 66.5239L3.37831 72.4761L62.3783 64.9761L61.6217 59.0239ZM54.1971 21.3906C55.8694 21.8551 56.8099 22.5941 57.4203 23.4283C58.075 24.3231 58.5233 25.5677 58.7753 27.29C59.0284 29.0197 59.0548 31.0071 59.0244 33.274C58.9951 35.4632 58.9107 37.957 59.0022 40.3639L64.9978 40.1361C64.9142 37.9339 64.9923 35.7169 65.0239 33.3543C65.0545 31.0695 65.0403 28.6644 64.7121 26.4214C64.3828 24.1708 63.7094 21.8627 62.2625 19.8853C60.7714 17.8474 58.6306 16.3949 55.8029 15.6094L54.1971 21.3906ZM59 40.25V62H65V40.25H59ZM6 69.5V45.5H0V69.5H6ZM6 45.5V21H0V45.5H6ZM61.7341 37.2618L2.7341 42.5118L3.2659 48.4882L62.2659 43.2382L61.7341 37.2618Z" fill="black"/>
</svg>
