<svg width="116" height="56" viewBox="0 0 116 56" fill="none" xmlns="http://www.w3.org/2000/svg">
<path d="M36.5 38C28.6531 45.2951 24.1479 48.9591 15.5 53C8.60793 44.4974 6.25785 39.1334 3.5 29C16.2985 27.269 23.5617 31.4702 36.5 38ZM36.5 38L37.75 37.5M114.5 31.5L110 29.2785M110 29.2785C97.2264 20.1413 89.8095 15.7005 75 12L70.5 13.5968M110 29.2785C97.0057 38.2005 88.2016 40.5025 73 45.5M73 45.5L70.5 51M73 45.5L37.75 37.5M37.75 37.5L39 37L59.5 17.5L70.5 13.5968M70.5 13.5968L60.5 2" stroke="black" stroke-width="4"/>
</svg>
