<svg width="54" height="66" viewBox="0 0 54 66" fill="none" xmlns="http://www.w3.org/2000/svg">
<path d="M2.5 25H0.5C0.5 26.1046 1.39543 27 2.5 27L2.5 25ZM51.5 25V27C52.6046 27 53.5 26.1046 53.5 25H51.5ZM22 9.5L20.0211 9.21047L19.9654 9.59082L20.0547 9.9647L22 9.5ZM27.5 3L28.1473 1.10766L27.5267 0.895343L26.9008 1.09186L27.5 3ZM33 9.5L34.973 9.82751L35.0123 9.59106L34.9945 9.35204L33 9.5ZM0.5 13.5V25H4.5V13.5H0.5ZM53.5 25V13.5H49.5V25H53.5ZM2.5 27H27.5V23H2.5V27ZM25.5085 24.8156L23.0085 51.8156L26.9915 52.1844L29.4915 25.1844L25.5085 24.8156ZM23.3155 50.9219L15.3155 63.4219L18.6845 65.5781L26.6845 53.0781L23.3155 50.9219ZM23.8754 53.6539L36.3754 62.1539L38.6246 58.8461L26.1246 50.3461L23.8754 53.6539ZM27.5 27H51.5V23H27.5V27ZM29.5 25V16.5H25.5V25H29.5ZM28.4379 14.7336C26.9478 13.9424 26.1111 13.3754 25.5029 12.6554C24.9118 11.9556 24.4014 10.9447 23.9453 9.0353L20.0547 9.9647C20.589 12.201 21.3 13.8785 22.4471 15.2365C23.577 16.5742 24.9951 17.4344 26.5621 18.2664L28.4379 14.7336ZM23.9789 9.78953C24.2508 7.93151 24.6376 7.04636 25.1136 6.49186C25.5901 5.93684 26.3834 5.44689 28.0992 4.90814L26.9008 1.09186C24.9576 1.70206 23.2919 2.47308 22.0786 3.88632C20.8649 5.30007 20.3312 7.09044 20.0211 9.21047L23.9789 9.78953ZM26.8527 4.89234C28.8133 5.56303 29.6844 6.13502 30.1504 6.69544C30.583 7.21582 30.8823 7.9879 31.0055 9.64796L34.9945 9.35204C34.8487 7.38622 34.4501 5.6103 33.2261 4.13814C32.0354 2.70603 30.291 1.84096 28.1473 1.10766L26.8527 4.89234ZM31.027 9.17249C30.7187 11.0297 30.2661 11.9771 29.7101 12.6308C29.1174 13.3278 28.237 13.9005 26.61 14.7089L28.39 18.2911C30.0689 17.4568 31.5971 16.5862 32.7572 15.2222C33.954 13.815 34.5985 12.0838 34.973 9.82751L31.027 9.17249Z" fill="black"/>
</svg>
