<svg width="50" height="65" viewBox="0 0 50 65" fill="none" xmlns="http://www.w3.org/2000/svg">
<path d="M2 14.7816L0.258636 13.7979L0 14.2557V14.7816H2ZM47.5 21.7816L49.182 22.8636L49.5 22.3693V21.7816H47.5ZM47.5 4.28159H49.5C49.5 3.32612 48.8242 2.5041 47.8867 2.31934L47.5 4.28159ZM12.5 4.28159L11.3784 2.62567L11.3784 2.62569L12.5 4.28159ZM2 47.7816H0V48.0449L0.0681384 48.2992L2 47.7816ZM34 62.2816V64.2816H34.8685L35.4615 63.6469L34 62.2816ZM35.5 50.5L37.4087 51.0973L37.4537 50.9535L37.4767 50.8047L35.5 50.5ZM1.04743 16.5402L37.0474 36.0402L38.9526 32.523L2.95257 13.023L1.04743 16.5402ZM39.534 35.5648C43.519 30.8011 45.1026 29.2054 49.182 22.8636L45.818 20.6996C41.8974 26.7945 40.481 28.1987 36.466 32.9983L39.534 35.5648ZM49.5 21.7816V4.28159H45.5V21.7816H49.5ZM47.8867 2.31934C40.8316 0.928817 32.1932 0.738412 25.2378 0.979469C21.7459 1.10049 18.6388 1.33175 16.3168 1.58479C15.1588 1.71099 14.1748 1.84488 13.4263 1.97726C13.0548 2.04296 12.7134 2.11313 12.4255 2.18867C12.234 2.23891 11.7699 2.36049 11.3784 2.62567L13.6216 5.93751C13.3743 6.10499 13.2031 6.12003 13.4406 6.05771C13.5818 6.02068 13.8056 5.97225 14.1229 5.91613C14.7521 5.80485 15.6407 5.68216 16.7501 5.56125C18.9631 5.32009 21.9711 5.09509 25.3764 4.97707C32.2154 4.74004 40.5001 4.94043 47.1133 6.24384L47.8867 2.31934ZM11.3784 2.62569C5.78994 6.41097 3.04397 8.86722 0.258636 13.7979L3.74136 15.7653C6.10422 11.5825 8.29807 9.54333 13.6216 5.93749L11.3784 2.62569ZM0 14.7816V47.7816H4V14.7816H0ZM0.0681384 48.2992C0.833936 51.1574 1.74059 54.9065 2.76087 57.8833C3.26978 59.3682 3.85155 60.7998 4.5281 61.894C4.86639 62.4411 5.28375 62.996 5.80409 63.4322C6.33441 63.8768 7.07709 64.2816 8 64.2816V60.2816C8.29791 60.2816 8.43353 60.4169 8.37387 60.3669C8.30423 60.3085 8.14868 60.1436 7.93027 59.7904C7.49341 59.0838 7.02659 57.9922 6.54479 56.5864C5.58361 53.7821 4.74027 50.2812 3.93186 47.264L0.0681384 48.2992ZM8 64.2816H34V60.2816H8V64.2816ZM35.4615 63.6469C36.6593 62.3647 37.3607 61.0786 37.6659 59.7369C37.965 58.4213 37.8427 57.2187 37.6721 56.2093C37.3101 54.0676 36.8593 52.8529 37.4087 51.0973L33.5913 49.9026C32.6741 52.8334 33.4733 55.3686 33.728 56.8758C33.8657 57.6908 33.8934 58.2873 33.7654 58.8499C33.6434 59.3864 33.3407 60.0576 32.5385 60.9162L35.4615 63.6469ZM37.4767 50.8047L39.9767 34.5863L36.0233 33.9769L33.5233 50.1953L37.4767 50.8047Z" fill="black"/>
</svg>
