<svg width="75" height="32" viewBox="0 0 75 32" fill="none" xmlns="http://www.w3.org/2000/svg">
<path fill-rule="evenodd" clip-rule="evenodd" d="M28.004 2.99999C43.6075 2.95888 53.6545 9.01727 65.5617 16.1973L65.5672 16.2006C66.4763 16.7488 67.3963 17.3035 68.3303 17.8626C54.2753 24.5431 45.491 27.0245 30.0818 28.4856C20.4529 26.5061 14.8141 24.3006 5.06168 17.6042C9.92133 10.3416 13.1949 6.78525 16.3025 4.97578C19.5121 3.10692 22.7004 3.00001 28 3L28.004 2.99999ZM67.1502 13.6479L67.1493 13.6473C55.2601 6.46498 44.4874 -0.0429179 27.998 -2.55745e-06C22.7986 2.03307e-05 18.8011 0.0494054 14.7929 2.38325C10.8514 4.67831 7.06277 9.07814 1.74606 17.1768L0.94693 18.3941L2.14001 19.229C13.0375 26.8546 19.1206 29.3118 29.7002 31.4697L29.9184 31.5142L30.1401 31.4934C46.9865 29.9132 56.233 27.1218 72.158 19.3479L74.668 18.1227L72.2603 16.7069C70.522 15.6848 68.8251 14.6597 67.1502 13.6479ZM30.5 22C32.9853 22 35 19.9853 35 17.5C35 15.0147 32.9853 13 30.5 13C28.0147 13 26 15.0147 26 17.5C26 19.9853 28.0147 22 30.5 22Z" fill="black"/>
</svg>
