<svg width="33" height="84" viewBox="0 0 33 84" fill="none" xmlns="http://www.w3.org/2000/svg">
<path d="M7 79.5L15.5 75.5M11.5 49.5C17.741 57.3172 18.1105 58.4233 20.5 67L21 71.5C18.6215 74.4679 18.2087 75.8343 15.5 75.5M11.5 49.5C6.61939 45.7903 3.81769 42.9236 1.51724 37V33C3.17176 30.0262 4.4409 28.9628 7.51724 28.5C12.2034 28.5382 14.831 28.5343 19.5172 28.5M11.5 49.5C17.4543 48.7105 19.3757 46.9701 24.0172 42C23.6426 36.7166 22.6461 33.7581 19.5172 28.5M11.5 49.5C7.98869 50.4141 5.27738 51.4281 3.51724 56C5.882 64.4711 8.92784 69.327 15.5 75.5M19.5172 28.5C22.264 29.0791 23.798 28.9663 26.5172 27.5C29.5555 23.6908 30.9286 21.3598 30.5 15.5C29.5895 9.23175 24.6993 6.02152 16 2.5C9.24692 3.924 9.4542 5.81291 5 12.5C2.11506 13.6516 13.3656 24.0237 19.5172 28.5ZM15.5 75.5L19.5172 82.5" stroke="black" stroke-width="3"/>
</svg>
