<svg width="35" height="78" viewBox="0 0 35 78" fill="none" xmlns="http://www.w3.org/2000/svg">
<path d="M11 59.5C7.8 67.1 6.33333 71.3333 6 72.5" stroke="black" stroke-width="2"/>
<path d="M13 53C13 52.8333 13.3 50.9 14.5 44.5L22.5 46.5L20.5 54.5L13 53Z" stroke="black" stroke-width="2"/>
<path d="M5.5 1.5L2 6V20.5C5.05994 26.4223 7.42505 29.0928 13.5 32V38L5 51.5C3.50878 60.1631 3.77266 65.3995 5 75C15.0633 68.5245 20.4837 64.2965 29.5 55V49.5L24 33C28.6245 29.3805 30.3374 26.9538 32 22C33.0467 19.2378 33.2441 17.4819 32 13.5C30.8864 8.32222 29.5391 5.96569 25.5 3" stroke="black" stroke-width="3"/>
</svg>
