<?xml version="1.0" encoding="UTF-8" standalone="no"?>
<svg xmlns:svg="http://www.w3.org/2000/svg" xmlns="http://www.w3.org/2000/svg" version="1.1"
	width="1000" height="700" viewBox="0 0 2000 1400">
	<defs>
		<linearGradient id="lg1" x1="992" y1="700" x2="1008" y2="700" gradientUnits="userSpaceOnUse">
			<stop offset="0" style="stop-color:#FFFFFF;" />
			<stop offset="1" style="stop-color:#888888;" />
		</linearGradient>
		<radialGradient id="rg1" cx="1000" cy="700" r="500" gradientUnits="userSpaceOnUse" transform="scale(1,0.7)">
			<stop offset="0" style="stop-color:#CC0000;" />
			<stop offset="1" style="stop-color:#660000;" />
		</radialGradient>
		<linearGradient id="lg2" x1="0" y1="350" x2="2000" y2="1050" gradientUnits="userSpaceOnUse">
			<stop offset="0" style="stop-color:#222222;" />
			<stop offset="1" style="stop-color:#ABE9E8;" />
		</linearGradient>
		<filter id="fi1" x="-0.04" y="-0.06" width="1.08" height="1.12" color-interpolation-filters="sRGB">
			<feGaussianBlur stdDeviation="17.15" id="feGaussianBlur24" />
		</filter>
	</defs>
	<rect id="back" width="2000" height="1400" />
	<rect id="axis" x="992" y="30" width="16" height="1340" style="fill:url(#lg1);" />
	<path id="arrow" transform="translate(-20,0)" d="M 884,66 899,87 A 184,41 0 0 0 814,121 184,41 0 0 0 998,162 184,41 0 0 0 1183,121 184,41 0 0 0 1081,84 L 1057,97 A 121,27 0 0 1 1119,121 121,27 0 0 1 998,148 121,27 0 0 1 877,121 121,27 0 0 1 904,104 L 891,128 1003,85 884,66 z" style="fill:#CCCCCC" />
	<ellipse cx="1000" cy="700" rx="950" ry="350" style="fill:url(#lg2);" />
	<ellipse cx="1100" cy="700" rx="500" ry="350" style="fill-opacity:0.6; filter:url(#fi1);" />
	<ellipse cx="1000" cy="700" rx="500" ry="350" style="fill:url(#rg1);" />
	<g style="font-size:85px; text-anchor:middle; fill:#ffffff; font-family:Liberation Sans, Arial, sans-serif;">
		<switch allowReorder="yes">
			<g systemLanguage="ar">
				<text x="1000" y="720">أفق الحدث</text>
				<text x="420"  y="700" transform="rotate(-90,420,700)">الإرجوسفير</text>
			</g>
			<g systemLanguage="ast">
				<text x="1000" y="720">Horizonte de sucesos</text>
				<text x="420"  y="700" transform="rotate(-90,420,700)">Ergosfera</text>
			</g>
			<g systemLanguage="az">
				<text x="1000" y="720">Hadisə üfüqü</text>
				<text x="420"  y="700" transform="rotate(-90,420,700)">Güc kürəsi</text>
			</g>
			<g systemLanguage="ba">
				<text x="1000" y="720">Горизонт событий</text>
				<text x="420"  y="700" transform="rotate(-90,420,700)">Эргосфера</text>
			</g>
			<g systemLanguage="be">
				<text x="1000" y="720">Гарызонт падзей</text>
				<text x="420"  y="700" transform="rotate(-90,420,700)">Эргасфера</text>
			</g>
			<g systemLanguage="ca">
				<text x="1000" y="720">Horitzó d'esdeveniments</text>
				<text x="420"  y="700" transform="rotate(-90,420,700)">Ergosfera</text>
			</g>
			<g systemLanguage="cs">
				<text x="1000" y="720">Horizont událostí</text>
				<text x="420"  y="700" transform="rotate(-90,420,700)">Ergosféra</text>
			</g>
			<g systemLanguage="de">
				<text x="1000" y="720">Ereignishorizont</text>
				<text x="420"  y="700" transform="rotate(-90,420,700)">Ergosphäre</text>
			</g>
			<g systemLanguage="el">
				<text x="1000" y="720">Ορίζοντας γεγονότων</text>
				<text x="420"  y="700" transform="rotate(-90,420,700)">Εργόσφαιρα</text>
			</g>
			<g systemLanguage="eo">
				<text x="1000" y="720">Eventa horizonto</text>
				<text x="420"  y="700" transform="rotate(-90,420,700)">Trenregiono</text>
			</g>
			<g systemLanguage="es">
				<text x="1000" y="720">Horizonte de sucesos</text>
				<text x="420"  y="700" transform="rotate(-90,420,700)">Ergosfera</text>
			</g>
			<g systemLanguage="fa">
				<text x="1000" y="720">افق رویداد</text>
				<text x="420"  y="700" transform="rotate(-90,420,700)">کارکره</text>
			</g>
			<g systemLanguage="fi">
				<text x="1000" y="720">Tapahtumahorisontti</text>
				<text x="420"  y="700" transform="rotate(-90,420,700)">Ergosfääri</text>
			</g>
			<g systemLanguage="fr">
				<text x="1000" y="720">Horizon (trou noir)</text>
				<text x="420"  y="700" transform="rotate(-90,420,700)">Ergosphère</text>
			</g>
			<g systemLanguage="he" font-family="serif" font-size="110">
				<text y="720" x="1000">אופק אירועים</text>
				<text y="700" x="420" transform="rotate(-90,420,700)">ארגוספירה</text>
			</g>
			<g systemLanguage="hu" font-family="serif" font-size="110">
				<text y="720" x="1000">Eseményhorizont</text>
				<text y="700" x="420" transform="rotate(-90,420,700)">Ergoszférája</text>
			</g>
			<g systemLanguage="it">
				<text x="1000" y="720">Orizzonte degli eventi</text>
				<text x="420"  y="700" transform="rotate(-90,420,700)">Ergosfera</text>
			</g>
			<g systemLanguage="ja">
				<text x="1000" y="720">事象の地平面</text>
				<text x="420"  y="700" transform="rotate(-90,420,700)">エルゴ球</text>
			</g>
			<g systemLanguage="kk">
				<text x="1000" y="720">Оқиға көкжиегі</text>
				<text x="420"  y="700" transform="rotate(-90,420,700)">Эргосфера</text>
			</g>
			<g systemLanguage="kn">
				<text x="1000" y="720">ಈವೆಂಟ್ ಹಾರಿಜಾನ್</text>
				<text x="420"  y="700" transform="rotate(-90,420,700)">ಎರ್ಗೊಸ್ಪಿಯರ್</text>
			</g>
			<g systemLanguage="ko">
				<text x="1000" y="720">사건 지평선</text>
				<text x="420"  y="700" transform="rotate(-90,420,700)">작용권</text>
			</g>
			<g systemLanguage="la">
				<text x="1000" y="720">Horizon eventuum</text>
				<text x="420"  y="700" transform="rotate(-90,420,700)">Ergosphaera</text>
			</g>
			<g systemLanguage="mk">
				<text x="1000" y="720">Хоризонт на настани</text>
				<text x="420"  y="700" transform="rotate(-90,420,700)">Егзосфера</text>
			</g>
			<g systemLanguage="ml">
				<text x="1000" y="720">സംഭവ ചക്രവാളം</text>
				<text x="420"  y="700" transform="rotate(-90,420,700)">എർഗോസ്ഫിയർ</text>
			</g>
			<g systemLanguage="nl">
				<text x="1000" y="720">Waarnemingshorizon</text>
				<text x="420"  y="700" transform="rotate(-90,420,700)">Ergosfeer</text>
			</g>
			<g systemLanguage="oc">
				<text x="1000" y="720">Orizont deis eveniments</text>
				<text x="420"  y="700" transform="rotate(-90,420,700)">Ergosfèra</text>
			</g>
			<g systemLanguage="pa">
				<text x="1000" y="720">ਇਵੈਂਟ ਹੌਰਿਜ਼ਨ</text>
				<text x="420"  y="700" transform="rotate(-90,420,700)">ਅਰਗੋਸਫੀਅਰ</text>
			</g>
			<g systemLanguage="pl">
				<text x="1000" y="720">Horyzont zdarzeń</text>
				<text x="420"  y="700" transform="rotate(-90,420,700)">Ergoobszar</text>
			</g>
			<g systemLanguage="pt">
				<text x="1000" y="720">Horizonte de eventos</text>
				<text x="420"  y="700" transform="rotate(-90,420,700)">Ergosfera</text>
			</g>
			<g systemLanguage="ro">
				<text x="1000" y="720">Orizont de evenimente</text>
				<text x="420"  y="700" transform="rotate(-90,420,700)">Ergosferă</text>
			</g>
			<g systemLanguage="ru">
				<text x="1000" y="720">Горизонт событий</text>
				<text x="420"  y="700" transform="rotate(-90,420,700)">Эргосфера</text>
			</g>
			<g systemLanguage="sk">
				<text x="1000" y="720">Horizont udalostí</text>
				<text x="420"  y="700" transform="rotate(-90,420,700)">Ergosféra</text>
			</g>
			<g systemLanguage="sv">
				<text x="1000" y="720">Händelsehorisont</text>
				<text x="420"  y="700" transform="rotate(-90,420,700)">Ergosfär</text>
			</g>
			<g systemLanguage="sq">
				<text x="1000" y="720">Horizonti i ngjarjes</text>
				<text x="420"  y="700" transform="rotate(-90,420,700)">Ergosfera</text>
			</g>
			<g systemLanguage="th">
				<text x="1000" y="720">ขอบฟ้าเหตุการณ์</text>
				<text x="420"  y="700" transform="rotate(-90,420,700)">เออร์โกสเฟียร์</text>
			</g>
			<g systemLanguage="tr">
				<text x="1000" y="720">Olay ufku</text>
				<text x="420"  y="700" transform="rotate(-90,420,700)">Ergosifer</text>
			</g>
			<g systemLanguage="uk">
				<text x="1000" y="720">Горизонт подій</text>
				<text x="420"  y="700" transform="rotate(-90,420,700)">Ергосфера</text>
			</g>
			<g systemLanguage="zh, zh-Hant, zh-TW" font-size="110">
				<text y="720" x="1000">事件視界</text>
				<text y="680" x="333">動</text>
				<text y="800" x="333">圈</text>
			</g>
			<g systemLanguage="zh-Hans" font-size="110">
				<text y="720" x="1000">事件视界</text>
				<text y="680" x="333">动</text>
				<text y="800" x="333">圈</text>
			</g>
			<g systemLanguage="zh-CN" font-size="110">
				<text y="720" x="1000">视界</text>
				<text y="680" x="333">能</text>
				<text y="800" x="333">层</text>
			</g>
			<g>
				<text x="1000" y="720">Event horizon</text>
				<text x="420" y="700" transform="rotate(-90,420,700)">Ergosphere</text>
			</g>
		</switch>
	</g>
</svg>
