<?xml version="1.0" encoding="utf-8"?>
<!-- Generator: Adobe Illustrator 12.0.1, SVG Export Plug-In . SVG Version: 6.00 Build 51448)  -->
<!DOCTYPE svg PUBLIC "-//W3C//DTD SVG 1.1//EN" "http://www.w3.org/Graphics/SVG/1.1/DTD/svg11.dtd" [
	<!ENTITY ns_svg "http://www.w3.org/2000/svg">
	<!ENTITY ns_xlink "http://www.w3.org/1999/xlink">
]>
<svg  version="1.1" id="Layer_2" xmlns="&ns_svg;" xmlns:xlink="&ns_xlink;" width="300.068" height="234.054"
	 viewBox="0 0 300.068 234.054" overflow="visible" enable-background="new 0 0 300.068 234.054" xml:space="preserve">
<rect fill="#FFFFFF" width="300.068" height="234.054"/>
<g>
	<path fill="#231F20" d="M118.048,60.417c0,18.623,15.151,33.773,33.773,33.773c18.623,0,33.773-15.15,33.773-33.773
		s-15.15-33.773-33.773-33.773C133.199,26.643,118.048,41.794,118.048,60.417z M121.048,60.417
		c0-16.969,13.805-30.773,30.773-30.773s30.773,13.805,30.773,30.773c0,16.968-13.805,30.773-30.773,30.773
		S121.048,77.385,121.048,60.417z"/>
</g>
<g>
	<path fill="#231F20" d="M63.166,40.85v3.12h3.012v-3.12h1.824v8.088h-1.824v-3.372h-3.012v3.372h-1.824V40.85H63.166z"/>
</g>
<g>
	<path fill="#231F20" d="M238.166,40.85v3.12h3.013v-3.12h1.823v8.088h-1.823v-3.372h-3.013v3.372h-1.823V40.85H238.166z"/>
</g>
<g>
	<path fill="#231F20" d="M152.594,11.349v1.596h1.308v1.344h-1.308v2.136c0,0.708,0.18,1.032,0.72,1.032
		c0.252,0,0.372-0.012,0.54-0.048l0.012,1.38c-0.229,0.084-0.672,0.156-1.176,0.156c-0.588,0-1.08-0.204-1.381-0.504
		c-0.336-0.348-0.504-0.912-0.504-1.74v-2.412h-0.779v-1.344h0.779v-1.104L152.594,11.349z"/>
</g>
<g>
	<path fill="#231F20" d="M152.594,99.1v1.596h1.308v1.344h-1.308v2.136c0,0.708,0.18,1.032,0.72,1.032
		c0.252,0,0.372-0.012,0.54-0.048l0.012,1.38c-0.229,0.084-0.672,0.156-1.176,0.156c-0.588,0-1.08-0.204-1.381-0.504
		c-0.336-0.349-0.504-0.912-0.504-1.74v-2.412h-0.779v-1.344h0.779v-1.104L152.594,99.1z"/>
</g>
<g>
	<path fill="#231F20" d="M146.053,24.496c0,0,2.374,2.375,3.647,3.647c-1.273,1.273-3.647,3.648-3.647,3.648l2.121,2.121
		l5.769-5.769l-5.769-5.769L146.053,24.496z"/>
</g>
<g>
	<path fill="#231F20" d="M59.166,170.658v3.119h3.012v-3.119h1.824v8.088h-1.824v-3.372h-3.012v3.372h-1.824v-8.088H59.166z"/>
</g>
<g>
	<path fill="#231F20" d="M242.666,171.658v3.119h3.013v-3.119h1.823v8.088h-1.823v-3.372h-3.013v3.372h-1.823v-8.088H242.666z"/>
</g>
<g>
	<path fill="#231F20" d="M108.81,159.906v1.596h1.308v1.345h-1.308v2.136c0,0.708,0.18,1.032,0.72,1.032
		c0.252,0,0.372-0.013,0.54-0.048l0.012,1.38c-0.228,0.084-0.672,0.155-1.176,0.155c-0.588,0-1.08-0.203-1.38-0.504
		c-0.336-0.348-0.504-0.912-0.504-1.739v-2.412h-0.78v-1.345h0.78v-1.104L108.81,159.906z"/>
</g>
<g>
	<path fill="#231F20" d="M106.036,159.159c-0.007-1.024,0.447-1.433,1.071-1.433c0.377,0,0.639,0.123,1.079,0.37
		c0.339,0.185,0.547,0.3,0.739,0.3c0.177,0,0.293-0.161,0.308-0.624h0.732c0.046,1.095-0.439,1.449-1.024,1.449
		c-0.37,0-0.663-0.132-1.079-0.37c-0.339-0.192-0.547-0.316-0.732-0.316c-0.193,0-0.332,0.132-0.362,0.624H106.036z"/>
</g>
<g>
	<path fill="#231F20" d="M194.891,159.906v1.596h1.308v1.345h-1.308v2.136c0,0.708,0.18,1.032,0.72,1.032
		c0.252,0,0.372-0.013,0.54-0.048l0.012,1.38c-0.229,0.084-0.672,0.155-1.176,0.155c-0.588,0-1.08-0.203-1.381-0.504
		c-0.336-0.348-0.504-0.912-0.504-1.739v-2.412h-0.779v-1.345h0.779v-1.104L194.891,159.906z"/>
</g>
<g>
	<path fill="#231F20" d="M192.118,159.159c-0.008-1.024,0.447-1.433,1.07-1.433c0.378,0,0.64,0.123,1.079,0.37
		c0.339,0.185,0.547,0.3,0.739,0.3c0.178,0,0.293-0.161,0.309-0.624h0.731c0.046,1.095-0.438,1.449-1.024,1.449
		c-0.37,0-0.662-0.132-1.078-0.37c-0.34-0.192-0.547-0.316-0.732-0.316c-0.193,0-0.332,0.132-0.362,0.624H192.118z"/>
</g>
<g>
	<path fill="#231F20" d="M178.325,159.077l5.77,5.769l5.768-5.769l-2.121-2.121c0,0-2.374,2.374-3.646,3.647
		c-1.273-1.273-3.648-3.647-3.648-3.647L178.325,159.077z"/>
</g>
<g>
	<path fill="#231F20" d="M149.701,92.689l5.769,5.769l2.121-2.121c0,0-2.374-2.374-3.647-3.647c1.273-1.273,3.647-3.648,3.647-3.648
		l-2.121-2.121L149.701,92.689z"/>
</g>
<g>
	<path fill="#231F20" d="M113.779,166.372l2.121,2.121c0,0,2.375-2.374,3.647-3.647c1.273,1.273,3.648,3.647,3.648,3.647
		l2.121-2.121l-5.77-5.769L113.779,166.372z"/>
</g>
<rect x="25.038" y="193.656" fill="#231F20" width="9.5" height="3.182"/>
<rect x="38.61" y="193.656" fill="#231F20" width="9.5" height="3.182"/>
<rect x="52.183" y="193.656" fill="#231F20" width="9.5" height="3.182"/>
<rect x="65.755" y="193.656" fill="#231F20" width="9.5" height="3.182"/>
<rect x="79.327" y="193.656" fill="#231F20" width="9.5" height="3.182"/>
<rect x="92.9" y="193.656" fill="#231F20" width="9.5" height="3.182"/>
<rect x="106.472" y="193.656" fill="#231F20" width="9.5" height="3.182"/>
<rect x="187.907" y="193.656" fill="#231F20" width="9.5" height="3.182"/>
<rect x="201.479" y="193.656" fill="#231F20" width="9.5" height="3.182"/>
<rect x="215.051" y="193.656" fill="#231F20" width="9.5" height="3.182"/>
<rect x="228.624" y="193.656" fill="#231F20" width="9.5" height="3.182"/>
<rect x="242.197" y="193.656" fill="#231F20" width="9.5" height="3.182"/>
<rect x="120.044" y="193.656" fill="#231F20" width="9.5" height="3.182"/>
<rect x="133.617" y="193.656" fill="#231F20" width="9.5" height="3.182"/>
<rect x="147.189" y="193.656" fill="#231F20" width="9.5" height="3.182"/>
<rect x="160.762" y="193.656" fill="#231F20" width="9.5" height="3.182"/>
<rect x="174.334" y="193.656" fill="#231F20" width="9.5" height="3.182"/>
<rect x="255.769" y="193.656" fill="#231F20" width="9.5" height="3.182"/>
<rect x="269.341" y="193.656" fill="#231F20" width="9.5" height="3.182"/>
<rect x="25.038" y="58.256" fill="#231F20" width="9.5" height="3.182"/>
<rect x="38.61" y="58.256" fill="#231F20" width="9.5" height="3.182"/>
<rect x="52.183" y="58.256" fill="#231F20" width="9.5" height="3.182"/>
<rect x="65.755" y="58.256" fill="#231F20" width="9.5" height="3.182"/>
<rect x="79.327" y="58.256" fill="#231F20" width="9.5" height="3.182"/>
<rect x="92.9" y="58.256" fill="#231F20" width="9.5" height="3.182"/>
<rect x="106.472" y="58.256" fill="#231F20" width="12.135" height="3.182"/>
<rect x="185.038" y="58.256" fill="#231F20" width="12.369" height="3.182"/>
<rect x="201.479" y="58.256" fill="#231F20" width="9.5" height="3.182"/>
<rect x="215.051" y="58.256" fill="#231F20" width="9.5" height="3.182"/>
<rect x="228.624" y="58.256" fill="#231F20" width="9.5" height="3.182"/>
<rect x="242.197" y="58.256" fill="#231F20" width="9.5" height="3.182"/>
<rect x="255.769" y="58.256" fill="#231F20" width="9.5" height="3.182"/>
<rect x="269.341" y="58.256" fill="#231F20" width="9.5" height="3.182"/>
<path fill="#231F20" d="M177.386,145.614l2.599-1.5c-2.511-3.787-5.763-7.04-9.55-9.551l-1.501,2.599
	C172.27,139.403,175.145,142.278,177.386,145.614z M182.52,160.688h3.008c-0.279-4.667-1.511-9.078-3.502-13.049l-2.601,1.502
	C181.167,152.665,182.25,156.566,182.52,160.688z M153.859,132.027c4.122,0.271,8.024,1.354,11.549,3.096l1.501-2.601
	c-3.971-1.991-8.383-3.224-13.05-3.503V132.027z M134.711,137.161l-1.501-2.6c-3.788,2.512-7.041,5.765-9.552,9.552l2.6,1.501
	C128.499,142.277,131.375,139.402,134.711,137.161z M126.259,179.838l-2.6,1.5c2.512,3.788,5.765,7.04,9.552,9.551l1.501-2.6
	C131.375,186.049,128.5,183.174,126.259,179.838z M168.933,188.288l1.501,2.6c3.787-2.512,7.04-5.764,9.551-9.551l-2.6-1.501
	C175.145,183.172,172.27,186.048,168.933,188.288z M153.859,193.423v3.008c4.667-0.279,9.079-1.511,13.049-3.503l-1.501-2.6
	C161.883,192.069,157.981,193.152,153.859,193.423z M138.237,135.122c3.524-1.741,7.426-2.824,11.548-3.095v-3.008
	c-4.667,0.278-9.079,1.511-13.05,3.502L138.237,135.122z M136.738,192.93c3.97,1.99,8.382,3.223,13.048,3.501v-3.008
	c-4.121-0.271-8.023-1.353-11.547-3.094L136.738,192.93z M179.425,176.31l2.601,1.501c1.991-3.97,3.224-8.382,3.502-13.049h-3.008
	C182.25,168.884,181.167,172.786,179.425,176.31z M121.123,164.763h-3.008c0.279,4.667,1.512,9.079,3.503,13.05l2.601-1.501
	C122.478,172.787,121.394,168.885,121.123,164.763z M124.219,149.141l-2.6-1.502c-1.992,3.971-3.224,8.383-3.503,13.051h3.008
	C121.394,156.566,122.477,152.664,124.219,149.141z"/>
</svg>
