<?xml version="1.0" encoding="UTF-8" standalone="no"?>
<svg  width="1200" height="675" xmlns="http://www.w3.org/2000/svg" font-size="40" font-family="Liberation Sans,sans-serif" text-anchor="middle" fill="black">

<rect width="1200" height="675" x="0" y="0" fill="#f8f8f8"/>
<rect width="990" height="540" x="160" y="50" fill="#fffffc"/>

<rect x="925" y="325" width="180" height="100" fill="#ddf"/>

<path stroke="#ddd" stroke-width="3" d="
M150,50 h10
M150,230 h1000
M150,410 h1000
M150,590 h10
"/>

<g font-size="40" transform="translate(110,0)" fill="#27b">
<text y="64">15</text>
<text y="244">10</text>
<text y="424">5</text>
<text y="604">0</text>
</g>

<path stroke="black" stroke-width="0.25" d="
M160,50 v550
M250,50 v550
M340,50 v550
M430,50 v550
M520,50 v550
M610,50 v550
M700,50 v550
M790,50 v550
M880,50 v550
M970,50 v550
M1060,50 v550
M1150,50 v550
"/>

<g font-size="35" transform="translate(0,640)">
<text x="205">2015</text>
<text x="655">2020</text>
<text x="1105">2025</text>
<text x="1105" y="15" font-size="10">Through 26 Nov</text>
</g>

<path fill="#27b" d="
M169,590 v-36 h73 v36 z
M259,590 v-64 h73 v64 z
M349,590 v-48 h73 v48 z
M439,590 v-85 h73 v85 z
M529,590 v-67 h73 v67 z
M619,590 v-114 h73 v114 z
M709,590 v-119 h73 v119 z
M799,590 v-253 h73 v253 z
M889,590 v-159 h73 v159 z
M979,590 v-119 h73 v119 z 
M1069,590 v-34 h73 v34 z 
"/>

<path fill="#9af" d="
M709,471 v-18 h73 v18 z
M799,337 v-37 h73 v37 z
M889,431 v-121 h73 v121 z
M979,471 v-290 h73 v290 z 
M1069,556 v-432 h73 v432 z
"/>

   <g transform="translate(200,130)" font-size="72" text-anchor="start">
<text>US data center</text>
<text y="72">power demand</text>
   </g>

<text transform="translate(55,320) rotate(-90)" font-size="45" fill="#27b">Gigawatts</text>

<text x="1014" y="370">Under</text>
<text x="1014" y="410">construction</text>
<text x="475" y="490" fill="#27b">Completed</text>

<rect width="990" height="540" x="160" y="50" stroke="#888888" stroke-width="1" fill="none"/>

</svg>
