<?xml version="1.0" encoding="utf-8"?>
<!-- Generator: Adobe Illustrator 22.1.0, SVG Export Plug-In . SVG Version: 6.00 Build 0)  -->
<svg version="1.1"
	 id="svg8" inkscape:version="1.1.2 (b8e25be8, 2022-02-05)" sodipodi:docname="Earth_cutaway_schematic-en.svg" xmlns:cc="http://creativecommons.org/ns#" xmlns:dc="http://purl.org/dc/elements/1.1/" xmlns:inkscape="http://www.inkscape.org/namespaces/inkscape" xmlns:rdf="http://www.w3.org/1999/02/22-rdf-syntax-ns#" xmlns:sodipodi="http://sodipodi.sourceforge.net/DTD/sodipodi-0.dtd" xmlns:svg="http://www.w3.org/2000/svg"
	 xmlns="http://www.w3.org/2000/svg" xmlns:xlink="http://www.w3.org/1999/xlink" x="0px" y="0px" viewBox="0 0 1093.5 713.4"
	 enable-background="new 0 0 1093.5 713.4" xml:space="preserve">
<filter  height="1" id="filter3932" style="color-interpolation-filters:sRGB" width="1" x="0" y="0">
	<feColorMatrix  id="feColorMatrix3930" values="1 0 0 -0.04 -0 0 1 0 -0.04 -0 0 0 1 -0.04 -0 0 0 0 1 0"></feColorMatrix>
</filter>
<filter  filterUnits="objectBoundingBox" height="100%" id="AI_Alpha_2" width="100%" x="0%" y="0%">
	<feTurbulence  baseFrequency="0.05" numOctaves="5" result="turb" stitchTiles="noStitch" type="turbulence"></feTurbulence>
	<feComposite  in="SourceGraphic" in2="turb" operator="in"></feComposite>
</filter>
<sodipodi:namedview  bordercolor="#666666" borderopacity="1.0" id="namedview427" inkscape:current-layer="g4008" inkscape:cx="532.48276" inkscape:cy="547.18795" inkscape:document-units="mm" inkscape:pagecheckerboard="0" inkscape:pageopacity="0.0" inkscape:pageshadow="2" inkscape:window-height="815" inkscape:window-maximized="0" inkscape:window-width="977" inkscape:window-x="0" inkscape:window-y="29" inkscape:zoom="0.64603031" pagecolor="#ffffff" showgrid="false">
	</sodipodi:namedview>
<g id="layer1" transform="translate(260.05259,1.923193)">
	<path id="path1547" fill="#948C72" d="M158.6,85l11.2,33.1l-63.4,16.2l-0.6-5.8l46.6-39.9L158.6,85z"/>
	<path id="path1503" fill="#51C7EF" stroke="#1191BC" stroke-linecap="round" stroke-linejoin="round" d="M148.7,72.2l6,14.6"/>
	<g id="g1483">
		<g>
			<defs>
				<polyline id="SVGID_1_" points="534.7,0.9 327.1,508.9 119.6,0.9 				"/>
			</defs>
			<clipPath id="SVGID_2_">
				<use xlink:href="#SVGID_1_"  overflow="visible"/>
			</clipPath>
			<g id="g1469" transform="matrix(0.90131579,0,0,0.90131579,-14.570646,4.0690224)" clip-path="url(#SVGID_2_)">
				
					<path id="path1461" display="none" fill="#948C72" stroke="#494538" stroke-width="1.1095" stroke-linecap="round" stroke-linejoin="round" d="
					M168.5,100.3C191.2,90.2,214,80.1,233.3,73c19.3-7.1,35.2-11.1,54.4-14.9c19.2-3.8,41.7-7.3,62.8-7.5
					c21.1-0.2,40.9,3.1,56.9,4.3s28.5,0.4,40.9-0.5l153.5,151.2l-463.7-43.9C138.2,161.6,168.5,100.3,168.5,100.3z"/>
			</g>
		</g>
	</g>
	<path id="path1485" fill="none" stroke="#4D493B" stroke-linecap="square" stroke-linejoin="round" d="M99.5,134l55.1-47.2"/>
	<path id="path1441" fill="#AAE4F7" fill-opacity="0.8925" d="M148.7,72.2l-54.6,46.7l19.1,48.4l243.7-45.9L411,45.7
		c-20.4-4.3-41.1-7.1-61.9-8.3c-35.5-2-71.2,0.6-106.1,7.1C210.7,50.4,179,59.7,148.7,72.2z"/>
	<g>
		<defs>
			<polyline id="SVGID_3_" points="534.7,0.9 327.1,508.9 119.6,0.9 			"/>
		</defs>
		<clipPath id="SVGID_4_">
			<use xlink:href="#SVGID_3_"  overflow="visible"/>
		</clipPath>
		<g id="g1482" transform="matrix(0.90131579,0,0,0.90131579,-14.57076,4.0689141)" clip-path="url(#SVGID_4_)">
			
				<circle id="circle1472" fill="none" stroke="#1191BC" stroke-width="1.1095" stroke-linecap="round" stroke-linejoin="round" cx="379.1" cy="560.1" r="523.7"/>
		</g>
	</g>
	
		<linearGradient id="path1221_1_" gradientUnits="userSpaceOnUse" x1="-146.6074" y1="726.3831" x2="-141.0972" y2="707.624" gradientTransform="matrix(2.8346 0 0 -2.8346 835.4118 2108.9036)">
		<stop  offset="0" style="stop-color:#948C72"/>
		<stop  offset="1" style="stop-color:#BBB6A6"/>
	</linearGradient>
	<path id="path1221" fill="url(#path1221_1_)" d="M507.8,66.8L478,112.2c0,0-116.5,20.9-117.1,19.8s6.3-66.2,6.3-66.2l105.2-6
		L507.8,66.8z"/>
	<path id="path967" fill="#736C57" d="M507.8,66.8l-17.4,42.5l-55.1,47.2l-6.5-1.6l14.7-42.5l9.2,1.6L507.8,66.8z"/>
	<g id="path969" display="none" filter="url(#filter3932)">
		
			<radialGradient id="SVGID_5_" cx="-108.671" cy="622.312" r="163.897" gradientTransform="matrix(2.7194 -1.1474 -0.8075 -1.9138 1311.5338 1532.5211)" gradientUnits="userSpaceOnUse">
			<stop  offset="0" style="stop-color:#FFD788"/>
			<stop  offset="0.5863" style="stop-color:#EDD19A"/>
			<stop  offset="0.8376" style="stop-color:#E48C65"/>
			<stop  offset="1" style="stop-color:#BDB499"/>
		</radialGradient>
		<polygon display="inline" fill="url(#SVGID_5_)" points="490.4,109.3 424.6,270.4 369.5,317.6 360.6,314.2 419.8,152.8 
			435.3,156.5 		"/>
	</g>
	<path id="path971" fill="#C4C441" d="M424.6,270.4l-58.4,143l-55.1,47.2l0,0l44.1-148.3l13.2,4.9L424.6,270.4z"/>
	<path id="path973" fill="#EAEAB7" d="M366.2,413.4l-39,95.5L272,556.1l39-95.5L366.2,413.4z"/>
	
		<linearGradient id="path1200_1_" gradientUnits="userSpaceOnUse" x1="-147.1978" y1="726.2097" x2="-141.6876" y2="707.4506" gradientTransform="matrix(2.8346 0 0 -2.8346 835.4118 2108.9036)">
		<stop  offset="0" style="stop-color:#948C72"/>
		<stop  offset="1" style="stop-color:#BBB6A6"/>
	</linearGradient>
	<path id="path1200" fill="url(#path1200_1_)" stroke="#494538" stroke-linecap="round" stroke-linejoin="round" d="M342.3,80.9
		c3-4.8,6-9.5,10-13.2c4-3.7,9.1-6.3,13.4-8.8c4.2-2.5,7.6-4.9,10.8-6.5c3.1-1.6,6-2.4,9.4-4c3.4-1.6,7.5-3.9,11.5-6.3
		c2.7-1.8,5.3-3.7,7.7-4.3c2.4-0.6,4.4,0,6.8,0.3c2.4,0.3,5,0.2,8,0.4c2.9,0.2,6.2,0.6,10,2.1s8.3,4.1,13.9,5.8
		c5.6,1.7,12.3,2.6,18.6,2.7c6.3,0.1,12.2-0.6,16.9-0.8c4.7-0.2,8.3,0,11,1.7c2.7,1.6,4.5,4.6,7.2,7.6c2.8,3,6.5,6.1,10.3,9.2"/>
	<path id="path3853" fill="#ADA281" d="M435.3,156.5l55.1-47.2l-5.3,13.1L430,169.6l-14.2-5.8l4.6-14.2L435.3,156.5z"/>
	<g>
		<defs>
			<polyline id="SVGID_6_" points="602.5,-252.6 272,556.1 -59.4,-254.8 			"/>
		</defs>
		<clipPath id="SVGID_7_">
			<use xlink:href="#SVGID_6_"  overflow="visible"/>
		</clipPath>
		
			<circle id="circle4304" clip-path="url(#SVGID_7_)" fill="#51C7EF" fill-opacity="0.3084" stroke="#1191BC" stroke-width="1.1095" stroke-linecap="round" stroke-linejoin="round" cx="272" cy="556.1" r="472.1"/>
		
			<path id="path4300" clip-path="url(#SVGID_7_)" fill="#948C72" stroke="#494538" stroke-width="1.1095" stroke-linecap="round" stroke-linejoin="round" d="
			M82.2,141.7c20.5-9.1,41-18.2,58.4-24.6c17.4-6.4,31.8-10,49.1-13.4c17.3-3.4,37.6-6.6,60-6.9c22.4-0.3,47,2.2,60.4,2.5
			s15.6-1.4,17.8-3.2l14.5-15.1l14.6-8.3l17.5-11.4c1.2,2.7,2.5,5.5,4.4,8.9s4.6,7.5,6.8,10.8c2.2,3.4,3.9,6,5.6,8.7l9.8-3.9
			l8.2-6.1l6.8,13l2.4,10l11.3-1.6c1.6,4,3.1,8,10.3,10.6c7.2,2.5,20,3.6,32.7,4.6v120.5L54.9,197C54.9,197,82.2,141.7,82.2,141.7z"
			/>
		
			<path id="circle4260" clip-path="url(#SVGID_7_)" fill="#BDB499" stroke="#494538" stroke-width="1.1095" stroke-linecap="round" stroke-linejoin="round" d="
			M435.3,156.5c109.9-5.7,226-11.7,200.3,119.5S408.1,755.2,280.2,812.7C152.2,870.2-42.1,676-61.6,551.9s71.2-268.3,157-404.6
			c14.7-7.7,29.4-15.4,50.2-22.3c20.8-6.9,47.8-12.9,73.9-15.7s51.4-2.5,77.9,4.9s54.1,22.1,72.8,27.5s30.2,0.9,36.3,1.2
			c6.1,0.4,12.3,5.7,16.9,8.7S431.7,155.5,435.3,156.5L435.3,156.5z"/>
		
			<radialGradient id="path3146_1_" cx="91.4051" cy="572.4216" r="67.5979" gradientTransform="matrix(6.632 0 0 -6.613 -334.1901 4341.5596)" gradientUnits="userSpaceOnUse">
			<stop  offset="0" style="stop-color:#FFD788"/>
			<stop  offset="0.5863" style="stop-color:#EDD19A"/>
			<stop  offset="0.8376" style="stop-color:#E48C65"/>
			<stop  offset="1" style="stop-color:#BDB499"/>
		</radialGradient>
		
			<path id="path3146" clip-path="url(#SVGID_7_)" fill="url(#path3146_1_)" stroke="#968961" stroke-linecap="round" stroke-linejoin="round" d="
			M144,378.4l-36.3-224.6c12.6-5.5,25.2-10.9,43.7-16.3c18.5-5.3,42.8-10.5,66.5-12.3c23.8-1.8,47-0.3,64,2.4
			c17,2.7,27.7,6.6,39.2,11.6c11.5,5,23.7,11.1,35.8,15.1c12.1,3.9,24,5.6,32.5,6.2s13.4-0.1,19.5,1.2c6.2,1.3,13.6,4.6,21.1,7.9
			l55.1-47.2l2.9,271.3"/>
		
			<circle id="circle819-4" clip-path="url(#SVGID_7_)" fill="#F2E757" stroke="#8D8D8D" stroke-width="1.1095" stroke-linecap="round" stroke-linejoin="round" cx="272" cy="556.1" r="257.7"/>
		<g id="circle819-4_1_" clip-path="url(#SVGID_7_)" filter="url(#AI_Alpha_2)">
			<circle fill="#FAA844" cx="272" cy="556.1" r="257.7"/>
			
				<circle fill="none" stroke="#8D8D8D" stroke-width="1.1095" stroke-linecap="round" stroke-linejoin="round" cx="272" cy="556.1" r="257.7"/>
		</g>
		
			<circle id="circle817-4" clip-path="url(#SVGID_7_)" fill="#FFFFCF" stroke="#727272" stroke-width="1.1095" stroke-linecap="round" stroke-linejoin="round" cx="272" cy="556.1" r="103.2"/>
	</g>
	<path id="path1488" fill="#51C7EF" stroke="#1191BC" stroke-linecap="round" stroke-linejoin="round" d="M93.6,119.4l55.1-47.2
		L93.6,119.4L93.6,119.4l6,14.6"/>
	<path id="path4270" fill="none" stroke="#4D493B" stroke-linecap="round" stroke-linejoin="round" d="M99.5,134L272,556.1"/>
	
		<radialGradient id="path815_1_" cx="-284.6055" cy="378.7243" r="63.7813" gradientTransform="matrix(2.2704 -1.7421 -1.7421 -2.2704 1289.1401 892.3138)" gradientUnits="userSpaceOnUse">
		<stop  offset="0" style="stop-color:#CEFFCD"/>
		<stop  offset="0.5401" style="stop-color:#EDD19A"/>
		<stop  offset="1" style="stop-color:#E48D65"/>
	</radialGradient>
	
		<radialGradient id="path815_2_" cx="-307.2438" cy="558.8715" r="57.6942" gradientTransform="matrix(2.8346 0 0 -3.1584 835.4118 2293.4158)" gradientUnits="userSpaceOnUse">
		<stop  offset="0" style="stop-color:#4D493B"/>
		<stop  offset="1" style="stop-color:#4D493B;stop-opacity:0"/>
	</radialGradient>
	<path id="path815" fill="url(#path815_1_)" stroke="url(#path815_2_)" stroke-linecap="round" stroke-linejoin="round" d="
		M150.2,597.5C115.5,681.3,24,726.4-63.6,702.9s-144.3-108.3-132.5-198.2c11.8-90,88.5-157.2,179.2-157.2v180.8L150.2,597.5z"/>
	<g>
		<defs>
			<path id="SVGID_8_" d="M150.2,597.5C115.5,681.3,24,726.4-63.6,702.9s-144.3-108.3-132.5-198.2c11.8-90,88.5-157.2,179.2-157.2
				v180.8L150.2,597.5z"/>
		</defs>
		<clipPath id="SVGID_9_">
			<use xlink:href="#SVGID_8_"  overflow="visible"/>
		</clipPath>
		<g id="g844" clip-path="url(#SVGID_9_)">
			
				<circle id="circle819" fill="#FFF064" stroke="#8D8D8D" stroke-linecap="round" stroke-linejoin="round" cx="-16.8" cy="528.3" r="98.6"/>
			
				<circle id="circle817" fill="#FFFCC7" stroke="#727272" stroke-linecap="round" stroke-linejoin="round" cx="-16.8" cy="528.3" r="36.2"/>
		</g>
	</g>
	<path id="path3366" xlink:href="#path815" fill="none" stroke="#4D493B" stroke-linecap="round" stroke-linejoin="round" d="
		M-16.8,347.5c-90.7,0-167.4,67.2-179.2,157.2c-11.8,90,44.8,174.7,132.5,198.2c87.6,23.5,179.1-21.6,213.8-105.4l-167-69.2V347.5z"
		/>
	<path id="path4361" fill="none" stroke="#000000" stroke-width="0.5" stroke-dasharray="1,1" d="M99.5,134L-17.2,347.5l120.5-204.3
		"/>
	<path id="path4363" fill="none" stroke="#000000" stroke-width="0.5" stroke-dasharray="1,1" d="M-16.8,429.7l191.4-112.1"/>
	<path id="path4365" fill="none" stroke="#000000" stroke-width="0.5" stroke-dasharray="1,1" d="M-16.8,492L233,460.6"/>
	<path id="path1490" fill="none" stroke="#4D493B" stroke-linecap="round" stroke-linejoin="round" d="M452.6,114.1l55.1-47.2"/>
	<path id="path1492" fill="#BFBFBF" stroke="#8D8D8D" stroke-width="1" stroke-linecap="round" stroke-linejoin="round" d="
		M369.5,317.6l55.1-47.2"/>
	<path id="path1494" fill="#ECECEC" stroke="#727272" stroke-linecap="round" stroke-linejoin="round" d="M311.1,460.6l55.1-47.2"/>
	<path id="path1496" fill="none" stroke="#4D493B" stroke-linecap="round" stroke-linejoin="round" d="M272,556.1l55.1-47.2"/>
	<path id="path1638" fill="none" stroke="#494538" stroke-linecap="round" stroke-linejoin="round" d="M435.3,156.5l55.1-47.2"/>
	<path id="path3146-9" display="none" fill="none" stroke="#968961" stroke-linecap="round" stroke-linejoin="round" d="M430,169.6
		l55.1-47.2L430,169.6z"/>
	<path id="path1484" fill="none" stroke="#4D493B" stroke-linecap="round" stroke-linejoin="round" d="M327.1,508.9L507.8,66.8"/>
	<path id="path1064" fill="#948C72" stroke="#494538" stroke-linecap="round" stroke-linejoin="round" d="M374.4,61.2
		c4,0.7,8,1.3,11.2,2.8s5.5,3.7,7.6,4.9c2.1,1.2,4.1,1.4,6.4,1.8c2.3,0.4,4.9,1.2,7.5,1.9"/>
	
		<linearGradient id="path1250_1_" gradientUnits="userSpaceOnUse" x1="-146.7092" y1="725.9095" x2="-146.8037" y2="722.366" gradientTransform="matrix(2.8346 0 0 -2.8346 835.4118 2108.9036)">
		<stop  offset="0" style="stop-color:#BBB6A6"/>
		<stop  offset="1" style="stop-color:#BBB6A6;stop-opacity:0"/>
	</linearGradient>
	<path id="path1250" fill="url(#path1250_1_)" stroke="#494538" stroke-linecap="round" stroke-linejoin="round" d="M390.8,58.8
		c2.5-1.2,4.8-2.7,7-4.4c2.4-1.9,4.7-4,7.2-5.7c1.9-1.3,3.9-2.3,6.1-3l5.5-2.2l3,2l2.1,4.6c1.1,0.9,2.2,1.9,3,3
		c1.3,1.8,2.3,3.8,3,5.9c0.4,1.3,0.8,2.6,1.3,3.9c0.5,1.3,1.2,2.5,2.3,3.3c0.9,0.7,2,1.2,3.1,1.5c1.1,0.3,2.2,0.5,3.4,0.7
		c3.4,0.6,6.7,1.6,9.8,2.8"/>
	
		<linearGradient id="path1293_1_" gradientUnits="userSpaceOnUse" x1="-134.3829" y1="726.0086" x2="-134.7137" y2="724.5912" gradientTransform="matrix(2.8346 0 0 -2.8346 835.4118 2108.9036)">
		<stop  offset="0" style="stop-color:#BBB6A6"/>
		<stop  offset="1" style="stop-color:#BBB6A6;stop-opacity:0"/>
	</linearGradient>
	<path id="path1293" fill="url(#path1293_1_)" stroke="#494538" stroke-linecap="round" stroke-linejoin="round" d="M427.4,48.8
		c3.1-1.2,6.1-2.8,8.8-4.8c3.9-2.9,7.3-6.6,9.8-10.7c1.2,2.4,2.7,4.6,4.5,6.6c1.5,1.7,3.3,3.3,5.1,4.7l4,2.1l6.3-5.8
		c0.7,1.6,1.3,3.1,2,4.7c1.1,2.6,2.2,5.2,3.8,7.6c2,3.2,4.7,5.9,7.9,7.9"/>
	<path id="path1310" fill="none" stroke="#494538" stroke-linecap="round" stroke-linejoin="round" d="M413.9,73.6
		c1.8-0.5,3.8-0.2,5.2,0.9c1.3,1,2.2,2.5,3.5,3.6c0.9,0.8,2.1,1.3,3.3,1.5c1.2,0.2,2.5,0,3.6-0.4"/>
	<path id="path1314" fill="none" stroke="#494538" stroke-linecap="round" stroke-linejoin="round" d="M451.4,52.8
		c0.4,1.5,1.1,3,1.9,4.4c1.1,1.9,2.4,3.5,4,5"/>
	
		<linearGradient id="path1322_1_" gradientUnits="userSpaceOnUse" x1="-127.9946" y1="717.2271" x2="-128.0891" y2="716.5657" gradientTransform="matrix(2.8346 0 0 -2.8346 780.2332 2073.0107)">
		<stop  offset="0" style="stop-color:#BBB6A6"/>
		<stop  offset="1" style="stop-color:#BBB6A6;stop-opacity:0"/>
	</linearGradient>
	<path id="path1322" fill="url(#path1322_1_)" stroke="#494538" stroke-linecap="round" stroke-linejoin="round" d="M402.9,42.7
		c3.6-0.3,7.1-1.4,10.3-3.2c1.9-1,3.6-2.3,5.6-3.1c1.8-0.7,3.8-0.9,5.8-0.7c0.3,1.3,0.8,2.6,1.6,3.8c1.2,1.7,2.9,3.1,4.8,3.9"/>
	
		<linearGradient id="path1391_1_" gradientUnits="userSpaceOnUse" x1="-154.4798" y1="726.1167" x2="-154.5743" y2="722.5732" gradientTransform="matrix(2.8346 0 0 -2.8346 834.2064 2109.5732)">
		<stop  offset="0" style="stop-color:#BBB6A6"/>
		<stop  offset="1" style="stop-color:#948C72"/>
	</linearGradient>
	<path id="path1391" fill="url(#path1391_1_)" stroke="#494538" stroke-linecap="round" stroke-linejoin="round" d="M380.1,58.1
		c1.8-0.5,3.6-1.2,5.2-2.1c2.7-1.4,5.1-3.4,7.1-5.6c0.9,0.8,1.9,1.6,2.9,2.3c1.8,1.2,3.8,2,5.9,2.5c0.6,0.9,1.1,1.8,1.6,2.7
		c1.1,2,1.9,4.2,3.5,5.9c1.4,1.6,3.4,2.6,5.5,2.9"/>
	<path id="path2192" fill="none" stroke="#000000" stroke-width="0.5" stroke-dasharray="1,1" d="M-16.8,528.3L272,556.1"/>
</g>
<g id="layer4" transform="translate(-1.1758283e-5)">
	<g id="use3737" transform="rotate(21.431567,-200.55664,231.79038)">
		<path id="path86758" fill="none" stroke="#000000" stroke-width="2.8346" stroke-linecap="round" stroke-linejoin="round" d="
			M647.3-273.3c2.4,1.5,4.1,4.1,4.6,7c0.6,3.1-0.1,6.3-0.6,9.5c-0.3,1.6-0.5,3.2-0.4,4.7c0,1.6,0.3,3.2,1.1,4.6
			c0.9,1.7,2.3,3.1,4,3.7c-1.7,0.7-3.1,2-4,3.7c-0.7,1.4-1,3-1.1,4.6c0,1.6,0.2,3.2,0.4,4.7c0.5,3.1,1.2,6.3,0.6,9.5
			c-0.5,2.9-2.3,5.5-4.6,7"/>
		<path id="path86760" fill="none" stroke="#000000" stroke-width="2.8346" stroke-linecap="round" stroke-linejoin="round" d="
			M647.3-226.6c1.9,2.1,3.4,4.5,4.6,7c2.4,5.1,3.2,11,3.2,16.7c0,5.7-1,11.4-2,17s-2.1,11.2-2.6,17c-0.5,5.7-0.2,11.6,1.4,17
			c0.9,3.1,2.3,6,4,8.7c-1.7,2.7-3.1,5.6-4,8.7c-1.6,5.5-1.8,11.3-1.4,17c0.5,5.7,1.6,11.3,2.6,17s1.9,11.3,2,17s-0.8,11.6-3.2,16.7
			c-1.2,2.6-2.8,5-4.6,7"/>
	</g>
	<path fill="none" d=""/>
	<path id="path1092" stroke="#000000" d="M669,392.4"/>
	<path fill="none" d=""/>
	<path id="path1094" stroke="#000000" d="M654.1,483.1"/>
	<path fill="none" d=""/>
	<path id="path1622" stroke="#000000" d="M419.6,113.7c1.6-1.8,4.3-1.9,6.1-0.4c1.8,1.6,1.9,4.3,0.4,6.1c-1.6,1.8-4.3,1.9-6.1,0.4
		C418.2,118.2,418,115.5,419.6,113.7z"/>
	<path id="path1112" stroke="#000000" d="M358.7,59.6"/>
	<path fill="none" d=""/>
	<path id="path1277" stroke="#000000" d="M612.4,100.6c1.6-1.7,4.3-1.8,6-0.2c1.7,1.6,1.8,4.3,0.2,6c-1.6,1.7-4.3,1.8-6,0.2
		S610.8,102.3,612.4,100.6z"/>
	<path id="path1114" stroke="#000000" d="M527.5,20.9"/>
	<path fill="none" d=""/>
	<path id="path1692" stroke="#000000" d="M402.5,150.8c1.1-1.8,3.4-2.4,5.1-1.3c1.8,1.1,2.4,3.4,1.3,5.1c-1.1,1.8-3.4,2.4-5.1,1.3
		C402,154.9,401.4,152.6,402.5,150.8z"/>
	<path id="path1128" stroke="#000000" d="M330.5,108.1"/>
</g>
<g id="layer3" transform="translate(0.9999706,19.512825)">
	<text transform="matrix(1 0 0 1 492.8519 274.2792)" font-family="'ArialMT'" font-size="20px">2900 km</text>
	<text transform="matrix(1 0 0 1 492.9789 428.7421)" font-family="'ArialMT'" font-size="20px">5100 km</text>
</g>
<g id="g4008" transform="translate(0.9999706,19.512825)">
	<g id="text3954">
		<path id="path585" d="M757,283.3c0.4-1.7,0.9-3.1,1.5-4.3c0.7-1.2,1.5-2.3,2.6-3.3c1.1-1,3.1-2.8,6.2-5.2c1.8-1.5,3.1-2.6,3.8-3.3
			c1-1,1.7-2,2.1-3c0.3-0.7,0.4-1.4,0.4-2.2c0-1.3-0.5-2.4-1.4-3.3c-0.9-0.9-2.1-1.4-3.4-1.4c-1.3,0-2.5,0.5-3.5,1.4
			c-1,0.9-1.7,2.4-2.1,4.5l-3.5-0.5c0.3-2.5,1.3-4.5,2.9-6c1.6-1.5,3.7-2.2,6.1-2.2c1.6,0,3.1,0.3,4.4,1c1.3,0.7,2.3,1.6,3,2.9
			c0.7,1.2,1,2.5,1,3.8c0,1.9-0.7,3.7-2,5.5c-0.8,1.1-3.3,3.2-7.3,6.5c-1.7,1.4-3,2.5-3.9,3.4c-0.8,0.9-1.5,1.7-1.9,2.5h12.8
			l-0.7,3.2L757,283.3z"/>
		<path id="path587" d="M779.6,276.8l3.3-0.3c0.2,1.6,0.7,2.7,1.4,3.4c0.7,0.7,1.5,1,2.5,1c1.4,0,2.6-0.6,3.8-1.8
			c1.7-1.7,3-4.2,3.8-7.4c-1.2,0.9-2.2,1.5-3.2,1.9c-0.9,0.4-1.8,0.6-2.8,0.6c-1.7,0-3.3-0.6-4.7-1.8c-1.8-1.5-2.7-3.7-2.7-6.6
			c0-3.2,1.1-6,3.2-8.3c1.8-2,4-3,6.7-3c2.4,0,4.3,0.9,5.9,2.6c1.6,1.7,2.3,4.2,2.3,7.4c0,3.1-0.5,6.2-1.6,9.2
			c-1.2,3.6-2.9,6.2-5,7.9c-1.7,1.4-3.7,2.1-5.8,2.1c-2,0-3.6-0.6-4.9-1.8C780.5,280.7,779.8,279,779.6,276.8L779.6,276.8z
			 M784.3,265.4c0,1.8,0.5,3.2,1.4,4.3c1,1.1,2.1,1.6,3.4,1.6c1,0,1.9-0.3,2.9-1c1-0.7,1.8-1.7,2.5-3c0.7-1.3,1-2.7,1-4.1
			c0-1.1-0.2-2.1-0.7-3s-1.1-1.6-1.9-2.1c-0.8-0.5-1.6-0.7-2.4-0.7c-0.8,0-1.5,0.2-2.3,0.6c-0.8,0.4-1.5,1-2.1,1.8
			c-0.6,0.8-1.1,1.7-1.4,2.8C784.5,263.7,784.3,264.6,784.3,265.4L784.3,265.4z"/>
		<path id="path589" d="M802,273.9c0-2.4,0.4-4.9,1.1-7.4c0.7-2.5,1.5-4.5,2.4-6c0.9-1.5,1.8-2.7,2.8-3.5c1-0.8,1.9-1.5,2.8-1.9
			c0.9-0.4,1.9-0.6,3.1-0.6c2.2,0,4,0.8,5.5,2.4c1.5,1.6,2.2,4,2.2,7.1c0,3.2-0.5,6.3-1.5,9.4c-1.2,3.7-2.9,6.4-5,8.3
			c-1.6,1.4-3.5,2.1-5.6,2.1c-2.1,0-4-0.8-5.4-2.5C802.8,279.6,802,277.1,802,273.9z M805.5,274.8c0,1.8,0.3,3.1,0.9,4.1
			c0.8,1.4,2,2.1,3.5,2.1c1.4,0,2.6-0.6,3.7-1.9c1.6-1.7,2.8-4.3,3.6-7.7c0.8-3.4,1.2-6.1,1.2-8.3c0-2.1-0.4-3.5-1.2-4.5
			c-0.8-0.9-1.8-1.4-3.1-1.4c-0.9,0-1.8,0.2-2.6,0.7c-0.8,0.5-1.6,1.3-2.3,2.5c-1.1,1.7-2,4.1-2.8,7.4
			C805.8,270.8,805.5,273.1,805.5,274.8L805.5,274.8z"/>
		<path id="path591" d="M824.3,273.9c0-2.4,0.4-4.9,1.1-7.4c0.7-2.5,1.5-4.5,2.4-6s1.8-2.7,2.8-3.5c1-0.8,1.9-1.5,2.8-1.9
			c0.9-0.4,1.9-0.6,3.1-0.6c2.2,0,4,0.8,5.5,2.4c1.5,1.6,2.2,4,2.2,7.1c0,3.2-0.5,6.3-1.5,9.4c-1.2,3.7-2.9,6.4-5,8.3
			c-1.6,1.4-3.5,2.1-5.6,2.1c-2.1,0-4-0.8-5.4-2.5C825,279.6,824.3,277.1,824.3,273.9z M827.7,274.8c0,1.8,0.3,3.1,0.9,4.1
			c0.8,1.4,2,2.1,3.5,2.1c1.4,0,2.6-0.6,3.7-1.9c1.6-1.7,2.8-4.3,3.6-7.7c0.8-3.4,1.2-6.1,1.2-8.3c0-2.1-0.4-3.5-1.2-4.5
			c-0.8-0.9-1.8-1.4-3.1-1.4c-0.9,0-1.8,0.2-2.6,0.7c-0.8,0.5-1.6,1.3-2.3,2.5c-1.1,1.7-2,4.1-2.8,7.4
			C828.1,270.8,827.7,273.1,827.7,274.8L827.7,274.8z"/>
		<path id="path593" d="M856.2,283.3l6-28.6h3.5l-3.7,17.8l10.3-9.9h4.7l-8.8,7.7l5.4,13h-3.9l-4.1-10.6l-4.3,3.7l-1.4,6.9H856.2z"
			/>
		<path id="path595" d="M876.1,283.3l4.3-20.7h3.5l-0.7,3.4c1.3-1.5,2.5-2.5,3.5-3c1-0.6,2.2-0.8,3.4-0.8c1.3,0,2.4,0.3,3.2,1
			c0.9,0.7,1.4,1.6,1.7,2.9c1.1-1.3,2.2-2.3,3.3-2.9c1.2-0.7,2.4-1,3.7-1c1.7,0,3,0.4,3.9,1.2c0.9,0.8,1.3,2,1.3,3.5
			c0,0.6-0.1,1.7-0.4,3.2l-2.8,13.4h-3.5l2.9-13.7c0.2-1.1,0.4-1.9,0.4-2.4c0-0.7-0.2-1.2-0.6-1.6c-0.4-0.4-1-0.6-1.8-0.6
			c-1.1,0-2.1,0.3-3.2,1c-1.1,0.6-1.9,1.5-2.6,2.5c-0.6,1-1.1,2.6-1.6,4.8l-2.1,10.1h-3.5l2.9-14c0.2-1,0.3-1.6,0.3-2
			c0-0.7-0.2-1.2-0.6-1.6c-0.4-0.4-1-0.6-1.6-0.6c-1,0-2.1,0.3-3.2,1c-1.1,0.6-2,1.5-2.7,2.7c-0.7,1.1-1.3,2.8-1.7,4.9l-2.1,9.8
			H876.1z"/>
	</g>
	<g id="text3958">
		<path id="path616" d="M674.9,450l3.6-0.4c0,0.5,0,0.8,0,0.9c0,0.9,0.2,1.7,0.6,2.6c0.4,0.9,1,1.5,1.8,2c0.8,0.5,1.5,0.7,2.4,0.7
			c1.1,0,2.2-0.4,3.3-1.1c1.1-0.8,2.1-1.9,2.8-3.3s1.1-2.9,1.1-4.3c0-1.6-0.5-2.9-1.4-3.8c-0.9-1-2.2-1.4-3.7-1.4
			c-1,0-2,0.2-2.9,0.7c-0.9,0.5-1.8,1.2-2.6,2.2l-3.1-0.2l4.3-14.6h14l-0.7,3.2h-10.9l-2.1,7.3c0.8-0.6,1.6-1,2.5-1.3
			c0.9-0.3,1.7-0.4,2.6-0.4c2.2,0,4,0.7,5.4,2.2s2.1,3.4,2.1,5.9c0,2.2-0.5,4.2-1.4,6.1c-1,1.8-2.3,3.3-4,4.3
			c-1.7,1-3.5,1.5-5.4,1.5c-1.6,0-3.1-0.4-4.4-1.1c-1.3-0.7-2.2-1.8-2.9-3.1c-0.6-1.3-0.9-2.6-0.9-3.9
			C674.9,450.5,674.9,450.3,674.9,450L674.9,450z"/>
		<path id="path618" d="M704,458.2l4.5-21.6c-2,1.5-4.7,2.8-8.2,3.7l0.7-3.2c1.8-0.7,3.5-1.6,5.2-2.8c1.7-1.1,3-2.1,3.9-3
			c0.5-0.5,1-1.2,1.5-1.9h2.1l-6,28.7H704z"/>
		<path id="path620" d="M719.5,448.8c0-2.4,0.4-4.9,1.1-7.4c0.7-2.5,1.5-4.5,2.4-6c0.9-1.5,1.8-2.7,2.8-3.5c1-0.8,1.9-1.5,2.8-1.9
			c0.9-0.4,1.9-0.6,3.1-0.6c2.2,0,4,0.8,5.5,2.4c1.5,1.6,2.2,4,2.2,7.1c0,3.2-0.5,6.3-1.5,9.4c-1.2,3.7-2.9,6.4-5,8.3
			c-1.6,1.4-3.5,2.1-5.6,2.1c-2.1,0-4-0.8-5.4-2.5C720.3,454.5,719.5,452,719.5,448.8L719.5,448.8z M722.9,449.7
			c0,1.8,0.3,3.1,0.9,4.1c0.8,1.4,2,2.1,3.5,2.1c1.4,0,2.6-0.6,3.7-1.9c1.6-1.7,2.8-4.3,3.6-7.7c0.8-3.4,1.2-6.1,1.2-8.3
			c0-2.1-0.4-3.5-1.2-4.5c-0.8-0.9-1.8-1.4-3.1-1.4c-0.9,0-1.8,0.2-2.6,0.7c-0.8,0.5-1.6,1.3-2.3,2.5c-1.1,1.7-2,4.1-2.8,7.4
			C723.3,445.7,722.9,448,722.9,449.7L722.9,449.7z"/>
		<path id="path622" d="M741.8,448.8c0-2.4,0.4-4.9,1.1-7.4c0.7-2.5,1.5-4.5,2.4-6c0.9-1.5,1.8-2.7,2.8-3.5c1-0.8,1.9-1.5,2.8-1.9
			c0.9-0.4,1.9-0.6,3.1-0.6c2.2,0,4,0.8,5.5,2.4c1.5,1.6,2.2,4,2.2,7.1c0,3.2-0.5,6.3-1.5,9.4c-1.2,3.7-2.9,6.4-5,8.3
			c-1.6,1.4-3.5,2.1-5.6,2.1c-2.1,0-4-0.8-5.4-2.5C742.5,454.5,741.8,452,741.8,448.8z M745.2,449.7c0,1.8,0.3,3.1,0.9,4.1
			c0.8,1.4,2,2.1,3.5,2.1c1.4,0,2.6-0.6,3.7-1.9c1.6-1.7,2.8-4.3,3.6-7.7c0.8-3.4,1.2-6.1,1.2-8.3c0-2.1-0.4-3.5-1.2-4.5
			c-0.8-0.9-1.8-1.4-3.1-1.4c-0.9,0-1.8,0.2-2.6,0.7c-0.8,0.5-1.6,1.3-2.3,2.5c-1.1,1.7-2,4.1-2.8,7.4
			C745.5,445.7,745.2,448,745.2,449.7L745.2,449.7z"/>
	</g>
	<g id="text3958-0">
		<path id="path643" d="M772,455.8l6-28.6h3.5l-3.7,17.8l10.3-9.9h4.7l-8.8,7.7l5.4,13h-3.9l-4.1-10.6l-4.3,3.7l-1.4,6.9L772,455.8z
			"/>
		<path id="path645" d="M791.9,455.8l4.3-20.7h3.5l-0.7,3.4c1.3-1.5,2.5-2.5,3.5-3c1-0.6,2.2-0.8,3.4-0.8c1.3,0,2.4,0.3,3.2,1
			c0.9,0.7,1.4,1.6,1.7,2.9c1.1-1.3,2.2-2.3,3.3-2.9c1.2-0.7,2.4-1,3.7-1c1.7,0,3,0.4,3.9,1.2c0.9,0.8,1.3,2,1.3,3.5
			c0,0.6-0.1,1.7-0.4,3.2l-2.8,13.4h-3.5l2.9-13.7c0.2-1.1,0.4-1.9,0.4-2.4c0-0.7-0.2-1.2-0.6-1.6c-0.4-0.4-1-0.6-1.8-0.6
			c-1.1,0-2.1,0.3-3.2,1s-1.9,1.5-2.6,2.5c-0.6,1-1.1,2.6-1.6,4.8l-2.1,10.1h-3.5l2.9-14c0.2-1,0.3-1.6,0.3-2c0-0.7-0.2-1.2-0.6-1.6
			c-0.4-0.4-1-0.6-1.6-0.6c-1,0-2.1,0.3-3.2,1c-1.1,0.6-2,1.5-2.7,2.7c-0.7,1.1-1.3,2.8-1.7,4.9l-2.1,9.8L791.9,455.8z"/>
	</g>
	<g id="text3978">
		<path id="path748" d="M685.5,362c0-3.8,1.1-6.7,3.2-8.5c1.8-1.5,4-2.3,6.5-2.3c2.9,0,5.2,0.9,7,2.8c1.8,1.9,2.7,4.4,2.7,7.7
			c0,2.7-0.4,4.8-1.2,6.3c-0.8,1.5-2,2.7-3.5,3.6c-1.5,0.8-3.2,1.3-5,1.3c-2.9,0-5.3-0.9-7.1-2.8C686.4,368.2,685.5,365.5,685.5,362
			L685.5,362z M689.1,362c0,2.7,0.6,4.6,1.7,6c1.2,1.3,2.6,2,4.4,2c1.7,0,3.2-0.7,4.4-2c1.2-1.3,1.7-3.4,1.7-6.1
			c0-2.6-0.6-4.5-1.8-5.8c-1.2-1.3-2.6-2-4.3-2c-1.8,0-3.2,0.7-4.4,2C689.7,357.3,689.1,359.3,689.1,362L689.1,362z"/>
		<path id="path750" d="M722.7,372.4v-3c-1.6,2.3-3.8,3.5-6.6,3.5c-1.2,0-2.4-0.2-3.4-0.7c-1.1-0.5-1.8-1.1-2.4-1.8
			c-0.5-0.7-0.9-1.6-1.1-2.6c-0.1-0.7-0.2-1.8-0.2-3.3v-12.9h3.5v11.5c0,1.8,0.1,3.1,0.2,3.7c0.2,0.9,0.7,1.7,1.4,2.2
			c0.7,0.5,1.6,0.8,2.7,0.8c1.1,0,2-0.3,3-0.8c0.9-0.5,1.6-1.3,2-2.2c0.4-0.9,0.6-2.3,0.6-4.1v-11.1h3.5v20.7L722.7,372.4z"/>
		<path id="path752" d="M739,369.2l0.5,3.1c-1,0.2-1.9,0.3-2.7,0.3c-1.3,0-2.3-0.2-3-0.6c-0.7-0.4-1.2-0.9-1.5-1.6
			c-0.3-0.7-0.4-2.1-0.4-4.2v-11.9h-2.6v-2.7h2.6v-5.1l3.5-2.1v7.2h3.5v2.7h-3.5v12.1c0,1,0.1,1.6,0.2,1.9c0.1,0.3,0.3,0.5,0.6,0.7
			c0.3,0.2,0.7,0.3,1.2,0.3C737.8,369.3,738.4,369.3,739,369.2L739,369.2z"/>
		<path id="path754" d="M756.6,365.7l3.6,0.4c-0.6,2.1-1.6,3.8-3.2,4.9c-1.5,1.2-3.5,1.8-5.9,1.8c-3,0-5.4-0.9-7.2-2.8
			c-1.8-1.9-2.7-4.5-2.7-7.9c0-3.5,0.9-6.2,2.7-8.1c1.8-1.9,4.1-2.9,7-2.9c2.8,0,5,0.9,6.8,2.8c1.8,1.9,2.6,4.5,2.6,8
			c0,0.2,0,0.5,0,0.9h-15.5c0.1,2.3,0.8,4,1.9,5.2c1.2,1.2,2.6,1.8,4.3,1.8c1.3,0,2.4-0.3,3.3-1
			C755.4,368.2,756.1,367.2,756.6,365.7L756.6,365.7z M745.1,360h11.6c-0.2-1.7-0.6-3.1-1.3-3.9c-1.1-1.4-2.6-2-4.4-2
			c-1.6,0-3,0.5-4.1,1.6C745.8,356.7,745.2,358.2,745.1,360L745.1,360z"/>
		<path id="path756" d="M764.6,372.4v-20.7h3.2v3.1c0.8-1.5,1.5-2.4,2.2-2.9c0.7-0.5,1.4-0.7,2.3-0.7c1.2,0,2.4,0.4,3.6,1.1
			l-1.2,3.3c-0.9-0.5-1.7-0.8-2.6-0.8c-0.8,0-1.5,0.2-2.1,0.7c-0.6,0.5-1,1.1-1.3,1.9c-0.4,1.3-0.6,2.6-0.6,4.1v10.9H764.6z"/>
		<path id="path758" d="M802.7,364.8l3.5,0.4c-0.4,2.4-1.3,4.3-2.9,5.6c-1.5,1.3-3.5,2-5.7,2c-2.8,0-5.1-0.9-6.9-2.8
			c-1.7-1.9-2.6-4.5-2.6-8c0-2.2,0.4-4.2,1.1-5.9c0.7-1.7,1.9-2.9,3.4-3.8c1.5-0.8,3.2-1.3,5-1.3c2.3,0,4.1,0.6,5.5,1.7
			c1.4,1.1,2.4,2.7,2.8,4.8l-3.4,0.5c-0.3-1.4-0.9-2.4-1.7-3.1c-0.8-0.7-1.8-1.1-3-1.1c-1.8,0-3.2,0.6-4.3,1.9
			c-1.1,1.3-1.7,3.3-1.7,6c0,2.8,0.5,4.8,1.6,6.1c1.1,1.3,2.5,1.9,4.2,1.9c1.4,0,2.5-0.4,3.5-1.3
			C801.8,367.8,802.4,366.5,802.7,364.8L802.7,364.8z"/>
		<path id="path760" d="M807.8,362c0-3.8,1.1-6.7,3.2-8.5c1.8-1.5,4-2.3,6.5-2.3c2.9,0,5.2,0.9,7,2.8c1.8,1.9,2.7,4.4,2.7,7.7
			c0,2.7-0.4,4.8-1.2,6.3c-0.8,1.5-2,2.7-3.5,3.6c-1.5,0.8-3.2,1.3-5,1.3c-2.9,0-5.3-0.9-7.1-2.8C808.7,368.2,807.8,365.5,807.8,362
			L807.8,362z M811.4,362c0,2.7,0.6,4.6,1.7,6c1.2,1.3,2.6,2,4.4,2c1.7,0,3.2-0.7,4.4-2c1.2-1.3,1.7-3.4,1.7-6.1
			c0-2.6-0.6-4.5-1.8-5.8c-1.2-1.3-2.6-2-4.3-2c-1.8,0-3.2,0.7-4.4,2C812,357.3,811.4,359.3,811.4,362L811.4,362z"/>
		<path id="path762" d="M831.4,372.4v-20.7h3.2v3.1c0.8-1.5,1.5-2.4,2.2-2.9c0.7-0.5,1.4-0.7,2.3-0.7c1.2,0,2.4,0.4,3.6,1.1
			l-1.2,3.3c-0.9-0.5-1.7-0.8-2.6-0.8c-0.8,0-1.5,0.2-2.1,0.7c-0.6,0.5-1,1.1-1.3,1.9c-0.4,1.3-0.6,2.6-0.6,4.1v10.9H831.4z"/>
		<path id="path764" d="M859,365.7l3.6,0.4c-0.6,2.1-1.6,3.8-3.2,4.9c-1.5,1.2-3.5,1.8-5.9,1.8c-3,0-5.4-0.9-7.2-2.8
			c-1.8-1.9-2.7-4.5-2.7-7.9c0-3.5,0.9-6.2,2.7-8.1c1.8-1.9,4.1-2.9,7-2.9c2.8,0,5,0.9,6.8,2.8c1.8,1.9,2.6,4.5,2.6,8
			c0,0.2,0,0.5,0,0.9h-15.5c0.1,2.3,0.8,4,1.9,5.2c1.2,1.2,2.6,1.8,4.3,1.8c1.3,0,2.4-0.3,3.3-1C857.7,368.2,858.4,367.2,859,365.7
			L859,365.7z M847.4,360H859c-0.2-1.7-0.6-3.1-1.3-3.9c-1.1-1.4-2.6-2-4.4-2c-1.6,0-3,0.5-4.1,1.6
			C848.1,356.7,847.5,358.2,847.4,360L847.4,360z"/>
		<path id="path766" d="M884.8,380.8c-1.9-2.4-3.6-5.3-4.9-8.6c-1.3-3.3-2-6.7-2-10.2c0-3.1,0.5-6.1,1.5-8.9c1.2-3.3,3-6.6,5.4-9.8
			h2.5c-1.6,2.7-2.6,4.6-3.1,5.8c-0.8,1.8-1.4,3.7-1.9,5.6c-0.6,2.4-0.8,4.9-0.8,7.3c0,6.3,1.9,12.5,5.8,18.8H884.8z"/>
		<path id="path768" d="M891.4,372.4v-28.6h3.5v28.6H891.4z"/>
		<path id="path770" d="M900.4,347.8v-4h3.5v4H900.4z M900.4,372.4v-20.7h3.5v20.7H900.4z"/>
		<path id="path772" d="M922.5,380.3v-10.2c-0.5,0.8-1.3,1.4-2.3,1.9c-1,0.5-2,0.8-3.1,0.8c-2.5,0-4.6-1-6.4-2.9
			c-1.8-2-2.7-4.7-2.7-8.1c0-2.1,0.4-4,1.1-5.6c0.7-1.7,1.8-2.9,3.1-3.7c1.4-0.9,2.9-1.3,4.5-1.3c2.6,0,4.6,1.1,6.1,3.2v-2.8h3.2
			v28.7L922.5,380.3z M911.7,361.9c0,2.7,0.6,4.7,1.7,6c1.1,1.3,2.5,2,4,2c1.5,0,2.8-0.6,3.9-1.9c1.1-1.3,1.6-3.2,1.6-5.8
			c0-2.8-0.6-4.8-1.7-6.2c-1.1-1.4-2.5-2.1-4-2.1c-1.5,0-2.8,0.7-3.9,2C912.2,357.2,911.7,359.2,911.7,361.9L911.7,361.9z"/>
		<path id="path774" d="M945.2,372.4v-3c-1.6,2.3-3.8,3.5-6.6,3.5c-1.2,0-2.4-0.2-3.4-0.7c-1.1-0.5-1.8-1.1-2.4-1.8
			c-0.5-0.7-0.9-1.6-1.1-2.6c-0.1-0.7-0.2-1.8-0.2-3.3v-12.9h3.5v11.5c0,1.8,0.1,3.1,0.2,3.7c0.2,0.9,0.7,1.7,1.4,2.2
			c0.7,0.5,1.6,0.8,2.7,0.8s2-0.3,3-0.8c0.9-0.5,1.6-1.3,2-2.2c0.4-0.9,0.6-2.3,0.6-4.1v-11.1h3.5v20.7L945.2,372.4z"/>
		<path id="path776" d="M953.8,347.8v-4h3.5v4H953.8z M953.8,372.4v-20.7h3.5v20.7H953.8z"/>
		<path id="path778" d="M976.2,372.4v-2.6c-1.3,2.1-3.2,3.1-5.8,3.1c-1.7,0-3.2-0.5-4.6-1.4c-1.4-0.9-2.5-2.2-3.2-3.8
			c-0.8-1.6-1.1-3.5-1.1-5.6c0-2.1,0.3-3.9,1-5.6c0.7-1.7,1.7-3,3.1-3.9c1.4-0.9,2.9-1.3,4.6-1.3c1.3,0,2.4,0.3,3.3,0.8
			c1,0.5,1.8,1.2,2.4,2.1v-10.3h3.5v28.6L976.2,372.4z M965.1,362c0,2.7,0.6,4.6,1.7,6c1.1,1.3,2.4,2,4,2c1.5,0,2.8-0.6,3.9-1.9
			c1.1-1.3,1.6-3.2,1.6-5.8c0-2.8-0.5-4.9-1.6-6.2c-1.1-1.3-2.4-2-4-2c-1.6,0-2.9,0.6-3.9,1.9C965.6,357.2,965.1,359.3,965.1,362
			L965.1,362z"/>
		<path id="path780" d="M987.3,380.8h-2.5c3.9-6.3,5.8-12.5,5.8-18.8c0-2.4-0.3-4.9-0.8-7.3c-0.4-2-1.1-3.8-1.9-5.6
			c-0.5-1.2-1.6-3.1-3.1-5.9h2.5c2.4,3.3,4.3,6.5,5.4,9.8c1,2.8,1.5,5.8,1.5,8.9c0,3.5-0.7,6.9-2,10.2
			C990.9,375.5,989.2,378.3,987.3,380.8z"/>
	</g>
	<g id="text3984">
		<path id="path697" d="M637.4,499v-4h3.5v4H637.4z M637.4,523.6v-20.7h3.5v20.7H637.4z"/>
		<path id="path699" d="M646.3,523.6v-20.7h3.2v2.9c1.5-2.3,3.7-3.4,6.6-3.4c1.3,0,2.4,0.2,3.4,0.7c1.1,0.4,1.8,1,2.4,1.8
			c0.5,0.7,0.9,1.6,1.1,2.6c0.1,0.7,0.2,1.8,0.2,3.4v12.8h-3.5V511c0-1.4-0.1-2.5-0.4-3.2c-0.3-0.7-0.8-1.3-1.5-1.7
			c-0.7-0.4-1.5-0.6-2.4-0.6c-1.5,0-2.8,0.5-3.9,1.4c-1.1,1-1.6,2.8-1.6,5.4v11.3H646.3z"/>
		<path id="path701" d="M668.6,523.6v-20.7h3.2v2.9c1.5-2.3,3.7-3.4,6.6-3.4c1.3,0,2.4,0.2,3.4,0.7c1.1,0.4,1.8,1,2.4,1.8
			c0.5,0.7,0.9,1.6,1.1,2.6c0.1,0.7,0.2,1.8,0.2,3.4v12.8h-3.5V511c0-1.4-0.1-2.5-0.4-3.2c-0.3-0.7-0.8-1.3-1.5-1.7
			c-0.7-0.4-1.5-0.6-2.4-0.6c-1.5,0-2.8,0.5-3.9,1.4c-1.1,1-1.6,2.8-1.6,5.4v11.3H668.6z"/>
		<path id="path703" d="M705.1,516.9l3.6,0.4c-0.6,2.1-1.6,3.8-3.2,4.9c-1.5,1.2-3.5,1.8-5.9,1.8c-3,0-5.4-0.9-7.2-2.8
			c-1.8-1.9-2.7-4.5-2.7-7.9c0-3.5,0.9-6.2,2.7-8.1c1.8-1.9,4.1-2.9,7-2.9c2.8,0,5,0.9,6.8,2.8c1.8,1.9,2.6,4.5,2.6,8
			c0,0.2,0,0.5,0,0.9h-15.5c0.1,2.3,0.8,4,1.9,5.2c1.2,1.2,2.6,1.8,4.3,1.8c1.3,0,2.4-0.3,3.3-1
			C703.8,519.5,704.5,518.4,705.1,516.9L705.1,516.9z M693.5,511.2h11.6c-0.2-1.7-0.6-3.1-1.3-3.9c-1.1-1.4-2.6-2-4.4-2
			c-1.6,0-3,0.5-4.1,1.6C694.2,508,693.6,509.4,693.5,511.2L693.5,511.2z"/>
		<path id="path705" d="M713.1,523.6v-20.7h3.2v3.1c0.8-1.5,1.5-2.4,2.2-2.9c0.7-0.5,1.4-0.7,2.3-0.7c1.2,0,2.4,0.4,3.6,1.1
			l-1.2,3.3c-0.9-0.5-1.7-0.8-2.6-0.8c-0.8,0-1.5,0.2-2.1,0.7c-0.6,0.5-1,1.1-1.3,1.9c-0.4,1.2-0.6,2.6-0.6,4.1v10.9H713.1z"/>
		<path id="path707" d="M751.1,516l3.5,0.4c-0.4,2.4-1.3,4.3-2.9,5.6c-1.5,1.3-3.5,2-5.7,2c-2.8,0-5.1-0.9-6.9-2.8
			c-1.7-1.9-2.6-4.5-2.6-8c0-2.2,0.4-4.2,1.1-5.9c0.7-1.7,1.9-2.9,3.4-3.8c1.5-0.8,3.2-1.3,5-1.3c2.3,0,4.1,0.6,5.5,1.7
			c1.4,1.1,2.4,2.7,2.8,4.8l-3.4,0.5c-0.3-1.4-0.9-2.4-1.7-3.1c-0.8-0.7-1.8-1.1-3-1.1c-1.8,0-3.2,0.6-4.3,1.9
			c-1.1,1.3-1.7,3.3-1.7,6c0,2.8,0.5,4.8,1.6,6.1c1.1,1.3,2.5,1.9,4.2,1.9c1.4,0,2.5-0.4,3.5-1.3C750.3,519.1,750.9,517.8,751.1,516
			L751.1,516z"/>
		<path id="path709" d="M756.3,513.2c0-3.8,1.1-6.7,3.2-8.5c1.8-1.5,4-2.3,6.5-2.3c2.9,0,5.2,0.9,7,2.8c1.8,1.9,2.7,4.4,2.7,7.7
			c0,2.7-0.4,4.8-1.2,6.3c-0.8,1.5-2,2.7-3.5,3.6c-1.5,0.8-3.2,1.3-5,1.3c-2.9,0-5.3-0.9-7.1-2.8
			C757.2,519.4,756.3,516.7,756.3,513.2L756.3,513.2z M759.9,513.2c0,2.7,0.6,4.6,1.7,6c1.2,1.3,2.6,2,4.4,2c1.7,0,3.2-0.7,4.4-2
			c1.2-1.3,1.7-3.4,1.7-6.1c0-2.6-0.6-4.5-1.8-5.8c-1.2-1.3-2.6-2-4.3-2c-1.8,0-3.2,0.7-4.4,2C760.5,508.6,759.9,510.6,759.9,513.2
			L759.9,513.2z"/>
		<path id="path711" d="M779.8,523.6v-20.7h3.2v3.1c0.8-1.5,1.5-2.4,2.2-2.9c0.7-0.5,1.4-0.7,2.3-0.7c1.2,0,2.4,0.4,3.6,1.1
			l-1.2,3.3c-0.9-0.5-1.7-0.8-2.6-0.8c-0.8,0-1.5,0.2-2.1,0.7c-0.6,0.5-1,1.1-1.3,1.9c-0.4,1.2-0.6,2.6-0.6,4.1v10.9H779.8z"/>
		<path id="path713" d="M807.4,516.9l3.6,0.4c-0.6,2.1-1.6,3.8-3.2,4.9c-1.5,1.2-3.5,1.8-5.9,1.8c-3,0-5.4-0.9-7.2-2.8
			c-1.8-1.9-2.7-4.5-2.7-7.9c0-3.5,0.9-6.2,2.7-8.1c1.8-1.9,4.1-2.9,7-2.9c2.8,0,5,0.9,6.8,2.8c1.8,1.9,2.6,4.5,2.6,8
			c0,0.2,0,0.5,0,0.9h-15.5c0.1,2.3,0.8,4,1.9,5.2c1.2,1.2,2.6,1.8,4.3,1.8c1.3,0,2.4-0.3,3.3-1
			C806.1,519.5,806.9,518.4,807.4,516.9L807.4,516.9z M795.9,511.2h11.6c-0.2-1.7-0.6-3.1-1.3-3.9c-1.1-1.4-2.6-2-4.4-2
			c-1.6,0-3,0.5-4.1,1.6C796.6,508,796,509.4,795.9,511.2L795.9,511.2z"/>
		<path id="path715" d="M833.3,532c-1.9-2.4-3.6-5.3-4.9-8.6c-1.3-3.3-2-6.7-2-10.2c0-3.1,0.5-6.1,1.5-8.9c1.2-3.3,3-6.6,5.4-9.8
			h2.5c-1.6,2.7-2.6,4.6-3.1,5.8c-0.8,1.8-1.4,3.7-1.9,5.6c-0.6,2.4-0.8,4.9-0.8,7.3c0,6.3,1.9,12.5,5.8,18.8H833.3z"/>
		<path id="path717" d="M838.5,517.4l3.5-0.5c0.2,1.4,0.7,2.5,1.6,3.2c0.9,0.7,2.1,1.1,3.8,1.1c1.6,0,2.8-0.3,3.6-1
			c0.8-0.7,1.2-1.4,1.2-2.3c0-0.8-0.3-1.4-1-1.9c-0.5-0.3-1.7-0.7-3.6-1.2c-2.6-0.7-4.4-1.2-5.4-1.7c-1-0.5-1.7-1.1-2.3-2
			c-0.5-0.8-0.8-1.8-0.8-2.8c0-0.9,0.2-1.8,0.6-2.6c0.4-0.8,1-1.5,1.7-2c0.5-0.4,1.3-0.7,2.2-1c1-0.3,2-0.4,3-0.4
			c1.6,0,3.1,0.2,4.3,0.7c1.2,0.5,2.1,1.1,2.7,1.9c0.6,0.8,1,1.9,1.2,3.2l-3.4,0.5c-0.2-1.1-0.6-1.9-1.4-2.5
			c-0.7-0.6-1.8-0.9-3.2-0.9c-1.6,0-2.8,0.3-3.5,0.8c-0.7,0.5-1,1.2-1,1.9c0,0.5,0.1,0.9,0.4,1.2c0.3,0.4,0.7,0.7,1.3,0.9
			c0.4,0.1,1.4,0.4,3.1,0.9c2.5,0.7,4.2,1.2,5.2,1.6c1,0.4,1.8,1,2.3,1.8c0.6,0.8,0.8,1.8,0.8,3c0,1.2-0.3,2.3-1,3.3
			c-0.7,1-1.7,1.8-2.9,2.4c-1.3,0.6-2.7,0.8-4.4,0.8c-2.7,0-4.8-0.6-6.2-1.7C839.8,521.3,838.9,519.6,838.5,517.4L838.5,517.4z"/>
		<path id="path719" d="M858.6,513.2c0-3.8,1.1-6.7,3.2-8.5c1.8-1.5,4-2.3,6.5-2.3c2.9,0,5.2,0.9,7,2.8c1.8,1.9,2.7,4.4,2.7,7.7
			c0,2.7-0.4,4.8-1.2,6.3c-0.8,1.5-2,2.7-3.5,3.6c-1.5,0.8-3.2,1.3-5,1.3c-2.9,0-5.3-0.9-7.1-2.8
			C859.5,519.4,858.6,516.7,858.6,513.2L858.6,513.2z M862.2,513.2c0,2.7,0.6,4.6,1.7,6c1.2,1.3,2.6,2,4.4,2c1.7,0,3.2-0.7,4.4-2
			c1.2-1.3,1.7-3.4,1.7-6.1c0-2.6-0.6-4.5-1.8-5.8c-1.2-1.3-2.6-2-4.3-2c-1.8,0-3.2,0.7-4.4,2C862.8,508.6,862.2,510.6,862.2,513.2
			L862.2,513.2z"/>
		<path id="path721" d="M882.1,523.6V495h3.5v28.6H882.1z"/>
		<path id="path723" d="M891.1,499v-4h3.5v4H891.1z M891.1,523.6v-20.7h3.5v20.7H891.1z"/>
		<path id="path725" d="M913.5,523.6V521c-1.3,2.1-3.2,3.1-5.8,3.1c-1.7,0-3.2-0.5-4.6-1.4c-1.4-0.9-2.5-2.2-3.2-3.8
			c-0.8-1.6-1.1-3.5-1.1-5.6c0-2.1,0.3-3.9,1-5.6c0.7-1.7,1.7-3,3.1-3.9c1.4-0.9,2.9-1.3,4.6-1.3c1.3,0,2.4,0.3,3.3,0.8
			c1,0.5,1.8,1.2,2.4,2.1V495h3.5v28.6H913.5z M902.3,513.3c0,2.7,0.6,4.6,1.7,6c1.1,1.3,2.4,2,4,2c1.5,0,2.8-0.6,3.9-1.9
			c1.1-1.3,1.6-3.2,1.6-5.8c0-2.8-0.5-4.9-1.6-6.3s-2.4-2-4-2c-1.6,0-2.9,0.6-3.9,1.9C902.9,508.5,902.3,510.5,902.3,513.3
			L902.3,513.3z"/>
		<path id="path727" d="M924.6,532h-2.5c3.9-6.3,5.8-12.5,5.8-18.8c0-2.4-0.3-4.9-0.8-7.3c-0.4-2-1.1-3.8-1.9-5.6
			c-0.5-1.2-1.6-3.1-3.1-5.9h2.5c2.4,3.3,4.3,6.5,5.4,9.8c1,2.8,1.5,5.8,1.5,8.9c0,3.5-0.7,6.9-2,10.2
			C928.1,526.7,926.5,529.6,924.6,532L924.6,532z"/>
	</g>
	<g id="text3992">
		<path id="path425" d="M121.1,41c0-3.8,1.1-6.7,3.2-8.5c1.8-1.5,4-2.3,6.5-2.3c2.9,0,5.2,0.9,7,2.8c1.8,1.9,2.7,4.4,2.7,7.7
			c0,2.7-0.4,4.8-1.2,6.3c-0.8,1.5-2,2.7-3.5,3.6c-1.5,0.8-3.2,1.3-5,1.3c-2.9,0-5.3-0.9-7.1-2.8C122,47.1,121.1,44.5,121.1,41z
			 M124.7,41c0,2.7,0.6,4.6,1.7,6c1.2,1.3,2.6,2,4.4,2c1.7,0,3.2-0.7,4.4-2c1.2-1.3,1.7-3.4,1.7-6.1c0-2.6-0.6-4.5-1.8-5.8
			c-1.2-1.3-2.6-2-4.3-2c-1.8,0-3.2,0.7-4.4,2C125.3,36.3,124.7,38.3,124.7,41z"/>
		<path id="path427" d="M158.2,43.7l3.5,0.4c-0.4,2.4-1.3,4.3-2.9,5.6c-1.5,1.3-3.5,2-5.7,2c-2.8,0-5.1-0.9-6.9-2.8
			c-1.7-1.9-2.6-4.5-2.6-8c0-2.2,0.4-4.2,1.1-5.9s1.9-2.9,3.4-3.8c1.5-0.8,3.2-1.3,5-1.3c2.3,0,4.1,0.6,5.5,1.7
			c1.4,1.1,2.4,2.7,2.8,4.8l-3.4,0.5c-0.3-1.4-0.9-2.4-1.7-3.1c-0.8-0.7-1.8-1.1-3-1.1c-1.8,0-3.2,0.6-4.3,1.9
			c-1.1,1.3-1.7,3.3-1.7,6c0,2.8,0.5,4.8,1.6,6.1s2.5,1.9,4.2,1.9c1.4,0,2.5-0.4,3.5-1.3S158,45.5,158.2,43.7L158.2,43.7z"/>
		<path id="path429" d="M178.9,44.6l3.6,0.4c-0.6,2.1-1.6,3.8-3.2,4.9c-1.5,1.2-3.5,1.8-5.9,1.8c-3,0-5.4-0.9-7.2-2.8
			c-1.8-1.9-2.7-4.5-2.7-7.9c0-3.5,0.9-6.2,2.7-8.1s4.1-2.9,7-2.9c2.8,0,5,0.9,6.8,2.8c1.8,1.9,2.6,4.5,2.6,8c0,0.2,0,0.5,0,0.9
			h-15.5c0.1,2.3,0.8,4,1.9,5.2c1.2,1.2,2.6,1.8,4.3,1.8c1.3,0,2.4-0.3,3.3-1S178.3,46.1,178.9,44.6L178.9,44.6z M167.3,39h11.6
			c-0.2-1.7-0.6-3.1-1.3-3.9c-1.1-1.4-2.6-2-4.4-2c-1.6,0-3,0.5-4.1,1.6C168,35.7,167.4,37.1,167.3,39L167.3,39z"/>
		<path id="path431" d="M200.5,48.8c-1.3,1.1-2.6,1.9-3.8,2.3c-1.2,0.5-2.5,0.7-3.9,0.7c-2.3,0-4-0.6-5.3-1.7
			c-1.2-1.1-1.8-2.5-1.8-4.3c0-1,0.2-1.9,0.7-2.8c0.5-0.8,1.1-1.5,1.8-2c0.8-0.5,1.6-0.9,2.5-1.2c0.7-0.2,1.7-0.4,3.1-0.5
			c2.8-0.3,4.9-0.7,6.3-1.2c0-0.5,0-0.8,0-0.9c0-1.4-0.3-2.4-1-3c-0.9-0.8-2.2-1.2-4-1.2c-1.7,0-2.9,0.3-3.7,0.9
			c-0.8,0.6-1.4,1.6-1.7,3.1l-3.4-0.5c0.3-1.5,0.8-2.7,1.5-3.6c0.7-0.9,1.8-1.6,3.1-2.1c1.4-0.5,2.9-0.7,4.7-0.7
			c1.8,0,3.2,0.2,4.3,0.6c1.1,0.4,1.9,0.9,2.4,1.6c0.5,0.6,0.9,1.4,1.1,2.4c0.1,0.6,0.2,1.7,0.2,3.2v4.7c0,3.3,0.1,5.3,0.2,6.2
			c0.2,0.9,0.5,1.7,0.9,2.5h-3.7C200.8,50.6,200.6,49.7,200.5,48.8z M200.2,40.9c-1.3,0.5-3.2,1-5.7,1.3c-1.4,0.2-2.5,0.4-3.1,0.7
			c-0.6,0.3-1.1,0.6-1.4,1.2c-0.3,0.5-0.5,1-0.5,1.7c0,0.9,0.4,1.7,1.1,2.3c0.7,0.6,1.8,0.9,3.1,0.9c1.4,0,2.6-0.3,3.6-0.9
			c1.1-0.6,1.8-1.4,2.3-2.4c0.4-0.8,0.6-2,0.6-3.5L200.2,40.9z"/>
		<path id="path433" d="M209.2,51.3V30.6h3.2v2.9c1.5-2.3,3.7-3.4,6.6-3.4c1.3,0,2.4,0.2,3.4,0.7c1.1,0.4,1.8,1,2.4,1.8
			c0.5,0.7,0.9,1.6,1.1,2.6c0.1,0.7,0.2,1.8,0.2,3.4v12.8h-3.5V38.7c0-1.4-0.1-2.5-0.4-3.2c-0.3-0.7-0.8-1.3-1.5-1.7
			c-0.7-0.4-1.5-0.6-2.4-0.6c-1.5,0-2.8,0.5-3.9,1.4c-1.1,1-1.6,2.8-1.6,5.4v11.3H209.2z"/>
		<path id="path435" d="M231.5,26.7v-4h3.5v4H231.5z M231.5,51.3V30.6h3.5v20.7H231.5z"/>
		<path id="path437" d="M253.9,43.7l3.5,0.4c-0.4,2.4-1.3,4.3-2.9,5.6c-1.5,1.3-3.5,2-5.7,2c-2.8,0-5.1-0.9-6.9-2.8
			c-1.7-1.9-2.6-4.5-2.6-8c0-2.2,0.4-4.2,1.1-5.9s1.9-2.9,3.4-3.8c1.5-0.8,3.2-1.3,5-1.3c2.3,0,4.1,0.6,5.5,1.7
			c1.4,1.1,2.4,2.7,2.8,4.8l-3.4,0.5c-0.3-1.4-0.9-2.4-1.7-3.1c-0.8-0.7-1.8-1.1-3-1.1c-1.8,0-3.2,0.6-4.3,1.9
			c-1.1,1.3-1.7,3.3-1.7,6c0,2.8,0.5,4.8,1.6,6.1s2.5,1.9,4.2,1.9c1.4,0,2.5-0.4,3.5-1.3C253.1,46.8,253.7,45.5,253.9,43.7
			L253.9,43.7z"/>
		<path id="path439" d="M285,43.7l3.5,0.4c-0.4,2.4-1.3,4.3-2.9,5.6c-1.5,1.3-3.5,2-5.7,2c-2.8,0-5.1-0.9-6.9-2.8
			c-1.7-1.9-2.6-4.5-2.6-8c0-2.2,0.4-4.2,1.1-5.9c0.7-1.7,1.9-2.9,3.4-3.8c1.5-0.8,3.2-1.3,5-1.3c2.3,0,4.1,0.6,5.5,1.7
			c1.4,1.1,2.4,2.7,2.8,4.8l-3.4,0.5c-0.3-1.4-0.9-2.4-1.7-3.1c-0.8-0.7-1.8-1.1-3-1.1c-1.8,0-3.2,0.6-4.3,1.9
			c-1.1,1.3-1.7,3.3-1.7,6c0,2.8,0.5,4.8,1.6,6.1c1.1,1.3,2.5,1.9,4.2,1.9c1.4,0,2.5-0.4,3.5-1.3S284.8,45.5,285,43.7L285,43.7z"/>
		<path id="path441" d="M291.4,51.3V30.6h3.2v3.1c0.8-1.5,1.5-2.4,2.2-2.9c0.7-0.5,1.4-0.7,2.3-0.7c1.2,0,2.4,0.4,3.6,1.1l-1.2,3.3
			c-0.9-0.5-1.7-0.8-2.6-0.8c-0.8,0-1.5,0.2-2.1,0.7c-0.6,0.5-1,1.1-1.3,1.9c-0.4,1.3-0.6,2.6-0.6,4.1v10.9H291.4z"/>
		<path id="path443" d="M318.4,51.3v-3c-1.6,2.3-3.8,3.5-6.6,3.5c-1.2,0-2.4-0.2-3.4-0.7c-1.1-0.5-1.8-1.1-2.4-1.8
			c-0.5-0.7-0.9-1.6-1.1-2.6c-0.1-0.7-0.2-1.8-0.2-3.3V30.6h3.5v11.5c0,1.8,0.1,3.1,0.2,3.7c0.2,0.9,0.7,1.7,1.4,2.2
			c0.7,0.5,1.6,0.8,2.7,0.8c1.1,0,2-0.3,3-0.8c0.9-0.5,1.6-1.3,2-2.2c0.4-0.9,0.6-2.3,0.6-4.1V30.6h3.5v20.7L318.4,51.3z"/>
		<path id="path445" d="M325.7,45.1l3.5-0.5c0.2,1.4,0.7,2.5,1.6,3.2c0.9,0.7,2.1,1.1,3.8,1.1c1.6,0,2.8-0.3,3.6-1
			c0.8-0.7,1.2-1.4,1.2-2.3c0-0.8-0.3-1.4-1-1.9c-0.5-0.3-1.7-0.7-3.6-1.2c-2.6-0.7-4.4-1.2-5.4-1.7c-1-0.5-1.7-1.1-2.3-2
			c-0.5-0.8-0.8-1.8-0.8-2.8c0-0.9,0.2-1.8,0.6-2.6c0.4-0.8,1-1.5,1.7-2c0.5-0.4,1.3-0.7,2.2-1c1-0.3,2-0.4,3-0.4
			c1.6,0,3.1,0.2,4.3,0.7c1.2,0.5,2.1,1.1,2.7,1.9c0.6,0.8,1,1.9,1.2,3.2l-3.4,0.5c-0.2-1.1-0.6-1.9-1.4-2.5
			c-0.7-0.6-1.8-0.9-3.2-0.9c-1.6,0-2.8,0.3-3.5,0.8c-0.7,0.5-1,1.2-1,1.9c0,0.5,0.1,0.9,0.4,1.2c0.3,0.4,0.7,0.7,1.3,0.9
			c0.4,0.1,1.4,0.4,3.1,0.9c2.5,0.7,4.2,1.2,5.2,1.6c1,0.4,1.8,1,2.3,1.8c0.6,0.8,0.8,1.8,0.8,3c0,1.2-0.3,2.3-1,3.3
			c-0.7,1-1.7,1.8-2.9,2.4c-1.3,0.6-2.7,0.8-4.4,0.8c-2.7,0-4.8-0.6-6.2-1.7C327,49,326.1,47.3,325.7,45.1L325.7,45.1z"/>
		<path id="path447" d="M354.8,48.2l0.5,3.1c-1,0.2-1.9,0.3-2.7,0.3c-1.3,0-2.3-0.2-3-0.6c-0.7-0.4-1.2-0.9-1.5-1.6
			c-0.3-0.7-0.4-2.1-0.4-4.2V33.3h-2.6v-2.7h2.6v-5.1l3.5-2.1v7.2h3.5v2.7h-3.5v12.1c0,1,0.1,1.6,0.2,1.9c0.1,0.3,0.3,0.5,0.6,0.7
			c0.3,0.2,0.7,0.3,1.2,0.3C353.6,48.3,354.1,48.3,354.8,48.2L354.8,48.2z"/>
	</g>
	<g id="text3996">
		<path id="path275" d="M162.7,9.3l3.5,0.4c-0.4,2.4-1.3,4.3-2.9,5.6c-1.5,1.3-3.5,2-5.7,2c-2.8,0-5.1-0.9-6.9-2.8
			c-1.7-1.9-2.6-4.5-2.6-8c0-2.2,0.4-4.2,1.1-5.9s1.9-2.9,3.4-3.8c1.5-0.8,3.2-1.3,5-1.3c2.3,0,4.1,0.6,5.5,1.7
			c1.4,1.1,2.4,2.7,2.8,4.8l-3.4,0.5c-0.3-1.4-0.9-2.4-1.7-3.1c-0.8-0.7-1.8-1.1-3-1.1c-1.8,0-3.2,0.6-4.3,1.9
			c-1.1,1.3-1.7,3.3-1.7,6c0,2.8,0.5,4.8,1.6,6.1c1.1,1.3,2.5,1.9,4.2,1.9c1.4,0,2.5-0.4,3.5-1.3C161.9,12.4,162.5,11.1,162.7,9.3
			L162.7,9.3z"/>
		<path id="path277" d="M167.9,6.6c0-3.8,1.1-6.7,3.2-8.5c1.8-1.5,4-2.3,6.5-2.3c2.9,0,5.2,0.9,7,2.8c1.8,1.9,2.7,4.4,2.7,7.7
			c0,2.7-0.4,4.8-1.2,6.3c-0.8,1.5-2,2.7-3.5,3.6c-1.5,0.8-3.2,1.3-5,1.3c-2.9,0-5.3-0.9-7.1-2.8C168.8,12.7,167.9,10.1,167.9,6.6z
			 M171.5,6.6c0,2.7,0.6,4.6,1.7,6c1.2,1.3,2.6,2,4.4,2c1.7,0,3.2-0.7,4.4-2c1.2-1.3,1.7-3.4,1.7-6.1c0-2.6-0.6-4.5-1.8-5.8
			c-1.2-1.3-2.6-2-4.3-2c-1.8,0-3.2,0.7-4.4,2C172.1,1.9,171.5,3.9,171.5,6.6L171.5,6.6z"/>
		<path id="path279" d="M191.5,16.9V-3.8h3.2v2.9c1.5-2.3,3.7-3.4,6.6-3.4c1.3,0,2.4,0.2,3.4,0.7c1.1,0.4,1.8,1,2.4,1.8
			c0.5,0.7,0.9,1.6,1.1,2.6c0.1,0.7,0.2,1.8,0.2,3.4v12.8h-3.5V4.3c0-1.4-0.1-2.5-0.4-3.2c-0.3-0.7-0.8-1.3-1.5-1.7
			c-0.7-0.4-1.5-0.6-2.4-0.6c-1.5,0-2.8,0.5-3.9,1.4c-1.1,1-1.6,2.8-1.6,5.4v11.3H191.5z"/>
		<path id="path281" d="M221.4,13.8l0.5,3.1c-1,0.2-1.9,0.3-2.7,0.3c-1.3,0-2.3-0.2-3-0.6s-1.2-0.9-1.5-1.6
			c-0.3-0.7-0.4-2.1-0.4-4.2V-1.1h-2.6v-2.7h2.6v-5.1l3.5-2.1v7.2h3.5v2.7h-3.5v12.1c0,1,0.1,1.6,0.2,1.9c0.1,0.3,0.3,0.5,0.6,0.7
			c0.3,0.2,0.7,0.3,1.2,0.3C220.2,13.9,220.8,13.9,221.4,13.8L221.4,13.8z"/>
		<path id="path283" d="M224.8-7.7v-4h3.5v4H224.8z M224.8,16.9V-3.8h3.5v20.7L224.8,16.9z"/>
		<path id="path285" d="M233.7,16.9V-3.8h3.2v2.9c1.5-2.3,3.7-3.4,6.6-3.4c1.3,0,2.4,0.2,3.4,0.7c1.1,0.4,1.8,1,2.4,1.8
			c0.5,0.7,0.9,1.6,1.1,2.6c0.1,0.7,0.2,1.8,0.2,3.4v12.8h-3.5V4.3c0-1.4-0.1-2.5-0.4-3.2c-0.3-0.7-0.8-1.3-1.5-1.7
			c-0.7-0.4-1.5-0.6-2.4-0.6c-1.5,0-2.8,0.5-3.9,1.4c-1.1,1-1.6,2.8-1.6,5.4v11.3H233.7z"/>
		<path id="path287" d="M270.2,10.3l3.6,0.4c-0.6,2.1-1.6,3.8-3.2,4.9c-1.5,1.2-3.5,1.8-5.9,1.8c-3,0-5.4-0.9-7.2-2.8
			c-1.8-1.9-2.7-4.5-2.7-7.9c0-3.5,0.9-6.2,2.7-8.1s4.1-2.9,7-2.9c2.8,0,5,0.9,6.8,2.8c1.8,1.9,2.6,4.5,2.6,8c0,0.2,0,0.5,0,0.9
			h-15.5c0.1,2.3,0.8,4,1.9,5.2c1.2,1.2,2.6,1.8,4.3,1.8c1.3,0,2.4-0.3,3.3-1C268.9,12.8,269.6,11.7,270.2,10.3L270.2,10.3z
			 M258.6,4.6h11.6c-0.2-1.7-0.6-3.1-1.3-3.9c-1.1-1.4-2.6-2-4.4-2c-1.6,0-3,0.5-4.1,1.6C259.4,1.3,258.8,2.8,258.6,4.6z"/>
		<path id="path289" d="M278.3,16.9V-3.8h3.2v2.9c1.5-2.3,3.7-3.4,6.6-3.4c1.3,0,2.4,0.2,3.4,0.7c1.1,0.4,1.8,1,2.4,1.8
			c0.5,0.7,0.9,1.6,1.1,2.6c0.1,0.7,0.2,1.8,0.2,3.4v12.8h-3.5V4.3c0-1.4-0.1-2.5-0.4-3.2c-0.3-0.7-0.8-1.3-1.5-1.7
			c-0.7-0.4-1.5-0.6-2.4-0.6c-1.5,0-2.8,0.5-3.9,1.4c-1.1,1-1.6,2.8-1.6,5.4v11.3H278.3z"/>
		<path id="path291" d="M308.2,13.8l0.5,3.1c-1,0.2-1.9,0.3-2.7,0.3c-1.3,0-2.3-0.2-3-0.6s-1.2-0.9-1.5-1.6
			c-0.3-0.7-0.4-2.1-0.4-4.2V-1.1h-2.6v-2.7h2.6v-5.1l3.5-2.1v7.2h3.5v2.7h-3.5v12.1c0,1,0.1,1.6,0.2,1.9c0.1,0.3,0.3,0.5,0.6,0.7
			c0.3,0.2,0.7,0.3,1.2,0.3C307,13.9,307.6,13.9,308.2,13.8L308.2,13.8z"/>
		<path id="path293" d="M325.1,14.4c-1.3,1.1-2.6,1.9-3.8,2.3c-1.2,0.5-2.5,0.7-3.9,0.7c-2.3,0-4-0.6-5.3-1.7
			c-1.2-1.1-1.8-2.5-1.8-4.3c0-1,0.2-1.9,0.7-2.8c0.5-0.8,1.1-1.5,1.8-2c0.8-0.5,1.6-0.9,2.5-1.2c0.7-0.2,1.7-0.4,3.1-0.5
			c2.8-0.3,4.9-0.7,6.3-1.2c0-0.5,0-0.8,0-0.9c0-1.4-0.3-2.4-1-3c-0.9-0.8-2.2-1.2-4-1.2c-1.7,0-2.9,0.3-3.7,0.9
			c-0.8,0.6-1.4,1.6-1.7,3.1L311,2.1c0.3-1.5,0.8-2.7,1.5-3.6c0.7-0.9,1.8-1.6,3.1-2.1c1.4-0.5,2.9-0.7,4.7-0.7
			c1.8,0,3.2,0.2,4.3,0.6c1.1,0.4,1.9,0.9,2.4,1.6c0.5,0.6,0.9,1.4,1.1,2.4c0.1,0.6,0.2,1.7,0.2,3.2v4.7c0,3.3,0.1,5.3,0.2,6.2
			c0.2,0.9,0.5,1.7,0.9,2.5h-3.7C325.5,16.2,325.2,15.3,325.1,14.4L325.1,14.4z M324.9,6.5c-1.3,0.5-3.2,1-5.7,1.3
			c-1.4,0.2-2.5,0.4-3.1,0.7c-0.6,0.3-1.1,0.6-1.4,1.2c-0.3,0.5-0.5,1-0.5,1.7c0,0.9,0.4,1.7,1.1,2.3c0.7,0.6,1.8,0.9,3.1,0.9
			c1.4,0,2.6-0.3,3.6-0.9c1.1-0.6,1.8-1.4,2.3-2.4c0.4-0.8,0.6-2,0.6-3.5L324.9,6.5z"/>
		<path id="path295" d="M333.8,16.9v-28.6h3.5v28.6L333.8,16.9z"/>
		<path id="path297" d="M367.4,9.3l3.5,0.4c-0.4,2.4-1.3,4.3-2.9,5.6c-1.5,1.3-3.5,2-5.7,2c-2.8,0-5.1-0.9-6.9-2.8
			c-1.7-1.9-2.6-4.5-2.6-8c0-2.2,0.4-4.2,1.1-5.9c0.7-1.7,1.9-2.9,3.4-3.8c1.5-0.8,3.2-1.3,5-1.3c2.3,0,4.1,0.6,5.5,1.7
			c1.4,1.1,2.4,2.7,2.8,4.8l-3.4,0.5c-0.3-1.4-0.9-2.4-1.7-3.1c-0.8-0.7-1.8-1.1-3-1.1c-1.8,0-3.2,0.6-4.3,1.9
			c-1.1,1.3-1.7,3.3-1.7,6c0,2.8,0.5,4.8,1.6,6.1c1.1,1.3,2.5,1.9,4.2,1.9c1.4,0,2.5-0.4,3.5-1.3C366.6,12.4,367.2,11.1,367.4,9.3
			L367.4,9.3z"/>
		<path id="path299" d="M373.8,16.9V-3.8h3.2v3.1c0.8-1.5,1.5-2.4,2.2-2.9c0.7-0.5,1.4-0.7,2.3-0.7c1.2,0,2.4,0.4,3.6,1.1l-1.2,3.3
			c-0.9-0.5-1.7-0.8-2.6-0.8c-0.8,0-1.5,0.2-2.1,0.7c-0.6,0.5-1,1.1-1.3,1.9c-0.4,1.2-0.6,2.6-0.6,4.1v10.9L373.8,16.9z"/>
		<path id="path301" d="M400.8,16.9v-3c-1.6,2.3-3.8,3.5-6.6,3.5c-1.2,0-2.4-0.2-3.4-0.7c-1.1-0.5-1.8-1.1-2.4-1.8
			c-0.5-0.7-0.9-1.6-1.1-2.6c-0.1-0.7-0.2-1.8-0.2-3.3V-3.8h3.5V7.7c0,1.8,0.1,3.1,0.2,3.7c0.2,0.9,0.7,1.7,1.4,2.2
			c0.7,0.5,1.6,0.8,2.7,0.8s2-0.3,3-0.8c0.9-0.5,1.6-1.3,2-2.2c0.4-0.9,0.6-2.3,0.6-4.1V-3.8h3.5v20.7L400.8,16.9z"/>
		<path id="path303" d="M408.1,10.7l3.5-0.5c0.2,1.4,0.7,2.5,1.6,3.2c0.9,0.7,2.1,1.1,3.8,1.1c1.6,0,2.8-0.3,3.6-1
			c0.8-0.7,1.2-1.4,1.2-2.3c0-0.8-0.3-1.4-1-1.9c-0.5-0.3-1.7-0.7-3.6-1.2c-2.6-0.7-4.4-1.2-5.4-1.7c-1-0.5-1.7-1.1-2.3-2
			c-0.5-0.8-0.8-1.8-0.8-2.8c0-0.9,0.2-1.8,0.6-2.6c0.4-0.8,1-1.5,1.7-2c0.5-0.4,1.3-0.7,2.2-1c1-0.3,2-0.4,3-0.4
			c1.6,0,3.1,0.2,4.3,0.7c1.2,0.5,2.1,1.1,2.7,1.9c0.6,0.8,1,1.9,1.2,3.2L421.1,2c-0.2-1.1-0.6-1.9-1.4-2.5
			c-0.7-0.6-1.8-0.9-3.2-0.9c-1.6,0-2.8,0.3-3.5,0.8c-0.7,0.5-1,1.2-1,1.9c0,0.5,0.1,0.9,0.4,1.2c0.3,0.4,0.7,0.7,1.3,0.9
			c0.4,0.1,1.4,0.4,3.1,0.9c2.5,0.7,4.2,1.2,5.2,1.6c1,0.4,1.8,1,2.3,1.8s0.8,1.8,0.8,3c0,1.2-0.3,2.3-1,3.3c-0.7,1-1.7,1.8-2.9,2.4
			c-1.3,0.6-2.7,0.8-4.4,0.8c-2.7,0-4.8-0.6-6.2-1.7C409.4,14.6,408.5,12.9,408.1,10.7L408.1,10.7z"/>
		<path id="path305" d="M437.2,13.8l0.5,3.1c-1,0.2-1.9,0.3-2.7,0.3c-1.3,0-2.3-0.2-3-0.6s-1.2-0.9-1.5-1.6
			c-0.3-0.7-0.4-2.1-0.4-4.2V-1.1h-2.6v-2.7h2.6v-5.1l3.5-2.1v7.2h3.5v2.7h-3.5v12.1c0,1,0.1,1.6,0.2,1.9c0.1,0.3,0.3,0.5,0.6,0.7
			c0.3,0.2,0.7,0.3,1.2,0.3C436,13.9,436.5,13.9,437.2,13.8L437.2,13.8z"/>
	</g>
	<g id="text3996-9">
		<path id="path513" d="M777.1,149.1v-28.6h3.5v28.6H777.1z"/>
		<path id="path515" d="M786.1,124.5v-4h3.5v4H786.1z M786.1,149.1v-20.7h3.5v20.7H786.1z"/>
		<path id="path517" d="M802.6,145.9l0.5,3.1c-1,0.2-1.9,0.3-2.7,0.3c-1.3,0-2.3-0.2-3-0.6s-1.2-0.9-1.5-1.6
			c-0.3-0.7-0.4-2.1-0.4-4.2v-11.9H793v-2.7h2.6v-5.1l3.5-2.1v7.2h3.5v2.7h-3.5v12.1c0,1,0.1,1.6,0.2,1.9c0.1,0.3,0.3,0.5,0.6,0.7
			c0.3,0.2,0.7,0.3,1.2,0.3C801.5,146.1,802,146,802.6,145.9z"/>
		<path id="path519" d="M806,149.1v-28.6h3.5v10.3c1.6-1.9,3.7-2.9,6.2-2.9c1.5,0,2.9,0.3,4,0.9c1.1,0.6,1.9,1.4,2.4,2.5
			c0.5,1.1,0.7,2.6,0.7,4.6v13.1h-3.5v-13.1c0-1.8-0.4-3-1.2-3.8c-0.8-0.8-1.8-1.2-3.2-1.2c-1,0-2,0.3-2.9,0.8
			c-0.9,0.5-1.6,1.3-2,2.2c-0.4,0.9-0.6,2.2-0.6,3.8v11.3H806z"/>
		<path id="path521" d="M827,138.7c0-3.8,1.1-6.7,3.2-8.5c1.8-1.5,4-2.3,6.5-2.3c2.9,0,5.2,0.9,7,2.8c1.8,1.9,2.7,4.4,2.7,7.7
			c0,2.7-0.4,4.8-1.2,6.3c-0.8,1.5-2,2.7-3.5,3.6c-1.5,0.8-3.2,1.3-5,1.3c-2.9,0-5.3-0.9-7.1-2.8C827.9,144.9,827,142.2,827,138.7
			L827,138.7z M830.6,138.7c0,2.7,0.6,4.6,1.7,6c1.2,1.3,2.6,2,4.4,2c1.7,0,3.2-0.7,4.4-2c1.2-1.3,1.7-3.4,1.7-6.1
			c0-2.6-0.6-4.5-1.8-5.8c-1.2-1.3-2.6-2-4.3-2c-1.8,0-3.2,0.7-4.4,2C831.2,134,830.6,136,830.6,138.7L830.6,138.7z"/>
		<path id="path523" d="M849.2,142.9l3.5-0.5c0.2,1.4,0.7,2.5,1.6,3.2c0.9,0.7,2.1,1.1,3.7,1.1c1.6,0,2.8-0.3,3.6-1
			c0.8-0.7,1.2-1.4,1.2-2.3c0-0.8-0.3-1.4-1-1.9c-0.5-0.3-1.7-0.7-3.6-1.2c-2.6-0.7-4.4-1.2-5.4-1.7c-1-0.5-1.7-1.1-2.3-2
			c-0.5-0.8-0.8-1.8-0.8-2.8c0-0.9,0.2-1.8,0.6-2.6c0.4-0.8,1-1.5,1.7-2c0.5-0.4,1.3-0.7,2.2-1c1-0.3,2-0.4,3-0.4
			c1.6,0,3.1,0.2,4.3,0.7c1.2,0.5,2.1,1.1,2.7,1.9c0.6,0.8,1,1.9,1.2,3.2l-3.4,0.5c-0.2-1.1-0.6-1.9-1.4-2.5
			c-0.7-0.6-1.8-0.9-3.2-0.9c-1.6,0-2.8,0.3-3.5,0.8c-0.7,0.5-1,1.2-1,1.9c0,0.5,0.1,0.9,0.4,1.2c0.3,0.4,0.7,0.7,1.3,0.9
			c0.4,0.1,1.4,0.4,3.1,0.9c2.5,0.7,4.2,1.2,5.2,1.6c1,0.4,1.8,1,2.3,1.8c0.6,0.8,0.8,1.8,0.8,3c0,1.2-0.3,2.3-1,3.3
			c-0.7,1-1.7,1.8-2.9,2.4c-1.3,0.6-2.7,0.8-4.4,0.8c-2.7,0-4.8-0.6-6.2-1.7C850.5,146.7,849.6,145.1,849.2,142.9L849.2,142.9z"/>
		<path id="path525" d="M870.6,157v-28.7h3.2v2.7c0.8-1.1,1.6-1.8,2.6-2.4c1-0.5,2.1-0.8,3.5-0.8c1.8,0,3.3,0.5,4.7,1.4
			s2.4,2.2,3.1,3.9c0.7,1.7,1,3.5,1,5.4c0,2.1-0.4,4-1.2,5.7c-0.8,1.7-1.9,3-3.3,3.9c-1.4,0.9-3,1.3-4.6,1.3c-1.2,0-2.2-0.2-3.2-0.7
			c-0.9-0.5-1.7-1.1-2.3-1.9V157L870.6,157z M873.8,138.8c0,2.7,0.5,4.6,1.6,5.9c1.1,1.3,2.4,1.9,3.9,1.9c1.6,0,2.9-0.7,4-2
			c1.1-1.3,1.7-3.4,1.7-6.2c0-2.6-0.5-4.6-1.6-5.9c-1.1-1.3-2.4-2-3.9-2c-1.5,0-2.8,0.7-4,2.1C874.3,134.1,873.8,136.1,873.8,138.8
			L873.8,138.8z"/>
		<path id="path527" d="M892.8,149.1v-28.6h3.5v10.3c1.6-1.9,3.7-2.9,6.2-2.9c1.5,0,2.9,0.3,4,0.9c1.1,0.6,1.9,1.4,2.4,2.5
			c0.5,1.1,0.7,2.6,0.7,4.6v13.1h-3.5v-13.1c0-1.8-0.4-3-1.2-3.8c-0.8-0.8-1.8-1.2-3.2-1.2c-1,0-2,0.3-2.9,0.8
			c-0.9,0.5-1.6,1.3-2,2.2s-0.6,2.2-0.6,3.8v11.3H892.8z"/>
		<path id="path529" d="M929.3,142.4l3.6,0.4c-0.6,2.1-1.6,3.8-3.2,4.9s-3.5,1.8-5.9,1.8c-3,0-5.4-0.9-7.2-2.8
			c-1.8-1.9-2.7-4.5-2.7-7.9c0-3.5,0.9-6.2,2.7-8.1c1.8-1.9,4.1-2.9,7-2.9c2.8,0,5,0.9,6.8,2.8c1.8,1.9,2.6,4.5,2.6,8
			c0,0.2,0,0.5,0,0.9h-15.5c0.1,2.3,0.8,4,1.9,5.2c1.2,1.2,2.6,1.8,4.3,1.8c1.3,0,2.4-0.3,3.3-1C928,144.9,928.8,143.9,929.3,142.4
			L929.3,142.4z M917.8,136.7h11.6c-0.2-1.7-0.6-3.1-1.3-3.9c-1.1-1.4-2.6-2-4.4-2c-1.6,0-3,0.5-4.1,1.6
			C918.5,133.4,917.9,134.9,917.8,136.7z"/>
		<path id="path531" d="M937.3,149.1v-20.7h3.2v3.1c0.8-1.5,1.5-2.4,2.2-2.9c0.7-0.5,1.4-0.7,2.3-0.7c1.2,0,2.4,0.4,3.6,1.1
			l-1.2,3.3c-0.9-0.5-1.7-0.8-2.6-0.8c-0.8,0-1.5,0.2-2.1,0.7c-0.6,0.5-1,1.1-1.3,1.9c-0.4,1.3-0.6,2.6-0.6,4.1v10.9H937.3z"/>
		<path id="path533" d="M964.9,142.4l3.6,0.4c-0.6,2.1-1.6,3.8-3.2,4.9c-1.5,1.2-3.5,1.8-5.9,1.8c-3,0-5.4-0.9-7.2-2.8
			c-1.8-1.9-2.7-4.5-2.7-7.9c0-3.5,0.9-6.2,2.7-8.1c1.8-1.9,4.1-2.9,7-2.9c2.8,0,5,0.9,6.8,2.8c1.8,1.9,2.6,4.5,2.6,8
			c0,0.2,0,0.5,0,0.9h-15.5c0.1,2.3,0.8,4,1.9,5.2c1.2,1.2,2.6,1.8,4.3,1.8c1.3,0,2.4-0.3,3.3-1
			C963.7,144.9,964.4,143.9,964.9,142.4L964.9,142.4z M953.4,136.7H965c-0.2-1.7-0.6-3.1-1.3-3.9c-1.1-1.4-2.6-2-4.4-2
			c-1.6,0-3,0.5-4.1,1.6C954.1,133.4,953.5,134.9,953.4,136.7z"/>
	</g>
	<g id="text3996-9-0">
		<path id="path554" d="M747.7,217.2v-20.7h3.1v2.9c0.7-1,1.5-1.8,2.6-2.4c1.1-0.6,2.3-0.9,3.7-0.9c1.5,0,2.8,0.3,3.8,1
			c1,0.6,1.7,1.5,2.1,2.7c1.6-2.4,3.8-3.6,6.4-3.6c2.1,0,3.6,0.6,4.7,1.7c1.1,1.1,1.7,2.9,1.7,5.3v14.2h-3.5v-13.1
			c0-1.4-0.1-2.4-0.4-3c-0.2-0.6-0.6-1.1-1.2-1.5c-0.6-0.4-1.3-0.6-2.1-0.6c-1.5,0-2.7,0.5-3.6,1.5c-1,1-1.4,2.5-1.4,4.6v12.1H760
			v-13.5c0-1.6-0.3-2.7-0.9-3.5c-0.6-0.8-1.5-1.2-2.8-1.2c-1,0-1.9,0.3-2.8,0.8c-0.8,0.5-1.4,1.3-1.8,2.3c-0.4,1-0.6,2.4-0.6,4.3
			v10.8H747.7z"/>
		<path id="path556" d="M794.6,214.6c-1.3,1.1-2.6,1.9-3.8,2.3c-1.2,0.5-2.5,0.7-3.9,0.7c-2.3,0-4-0.6-5.3-1.7
			c-1.2-1.1-1.8-2.5-1.8-4.3c0-1,0.2-1.9,0.7-2.8c0.5-0.8,1.1-1.5,1.8-2c0.8-0.5,1.6-0.9,2.5-1.2c0.7-0.2,1.7-0.4,3.1-0.5
			c2.8-0.3,4.9-0.7,6.3-1.2c0-0.5,0-0.8,0-0.9c0-1.4-0.3-2.4-1-3c-0.9-0.8-2.2-1.2-4-1.2c-1.7,0-2.9,0.3-3.7,0.9
			c-0.8,0.6-1.4,1.6-1.7,3.1l-3.4-0.5c0.3-1.5,0.8-2.7,1.5-3.6c0.7-0.9,1.8-1.6,3.1-2.1c1.4-0.5,2.9-0.7,4.7-0.7
			c1.8,0,3.2,0.2,4.3,0.6c1.1,0.4,1.9,0.9,2.4,1.6c0.5,0.6,0.9,1.4,1.1,2.4c0.1,0.6,0.2,1.7,0.2,3.2v4.7c0,3.3,0.1,5.3,0.2,6.2
			c0.2,0.9,0.5,1.7,0.9,2.5h-3.7C794.9,216.4,794.7,215.6,794.6,214.6L794.6,214.6z M794.3,206.7c-1.3,0.5-3.2,1-5.7,1.3
			c-1.4,0.2-2.5,0.4-3.1,0.7c-0.6,0.3-1.1,0.6-1.4,1.2c-0.3,0.5-0.5,1-0.5,1.7c0,0.9,0.4,1.7,1.1,2.3c0.7,0.6,1.8,0.9,3.1,0.9
			c1.4,0,2.6-0.3,3.6-0.9c1.1-0.6,1.8-1.4,2.3-2.4c0.4-0.8,0.6-2,0.6-3.5V206.7z"/>
		<path id="path558" d="M803.3,217.2v-20.7h3.2v2.9c1.5-2.3,3.7-3.4,6.6-3.4c1.2,0,2.4,0.2,3.4,0.7c1.1,0.4,1.8,1,2.4,1.8
			c0.5,0.7,0.9,1.6,1.1,2.6c0.1,0.7,0.2,1.8,0.2,3.4v12.8h-3.5v-12.6c0-1.4-0.1-2.5-0.4-3.2c-0.3-0.7-0.8-1.3-1.5-1.7
			c-0.7-0.4-1.5-0.6-2.4-0.6c-1.5,0-2.8,0.5-3.9,1.4c-1.1,1-1.6,2.8-1.6,5.4v11.3H803.3z"/>
		<path id="path560" d="M833.2,214l0.5,3.1c-1,0.2-1.9,0.3-2.7,0.3c-1.3,0-2.3-0.2-3-0.6c-0.7-0.4-1.2-0.9-1.5-1.6
			c-0.3-0.7-0.4-2.1-0.4-4.2v-11.9h-2.6v-2.7h2.6v-5.1l3.5-2.1v7.2h3.5v2.7h-3.5v12.1c0,1,0.1,1.6,0.2,1.9c0.1,0.3,0.3,0.5,0.6,0.7
			c0.3,0.2,0.7,0.3,1.2,0.3C832.1,214.1,832.6,214.1,833.2,214z"/>
		<path id="path562" d="M836.6,217.2v-28.6h3.5v28.6H836.6z"/>
		<path id="path564" d="M859.7,210.5l3.6,0.4c-0.6,2.1-1.6,3.8-3.2,4.9c-1.5,1.2-3.5,1.8-5.9,1.8c-3,0-5.4-0.9-7.2-2.8
			c-1.8-1.9-2.7-4.5-2.7-7.9c0-3.5,0.9-6.2,2.7-8.1c1.8-1.9,4.1-2.9,7-2.9c2.8,0,5,0.9,6.8,2.8c1.8,1.9,2.6,4.5,2.6,8
			c0,0.2,0,0.5,0,0.9H848c0.1,2.3,0.8,4,1.9,5.2c1.2,1.2,2.6,1.8,4.3,1.8c1.3,0,2.4-0.3,3.3-1C858.5,213,859.2,212,859.7,210.5
			L859.7,210.5z M848.2,204.8h11.6c-0.2-1.7-0.6-3.1-1.3-3.9c-1.1-1.4-2.6-2-4.4-2c-1.6,0-3,0.5-4.1,1.6
			C848.9,201.5,848.3,203,848.2,204.8L848.2,204.8z"/>
	</g>
	<g id="text4000">
		<path id="path468" d="M80.4,145.9c-1.3,1.1-2.6,1.9-3.8,2.3c-1.2,0.5-2.5,0.7-3.9,0.7c-2.3,0-4-0.6-5.3-1.7
			c-1.2-1.1-1.8-2.5-1.8-4.3c0-1,0.2-1.9,0.7-2.8c0.5-0.8,1.1-1.5,1.8-2c0.8-0.5,1.6-0.9,2.5-1.2c0.7-0.2,1.7-0.4,3.1-0.5
			c2.8-0.3,4.9-0.7,6.3-1.2c0-0.5,0-0.8,0-0.9c0-1.4-0.3-2.4-1-3c-0.9-0.8-2.2-1.2-4-1.2c-1.7,0-2.9,0.3-3.7,0.9
			c-0.8,0.6-1.4,1.6-1.7,3.1l-3.4-0.5c0.3-1.5,0.8-2.7,1.5-3.6c0.7-0.9,1.8-1.6,3.1-2.1c1.4-0.5,2.9-0.7,4.7-0.7
			c1.8,0,3.2,0.2,4.3,0.6c1.1,0.4,1.9,0.9,2.4,1.6c0.5,0.6,0.9,1.4,1.1,2.4c0.1,0.6,0.2,1.7,0.2,3.2v4.7c0,3.3,0.1,5.3,0.2,6.2
			c0.2,0.9,0.5,1.7,0.9,2.5h-3.7C80.8,147.7,80.5,146.8,80.4,145.9z M80.1,138c-1.3,0.5-3.2,1-5.7,1.3c-1.4,0.2-2.5,0.4-3.1,0.7
			c-0.6,0.3-1.1,0.6-1.4,1.2c-0.3,0.5-0.5,1-0.5,1.7c0,0.9,0.4,1.7,1.1,2.3c0.7,0.6,1.8,0.9,3.1,0.9c1.4,0,2.6-0.3,3.6-0.9
			c1.1-0.6,1.8-1.4,2.3-2.4c0.4-0.8,0.6-2,0.6-3.5V138z"/>
		<path id="path470" d="M87.8,142.2l3.5-0.5c0.2,1.4,0.7,2.5,1.6,3.2c0.9,0.7,2.1,1.1,3.8,1.1c1.6,0,2.8-0.3,3.6-1
			c0.8-0.7,1.2-1.4,1.2-2.3c0-0.8-0.3-1.4-1-1.9c-0.5-0.3-1.7-0.7-3.6-1.2c-2.6-0.7-4.4-1.2-5.4-1.7c-1-0.5-1.7-1.1-2.3-2
			c-0.5-0.8-0.8-1.8-0.8-2.8c0-0.9,0.2-1.8,0.6-2.6c0.4-0.8,1-1.5,1.7-2c0.5-0.4,1.3-0.7,2.2-1c1-0.3,2-0.4,3-0.4
			c1.6,0,3.1,0.2,4.3,0.7c1.2,0.5,2.1,1.1,2.7,1.9c0.6,0.8,1,1.9,1.2,3.2l-3.4,0.5c-0.2-1.1-0.6-1.9-1.4-2.5
			c-0.7-0.6-1.8-0.9-3.2-0.9c-1.6,0-2.8,0.3-3.5,0.8c-0.7,0.5-1,1.2-1,1.9c0,0.5,0.1,0.9,0.4,1.2c0.3,0.4,0.7,0.7,1.3,0.9
			c0.4,0.1,1.4,0.4,3.1,0.9c2.5,0.7,4.2,1.2,5.2,1.6c1,0.4,1.8,1,2.3,1.8c0.6,0.8,0.8,1.8,0.8,3c0,1.2-0.3,2.3-1,3.3
			c-0.7,1-1.7,1.8-2.9,2.4c-1.3,0.6-2.7,0.8-4.4,0.8c-2.7,0-4.8-0.6-6.2-1.7C89.1,146.1,88.2,144.4,87.8,142.2L87.8,142.2z"/>
		<path id="path472" d="M116.8,145.3l0.5,3.1c-1,0.2-1.9,0.3-2.7,0.3c-1.3,0-2.3-0.2-3-0.6s-1.2-0.9-1.5-1.6
			c-0.3-0.7-0.4-2.1-0.4-4.2v-11.9h-2.6v-2.7h2.6v-5.1l3.5-2.1v7.2h3.5v2.7h-3.5v12.1c0,1,0.1,1.6,0.2,1.9c0.1,0.3,0.3,0.5,0.6,0.7
			c0.3,0.2,0.7,0.3,1.2,0.3C115.7,145.4,116.2,145.4,116.8,145.3z"/>
		<path id="path474" d="M120.3,148.4v-28.6h3.5v10.3c1.6-1.9,3.7-2.9,6.2-2.9c1.5,0,2.9,0.3,4,0.9c1.1,0.6,1.9,1.4,2.4,2.5
			c0.5,1.1,0.7,2.6,0.7,4.6v13.1h-3.5v-13.1c0-1.8-0.4-3-1.2-3.8c-0.8-0.8-1.8-1.2-3.2-1.2c-1,0-2,0.3-2.9,0.8
			c-0.9,0.5-1.6,1.3-2,2.2c-0.4,0.9-0.6,2.2-0.6,3.8v11.3H120.3z"/>
		<path id="path476" d="M156.7,141.7l3.6,0.4c-0.6,2.1-1.6,3.8-3.2,4.9s-3.5,1.8-5.9,1.8c-3,0-5.4-0.9-7.2-2.8
			c-1.8-1.9-2.7-4.5-2.7-7.9c0-3.5,0.9-6.2,2.7-8.1c1.8-1.9,4.1-2.9,7-2.9c2.8,0,5,0.9,6.8,2.8c1.8,1.9,2.6,4.5,2.6,8
			c0,0.2,0,0.5,0,0.9H145c0.1,2.3,0.8,4,1.9,5.2s2.6,1.8,4.3,1.8c1.3,0,2.4-0.3,3.3-1C155.5,144.3,156.2,143.2,156.7,141.7
			L156.7,141.7z M145.2,136.1h11.6c-0.2-1.7-0.6-3.1-1.3-3.9c-1.1-1.4-2.6-2-4.4-2c-1.6,0-3,0.5-4.1,1.6
			C145.9,132.8,145.3,134.2,145.2,136.1z"/>
		<path id="path478" d="M164.8,148.4v-20.7h3.2v2.9c1.5-2.3,3.7-3.4,6.6-3.4c1.3,0,2.4,0.2,3.4,0.7c1.1,0.4,1.8,1,2.4,1.8
			s0.9,1.6,1.1,2.6c0.1,0.7,0.2,1.8,0.2,3.4v12.8h-3.5v-12.6c0-1.4-0.1-2.5-0.4-3.2c-0.3-0.7-0.8-1.3-1.5-1.7
			c-0.7-0.4-1.5-0.6-2.4-0.6c-1.5,0-2.8,0.5-3.9,1.4c-1.1,1-1.6,2.8-1.6,5.4v11.3H164.8z"/>
		<path id="path480" d="M185.8,138c0-3.8,1.1-6.7,3.2-8.5c1.8-1.5,4-2.3,6.5-2.3c2.9,0,5.2,0.9,7,2.8c1.8,1.9,2.7,4.4,2.7,7.7
			c0,2.7-0.4,4.8-1.2,6.3c-0.8,1.5-2,2.7-3.5,3.6c-1.5,0.8-3.2,1.3-5,1.3c-2.9,0-5.3-0.9-7.1-2.8C186.6,144.2,185.8,141.5,185.8,138
			z M189.4,138c0,2.7,0.6,4.6,1.7,6c1.2,1.3,2.6,2,4.4,2c1.7,0,3.2-0.7,4.4-2c1.2-1.3,1.7-3.4,1.7-6.1c0-2.6-0.6-4.5-1.8-5.8
			c-1.2-1.3-2.6-2-4.3-2c-1.8,0-3.2,0.7-4.4,2S189.4,135.4,189.4,138z"/>
		<path id="path482" d="M207.9,142.2l3.5-0.5c0.2,1.4,0.7,2.5,1.6,3.2c0.9,0.7,2.1,1.1,3.8,1.1c1.6,0,2.8-0.3,3.6-1
			c0.8-0.7,1.2-1.4,1.2-2.3c0-0.8-0.3-1.4-1-1.9c-0.5-0.3-1.7-0.7-3.6-1.2c-2.6-0.7-4.4-1.2-5.4-1.7c-1-0.5-1.7-1.1-2.3-2
			c-0.5-0.8-0.8-1.8-0.8-2.8c0-0.9,0.2-1.8,0.6-2.6c0.4-0.8,1-1.5,1.7-2c0.5-0.4,1.3-0.7,2.2-1c1-0.3,2-0.4,3-0.4
			c1.6,0,3.1,0.2,4.3,0.7c1.2,0.5,2.1,1.1,2.7,1.9c0.6,0.8,1,1.9,1.2,3.2l-3.4,0.5c-0.2-1.1-0.6-1.9-1.4-2.5
			c-0.7-0.6-1.8-0.9-3.2-0.9c-1.6,0-2.8,0.3-3.5,0.8c-0.7,0.5-1,1.2-1,1.9c0,0.5,0.1,0.9,0.4,1.2c0.3,0.4,0.7,0.7,1.3,0.9
			c0.4,0.1,1.4,0.4,3.1,0.9c2.5,0.7,4.2,1.2,5.2,1.6c1,0.4,1.8,1,2.3,1.8s0.8,1.8,0.8,3c0,1.2-0.3,2.3-1,3.3c-0.7,1-1.7,1.8-2.9,2.4
			c-1.3,0.6-2.7,0.8-4.4,0.8c-2.7,0-4.8-0.6-6.2-1.7C209.2,146.1,208.3,144.4,207.9,142.2L207.9,142.2z"/>
		<path id="path484" d="M229.3,156.4v-28.7h3.2v2.7c0.8-1.1,1.6-1.8,2.6-2.4c1-0.5,2.1-0.8,3.5-0.8c1.8,0,3.3,0.5,4.7,1.4
			c1.4,0.9,2.4,2.2,3.1,3.9c0.7,1.7,1,3.5,1,5.4c0,2.1-0.4,4-1.2,5.7c-0.8,1.7-1.9,3-3.3,3.9c-1.4,0.9-3,1.3-4.6,1.3
			c-1.2,0-2.2-0.2-3.2-0.7c-0.9-0.5-1.7-1.1-2.3-1.9v10.1H229.3z M232.5,138.2c0,2.7,0.5,4.6,1.6,5.9c1.1,1.3,2.4,1.9,3.9,1.9
			c1.6,0,2.9-0.7,4-2c1.1-1.3,1.7-3.4,1.7-6.2c0-2.6-0.5-4.6-1.6-5.9c-1.1-1.3-2.4-2-3.9-2c-1.5,0-2.8,0.7-4,2.1
			C233.1,133.5,232.5,135.5,232.5,138.2L232.5,138.2z"/>
		<path id="path486" d="M251.6,148.4v-28.6h3.5v10.3c1.6-1.9,3.7-2.9,6.2-2.9c1.5,0,2.9,0.3,4,0.9c1.1,0.6,1.9,1.4,2.4,2.5
			c0.5,1.1,0.7,2.6,0.7,4.6v13.1H265v-13.1c0-1.8-0.4-3-1.2-3.8c-0.8-0.8-1.8-1.2-3.2-1.2c-1,0-2,0.3-2.9,0.8
			c-0.9,0.5-1.6,1.3-2,2.2c-0.4,0.9-0.6,2.2-0.6,3.8v11.3H251.6z"/>
		<path id="path488" d="M288.1,141.7l3.6,0.4c-0.6,2.1-1.6,3.8-3.2,4.9c-1.5,1.2-3.5,1.8-5.9,1.8c-3,0-5.4-0.9-7.2-2.8
			c-1.8-1.9-2.7-4.5-2.7-7.9c0-3.5,0.9-6.2,2.7-8.1c1.8-1.9,4.1-2.9,7-2.9c2.8,0,5,0.9,6.8,2.8c1.8,1.9,2.6,4.5,2.6,8
			c0,0.2,0,0.5,0,0.9h-15.5c0.1,2.3,0.8,4,1.9,5.2s2.6,1.8,4.3,1.8c1.3,0,2.4-0.3,3.3-1C286.8,144.3,287.5,143.2,288.1,141.7
			L288.1,141.7z M276.5,136.1h11.6c-0.2-1.7-0.6-3.1-1.3-3.9c-1.1-1.4-2.6-2-4.4-2c-1.6,0-3,0.5-4.1,1.6
			C277.2,132.8,276.6,134.2,276.5,136.1z"/>
		<path id="path490" d="M296.1,148.4v-20.7h3.2v3.1c0.8-1.5,1.5-2.4,2.2-2.9c0.7-0.5,1.4-0.7,2.3-0.7c1.2,0,2.4,0.4,3.6,1.1
			l-1.2,3.3c-0.9-0.5-1.7-0.8-2.6-0.8c-0.8,0-1.5,0.2-2.1,0.7c-0.6,0.5-1,1.1-1.3,1.9c-0.4,1.3-0.6,2.6-0.6,4.1v10.9H296.1z"/>
		<path id="path492" d="M323.7,141.7l3.6,0.4c-0.6,2.1-1.6,3.8-3.2,4.9c-1.5,1.2-3.5,1.8-5.9,1.8c-3,0-5.4-0.9-7.2-2.8
			c-1.8-1.9-2.7-4.5-2.7-7.9c0-3.5,0.9-6.2,2.7-8.1c1.8-1.9,4.1-2.9,7-2.9c2.8,0,5,0.9,6.8,2.8s2.6,4.5,2.6,8c0,0.2,0,0.5,0,0.9
			h-15.5c0.1,2.3,0.8,4,1.9,5.2s2.6,1.8,4.3,1.8c1.3,0,2.4-0.3,3.3-1C322.4,144.3,323.1,143.2,323.7,141.7L323.7,141.7z
			 M312.1,136.1h11.6c-0.2-1.7-0.6-3.1-1.3-3.9c-1.1-1.4-2.6-2-4.4-2c-1.6,0-3,0.5-4.1,1.6C312.9,132.8,312.3,134.2,312.1,136.1
			L312.1,136.1z"/>
	</g>
	<g id="text4006">
		<path id="path666" d="M614.7,566.5c1-0.8,2-1.4,2.9-1.8c1-0.4,2-0.6,2.9-0.6c2.2,0,4,0.7,5.4,2.2c1.4,1.5,2.1,3.5,2.1,6
			c0,3.2-1.1,6-3.2,8.3c-1.8,2-4,3-6.6,3c-2.4,0-4.3-0.9-5.9-2.6c-1.6-1.7-2.4-4.2-2.4-7.4c0-2.9,0.5-5.9,1.5-8.9
			c0.8-2.4,1.7-4.3,2.9-5.8c1.2-1.5,2.4-2.7,3.7-3.4c1.3-0.7,2.8-1.1,4.4-1.1c2,0,3.5,0.6,4.8,1.8c1.2,1.2,1.9,2.9,2.1,5.2l-3.3,0.3
			c-0.2-1.5-0.6-2.7-1.3-3.4c-0.7-0.7-1.5-1-2.5-1c-1.1,0-2.1,0.4-3.2,1.2c-1.1,0.8-2,2-2.8,3.7C615.6,563.8,615,565.3,614.7,566.5
			L614.7,566.5z M613.5,575.1c0,1.6,0.5,3,1.5,4.1c1,1.1,2.1,1.6,3.4,1.6c0.9,0,1.8-0.3,2.8-1c1-0.7,1.8-1.7,2.5-3.1
			c0.7-1.4,1-2.7,1-4.1c0-1.7-0.5-3.1-1.4-4.2c-1-1.1-2.1-1.6-3.5-1.6c-1.6,0-3,0.8-4.4,2.3C614.2,570.7,613.5,572.7,613.5,575.1
			L613.5,575.1z"/>
		<path id="path668" d="M631.1,575.6l3.4-0.4c0.3,2,0.8,3.4,1.7,4.3c0.9,0.9,2.1,1.3,3.5,1.3c1.7,0,3.2-0.6,4.5-1.9
			c1.3-1.3,1.9-2.7,1.9-4.3c0-1.4-0.5-2.6-1.4-3.5c-1-0.9-2.2-1.4-3.8-1.4c-0.2,0-0.6,0-1.1,0.1l0.6-2.9c0.3,0.1,0.7,0.1,1,0.1
			c2,0,3.6-0.5,4.6-1.5c1.1-1,1.6-2.2,1.6-3.6c0-1.3-0.4-2.4-1.3-3.3c-0.9-0.9-2-1.3-3.3-1.3c-1.3,0-2.4,0.5-3.4,1.4
			c-1,0.9-1.6,2.2-1.9,3.9l-3.5-0.7c0.6-2.4,1.7-4.2,3.3-5.5c1.6-1.3,3.6-1.9,5.8-1.9c2.3,0,4.2,0.7,5.7,2.1
			c1.5,1.4,2.2,3.2,2.2,5.2c0,1.5-0.4,2.8-1.2,4c-0.8,1.1-2,2.1-3.5,2.8c1.1,0.7,2,1.5,2.5,2.4c0.6,0.9,0.8,2,0.8,3.2
			c0,2.6-1,4.8-2.9,6.7c-1.9,1.9-4.2,2.8-6.9,2.8c-2.6,0-4.7-0.7-6.3-2.2C632.2,580,631.3,578.1,631.1,575.6L631.1,575.6z"/>
		<path id="path670" d="M657,583.1c0.3-1.9,1-4.2,2-7c1.2-3.3,2.8-6.5,4.8-9.7c2-3.2,4.2-6,6.6-8.3h-14.3l0.7-3.2H675l-0.7,3.2
			c-3.1,2.7-5.8,6.2-8.1,10.5c-2.7,5-4.5,9.8-5.5,14.5H657z"/>
		<path id="path672" d="M682.5,567.4c-1.1-0.6-1.9-1.3-2.4-2.2c-0.5-0.9-0.8-1.9-0.8-3c0-1.7,0.6-3.3,1.9-4.8c1.7-2,3.9-3,6.8-3
			c2.5,0,4.5,0.7,5.9,2c1.4,1.3,2.2,3,2.2,4.9c0,1.4-0.4,2.6-1.2,3.8c-0.8,1.1-2,2-3.7,2.7c1.1,0.7,2,1.5,2.5,2.3
			c0.6,1.1,1,2.3,1,3.7c0,2.6-0.9,4.9-2.7,6.9c-1.8,2-4.2,3-7.2,3c-2.4,0-4.4-0.7-5.9-2.2c-1.5-1.5-2.3-3.3-2.3-5.6
			c0-2.1,0.5-3.9,1.6-5.4C679.2,568.9,680.7,567.9,682.5,567.4L682.5,567.4z M682.8,562.3c0,1.2,0.4,2.2,1.2,3
			c0.8,0.7,1.9,1.1,3.3,1.1c1.6,0,2.9-0.5,3.9-1.5c1-1,1.5-2.2,1.5-3.6c0-1.2-0.4-2.2-1.2-2.9c-0.8-0.8-1.9-1.2-3.2-1.2
			c-1,0-2,0.2-2.9,0.7c-0.9,0.5-1.5,1.1-2,2C683,560.7,682.8,561.5,682.8,562.3L682.8,562.3z M680,576.1c0,0.8,0.2,1.6,0.6,2.3
			c0.4,0.7,1,1.3,1.8,1.7c0.8,0.4,1.7,0.6,2.7,0.6c1.9,0,3.5-0.9,4.6-2.7c0.9-1.4,1.4-2.9,1.4-4.6c0-1.3-0.4-2.4-1.3-3.3
			c-0.9-0.8-2-1.3-3.4-1.3c-1.8,0-3.3,0.7-4.5,2C680.6,572.3,680,574,680,576.1L680,576.1z"/>
		<path id="path674" d="M708.2,583.1l6-28.6h3.5l-3.7,17.8l10.3-9.9h4.7l-8.8,7.7l5.4,13h-3.9l-4.1-10.6l-4.3,3.7l-1.4,6.9
			L708.2,583.1z"/>
		<path id="path676" d="M728.2,583.1l4.3-20.7h3.5l-0.7,3.4c1.3-1.5,2.5-2.5,3.5-3c1-0.6,2.2-0.8,3.4-0.8c1.3,0,2.4,0.3,3.2,1
			c0.9,0.7,1.4,1.6,1.7,2.9c1.1-1.3,2.2-2.3,3.3-2.9c1.2-0.7,2.4-1,3.7-1c1.7,0,3,0.4,3.9,1.2c0.9,0.8,1.3,2,1.3,3.5
			c0,0.6-0.1,1.7-0.4,3.2l-2.8,13.4h-3.5l2.9-13.7c0.2-1.1,0.4-1.9,0.4-2.4c0-0.7-0.2-1.2-0.6-1.6c-0.4-0.4-1-0.6-1.8-0.6
			c-1.1,0-2.1,0.3-3.2,1c-1.1,0.6-1.9,1.5-2.6,2.5c-0.6,1-1.1,2.6-1.6,4.8l-2.1,10.1h-3.5l2.9-14c0.2-1,0.3-1.6,0.3-2
			c0-0.7-0.2-1.2-0.6-1.6c-0.4-0.4-1-0.6-1.6-0.6c-1,0-2.1,0.3-3.2,1c-1.1,0.6-2,1.5-2.7,2.7c-0.7,1.1-1.3,2.8-1.7,4.9l-2.1,9.8
			L728.2,583.1z"/>
	</g>
</g>
<g id="g1134" transform="translate(0.9999706,19.512825)" display="none">
	<text transform="matrix(1 0 0 1 492.8519 274.2792)" display="inline" font-family="'ArialMT'" font-size="20px">2900 km</text>
	<text transform="matrix(1 0 0 1 492.9789 428.7421)" display="inline" font-family="'ArialMT'" font-size="20px">5100 km</text>
	<text transform="matrix(1 0 0 1 317.7142 25.243)" display="inline" font-family="'ArialMT'" font-size="53.6653px">1a</text>
	<text transform="matrix(1 0 0 1 492.9789 562.1346)" display="inline" font-family="'ArialMT'" font-size="20px">6378 km</text>
	<text transform="matrix(1 0 0 1 461.8216 4.8856)" display="inline" font-family="'ArialMT'" font-size="53.6653px">1b</text>
	<text transform="matrix(1 0 0 1 742.0775 197.7421)" display="inline" font-family="'ArialMT'" font-size="53.6653px">2</text>
	<text transform="matrix(1 0 0 1 673.8441 392.4491)" display="inline" font-family="'ArialMT'" font-size="53.6653px">3a</text>
	<text transform="matrix(1 0 0 1 653.388 469.7255)" display="inline" font-family="'ArialMT'" font-size="53.6653px">3b</text>
	<text transform="matrix(1 0 0 1 775.0862 105.0633)" display="inline" font-family="'ArialMT'" font-size="53.6653px">4</text>
	<text transform="matrix(1 0 0 1 300.9789 83.6356)" display="inline" font-family="'ArialMT'" font-size="53.6653px">5</text>
</g>
<g id="layer2" transform="translate(0.9999706,19.512825)">
	<text transform="matrix(1 0 0 1 89.2337 718.7782)" fill="#948C72" font-family="'Arial-ItalicMT'" font-size="20px">vzdálenosti ve správném poměru</text>
</g>
<linearGradient id="SVGID_10_" gradientUnits="userSpaceOnUse" x1="611.1183" y1="299.129" x2="764.1224" y2="146.125">
	<stop  offset="0" style="stop-color:#FFD788"/>
	<stop  offset="0.2441" style="stop-color:#EDD19A"/>
	<stop  offset="0.8376" style="stop-color:#E48C65"/>
	<stop  offset="1" style="stop-color:#BDB499"/>
</linearGradient>
<polygon fill="url(#SVGID_10_)" stroke="#968961" stroke-linecap="round" stroke-linejoin="round" points="744,126 690.5,172 
	630.1,318.1 684,274 "/>
<line fill="none" stroke="#000000" stroke-width="2.126" stroke-miterlimit="10" x1="342.1" y1="156.1" x2="405.5" y2="152"/>
<line fill="none" stroke="#000000" stroke-width="2.126" stroke-miterlimit="10" x1="362.5" y1="61.7" x2="420.5" y2="115"/>
<line fill="none" stroke="#000000" stroke-width="2.126" stroke-miterlimit="10" x1="447.8" y1="34.3" x2="613.2" y2="103.7"/>
<g>
	<g>
		<line fill="none" stroke="#000000" stroke-width="2.126" stroke-miterlimit="10" x1="749.2" y1="295.7" x2="693" y2="278.5"/>
		<g>
			<path d="M683.8,275.7c4.8-0.3,11-1.4,15.3-3.3l-4.8,6.4l0.4,8.1C692.2,283,687.7,278.6,683.8,275.7z"/>
		</g>
	</g>
</g>
<g>
	<g>
		<line fill="none" stroke="#000000" stroke-width="2.126" stroke-miterlimit="10" x1="597.2" y1="587" x2="540.6" y2="562.2"/>
		<g>
			<path d="M531.8,558.3c4.8,0.3,11.1-0.1,15.5-1.5l-5.6,5.8l-0.5,8C539.3,566.6,535.3,561.7,531.8,558.3z"/>
		</g>
	</g>
</g>
<path fill="none" stroke="#000000" d="M691.6,154.6"/>
<g>
	<g>
		<line fill="none" stroke="#000000" stroke-width="2.126" x1="631.6" y1="529.6" x2="578.1" y2="490.2"/>
		<g>
			<path d="M581,486.6c-2-1.5-4.9-1.1-6.4,1c-1.5,2-1.1,4.9,1,6.4c2,1.5,4.9,1.1,6.4-1S583,488.1,581,486.6z"/>
		</g>
	</g>
</g>
<g>
	<g>
		<line fill="none" stroke="#000000" stroke-width="2.126" x1="672.1" y1="381.1" x2="636.7" y2="355.2"/>
		<g>
			<path d="M639.7,351.6c-2.1-1.5-5.1-1.1-6.6,1c-1.5,2.1-1.1,5.1,1,6.6c2.1,1.5,5.1,1.1,6.6-1C642.2,356.1,641.8,353.1,639.7,351.6
				z"/>
		</g>
	</g>
</g>
<g>
	<g>
		<line fill="none" stroke="#000000" stroke-width="2.126" stroke-miterlimit="10" x1="661.6" y1="451.6" x2="630.5" y2="430.1"/>
		<g>
			<path d="M622.6,424.6c4.7,1.2,10.9,2,15.5,1.5l-6.6,4.7l-2.1,7.8C628.3,434.1,625.3,428.5,622.6,424.6z"/>
		</g>
	</g>
</g>
<text transform="matrix(0.992 0 0 1 672.0811 643.64)" font-family="'MyriadPro-Regular'" font-size="40.2511px">(center of Earth)</text>
<text transform="matrix(1.0164 0 0 1 51.1106 115.0455)" font-family="'MyriadPro-Regular'" font-size="43.2508px">upper mantle</text>
<g>
	<g>
		<line fill="none" stroke="#000000" stroke-width="2.126" x1="312.1" y1="105.1" x2="403.8" y2="132.3"/>
		<g>
			<path d="M402.2,136.8c2.5,0.7,5.1-0.7,5.9-3.2c0.7-2.5-0.7-5.1-3.2-5.9c-2.5-0.7-5.1,0.7-5.9,3.2
				C398.3,133.4,399.7,136,402.2,136.8z"/>
		</g>
	</g>
</g>
</svg>
