<?xml version="1.0" encoding="UTF-8" standalone="no"?>
<svg xmlns="http://www.w3.org/2000/svg" width="1200" height="675" font-family="Liberation Sans,sans-serif" font-size="40" text-anchor="middle" fill="black">

   <defs>
<linearGradient id="gradient1" x1="0" y1="1" x2="0" y2="0">
 <stop offset="0%" stop-color="#f4f4ff"/>
 <stop offset="50%" stop-color="#fff4f4"/>
</linearGradient>
   </defs>

<rect width="1200" height="675" x="0" y="0" fill="#f8f8f8"/>
<rect width="900" height="546" x="150" y="50" fill="url(#gradient1)"/>

<path stroke="#ddd" stroke-width="3" d=" M140,50 h920 M140,141 h920 M140,232 h920 M140,323 h920 M140,414 h920 M140,505 h920 M140,596 h920 "/>

  <g font-size="35">

<g transform="translate(100,0)">
<switch><text y="62" id="trsvg22-ca" systemLanguage="ca"><tspan id="trsvg1-ca">°C</tspan></text><text y="62" id="trsvg22"><tspan id="trsvg1">°C</tspan></text></switch>
<switch><text y="153" id="trsvg23-ca" systemLanguage="ca"><tspan id="trsvg2-ca">+1,5</tspan></text><text y="153" id="trsvg23"><tspan id="trsvg2">+1.5</tspan></text></switch>
<switch><text y="244" id="trsvg24-ca" systemLanguage="ca"><tspan id="trsvg3-ca">+1,0</tspan></text><text y="244" id="trsvg24"><tspan id="trsvg3">+1.0</tspan></text></switch>
<switch><text y="335" id="trsvg25-ca" systemLanguage="ca"><tspan id="trsvg4-ca">+0,5</tspan></text><text y="335" id="trsvg25"><tspan id="trsvg4">+0.5</tspan></text></switch>
<switch><text y="426" id="trsvg26"><tspan id="trsvg5">0</tspan></text></switch>
<switch><text y="517" id="trsvg27-ca" systemLanguage="ca"><tspan id="trsvg6-ca">–0, 5</tspan></text><text y="517" id="trsvg27"><tspan id="trsvg6">–0.5</tspan></text></switch>
</g>

<g transform="translate(1100,0)">
<switch><text y="62" id="trsvg28-ca" systemLanguage="ca"><tspan id="trsvg7-ca"> </tspan></text><text y="62" id="trsvg28"><tspan id="trsvg7">°F</tspan></text></switch>
<switch><text y="153" id="trsvg29-ca" systemLanguage="ca"><tspan id="trsvg8-ca"> </tspan></text><text y="153" id="trsvg29"><tspan id="trsvg8">+2.7</tspan></text></switch>
<switch><text y="244" id="trsvg30-ca" systemLanguage="ca"><tspan id="trsvg9-ca"> </tspan></text><text y="244" id="trsvg30"><tspan id="trsvg9">+1.8</tspan></text></switch>
<switch><text y="335" id="trsvg31-ca" systemLanguage="ca"><tspan id="trsvg10-ca"> </tspan></text><text y="335" id="trsvg31"><tspan id="trsvg10">+0.9</tspan></text></switch>
<switch><text y="426" id="trsvg32-ca" systemLanguage="ca"><tspan id="trsvg11-ca"> </tspan></text><text y="426" id="trsvg32"><tspan id="trsvg11">0</tspan></text></switch>
<switch><text y="517" id="trsvg33-ca" systemLanguage="ca"><tspan id="trsvg12-ca"> </tspan></text><text y="517" id="trsvg33"><tspan id="trsvg12">–0.9</tspan></text></switch>
</g>

   </g>

<path stroke="black" stroke-width="0.25" d=" M150,50 v566 M200,50 v556 M250,50 v556 M300,50 v556 M350,50 v556 M400,50 v566 M450,50 v556 M500,50 v556 M550,50 v556 M600,50 v556 M650,50 v566 M700,50 v556 M750,50 v556 M800,50 v556 M850,50 v556 M900,50 v566 M950,50 v556 M1000,50 v556 M1050,50 v556 "/>

<g font-size="35" transform="translate(0,645)">
<switch><text x="150" id="trsvg34-ca" systemLanguage="ca"><tspan id="trsvg13-ca">1850</tspan></text><text x="150" id="trsvg34"><tspan id="trsvg13">1850</tspan></text></switch>
<switch><text x="400" id="trsvg35-ca" systemLanguage="ca"><tspan id="trsvg14-ca">1900</tspan></text><text x="400" id="trsvg35"><tspan id="trsvg14">1900</tspan></text></switch>
<switch><text x="650" id="trsvg36-ca" systemLanguage="ca"><tspan id="trsvg15-ca">1950</tspan></text><text x="650" id="trsvg36"><tspan id="trsvg15">1950</tspan></text></switch>
<switch><text x="900" id="trsvg37-ca" systemLanguage="ca"><tspan id="trsvg16-ca">2000</tspan></text><text x="900" id="trsvg37"><tspan id="trsvg16">2000</tspan></text></switch>
</g>

<path id="CONFIDENCEAREA" stroke="none" fill="#cfe3e1" opacity="0.7" d=" M150,378 L155,381 160,374 165,381 170,386 175,383 180,371 185,372 190,370 195,372 200,366 205,375 210,386 215,387 220,382 225,378 230,371 235,366 240,365 245,383 250,371 255,380 260,368 265,380 270,376 275,370 280,372 285,376 290,383 295,381 300,377 305,374 310,374 315,374 320,405 325,411 330,394 335,396 340,393 345,373 350,385 355,386 360,389 365,368 370,375 375,371 380,374 385,369 390,376 395,366 400,365 405,372 410,376 415,379 420,381 425,386 430,374 435,367 440,363 445,342 450,355 455,353 460,378 465,383 470,382 475,360 480,367 485,353 490,371 495,351 500,356 505,357 510,354 515,358 520,362 525,357 530,359 535,357 540,349 545,358 550,362 555,366 560,362 565,361 570,354 575,365 580,347 585,353 590,341 595,349 600,358 605,357 610,354 615,358 620,372 625,365 630,344 635,350 640,347 645,337 650,335 655,347 660,362 665,345 670,356 675,351 680,349 685,345 690,340 695,345 700,343 705,354 710,350 715,352 720,384 725,383 730,379 735,376 740,358 745,362 750,359 755,342 760,350 765,360 770,363 775,363 780,372 785,365 790,358 795,370 800,359 805,342 810,366 815,386 820,380 825,376 830,377 835,356 840,358 845,357 850,353 855,367 860,394 865,393 870,359 875,368 880,374 885,351 890,366 895,376 900,349 905,354 910,365 915,366 920,363 925,363 930,361 935,358 940,371 945,366 950,363 955,361 960,359 965,356 970,352 975,350 980,361 985,356 990,344 995,358  995,439 990,455 985,451 980,463 975,453 970,435 965,448 960,462 955,457 950,458 945,461 940,447 935,450 930,453 925,453 920,450 915,449 910,442 905,463 900,445 895,454 890,486 885,461 880,470 875,468 870,472 865,493 860,502 855,459 850,445 845,457 840,468 835,457 830,459 825,456 820,464 815,473 810,448 805,434 800,437 795,440 790,449 785,449 780,455 775,451 770,443 765,446 760,443 755,438 750,449 745,452 740,460 735,463 730,462 725,465 720,469 715,453 710,448 705,439 700,437 695,428 690,453 685,433 680,447 675,457 670,434 665,435 660,438 655,447 650,438 645,455 640,458 635,448 630,430 625,436 620,447 615,451 610,443 605,439 600,440 595,441 590,439 585,451 580,438 575,452 570,442 565,455 560,451 555,446 550,447 545,453 540,452 535,441 530,448 525,443 520,447 515,450 510,443 505,443 500,440 495,440 490,432 485,441 480,443 475,454 470,470 465,466 460,457 455,441 450,445 445,445 440,457 435,454 430,467 425,449 420,463 415,484 410,440 405,446 400,436 395,440 390,447 385,450 380,447 375,444 370,446 365,449 360,455 355,471 350,452 345,455 340,458 335,459 330,484 325,489 320,523 315,463 310,440 305,448 300,444 295,437 290,436 285,438 280,440 275,435 270,444 265,440 260,440 255,435 250,450 245,445 240,440 235,447 230,437 225,442 220,441 215,444 210,455 205,445 200,453 195,449 190,444 185,444 180,441 175,440 170,461 165,462 160,451 155,438 150,443 "/>

   <g fill="none" stroke-linecap="round" stroke-linejoin="round">

<path id="DRIVER" stroke="#47ada0" stroke-width="3" stroke-dasharray="10,6" d=" M150,411 L155,410 160,404 165,409 170,416 175,410 180,406 185,405 190,406 195,410 200,408 205,410 210,423 215,419 220,413 225,408 230,410 235,413 240,410 245,412 250,410 255,407 260,404 265,409 270,408 275,405 280,409 285,408 290,409 295,412 300,410 305,412 310,410 315,413 320,460 325,450 330,435 335,431 340,425 345,418 350,418 355,428 360,422 365,415 370,414 375,415 380,411 385,412 390,409 395,407 400,406 405,409 410,406 415,432 420,421 425,420 430,415 435,415 440,413 445,405 450,403 455,400 460,421 465,427 470,417 475,411 480,410 485,407 490,407 495,404 500,400 505,398 510,404 515,404 520,405 525,405 530,403 535,402 540,403 545,406 550,406 555,403 560,406 565,406 570,402 575,401 580,396 585,399 590,399 595,399 600,398 605,401 610,402 615,401 620,405 625,398 630,392 635,395 640,399 645,399 650,401 655,399 660,400 665,399 670,399 675,398 680,400 685,396 690,396 695,392 700,391 705,395 710,401 715,412 720,425 725,425 730,420 735,416 740,411 745,412 750,411 755,405 760,405 765,404 770,401 775,412 780,415 785,409 790,405 795,403 800,397 805,397 810,410 815,428 820,427 825,420 830,420 835,418 840,413 845,407 850,404 855,412 860,455 865,450 870,430 875,424 880,420 885,420 890,416 895,411 900,406 905,406 910,405 915,408 920,402 925,406 930,409 935,406 940,407 945,408 950,408 955,411 960,406 965,394 970,392 975,404 980,405 985,405 990,406 995,405  "/>

<path id="ANNUALTEMP" stroke="black" stroke-width="1" d=" M150,403 L155,383 160,378 165,387 170,379 175,383 180,396 185,403 190,401 195,378 200,410 205,419 210,430 215,405 220,405 225,383 230,387 235,403 240,394 245,381 250,399 255,398 260,403 265,403 270,410 275,409 280,412 285,347 290,347 295,394 300,401 305,385 310,398 315,403 320,421 325,419 330,419 335,430 340,387 345,376 350,429 355,409 360,416 365,429 370,429 375,409 380,389 385,385 390,416 395,398 400,379 405,389 410,410 415,434 420,447 425,416 430,399 435,432 440,445 445,447 450,438 455,441 460,429 465,427 470,394 475,385 480,423 485,447 490,425 495,412 500,410 505,399 510,412 515,414 520,410 525,407 530,383 535,399 540,398 545,427 550,390 555,378 560,392 565,412 570,389 575,398 580,389 585,370 590,369 595,367 600,341 605,328 610,352 615,356 620,325 625,341 630,376 635,370 640,381 645,379 650,392 655,374 660,361 665,350 670,385 675,392 680,398 685,358 690,352 695,354 700,369 705,354 710,359 715,356 720,399 725,383 730,374 735,367 740,379 745,350 750,358 755,379 760,358 765,332 770,378 775,367 780,378 785,332 790,348 795,332 800,312 805,305 810,338 815,305 820,334 825,341 830,328 835,307 840,296 845,318 850,287 855,292 860,325 865,319 870,308 875,281 880,305 885,279 890,254 895,294 900,294 905,268 910,256 915,254 920,267 925,243 930,250 935,252 940,270 945,247 950,236 955,257 960,250 965,245 970,232 975,203 980,181 985,197 990,210 995,188 1000,183 1005,210 1010,205 1015,152 1020,134 1025,156 "/>

<path id="TENYEARTEMP" stroke="#d02" stroke-width="5" d=" M150,386 L155,385 160,387 165,390 170,390 175,389 180,390 185,393 190,399 195,401 200,403 205,403 210,402 215,402 220,401 225,402 230,401 235,399 240,396 245,396 250,396 255,399 260,401 265,396 270,391 275,392 280,392 285,391 290,391 295,391 300,392 305,393 310,393 315,402 320,406 325,404 330,407 335,409 340,411 345,413 350,414 355,413 360,410 365,405 370,408 375,411 380,406 385,404 390,403 395,404 400,405 405,406 410,407 415,412 420,415 425,420 430,426 435,431 440,433 445,432 450,427 455,424 460,426 465,427 470,425 475,422 480,419 485,415 490,413 495,412 500,414 505,416 510,412 515,407 520,405 525,406 530,404 535,402 540,400 545,400 550,397 555,397 560,397 565,394 570,391 575,385 580,380 585,375 590,371 595,366 600,359 605,354 610,352 615,352 620,354 625,355 630,360 635,365 640,366 645,365 650,371 655,376 660,378 665,377 670,374 675,372 680,369 685,367 690,367 695,368 700,369 705,368 710,366 715,367 720,369 725,369 730,368 735,371 740,370 745,368 750,366 755,364 760,364 765,361 770,358 775,356 780,352 785,344 790,342 795,339 800,335 805,332 810,328 815,325 820,320 825,318 830,316 835,314 840,313 845,315 850,312 855,306 860,304 865,301 870,297 875,294 880,295 885,293 890,286 895,279 900,275 905,271 910,266 915,263 920,265 925,260 930,254 935,253 940,253 945,252 950,248 955,244 960,237 965,232 970,226 975,220 980,215 985,210 990,205 995,196 1000,186 1005,182 1010,182 1015,180 1020,175 1025,173 "/>

   </g>

<switch><text x="600" y="115" font-size="55" id="trsvg38-ca" systemLanguage="ca"><tspan id="trsvg17-ca">Temperatura mitjana global</tspan></text><text x="600" y="115" font-size="55" id="trsvg38-ms" systemLanguage="ms"><tspan id="trsvg17-ms">Suhu purata sejagat</tspan></text><text x="600" y="115" font-size="55" id="trsvg38"><tspan id="trsvg17">Global average temperature</tspan></text></switch>

<switch><text transform="translate(48,323) rotate(-90)" id="trsvg39-ca" systemLanguage="ca"><tspan id="trsvg18-ca">Respecte a l'època preindustrial</tspan></text><text transform="translate(48,323) rotate(-90)" id="trsvg39-ms" systemLanguage="ms"><tspan id="trsvg18-ms">Pemanasan sejak pra-industri</tspan></text><text transform="translate(48,323) rotate(-90)" id="trsvg39"><tspan id="trsvg18">Warming since pre-industrial</tspan></text></switch>
<switch><text transform="translate(1185,323) rotate(-90)" id="trsvg40-ca" systemLanguage="ca"><tspan id="trsvg19-ca"> </tspan></text><text transform="translate(1185,323) rotate(-90)" id="trsvg40-ms" systemLanguage="ms"><tspan id="trsvg19-ms">Pemanasan sejak pra-industri</tspan></text><text transform="translate(1185,323) rotate(-90)" id="trsvg40"><tspan id="trsvg19">Warming since pre-industrial</tspan></text></switch>

   <g text-anchor="end" font-style="italic" stroke-width="3">

<switch><text x="820" y="285" fill="#d02" id="trsvg41-ca" systemLanguage="ca"><tspan id="trsvg20-ca">Temperatures observades</tspan></text><text x="820" y="285" fill="#d02" id="trsvg41-ms" systemLanguage="ms"><tspan id="trsvg20-ms">Suhu cerapan</tspan></text><text x="820" y="285" fill="#d02" id="trsvg41"><tspan id="trsvg20">Observed temperatures</tspan></text></switch>
<path stroke="#d02" d="M885,279 l-60,-5"/>

<switch><text x="1000" y="550" fill="#47ada0" id="trsvg42-ca" systemLanguage="ca"><tspan id="trsvg21-ca">Factors naturals (Sol, vulcanisme…)</tspan></text><text x="1000" y="550" fill="#47ada0" id="trsvg42-ms" systemLanguage="ms"><tspan id="trsvg21-ms">Pemacu sejadi (suria, gunung berapi)</tspan></text><text x="1000" y="550" fill="#47ada0" id="trsvg42"><tspan id="trsvg21">Natural drivers (solar, volcanic)</tspan></text></switch>
<path stroke="#47ada0" d="M814,426 l-40,90"/>

   </g>

</svg>
