<?xml version="1.0" encoding="UTF-8"?>
<!-- Created with Inkscape by Vulphere (http://www.inkscape.org/) -->
<svg width="154.9081" height="112.2596" version="1.1" viewBox="0 0 154.9082 112.2596" xmlns="http://www.w3.org/2000/svg">
 <title>Orange Mountain Music logo</title>
 <desc>Recording label company founded by Philip Grass, Kurt Munkacsi, and Don Christensen</desc>
 <g transform="translate(323.965 565.2373)">
  <path d="m-306.6392-453.1135 17.40364-35.36209c0-0.25592-2.65801-1.13462-5.90669-1.95266-8.19216-2.06279-16.4949-8.8703-21.3423-17.49874-3.45493-6.14982-4.08227-8.66572-4.01421-16.09871 0.19205-20.97304 16.37181-37.37282 38.11433-38.63264 14.5019-0.84027 26.08333 5.85334 32.53763 18.80545 6.7444 13.5342 3.35508 32.73951-7.37049 41.76447l-3.91956 3.29809 5.01702 22.2496 17.83798-42.48212 6.58341 48.50645 23.03617-39.37967 11.70897 38.01922 14.31745-30.37643 13.57899 49.27551-8.30049-0.0548-6.21656-19.81873-12.95699 18.39988-2.65778 0.036-9.78017-23.49963-11.72632 24.90378-18.76798 0.0111-3.59347-31.1833-14.30313 28.1378-2.72037 6e-3 -7.54297-32.14338-15.16698 35.07016zm37.77678-73.58853 6.19612 16.17294c6.03315-8.25084 4.53369-21.68839-1.28112-30.39696-4.37672-6.55484-11.19823-11.2796-19.09261-11.22415-10.11639 0.0711-20.88692 8.64047-23.6209 18.79367-1.93686 7.19296-0.46629 13.78477 4.56358 20.45614 4.18014 5.54431 14.50122 11.98216 18.0969 11.28807z" fill="#f5aa3f" stroke-width="1.33874"/>
 </g>
</svg>
