<?xml version="1.0" encoding="UTF-8"?>
<!-- Created with Inkscape by Vulphere (http://www.inkscape.org/) -->
<svg width="50.86068mm" height="11.39365mm" version="1.1" viewBox="0 0 50.86068 11.39365" xmlns="http://www.w3.org/2000/svg">
 <title>Philip Glass wordmark</title>
 <desc>American minimalist composer</desc>
 <g transform="translate(-6.822822 -28.1382)">
  <g fill="#a69f93" stroke-width=".264583">
   <path d="m6.822822 39.21964v0.206375h2.328326v-0.206375h-0.6879145v-3.788821c0.2751658 0.867831 0.8784139 1.455204 1.698619 1.455204 1.111247 0 2.174869-0.952497 2.174869-2.539992s-1.063622-2.529409-2.174869-2.529409c-0.8202052 0-1.423453 0.582082-1.698619 1.444621v-1.593191l-1.640411 0.24382v0.206374h0.6932061v7.101394zm1.640411-4.873609c0-1.428746 0.7143727-2.24366 1.50812-2.24366 0.8202059 0 1.280579 0.825498 1.280579 2.24366s-0.460373 2.254243-1.280579 2.254243c-0.7937475 0-1.50812-0.825498-1.50812-2.254243z"/>
   <path d="m13.1093 36.56219v0.217996h2.328326v-0.217996h-0.687915v-2.291747c0-0.961415 0.486832-2.470613 1.629829-2.470613 0.582081 0 0.645581 0.637217 0.645581 1.576273v3.186087h-0.687915v0.217996h2.312451v-0.217996h-0.693206v-3.353776c0-0.972594-0.243416-1.676886-1.455203-1.676886-1.010706 0-1.529287 0.871981-1.751537 1.738373v-5.131704l-1.640411 0.25755v0.217995h0.693206v7.948448z" stroke-width=".27193"/>
   <path d="m19.50716 29.37188c0 0.349249 0.285749 0.64029 0.634998 0.64029s0.634998-0.291041 0.634998-0.64029-0.285749-0.634998-0.634998-0.634998-0.634998 0.285749-0.634998 0.634998zm-0.428624 7.201935v0.206375h2.333618v-0.206375h-0.693206v-4.661943h-1.640412v0.206374h0.687915v4.455569z"/>
   <path d="m21.88694 36.56489v0.215295h2.751658v-0.215295h-0.89958v-8.362001l-1.852078 0.296752v0.215294h0.904873v7.849955z" stroke-width=".27024"/>
   <path d="m25.64721 29.37188c0 0.349249 0.285749 0.64029 0.634998 0.64029s0.634998-0.291041 0.634998-0.64029-0.285749-0.634998-0.634998-0.634998-0.634998 0.285749-0.634998 0.634998zm-0.428624 7.201935v0.206375h2.333618v-0.206375h-0.693206v-4.661943h-1.640412v0.206374h0.687915v4.455569z"/>
   <path d="m27.47185 39.21964v0.206375h2.328326v-0.206375h-0.687915v-3.788821c0.275166 0.867831 0.878414 1.455204 1.69862 1.455204 1.111246 0 2.174868-0.952497 2.174868-2.539992s-1.063622-2.529409-2.174868-2.529409c-0.820206 0-1.423454 0.582082-1.69862 1.444621v-1.579247l-1.640411 0.229876v0.206374h0.693206v7.101394zm1.640411-4.873609c0-1.428746 0.714373-2.24366 1.50812-2.24366 0.820206 0 1.28058 0.825498 1.28058 2.24366s-0.460374 2.254243-1.28058 2.254243c-0.793747 0-1.50812-0.825498-1.50812-2.254243z"/>
   <path d="m35.7416 35.96184c0 0.492123 0.370415 0.740831 0.978955 0.830789-0.507998 0.05821-1.317621 0.402165-1.317621 1.264704 0 1.000122 1.074205 1.428746 2.349493 1.428746 1.211788 0 2.418284-0.550332 2.418284-1.883828 0-1.434037-0.957789-1.613953-1.751536-1.613953-0.301624 0-0.560915 0.01058-0.931331 0.01058-0.576789 0-1.563845 0.07222-1.563845-0.292903 0-0.322791 1.008222-0.633135 1.420971-0.71251 0.07408 0.01058 0.148166 0.01058 0.216958 0.01058 0.857247 0 1.841494-0.44979 1.841494-1.619245 0-0.343957-0.08467-0.624414-0.22225-0.851955 0.275166-0.402166 0.468856-0.518582 0.749313-0.518582 0 0-0.21331 0.167682-0.227541 0.645578 0 0.349249 0.269875 0.534457 0.534457 0.534457 0.264583 0 0.560915-0.132291 0.560915-0.582082 0-0.402165-0.365124-0.799039-0.883706-0.799039-0.301624 0-0.542938 0.142875-0.849854 0.560915-0.365124-0.428623-0.957789-0.608539-1.502828-0.608539-0.857248 0-1.894411 0.44979-1.894411 1.619244 0 0.862539 0.566206 1.333496 1.206496 1.523996-0.645581 0.153457-1.132413 0.51329-1.132413 1.053038zm0.904872-2.577034c0-0.783164 0.291041-1.41287 0.915456-1.41287 0.624414 0 0.915455 0.629706 0.915455 1.41287 0 0.783165-0.291041 1.412871-0.915455 1.412871-0.836081 0-0.915456-0.629706-0.915456-1.412871zm-0.686824 4.835701c-0.12025-0.418388 0.580991-1.158004 1.009615-1.40142 0.105833 0.0053 0.222249 0.01058 0.343957 0.01058h1.232954c0.687915 0 1.243538 0.359833 1.243538 0.978956 0 0.920747-0.849704 1.413064-1.889119 1.449912-0.957293 0.03394-1.714302-0.249467-1.940945-1.038028z"/>
   <path d="m41.04298 36.56366v0.216523h2.751658v-0.216523h-0.89958v-8.367055l-1.852078 0.255809v0.216521h0.904873v7.894725z" stroke-width=".27101"/>
   <path d="m46.73372 34.06028c-1.502828 0-2.344201 0.57679-2.344201 1.518703 0 0.804331 0.592665 1.307038 1.508121 1.307038 0.793747 0 1.322912-0.455082 1.545161-1.180038v0.253999c0 0.687914 0.423332 0.926039 0.920747 0.926039 0.460374 0 0.79904-0.227541 0.984247-0.518582l-0.100541-0.190499c-0.121708 0.232832-0.380999 0.402165-0.560915 0.402165-0.264582 0-0.317499-0.185208-0.317499-0.41804v-2.603492c0-0.857247-0.243416-1.73037-1.69862-1.73037-0.96308 0-1.910285 0.423332-1.910285 1.079497 0 0.380999 0.139061 0.69702 0.461852 0.69702 0.29104 0 0.603248-0.179917 0.603248-0.603249 0-0.343957-0.160228-0.659977-0.445977-0.675852 0.296332-0.195791 0.735539-0.291041 1.105955-0.291041 0.846664 0 0.957788 0.761997 0.957788 1.523995v0.502707zm-0.507998 2.513533c-0.555623 0-0.793748-0.539748-0.793748-1.068913 0-0.57679 0.370416-1.264704 1.301746-1.264704h0.709081v0.603248c0 1.158871-0.629706 1.730369-1.217079 1.730369z"/>
   <path d="m49.9374 36.88602 0.423332-0.476249c0.338666 0.291041 0.799039 0.476249 1.28058 0.476249 0.989538 0 1.740952-0.629707 1.740952-1.57162 0-1.76212-2.942157-1.386413-2.942157-2.550576 0-0.455081 0.41804-0.730247 0.920747-0.730247 0.873122 0 1.497537 0.634998 1.550453 1.254121h0.211666v-1.47637h-0.185207l-0.391582 0.439206c-0.301624-0.25929-0.719665-0.433915-1.195913-0.433915-1.000122 0-1.444621 0.698498-1.444621 1.375829 0 1.852078 2.804575 1.248829 2.804575 2.577034 0 0.619123-0.560915 0.894288-1.15358 0.894288-0.783164 0-1.471079-0.597956-1.587495-1.322912h-0.211666v1.545162z"/>
   <path d="m54.23864 36.88602 0.423332-0.476249c0.338666 0.291041 0.79904 0.476249 1.28058 0.476249 0.989538 0 1.740952-0.629707 1.740952-1.57162 0-1.76212-2.942157-1.386413-2.942157-2.550576 0-0.455081 0.41804-0.730247 0.920747-0.730247 0.873122 0 1.497537 0.634998 1.550454 1.254121h0.211666v-1.47637h-0.185208l-0.391582 0.439206c-0.301624-0.25929-0.719665-0.433915-1.195913-0.433915-1.000122 0-1.44462 0.698498-1.44462 1.375829 0 1.852078 2.804574 1.248829 2.804574 2.577034 0 0.619123-0.560915 0.894288-1.15358 0.894288-0.783164 0-1.471078-0.597956-1.587495-1.322912h-0.211666v1.545162z"/>
  </g>
 </g>
</svg>