<?xml version="1.0" encoding="UTF-8" standalone="no"?>
<!-- Created with Inkscape (http://www.inkscape.org/) -->
<svg
   xmlns:dc="http://purl.org/dc/elements/1.1/"
   xmlns:cc="http://creativecommons.org/ns#"
   xmlns:rdf="http://www.w3.org/1999/02/22-rdf-syntax-ns#"
   xmlns:svg="http://www.w3.org/2000/svg"
   xmlns="http://www.w3.org/2000/svg"
   xmlns:sodipodi="http://sodipodi.sourceforge.net/DTD/sodipodi-0.dtd"
   xmlns:inkscape="http://www.inkscape.org/namespaces/inkscape"
   version="1.0"
   x="0"
   y="0"
   width="470"
   height="350"
   id="svg2"
   sodipodi:version="0.32"
   inkscape:version="0.46"
   sodipodi:docname="Knot_table blank unknot.svg"
   sodipodi:docbase="/Users/jvl"
   inkscape:output_extension="org.inkscape.output.svg.inkscape"
   style="display:inline">
  <metadata
     id="metadata2224">
    <rdf:RDF>
      <cc:Work
         rdf:about="">
        <dc:format>image/svg+xml</dc:format>
        <dc:type
           rdf:resource="http://purl.org/dc/dcmitype/StillImage" />
      </cc:Work>
    </rdf:RDF>
  </metadata>
  <sodipodi:namedview
     inkscape:window-height="799"
     inkscape:window-width="1211"
     inkscape:pageshadow="2"
     inkscape:pageopacity="0.0"
     guidetolerance="10.0"
     gridtolerance="10.0"
     objecttolerance="10.0"
     borderopacity="1.0"
     bordercolor="#666666"
     pagecolor="#ffffff"
     id="base"
     inkscape:zoom="1.01"
     inkscape:cx="217.52502"
     inkscape:cy="188.43642"
     inkscape:window-x="5"
     inkscape:window-y="-3"
     inkscape:current-layer="layer1"
     showgrid="false" />
  <defs
     id="defs4" />
  <g
     inkscape:groupmode="layer"
     id="layer1"
     inkscape:label="without"
     style="opacity:1;display:inline"
     sodipodi:insensitive="true">
    <rect
       style="fill:#ffffff;fill-opacity:1;fill-rule:evenodd;stroke:none;stroke-width:0.99125367;stroke-miterlimit:4;stroke-dasharray:none;stroke-dashoffset:122.88000439;stroke-opacity:1"
       id="rect3912"
       width="469.00873"
       height="349.00876"
       x="0.72271264"
       y="1.0998124" />
    <path
       id="path3916"
       style="fill:none;fill-rule:evenodd;stroke:#000000;stroke-width:1.29999995;stroke-linecap:butt;stroke-linejoin:miter;stroke-miterlimit:4;stroke-dasharray:none;stroke-opacity:1"
       d="M 166.98013,45.884346 C 175.88784,86.824128 64.539918,102.93273 123.97574,45.64722 M 136.07626,76.658098 C 108.39255,40.885221 151.39701,-20.538887 165.87189,35.665951 M 134.50393,39.808137 C 190.45031,16.079399 197.72763,107.76534 142.72562,82.497182" />
    <path
       id="path3918"
       style="fill:none;fill-rule:evenodd;stroke:#000000;stroke-width:1.29999995;stroke-linecap:butt;stroke-linejoin:miter;stroke-miterlimit:4;stroke-dasharray:none;stroke-opacity:1"
       d="M 217.60914,31.151797 C 198.27999,30.981155 188.37004,62.949255 211.71611,76.61544 C 254.7089,101.7823 262.40667,71.269602 243.92301,60.492247 M 251.47454,85.092769 C 278.37639,99.646355 287.50231,26.257917 225.53211,31.151797 M 236.46611,56.56668 C 195.81565,37.678065 247.52608,-13.953735 251.90275,30.712586 M 250.03853,37.136254 C 249.5168,47.908656 224.28637,75.644144 244.94975,80.810322" />
    <path
       id="path3920"
       style="fill:none;fill-rule:evenodd;stroke:#000000;stroke-width:1.29999995;stroke-linecap:butt;stroke-linejoin:miter;stroke-miterlimit:4;stroke-dasharray:none;stroke-opacity:1"
       d="M 310.46393,65.741393 C 299.96376,2.4607985 320.38469,8.2925068 335.43837,23.996394 M 335.3089,76.149968 C 302.09759,66.186064 271.06015,61.304545 303.64515,41.071152 M 354.65036,53.127841 C 341.94265,81.783865 323.18433,102.11722 312.08355,74.55523 M 340.70214,30.807088 C 358.57708,47.867033 380.98562,83.536386 343.407,78.553742 M 312.14817,37.86612 C 349.02488,18.429376 366.3484,26.562444 358.29453,44.714628" />
    <path
       id="path3922"
       style="fill:none;fill-rule:evenodd;stroke:#000000;stroke-width:1.29999995;stroke-linecap:butt;stroke-linejoin:miter;stroke-miterlimit:4;stroke-dasharray:none;stroke-opacity:1"
       d="M 430.90227,31.483034 C 428.36653,40.029785 404.5921,53.301969 417.99451,61.104118 M 414.52722,80.167514 C 400.89467,67.822543 432.2896,75.179378 422.0035,47.735514 M 425.04404,65.567209 C 431.50241,75.768614 417.28636,88.375685 399.31104,83.351473 C 365.14315,73.657551 387.7623,29.275965 404.78779,28.98403 M 413.16812,27.620965 C 484.1016,22.657287 451.2856,100.17379 420.44995,86.023034 M 416.91138,43.454748 C 392.16951,19.890289 428.83615,0.03660607 431.22299,25.966596" />
    <path
       id="path3924"
       style="fill:none;fill-opacity:1;fill-rule:evenodd;stroke:#000000;stroke-width:1.29999995;marker-start:none;stroke-miterlimit:4;stroke-dasharray:none;stroke-dashoffset:122.88000439;stroke-opacity:1"
       d="M 88.721799,50.424375 C 88.721799,70.849424 72.14495,87.426272 51.719904,87.426272 C 31.294857,87.426272 14.718007,70.849424 14.718007,50.424375 C 14.718007,29.999327 31.294857,13.422475 51.719904,13.422475 C 72.14495,13.422475 88.721799,29.999327 88.721799,50.424375 z" />
    <path
       sodipodi:nodetypes="cccccccccccc"
       id="path3926"
       style="fill:none;fill-rule:evenodd;stroke:#000000;stroke-width:1.29999995;stroke-linecap:butt;stroke-linejoin:miter;stroke-miterlimit:4;stroke-dasharray:none;stroke-opacity:1"
       d="M 70.875025,191.08613 C 101.60168,205.89045 72.530805,154.60502 66.014482,136.60745 M 70.78725,159.24628 C 62.724391,166.53469 49.138955,176.70663 63.799069,186.9392 M 63.848883,128.72828 C 54.43206,102.17125 29.651724,140.90624 29.051075,161.75813 M 37.621309,144.33594 C 97.891658,114.54027 95.625233,143.92628 77.069735,155.18716 M 54.613887,170.58802 C 25.418507,165.77509 -2.2688361,163.58878 27.788062,147.16089 M 28.639353,172.8125 C 29.49672,209.03853 97.917739,187.04514 62.051917,173.49086" />
    <path
       sodipodi:nodetypes="ccccccccccccc"
       id="path3928"
       style="fill:none;fill-rule:evenodd;stroke:#000000;stroke-width:1.29999995;stroke-linecap:butt;stroke-linejoin:miter;stroke-miterlimit:4;stroke-dasharray:none;stroke-opacity:1"
       d="M 120.90488,138.69631 C 127.72126,126.55644 169.60254,106.99868 163.89586,131.71312 M 156.9694,174.18705 C 102.37897,177.76404 98.002999,158.98292 115.95376,144.76741 M 134.02807,152.21034 C 108.03504,137.37581 91.837403,117.00051 133.23149,123.54839 M 121.11466,176.4245 C 112.43007,192.56995 150.11025,200.326 162.26427,186.70981 C 171.67905,172.02882 151.87971,166.34209 142.07846,157.73053 M 160.43007,138.21786 C 150.6166,155.35679 133.73905,150.74718 124.58044,168.6188 M 143.40379,127.07622 C 162.95917,129.62203 200.76766,161.83442 167.36676,172.01881" />
    <path
       id="path3930"
       style="fill:none;fill-rule:evenodd;stroke:#000000;stroke-width:1.29999995;stroke-linecap:butt;stroke-linejoin:miter;stroke-miterlimit:4;stroke-dasharray:none;stroke-opacity:1"
       d="M 241.06662,161.55667 C 255.12126,211.00485 194.61752,196.5954 203.32251,164.74278 M 229.58042,159.42717 C 239.68636,155.41319 249.89972,162.25377 261.09299,156.49718 M 265.53414,152.81484 C 292.76093,117.18655 226.22566,100.45394 240.11496,154.19197 M 244.01946,185.34858 C 268.24863,200.39955 275.00373,140.67982 242.54275,131.32216 M 236.5155,130.21745 C 200.23616,126.30352 178.93381,169.46146 222.28428,162.37307 M 205.82841,157.08385 C 214.86335,138.15665 230.54622,165.16901 239.57833,180.92975" />
    <path
       id="path3932"
       style="fill:none;fill-rule:evenodd;stroke:#000000;stroke-width:1.29999995;stroke-linecap:butt;stroke-linejoin:miter;stroke-miterlimit:4;stroke-dasharray:none;stroke-opacity:1"
       d="M 358.14276,157.66143 C 350.81008,186.41266 352.38997,198.21813 335.23526,192.27581 M 304.46222,172.40786 C 295.59569,133.70724 296.9235,129.69818 311.26003,129.1792 M 321.3225,128.65252 C 331.58229,125.74051 366.21298,126.38887 361.01776,149.23448 M 303.36943,140.90709 C 327.86281,117.35773 332.25244,115.48966 340.34839,125.47622 M 327.56861,186.48227 C 296.96532,175.39735 279.74905,164.91558 296.18195,147.2273 M 350.17256,179.95036 C 326.3542,191.97424 310.06655,200.87627 306.85805,181.3615 M 346.09837,133.37648 C 361.97139,156.16262 370.71331,163.81867 357.14392,176.42069" />
    <path
       id="path3934"
       style="fill:none;fill-rule:evenodd;stroke:#000000;stroke-width:1.29999995;stroke-linecap:butt;stroke-linejoin:miter;stroke-miterlimit:4;stroke-dasharray:none;stroke-opacity:1"
       d="M 391.54226,136.7903 C 359.14394,147.24549 415.76982,158.82867 422.58672,171.55818 M 440.66399,136.27933 C 436.65028,110.27164 411.03686,131.31084 399.87831,134.38362 M 441.58608,170.41527 C 429.69255,175.34413 402.37407,183.18001 422.85644,188.43355 M 422.45964,128.65293 C 433.85464,139.75697 470.42726,153.46793 448.73127,167.20636 M 396.11976,151.29683 C 395.62708,130.3477 397.56556,112.27081 415.31446,123.03735 M 426.55626,179.98156 C 431.72748,208.63338 396.37587,187.63924 396.91366,160.52243 M 430.79554,188.83465 C 456.7011,183.07095 443.7226,164.37894 442.25181,146.30715" />
    <path
       id="path3936"
       style="fill:none;fill-rule:evenodd;stroke:#000000;stroke-width:1.29999995;stroke-linecap:butt;stroke-linejoin:miter;stroke-miterlimit:4;stroke-dasharray:none;stroke-opacity:1"
       d="M 53.452193,288.84076 C 78.968265,321.28347 -10.291825,302.08925 22.696358,256.178 M 65.920287,258.34224 C 52.246844,266.21148 35.600103,274.74742 48.077073,284.99003 M 40.486494,240.24932 C 88.307512,244.49576 94.715391,239.12217 73.871486,253.93127 M 45.780509,266.03009 C 32.836062,259.41414 -7.5355582,237.35714 30.925253,240.24931 M 49.154365,301.26114 C 21.168109,290.67015 80.344721,285.74552 53.009556,269.83795 M 64.060135,246.22865 C 117.69904,316.1406 68.339609,306.62899 60.215162,303.66471 M 27.859955,251.37087 C 37.756603,243.45087 45.232253,220.52169 58.563094,238.5523" />
    <path
       id="path3938"
       style="fill:none;fill-rule:evenodd;stroke:#000000;stroke-width:1.29999995;stroke-linecap:butt;stroke-linejoin:miter;stroke-miterlimit:4;stroke-dasharray:none;stroke-opacity:1"
       d="M 111.97825,269.7205 C 119.87035,297.90949 149.43287,314.46986 161.44603,301.05959 M 165.74407,294.64686 C 192.68289,251.81181 176.11339,227.6411 164.35,240.65576 M 159.67823,245.99971 C 149.79461,257.64255 135.72335,283.73543 130.2149,293.20994 M 127.62293,299.26463 C 120.61808,315.39407 86.807523,298.85172 122.6139,245.24674 M 126.06758,240.26438 C 143.02715,216.17602 171.03147,249.39109 175.37079,268.19875 M 178.17387,274.59197 C 182.97856,289.1012 183.29044,332.60034 144.85519,274.89242 M 141.67837,268.12342 C 122.28976,225.00645 102.04759,237.03635 109.54892,261.52646" />
    <path
       id="path3940"
       style="fill:none;fill-rule:evenodd;stroke:#000000;stroke-width:1.29999995;stroke-linecap:butt;stroke-linejoin:miter;stroke-miterlimit:4;stroke-dasharray:none;stroke-opacity:1"
       d="M 218.87512,296.18336 C 179.76587,286.53604 203.6033,258.1131 228.179,242.11888 M 248.76843,297.85007 C 262.88108,310.90631 203.3303,308.23676 230.03878,287.08709 M 235.1005,235.91866 C 242.59929,226.84214 278.31372,232.12281 238.59425,258.94768 M 255.82941,248.48602 C 283.44295,261.55717 276.76629,293.22471 229.52472,297.8905 M 230.51913,265.56126 C 222.68505,273.82047 230.77802,280.06964 243.61941,291.54238 M 207.68981,252.60118 C 193.83843,243.71778 222.48212,231.01889 249.25946,244.96426 M 238.69066,280.47351 C 255.99883,262.46729 240.53375,267.32649 215.92226,257.30361" />
    <path
       id="path3942"
       style="fill:none;fill-rule:evenodd;stroke:#000000;stroke-width:1.29999995;stroke-linecap:butt;stroke-linejoin:miter;stroke-miterlimit:4;stroke-dasharray:none;stroke-opacity:1"
       d="M 355.52064,268.84917 C 356.88396,281.48585 344.15505,294.32095 329.97186,294.9708 M 315.9809,272.58086 C 318.21494,288.59535 337.97439,321.45982 340.31304,297.10324 M 319.63071,296.57009 C 285.34597,307.99378 287.44607,228.84161 314.15595,262.98516 M 337.27152,287.50753 C 335.71524,273.21193 325.74231,248.12264 345.17946,243.79377 M 356.73721,243.79377 C 376.60278,247.54751 349.53744,276.7937 339.09645,261.91897 M 329.36358,260.8528 C 319.25168,261.93033 309.16154,275.68624 300.7733,265.11755 M 292.25703,256.58799 C 274.62591,229.06843 359.45907,217.63338 354.30405,258.72043" />
    <path
       id="path3944"
       style="fill:none;fill-rule:evenodd;stroke:#000000;stroke-width:1.29999995;stroke-linecap:butt;stroke-linejoin:miter;stroke-miterlimit:4;stroke-dasharray:none;stroke-opacity:1"
       d="M 398.81939,245.17455 C 418.68055,217.78356 436.05477,237.03004 437.64439,262.22886 M 439.86296,271.41196 C 449.26048,325.3932 414.7845,306.88217 413.24009,276.65944 M 427.66082,247.14237 C 422.02543,254.02628 422.92664,269.67684 424.35312,278.29744 C 425.2353,284.4445 426.21654,290.82737 424.88761,296.99335 M 417.67724,301.58493 C 388.86413,316.82614 383.5032,269.23539 393.27297,254.35769 M 410.46689,263.54076 C 395.28489,234.85954 372.96192,252.95412 384.95332,265.50856 M 428.77009,267.47634 C 462.48999,270.38929 463.53273,230.33639 436.53512,241.89491 M 392.16369,269.44416 C 402.3325,273.47695 406.48827,268.93027 419.89584,268.13225" />
    <g
       id="g3948"
       transform="matrix(1.0547468,0,0,1,57.578869,-234.68111)">
      <path
         id="path3950"
         style="font-size:16px"
         transform="translate(64.82812,241.00404)"
         d="M 16.492188,90.033924 C 17.247389,90.195389 17.83593,90.531326 18.257812,91.041737 C 18.684887,91.552158 18.898429,92.182366 18.898438,92.932362 C 18.898429,94.083405 18.502596,94.97403 17.710938,95.604237 C 16.919264,96.234445 15.794265,96.549549 14.335938,96.549549 C 13.84635,96.549549 13.341142,96.50007 12.820312,96.401112 C 12.304685,96.307362 11.770832,96.164133 11.21875,95.971424 L 11.21875,94.447987 C 11.656248,94.703197 12.135415,94.895905 12.65625,95.026112 C 13.17708,95.156321 13.72135,95.221425 14.289062,95.221424 C 15.278641,95.221425 16.031244,95.026113 16.546875,94.635487 C 17.067701,94.244864 17.328118,93.677156 17.328125,92.932362 C 17.328118,92.244866 17.08593,91.708408 16.601562,91.322987 C 16.12239,90.932367 15.45312,90.737055 14.59375,90.737049 L 13.234375,90.737049 L 13.234375,89.440174 L 14.65625,89.440174 C 15.432286,89.440181 16.026036,89.286535 16.4375,88.979237 C 16.848951,88.666744 17.05468,88.218828 17.054688,87.635487 C 17.05468,87.036538 16.841139,86.578205 16.414062,86.260487 C 15.992182,85.93758 15.385411,85.776122 14.59375,85.776112 C 14.161454,85.776122 13.697913,85.822997 13.203125,85.916737 C 12.708331,86.010497 12.16406,86.15633 11.570312,86.354237 L 11.570312,84.947987 C 12.169269,84.781331 12.729164,84.656332 13.25,84.572987 C 13.776038,84.489665 14.270829,84.447998 14.734375,84.447987 C 15.932286,84.447998 16.880201,84.721436 17.578125,85.268299 C 18.276033,85.809976 18.624991,86.544351 18.625,87.471424 C 18.624991,88.117266 18.440096,88.66414 18.070312,89.112049 C 17.700513,89.554764 17.174472,89.862056 16.492188,90.033924" />
      <path
         id="path3952"
         transform="translate(-1,-3)"
         d="M 86.488281,347.3399 L 88.421875,347.3399 L 88.421875,340.66607 L 86.318359,341.08794 L 86.318359,340.00982 L 88.410156,339.58794 L 89.59375,339.58794 L 89.59375,347.3399 L 91.527344,347.3399 L 91.527344,348.33599 L 86.488281,348.33599 L 86.488281,347.3399" />
    </g>
    <g
       id="g3954"
       transform="matrix(1.0547468,0,0,1,153.28466,-234.68111)">
      <path
         id="path3956"
         style="font-size:16px"
         transform="translate(64.82812,241.00404)"
         d="M 16.046875,86.033924 L 12.0625,92.260487 L 16.046875,92.260487 L 16.046875,86.033924 M 15.632812,84.658924 L 17.617188,84.658924 L 17.617188,92.260487 L 19.28125,92.260487 L 19.28125,93.572987 L 17.617188,93.572987 L 17.617188,96.322987 L 16.046875,96.322987 L 16.046875,93.572987 L 10.78125,93.572987 L 10.78125,92.049549 L 15.632812,84.658924" />
      <path
         id="path3958"
         transform="translate(-1,-3)"
         d="M 86.488281,347.3399 L 88.421875,347.3399 L 88.421875,340.66607 L 86.318359,341.08794 L 86.318359,340.00982 L 88.410156,339.58794 L 89.59375,339.58794 L 89.59375,347.3399 L 91.527344,347.3399 L 91.527344,348.33599 L 86.488281,348.33599 L 86.488281,347.3399" />
    </g>
    <g
       id="g3960"
       transform="matrix(1.0547468,0,0,1,242.99046,-234.68111)">
      <path
         id="path3962"
         style="font-size:16px"
         transform="translate(64.82812,241.00404)"
         d="M 11.726562,84.658924 L 17.921875,84.658924 L 17.921875,85.987049 L 13.171875,85.987049 L 13.171875,88.846424 C 13.401038,88.768307 13.630205,88.711015 13.859375,88.674549 C 14.088538,88.63289 14.317704,88.612057 14.546875,88.612049 C 15.848952,88.612057 16.880201,88.968827 17.640625,89.682362 C 18.401033,90.395909 18.781241,91.362054 18.78125,92.580799 C 18.781241,93.83601 18.390617,94.812571 17.609375,95.510487 C 16.828118,96.203195 15.726557,96.549549 14.304688,96.549549 C 13.8151,96.549549 13.315101,96.507882 12.804688,96.424549 C 12.299477,96.341216 11.77604,96.216216 11.234375,96.049549 L 11.234375,94.463612 C 11.703123,94.718822 12.187498,94.908925 12.6875,95.033924 C 13.187497,95.158925 13.716142,95.221425 14.273438,95.221424 C 15.174474,95.221425 15.888015,94.984446 16.414062,94.510487 C 16.940097,94.036531 17.203118,93.393302 17.203125,92.580799 C 17.203118,91.768304 16.940097,91.125075 16.414062,90.651112 C 15.888015,90.177159 15.174474,89.94018 14.273438,89.940174 C 13.851559,89.94018 13.429684,89.987055 13.007812,90.080799 C 12.591143,90.174555 12.16406,90.320388 11.726562,90.518299 L 11.726562,84.658924" />
      <path
         id="path3964"
         transform="translate(-1,-3)"
         d="M 86.488281,347.3399 L 88.421875,347.3399 L 88.421875,340.66607 L 86.318359,341.08794 L 86.318359,340.00982 L 88.410156,339.58794 L 89.59375,339.58794 L 89.59375,347.3399 L 91.527344,347.3399 L 91.527344,348.33599 L 86.488281,348.33599 L 86.488281,347.3399" />
    </g>
    <g
       id="g3966"
       transform="matrix(1.0547468,0,0,1,330.69623,-234.68111)">
      <path
         id="path3968"
         style="font-size:16px"
         transform="translate(64.82812,241.00404)"
         d="M 11.726562,84.658924 L 17.921875,84.658924 L 17.921875,85.987049 L 13.171875,85.987049 L 13.171875,88.846424 C 13.401038,88.768307 13.630205,88.711015 13.859375,88.674549 C 14.088538,88.63289 14.317704,88.612057 14.546875,88.612049 C 15.848952,88.612057 16.880201,88.968827 17.640625,89.682362 C 18.401033,90.395909 18.781241,91.362054 18.78125,92.580799 C 18.781241,93.83601 18.390617,94.812571 17.609375,95.510487 C 16.828118,96.203195 15.726557,96.549549 14.304688,96.549549 C 13.8151,96.549549 13.315101,96.507882 12.804688,96.424549 C 12.299477,96.341216 11.77604,96.216216 11.234375,96.049549 L 11.234375,94.463612 C 11.703123,94.718822 12.187498,94.908925 12.6875,95.033924 C 13.187497,95.158925 13.716142,95.221425 14.273438,95.221424 C 15.174474,95.221425 15.888015,94.984446 16.414062,94.510487 C 16.940097,94.036531 17.203118,93.393302 17.203125,92.580799 C 17.203118,91.768304 16.940097,91.125075 16.414062,90.651112 C 15.888015,90.177159 15.174474,89.94018 14.273438,89.940174 C 13.851559,89.94018 13.429684,89.987055 13.007812,90.080799 C 12.591143,90.174555 12.16406,90.320388 11.726562,90.518299 L 11.726562,84.658924" />
      <path
         id="path3970"
         transform="translate(-1,-3)"
         d="M 87.302734,347.3399 L 91.433594,347.3399 L 91.433594,348.33599 L 85.878906,348.33599 L 85.878906,347.3399 C 86.328124,346.87505 86.939451,346.25201 87.712891,345.47076 C 88.490231,344.6856 88.978512,344.17974 89.177734,343.95318 C 89.556636,343.5274 89.820308,343.16803 89.96875,342.87505 C 90.121089,342.57818 90.19726,342.28717 90.197266,342.00201 C 90.19726,341.53717 90.033198,341.15826 89.705078,340.86529 C 89.380855,340.57233 88.957027,340.42584 88.433594,340.42583 C 88.062497,340.42584 87.669919,340.49029 87.255859,340.61919 C 86.845701,340.74811 86.406249,340.94342 85.9375,341.20513 L 85.9375,340.00982 C 86.414061,339.81842 86.859373,339.67389 87.273438,339.57622 C 87.687497,339.47858 88.066403,339.42975 88.410156,339.42974 C 89.316402,339.42975 90.039057,339.65631 90.578125,340.10943 C 91.117181,340.56256 91.386712,341.16803 91.386719,341.92583 C 91.386712,342.28521 91.318353,342.62701 91.181641,342.95122 C 91.048822,343.27154 90.804682,343.65045 90.449219,344.08794 C 90.351557,344.20123 90.041011,344.52935 89.517578,345.07232 C 88.994137,345.61138 88.255856,346.36724 87.302734,347.3399" />
    </g>
    <g
       id="g3972"
       transform="translate(-29.567202,-126.2167)">
      <path
         id="path3974"
         style="font-size:16px"
         transform="translate(64.82812,241.00404)"
         d="M 15.28125,89.862049 C 14.572912,89.862056 14.010413,90.104243 13.59375,90.588612 C 13.182288,91.072992 12.97656,91.737054 12.976562,92.580799 C 12.97656,93.419344 13.182288,94.083405 13.59375,94.572987 C 14.010413,95.057363 14.572912,95.29955 15.28125,95.299549 C 15.989577,95.29955 16.549473,95.057363 16.960938,94.572987 C 17.377597,94.083405 17.58593,93.419344 17.585938,92.580799 C 17.58593,91.737054 17.377597,91.072992 16.960938,90.588612 C 16.549473,90.104243 15.989577,89.862056 15.28125,89.862049 M 18.414062,84.916737 L 18.414062,86.354237 C 18.018221,86.166747 17.61718,86.023518 17.210938,85.924549 C 16.809889,85.825601 16.411452,85.776122 16.015625,85.776112 C 14.973953,85.776122 14.177079,86.127684 13.625,86.830799 C 13.078122,87.533933 12.765622,88.596432 12.6875,90.018299 C 12.994789,89.565181 13.380205,89.218827 13.84375,88.979237 C 14.307287,88.734452 14.817704,88.612057 15.375,88.612049 C 16.546868,88.612057 17.471347,88.968827 18.148438,89.682362 C 18.83072,90.390701 19.171866,91.356846 19.171875,92.580799 C 19.171866,93.778718 18.8177,94.739655 18.109375,95.463612 C 17.401034,96.18757 16.458327,96.549549 15.28125,96.549549 C 13.932288,96.549549 12.901039,96.033924 12.1875,95.002674 C 11.473957,93.966218 11.117186,92.46622 11.117188,90.502674 C 11.117186,88.658932 11.554686,87.190183 12.429688,86.096424 C 13.304684,84.997477 14.479162,84.447998 15.953125,84.447987 C 16.348952,84.447998 16.747389,84.487061 17.148438,84.565174 C 17.55468,84.643311 17.976555,84.760498 18.414062,84.916737" />
      <path
         id="path3976"
         transform="translate(-1,-3)"
         d="M 86.488281,347.3399 L 88.421875,347.3399 L 88.421875,340.66607 L 86.318359,341.08794 L 86.318359,340.00982 L 88.410156,339.58794 L 89.59375,339.58794 L 89.59375,347.3399 L 91.527344,347.3399 L 91.527344,348.33599 L 86.488281,348.33599 L 86.488281,347.3399" />
    </g>
    <g
       id="g3978"
       transform="translate(60.939979,-126.2167)">
      <path
         id="path3980"
         style="font-size:16px"
         transform="translate(64.82812,241.00404)"
         d="M 15.28125,89.862049 C 14.572912,89.862056 14.010413,90.104243 13.59375,90.588612 C 13.182288,91.072992 12.97656,91.737054 12.976562,92.580799 C 12.97656,93.419344 13.182288,94.083405 13.59375,94.572987 C 14.010413,95.057363 14.572912,95.29955 15.28125,95.299549 C 15.989577,95.29955 16.549473,95.057363 16.960938,94.572987 C 17.377597,94.083405 17.58593,93.419344 17.585938,92.580799 C 17.58593,91.737054 17.377597,91.072992 16.960938,90.588612 C 16.549473,90.104243 15.989577,89.862056 15.28125,89.862049 M 18.414062,84.916737 L 18.414062,86.354237 C 18.018221,86.166747 17.61718,86.023518 17.210938,85.924549 C 16.809889,85.825601 16.411452,85.776122 16.015625,85.776112 C 14.973953,85.776122 14.177079,86.127684 13.625,86.830799 C 13.078122,87.533933 12.765622,88.596432 12.6875,90.018299 C 12.994789,89.565181 13.380205,89.218827 13.84375,88.979237 C 14.307287,88.734452 14.817704,88.612057 15.375,88.612049 C 16.546868,88.612057 17.471347,88.968827 18.148438,89.682362 C 18.83072,90.390701 19.171866,91.356846 19.171875,92.580799 C 19.171866,93.778718 18.8177,94.739655 18.109375,95.463612 C 17.401034,96.18757 16.458327,96.549549 15.28125,96.549549 C 13.932288,96.549549 12.901039,96.033924 12.1875,95.002674 C 11.473957,93.966218 11.117186,92.46622 11.117188,90.502674 C 11.117186,88.658932 11.554686,87.190183 12.429688,86.096424 C 13.304684,84.997477 14.479162,84.447998 15.953125,84.447987 C 16.348952,84.447998 16.747389,84.487061 17.148438,84.565174 C 17.55468,84.643311 17.976555,84.760498 18.414062,84.916737" />
      <path
         id="path3982"
         transform="translate(-1,-3)"
         d="M 87.302734,347.3399 L 91.433594,347.3399 L 91.433594,348.33599 L 85.878906,348.33599 L 85.878906,347.3399 C 86.328124,346.87505 86.939451,346.25201 87.712891,345.47076 C 88.490231,344.6856 88.978512,344.17974 89.177734,343.95318 C 89.556636,343.5274 89.820308,343.16803 89.96875,342.87505 C 90.121089,342.57818 90.19726,342.28717 90.197266,342.00201 C 90.19726,341.53717 90.033198,341.15826 89.705078,340.86529 C 89.380855,340.57233 88.957027,340.42584 88.433594,340.42583 C 88.062497,340.42584 87.669919,340.49029 87.255859,340.61919 C 86.845701,340.74811 86.406249,340.94342 85.9375,341.20513 L 85.9375,340.00982 C 86.414061,339.81842 86.859373,339.67389 87.273438,339.57622 C 87.687497,339.47858 88.066403,339.42975 88.410156,339.42974 C 89.316402,339.42975 90.039057,339.65631 90.578125,340.10943 C 91.117181,340.56256 91.386712,341.16803 91.386719,341.92583 C 91.386712,342.28521 91.318353,342.62701 91.181641,342.95122 C 91.048822,343.27154 90.804682,343.65045 90.449219,344.08794 C 90.351557,344.20123 90.041011,344.52935 89.517578,345.07232 C 88.994137,345.61138 88.255856,346.36724 87.302734,347.3399" />
    </g>
    <g
       id="g3984"
       transform="translate(154.93998,-126.2167)">
      <path
         id="path3986"
         style="font-size:16px"
         transform="translate(64.82812,241.00404)"
         d="M 15.28125,89.862049 C 14.572912,89.862056 14.010413,90.104243 13.59375,90.588612 C 13.182288,91.072992 12.97656,91.737054 12.976562,92.580799 C 12.97656,93.419344 13.182288,94.083405 13.59375,94.572987 C 14.010413,95.057363 14.572912,95.29955 15.28125,95.299549 C 15.989577,95.29955 16.549473,95.057363 16.960938,94.572987 C 17.377597,94.083405 17.58593,93.419344 17.585938,92.580799 C 17.58593,91.737054 17.377597,91.072992 16.960938,90.588612 C 16.549473,90.104243 15.989577,89.862056 15.28125,89.862049 M 18.414062,84.916737 L 18.414062,86.354237 C 18.018221,86.166747 17.61718,86.023518 17.210938,85.924549 C 16.809889,85.825601 16.411452,85.776122 16.015625,85.776112 C 14.973953,85.776122 14.177079,86.127684 13.625,86.830799 C 13.078122,87.533933 12.765622,88.596432 12.6875,90.018299 C 12.994789,89.565181 13.380205,89.218827 13.84375,88.979237 C 14.307287,88.734452 14.817704,88.612057 15.375,88.612049 C 16.546868,88.612057 17.471347,88.968827 18.148438,89.682362 C 18.83072,90.390701 19.171866,91.356846 19.171875,92.580799 C 19.171866,93.778718 18.8177,94.739655 18.109375,95.463612 C 17.401034,96.18757 16.458327,96.549549 15.28125,96.549549 C 13.932288,96.549549 12.901039,96.033924 12.1875,95.002674 C 11.473957,93.966218 11.117186,92.46622 11.117188,90.502674 C 11.117186,88.658932 11.554686,87.190183 12.429688,86.096424 C 13.304684,84.997477 14.479162,84.447998 15.953125,84.447987 C 16.348952,84.447998 16.747389,84.487061 17.148438,84.565174 C 17.55468,84.643311 17.976555,84.760498 18.414062,84.916737" />
      <path
         id="path3988"
         transform="translate(-1,-3)"
         d="M 89.869141,343.61919 C 90.435541,343.74029 90.876947,343.99224 91.193359,344.37505 C 91.513665,344.75787 91.673821,345.23052 91.673828,345.79302 C 91.673821,346.6563 91.376947,347.32427 90.783203,347.79693 C 90.189448,348.26958 89.345699,348.50591 88.251953,348.50591 C 87.884763,348.50591 87.505857,348.4688 87.115234,348.39458 C 86.728514,348.32427 86.328124,348.21685 85.914062,348.07232 L 85.914062,346.92974 C 86.242186,347.12115 86.601561,347.26568 86.992188,347.36333 C 87.38281,347.46099 87.791013,347.50982 88.216797,347.50982 C 88.95898,347.50982 89.523433,347.36333 89.910156,347.07036 C 90.300776,346.7774 90.496088,346.35162 90.496094,345.79302 C 90.496088,345.2774 90.314448,344.87506 89.951172,344.58599 C 89.591792,344.29303 89.08984,344.14654 88.445312,344.14654 L 87.425781,344.14654 L 87.425781,343.17388 L 88.492188,343.17388 C 89.074215,343.17389 89.519527,343.05865 89.828125,342.82818 C 90.136714,342.59381 90.29101,342.25787 90.291016,341.82036 C 90.29101,341.37115 90.130854,341.0274 89.810547,340.78911 C 89.494136,340.54694 89.039058,340.42584 88.445312,340.42583 C 88.121091,340.42584 87.773435,340.461 87.402344,340.5313 C 87.031248,340.60162 86.623045,340.711 86.177734,340.85943 L 86.177734,339.80474 C 86.626951,339.67975 87.046873,339.586 87.4375,339.52349 C 87.832028,339.461 88.203122,339.42975 88.550781,339.42974 C 89.449214,339.42975 90.160151,339.63483 90.683594,340.04497 C 91.207025,340.45123 91.468744,341.00201 91.46875,341.69732 C 91.468744,342.1817 91.330072,342.59186 91.052734,342.92779 C 90.775385,343.25982 90.380854,343.49029 89.869141,343.61919" />
    </g>
    <g
       id="g3990"
       transform="translate(246.93998,-126.42764)">
      <path
         id="path3992"
         style="font-size:16px"
         transform="translate(64.82812,241.00404)"
         d="M 11.3125,84.658924 L 18.8125,84.658924 L 18.8125,85.330799 L 14.578125,96.322987 L 12.929688,96.322987 L 16.914062,85.987049 L 11.3125,85.987049 L 11.3125,84.658924" />
      <path
         id="path3994"
         transform="translate(-1,-3)"
         d="M 86.488281,347.3399 L 88.421875,347.3399 L 88.421875,340.66607 L 86.318359,341.08794 L 86.318359,340.00982 L 88.410156,339.58794 L 89.59375,339.58794 L 89.59375,347.3399 L 91.527344,347.3399 L 91.527344,348.33599 L 86.488281,348.33599 L 86.488281,347.3399" />
    </g>
    <g
       id="g3996"
       transform="translate(339.93998,-126.42764)">
      <path
         id="path3998"
         style="font-size:16px"
         transform="translate(64.82812,241.00404)"
         d="M 11.3125,84.658924 L 18.8125,84.658924 L 18.8125,85.330799 L 14.578125,96.322987 L 12.929688,96.322987 L 16.914062,85.987049 L 11.3125,85.987049 L 11.3125,84.658924" />
      <path
         id="path4000"
         transform="translate(-1,-3)"
         d="M 87.302734,347.3399 L 91.433594,347.3399 L 91.433594,348.33599 L 85.878906,348.33599 L 85.878906,347.3399 C 86.328124,346.87505 86.939451,346.25201 87.712891,345.47076 C 88.490231,344.6856 88.978512,344.17974 89.177734,343.95318 C 89.556636,343.5274 89.820308,343.16803 89.96875,342.87505 C 90.121089,342.57818 90.19726,342.28717 90.197266,342.00201 C 90.19726,341.53717 90.033198,341.15826 89.705078,340.86529 C 89.380855,340.57233 88.957027,340.42584 88.433594,340.42583 C 88.062497,340.42584 87.669919,340.49029 87.255859,340.61919 C 86.845701,340.74811 86.406249,340.94342 85.9375,341.20513 L 85.9375,340.00982 C 86.414061,339.81842 86.859373,339.67389 87.273438,339.57622 C 87.687497,339.47858 88.066403,339.42975 88.410156,339.42974 C 89.316402,339.42975 90.039057,339.65631 90.578125,340.10943 C 91.117181,340.56256 91.386712,341.16803 91.386719,341.92583 C 91.386712,342.28521 91.318353,342.62701 91.181641,342.95122 C 91.048822,343.27154 90.804682,343.65045 90.449219,344.08794 C 90.351557,344.20123 90.041011,344.52935 89.517578,345.07232 C 88.994137,345.61138 88.255856,346.36724 87.302734,347.3399" />
    </g>
    <g
       id="g4002"
       transform="translate(-29.060021,-9.4276421)">
      <path
         id="path4004"
         style="font-size:16px"
         transform="translate(64.82812,241.00404)"
         d="M 11.3125,84.658924 L 18.8125,84.658924 L 18.8125,85.330799 L 14.578125,96.322987 L 12.929688,96.322987 L 16.914062,85.987049 L 11.3125,85.987049 L 11.3125,84.658924" />
      <path
         id="path4006"
         transform="translate(-1,-3)"
         d="M 89.869141,343.61919 C 90.435541,343.74029 90.876947,343.99224 91.193359,344.37505 C 91.513665,344.75787 91.673821,345.23052 91.673828,345.79302 C 91.673821,346.6563 91.376947,347.32427 90.783203,347.79693 C 90.189448,348.26958 89.345699,348.50591 88.251953,348.50591 C 87.884763,348.50591 87.505857,348.4688 87.115234,348.39458 C 86.728514,348.32427 86.328124,348.21685 85.914062,348.07232 L 85.914062,346.92974 C 86.242186,347.12115 86.601561,347.26568 86.992188,347.36333 C 87.38281,347.46099 87.791013,347.50982 88.216797,347.50982 C 88.95898,347.50982 89.523433,347.36333 89.910156,347.07036 C 90.300776,346.7774 90.496088,346.35162 90.496094,345.79302 C 90.496088,345.2774 90.314448,344.87506 89.951172,344.58599 C 89.591792,344.29303 89.08984,344.14654 88.445312,344.14654 L 87.425781,344.14654 L 87.425781,343.17388 L 88.492188,343.17388 C 89.074215,343.17389 89.519527,343.05865 89.828125,342.82818 C 90.136714,342.59381 90.29101,342.25787 90.291016,341.82036 C 90.29101,341.37115 90.130854,341.0274 89.810547,340.78911 C 89.494136,340.54694 89.039058,340.42584 88.445312,340.42583 C 88.121091,340.42584 87.773435,340.461 87.402344,340.5313 C 87.031248,340.60162 86.623045,340.711 86.177734,340.85943 L 86.177734,339.80474 C 86.626951,339.67975 87.046873,339.586 87.4375,339.52349 C 87.832028,339.461 88.203122,339.42975 88.550781,339.42974 C 89.449214,339.42975 90.160151,339.63483 90.683594,340.04497 C 91.207025,340.45123 91.468744,341.00201 91.46875,341.69732 C 91.468744,342.1817 91.330072,342.59186 91.052734,342.92779 C 90.775385,343.25982 90.380854,343.49029 89.869141,343.61919" />
    </g>
    <g
       id="g4008"
       transform="translate(61.939978,-9.4276421)">
      <path
         id="path4010"
         style="font-size:16px"
         transform="translate(64.82812,241.00404)"
         d="M 11.3125,84.658924 L 18.8125,84.658924 L 18.8125,85.330799 L 14.578125,96.322987 L 12.929688,96.322987 L 16.914062,85.987049 L 11.3125,85.987049 L 11.3125,84.658924" />
      <path
         id="path4012"
         transform="translate(-1,-3)"
         d="M 89.535156,340.61919 L 86.546875,345.28911 L 89.535156,345.28911 L 89.535156,340.61919 M 89.224609,339.58794 L 90.712891,339.58794 L 90.712891,345.28911 L 91.960938,345.28911 L 91.960938,346.27349 L 90.712891,346.27349 L 90.712891,348.33599 L 89.535156,348.33599 L 89.535156,346.27349 L 85.585938,346.27349 L 85.585938,345.13091 L 89.224609,339.58794" />
    </g>
    <g
       id="g4014"
       transform="translate(153.93998,-9.4276421)">
      <path
         id="path4016"
         style="font-size:16px"
         transform="translate(64.82812,241.00404)"
         d="M 11.3125,84.658924 L 18.8125,84.658924 L 18.8125,85.330799 L 14.578125,96.322987 L 12.929688,96.322987 L 16.914062,85.987049 L 11.3125,85.987049 L 11.3125,84.658924" />
      <path
         id="path4018"
         transform="translate(-1,-3)"
         d="M 86.294922,339.58794 L 90.941406,339.58794 L 90.941406,340.58404 L 87.378906,340.58404 L 87.378906,342.72857 C 87.550779,342.66998 87.722654,342.62701 87.894531,342.59966 C 88.066403,342.56842 88.238278,342.55279 88.410156,342.55279 C 89.386714,342.55279 90.160151,342.82037 90.730469,343.35552 C 91.300775,343.89068 91.585931,344.61529 91.585938,345.52935 C 91.585931,346.47076 91.292962,347.20318 90.707031,347.72661 C 90.121089,348.24615 89.294918,348.50591 88.228516,348.50591 C 87.861325,348.50591 87.486326,348.47466 87.103516,348.41216 C 86.724608,348.34966 86.33203,348.25591 85.925781,348.13091 L 85.925781,346.94146 C 86.277342,347.13287 86.640623,347.27544 87.015625,347.36919 C 87.390623,347.46294 87.787107,347.50982 88.205078,347.50982 C 88.880855,347.50982 89.416011,347.33208 89.810547,346.97661 C 90.205073,346.62115 90.402338,346.13873 90.402344,345.52935 C 90.402338,344.91998 90.205073,344.43756 89.810547,344.08208 C 89.416011,343.72662 88.880855,343.54889 88.205078,343.54888 C 87.888669,343.54889 87.572263,343.58404 87.255859,343.65435 C 86.943357,343.72467 86.623045,343.83404 86.294922,343.98247 L 86.294922,339.58794" />
    </g>
    <g
       id="g4020"
       transform="translate(243.93998,-9.4276421)">
      <path
         id="path4022"
         style="font-size:16px"
         transform="translate(64.82812,241.00404)"
         d="M 11.3125,84.658924 L 18.8125,84.658924 L 18.8125,85.330799 L 14.578125,96.322987 L 12.929688,96.322987 L 16.914062,85.987049 L 11.3125,85.987049 L 11.3125,84.658924" />
      <path
         id="path4024"
         transform="translate(-1,-3)"
         d="M 88.960938,343.49029 C 88.429684,343.49029 88.007809,343.67193 87.695312,344.03521 C 87.386716,344.39849 87.23242,344.89654 87.232422,345.52935 C 87.23242,346.15826 87.386716,346.6563 87.695312,347.02349 C 88.007809,347.38677 88.429684,347.56841 88.960938,347.56841 C 89.492183,347.56841 89.912104,347.38677 90.220703,347.02349 C 90.533198,346.6563 90.689447,346.15826 90.689453,345.52935 C 90.689447,344.89654 90.533198,344.39849 90.220703,344.03521 C 89.912104,343.67193 89.492183,343.49029 88.960938,343.49029 M 91.310547,339.7813 L 91.310547,340.85943 C 91.013666,340.71881 90.712885,340.61139 90.408203,340.53716 C 90.107417,340.46295 89.808589,340.42584 89.511719,340.42583 C 88.730465,340.42584 88.132809,340.68951 87.71875,341.21685 C 87.308591,341.7442 87.074217,342.54107 87.015625,343.60747 C 87.246092,343.26764 87.535154,343.00787 87.882812,342.82818 C 88.230466,342.64459 88.613278,342.55279 89.03125,342.55279 C 89.910151,342.55279 90.60351,342.82037 91.111328,343.35552 C 91.62304,343.88678 91.878899,344.61138 91.878906,345.52935 C 91.878899,346.42779 91.613275,347.14849 91.082031,347.69146 C 90.550776,348.23443 89.843745,348.50591 88.960938,348.50591 C 87.949216,348.50591 87.175779,348.11919 86.640625,347.34576 C 86.105468,346.56841 85.83789,345.44341 85.837891,343.97076 C 85.83789,342.58795 86.166014,341.48639 86.822266,340.66607 C 87.478513,339.84186 88.359372,339.42975 89.464844,339.42974 C 89.761714,339.42975 90.060542,339.45905 90.361328,339.51763 C 90.66601,339.57623 90.982416,339.66412 91.310547,339.7813" />
    </g>
    <g
       id="g4026"
       transform="translate(336.93998,-9.4276421)">
      <path
         id="path4028"
         style="font-size:16px"
         transform="translate(64.82812,241.00404)"
         d="M 11.3125,84.658924 L 18.8125,84.658924 L 18.8125,85.330799 L 14.578125,96.322987 L 12.929688,96.322987 L 16.914062,85.987049 L 11.3125,85.987049 L 11.3125,84.658924" />
      <path
         id="path4030"
         transform="translate(-1,-3)"
         d="M 85.984375,339.58794 L 91.609375,339.58794 L 91.609375,340.09185 L 88.433594,348.33599 L 87.197266,348.33599 L 90.185547,340.58404 L 85.984375,340.58404 L 85.984375,339.58794" />
    </g>
  </g>
</svg>
