<?xml version="1.0" encoding="UTF-8"?>
<svg
	xmlns:svg="http://www.w3.org/2000/svg"
	xmlns="http://www.w3.org/2000/svg"
	xmlns:xlink="http://www.w3.org/1999/xlink" 
	width="100%" height="100%"
	viewBox="20 0 410 425" x="0" y="0">
 <defs>
  <radialGradient id="g">
	<stop offset="0%" stop-color="blue" stop-opacity="1" />
	<stop offset="90%" stop-color="blue" stop-opacity="0"/>
  </radialGradient>
  <linearGradient id="lg">
	<stop offset="10%" stop-color="#ccf" />
	<stop offset="90%" stop-color="#225" />
  </linearGradient>
  <symbol fill="#222" id="i1">
<circle cx="20" cy="7" r="2"/>
<circle cx="23" cy="90" r="2"/>
<circle cx="11" cy="68" r="2"/>
<circle cx="20" cy="49" r="2"/>
<circle cx="11" cy="98" r="2"/>
<circle cx="27" cy="94" r="2"/>
<circle cx="22" cy="113" r="2"/>
<circle cx="27" cy="135" r="2"/>
<circle cx="17" cy="86" r="2"/>
<circle cx="36" cy="76" r="2"/>
<circle cx="15" cy="19" r="2"/>
<circle cx="30" cy="121" r="2"/>
<circle cx="21" cy="69" r="2"/>
<circle cx="19" cy="130" r="2"/>
<circle cx="28" cy="16" r="2"/>
<circle cx="22" cy="108" r="2"/>
<circle cx="34" cy="116" r="2"/>
<circle cx="22" cy="106" r="2"/>
<circle cx="19" cy="70" r="2"/>
<circle cx="14" cy="68" r="2"/>
  </symbol>
  <symbol fill="#222" id="i2">
<circle cx="18" cy="46" r="2"/>
<circle cx="28" cy="49" r="2"/>
<circle cx="26" cy="11" r="2"/>
<circle cx="16" cy="85" r="2"/>
<circle cx="24" cy="23" r="2"/>
<circle cx="21" cy="101" r="2"/>
<circle cx="13" cy="4" r="2"/>
<circle cx="25" cy="49" r="2"/>
<circle cx="23" cy="36" r="2"/>
<circle cx="32" cy="45" r="2"/>
<circle cx="21" cy="27" r="2"/>
<circle cx="17" cy="109" r="2"/>
<circle cx="13" cy="53" r="2"/>
<circle cx="13" cy="139" r="2"/>
<circle cx="23" cy="19" r="2"/>
<circle cx="18" cy="55" r="2"/>
<circle cx="17" cy="128" r="2"/>
<circle cx="15" cy="60" r="2"/>
<circle cx="15" cy="67" r="2"/>
<circle cx="25" cy="75" r="2"/>
  </symbol>
 </defs>
	<path fill="#bbe" d="M393,109 L212,21 L228,10 L408,97 z"/>
	<path fill="#336" d="M393,254 L393,109 L408,97 L408,243 z"/>
	<path fill="#88c" d="M393,254 L212,166 L212,21 L393,109 z"/>
<use xlink:href="#i1" transform="translate(206,30)" />
<use xlink:href="#i2" transform="matrix(-1 0 0 1 253,33)" />
<use xlink:href="#i1" transform="matrix(-1 0 0 -1 253,178)" />

<use xlink:href="#i1" transform="matrix(1 0 0 -1 241,189)" />
<use xlink:href="#i2" transform="translate(242,44)" />
<use xlink:href="#i1" transform="matrix(-1 0 0 1 289,47)" />
<use xlink:href="#i2" transform="matrix(-1 0 0 -1 291,195)" />

<use xlink:href="#i2" transform="matrix(-1 0 0 -1 318,211)" />
<use xlink:href="#i1" transform="matrix(-1 0 0 -1 320,205)" />
<use xlink:href="#i2" transform="translate(276,63)" />
<use xlink:href="#i2" transform="matrix(1 0 0 -1 278,203)" />

<use xlink:href="#i2" transform="translate(314,76)" />
<use xlink:href="#i1" transform="translate(315,82)" />
<use xlink:href="#i2" transform="matrix(1 0 0 -1 315,222)" />
<use xlink:href="#i1" transform="matrix(-1 0 0 -1 353,228)" />

<use xlink:href="#i2" transform="matrix(-1 0 0 1 390,103)" />
<use xlink:href="#i2" transform="matrix(1 0 0 -1 350,236)" />
<use xlink:href="#i1" transform="matrix(-1 0 0 1 392,96)" />
<g transform="translate(-14,-10)">
<g	style="fill:#aaa">
 <path d="M 220,319 L 184,301 L 184,156 L 220,173 z"/>
 <path d="M 156,289 L  86,255 L  86,110 L 156,144 z"/>
 <path d="M 317,365 L 247,331 L 247,186 L 317,220 z"/>
</g>
<g	style="fill:#ccc">
 <path d="M220,173 L184,156 L199,145 L235,162 z"/>
 <path d="M156,144 L 86,110 L101, 99 L171,133 z"/>
 <path d="M317,220 L247,186 L262,175 L332,209 z"/>
</g>
<g	style="fill:#555">
 <path d="M220,319 L220,173 L235,162 L235,308 z"/>
 <path d="M156,289 L156,144 L171,133 L171,278 z"/>
 <path d="M317,365 L317,220 L332,209 L332,354 z"/>
</g></g>
	<circle fill="url(#g)" cx="50" cy="320" r="6"/>
	<circle fill="url(#g)" cx="64" cy="326" r="7"/>
	<circle fill="url(#g)" cx="53" cy="328" r="5"/>
	<circle fill="url(#g)" cx="58" cy="307" r="8"/>
<g transform="rotate(54.3 28 341.5)">
 <path fill="url(#lg)" d="M16,341.5 h24 v-20 c0,-10 -24,-10 -24,0z" />
 <ellipse fill="#88c" cx="28" cy="341.5" rx="12" ry="7.5"/>
</g>
	<text x="410" y="190" style="font-size:32px;font-style:italic">x</text>
	<path style="stroke:#000;stroke-width:2.5" d="M 204,85 L 394,177" />
	<path fill="#000" d="M 394,170 L 407,183 L 394,183 z" />
</svg>
