<svg xmlns="http://www.w3.org/2000/svg" version="1.0" width="20" height="24" viewBox="0 0 20 24"><path d="m 11.22,1.32 c 2.63,-0.09 4.58,1.24 5.69,2.65 -4.93,-0.65 -5.09,6.69 -0.49,6.79 1.45,0.03 2.96,-1.3 3.01,-3.24 -0,-1.53 -1.67,-7.33 -8.21,-7.33 -6.12,0 -11.04,4.02 -10.95,11.79 -0.06,5.37 2.48,11.64 11.25,11.83 6.39,-0.26 8.28,-7.34 8.23,-7.83 -0.05,-0.57 -0.96,-0.78 -1.12,-0.09 -0.55,2.36 -2.49,6.65 -7.11,6.79 C 6.45,22.36 6.38,18.55 6.42,14.27 V 9.68 C 6.29,3.41 7.59,1.44 11.22,1.32 Z" /></svg>
