<?xml version="1.0" encoding="UTF-8" standalone="no"?>
<!-- Created with Inkscape (http://www.inkscape.org/) -->
<svg
   xmlns:dc="http://purl.org/dc/elements/1.1/"
   xmlns:cc="http://creativecommons.org/ns#"
   xmlns:rdf="http://www.w3.org/1999/02/22-rdf-syntax-ns#"
   xmlns:svg="http://www.w3.org/2000/svg"
   xmlns="http://www.w3.org/2000/svg"
   xmlns:sodipodi="http://sodipodi.sourceforge.net/DTD/sodipodi-0.dtd"
   xmlns:inkscape="http://www.inkscape.org/namespaces/inkscape"
   width="376.96161"
   height="414.34"
   id="svg5709"
   sodipodi:version="0.32"
   inkscape:version="0.46"
   version="1.0"
   sodipodi:docname="Circle_as_Lie_group2.svg"
   inkscape:output_extension="org.inkscape.output.svg.inkscape">
  <defs
     id="defs5711">
    <marker
       inkscape:stockid="Arrow2Mend"
       orient="auto"
       refY="0"
       refX="0"
       id="Arrow2Mend"
       style="overflow:visible">
      <path
         id="path3382"
         style="font-size:12px;fill-rule:evenodd;stroke-width:0.625;stroke-linejoin:round"
         d="M 8.7185878,4.0337352 L -2.2072895,0.016013256 L 8.7185884,-4.0017078 C 6.97309,-1.6296469 6.9831476,1.6157441 8.7185878,4.0337352 z"
         transform="scale(-0.6,-0.6)" />
    </marker>
    <clipPath
       id="ID000000">
      <rect
         x="85.800003"
         y="39"
         width="511.5"
         height="423.79999"
         id="rect11" />
    </clipPath>
    <inkscape:perspective
       sodipodi:type="inkscape:persp3d"
       inkscape:vp_x="0 : 526.18109 : 1"
       inkscape:vp_y="0 : 1000 : 0"
       inkscape:vp_z="744.09448 : 526.18109 : 1"
       inkscape:persp3d-origin="372.04724 : 350.78739 : 1"
       id="perspective5717" />
  </defs>
  <sodipodi:namedview
     id="base"
     pagecolor="#ffffff"
     bordercolor="#666666"
     borderopacity="1.0"
     gridtolerance="10000"
     guidetolerance="10"
     objecttolerance="10"
     inkscape:pageopacity="0.0"
     inkscape:pageshadow="2"
     inkscape:zoom="0.49497475"
     inkscape:cx="233.81186"
     inkscape:cy="48.99196"
     inkscape:document-units="px"
     inkscape:current-layer="layer1"
     showgrid="false"
     inkscape:window-width="640"
     inkscape:window-height="675"
     inkscape:window-x="132"
     inkscape:window-y="66" />
  <metadata
     id="metadata5714">
    <rdf:RDF>
      <cc:Work
         rdf:about="">
        <dc:format>image/svg+xml</dc:format>
        <dc:type
           rdf:resource="http://purl.org/dc/dcmitype/StillImage" />
      </cc:Work>
    </rdf:RDF>
  </metadata>
  <g
     inkscape:label="Layer 1"
     inkscape:groupmode="layer"
     id="layer1"
     transform="translate(-160.09062,-249.19223)">
    <g
       clip-path="url(#ID000000)"
       id="g15"
       transform="matrix(0.8842637,0,0,0.8842637,46.551159,230.85462)">
      <polyline
         points="129.650,250.900 553.450,250.900 "
         id="polyline17"
         style="fill:none;stroke:#000000;stroke-width:2.5;stroke-miterlimit:4;stroke-dasharray:none" />
      <g
         id="g19" />
    </g>
    <g
       clip-path="url(#ID000000)"
       id="g21"
       transform="matrix(0.8842637,0,0,0.8842637,46.551159,230.85462)">
      <polyline
         points="341.550,462.800 341.550,39.000 "
         id="polyline23"
         style="fill:none;stroke:#000000;stroke-width:2.5;stroke-miterlimit:4;stroke-dasharray:none" />
      <g
         id="g25" />
    </g>
    <polyline
       points="504.550,250.900 504.542,249.270 504.517,247.640 504.477,246.011 504.420,244.382 504.346,242.753 504.257,241.126 504.151,239.499 504.029,237.874 503.890,236.250 503.736,234.627 503.565,233.006 503.378,231.387 503.175,229.770 502.955,228.154 502.720,226.542 502.468,224.931 502.200,223.323 501.917,221.718 501.617,220.116 501.301,218.517 500.969,216.921 500.621,215.329 500.258,213.740 499.878,212.154 499.483,210.573 499.072,208.996 498.645,207.423 498.202,205.854 497.744,204.290 497.270,202.730 496.780,201.175 496.275,199.626 495.755,198.081 495.219,196.542 494.668,195.008 494.101,193.479 493.519,191.957 492.922,190.440 492.310,188.929 491.683,187.425 491.041,185.927 490.383,184.435 489.711,182.950 489.025,181.472 488.323,180.001 487.607,178.536 486.876,177.080 486.130,175.630 485.370,174.188 484.596,172.754 483.807,171.327 483.005,169.909 482.188,168.498 481.357,167.096 480.511,165.702 479.653,164.317 478.780,162.940 477.893,161.572 476.993,160.213 476.080,158.863 475.153,157.523 474.212,156.191 473.258,154.869 472.292,153.557 471.312,152.255 470.319,150.962 469.313,149.679 468.294,148.407 467.263,147.144 466.219,145.893 465.163,144.651 464.094,143.420 463.013,142.200 461.920,140.991 460.815,139.793 459.698,138.606 458.569,137.430 457.429,136.265 456.277,135.112 455.113,133.971 453.938,132.841 452.752,131.723 451.555,130.617 450.346,129.523 449.127,128.441 447.897,127.372 446.657,126.314 445.406,125.270 444.144,124.237 442.872,123.218 441.591,122.211 440.299,121.217 438.997,120.236 437.685,119.268 436.364,118.313 435.034,117.372 433.694,116.444 432.345,115.529 430.986,114.628 429.619,113.740 428.243,112.866 426.859,112.006 425.465,111.160 424.064,110.328 422.654,109.510 421.236,108.706 419.810,107.916 418.377,107.141 416.935,106.380 415.486,105.633 414.030,104.901 412.566,104.184 411.096,103.481 409.618,102.793 408.133,102.119 406.642,101.461 405.145,100.818 403.641,100.189 402.131,99.576 400.614,98.978 399.092,98.395 397.564,97.827 396.031,97.274 394.492,96.737 392.948,96.216 391.398,95.709 389.844,95.219 388.285,94.743 386.721,94.284 385.152,93.840 383.580,93.412 382.003,92.999 380.422,92.603 378.837,92.222 377.248,91.857 375.656,91.508 374.060,91.175 372.461,90.858 370.860,90.557 369.255,90.272 367.647,90.003 366.037,89.750 364.424,89.513 362.809,89.292 361.192,89.088 359.573,88.899 357.952,88.727 356.329,88.571 354.705,88.432 353.080,88.308 351.454,88.201 349.826,88.110 348.198,88.036 346.569,87.977 344.940,87.935 343.310,87.909 341.680,87.900 340.050,87.907 338.420,87.930 336.790,87.970 335.161,88.025 333.533,88.097 331.905,88.186 330.279,88.290 328.653,88.411 327.029,88.548 325.406,88.701 323.785,88.871 322.166,89.057 320.548,89.259 318.933,89.477 317.320,89.711 315.709,89.961 314.101,90.228 312.496,90.510 310.893,90.809 309.294,91.123 307.698,91.454 306.105,91.800 304.516,92.163 302.931,92.541 301.349,92.935 299.771,93.345 298.198,93.771 296.629,94.212 295.064,94.669 293.504,95.142 291.949,95.630 290.399,96.134 288.854,96.653 287.314,97.188 285.780,97.738 284.251,98.303 282.728,98.884 281.211,99.480 279.699,100.091 278.194,100.717 276.696,101.358 275.204,102.014 273.718,102.685 272.239,103.370 270.768,104.071 269.303,104.786 267.845,105.516 266.395,106.260 264.953,107.019 263.518,107.792 262.090,108.579 260.671,109.381 259.260,110.197 257.857,111.027 256.463,111.871 255.077,112.729 253.699,113.600 252.331,114.485 250.971,115.384 249.620,116.297 248.279,117.223 246.947,118.162 245.624,119.115 244.311,120.081 243.008,121.060 241.715,122.052 240.431,123.057 239.158,124.074 237.895,125.104 236.642,126.147 235.400,127.202 234.168,128.270 232.947,129.350 231.737,130.442 230.538,131.546 229.350,132.662 228.173,133.790 227.008,134.930 225.854,136.081 224.711,137.244 223.581,138.418 222.462,139.603 221.355,140.800 220.260,142.007 219.177,143.225 218.106,144.454 217.048,145.694 216.002,146.944 214.969,148.205 213.948,149.476 212.941,150.757 211.946,152.048 210.964,153.349 209.995,154.660 209.039,155.980 208.096,157.310 207.167,158.649 206.251,159.998 205.349,161.355 204.460,162.722 203.585,164.097 202.724,165.481 201.877,166.873 201.044,168.274 200.225,169.683 199.420,171.101 198.629,172.526 197.852,173.959 197.090,175.400 196.342,176.848 195.609,178.304 194.890,179.767 194.186,181.237 193.497,182.714 192.823,184.198 192.163,185.689 191.518,187.186 190.889,188.689 190.274,190.199 189.675,191.715 189.090,193.236 188.521,194.764 187.968,196.297 187.429,197.835 186.906,199.379 186.399,200.928 185.907,202.482 185.431,204.041 184.970,205.605 184.525,207.173 184.095,208.745 183.682,210.322 183.284,211.902 182.902,213.487 182.536,215.075 182.185,216.667 181.851,218.263 181.533,219.861 181.230,221.463 180.944,223.067 180.674,224.675 180.419,226.285 180.181,227.897 179.959,229.512 179.753,231.129 179.564,232.748 179.390,234.369 179.233,235.991 179.092,237.615 178.968,239.240 178.859,240.867 178.767,242.494 178.691,244.122 178.631,245.751 178.588,247.381 178.561,249.010 178.550,250.640 178.556,252.270 178.578,253.900 178.616,255.530 178.670,257.159 178.741,258.787 178.828,260.415 178.931,262.042 179.051,263.667 179.187,265.292 179.339,266.915 179.507,268.536 179.691,270.155 179.892,271.773 180.109,273.388 180.342,275.002 180.591,276.613 180.856,278.221 181.137,279.826 181.434,281.429 181.748,283.029 182.077,284.625 182.422,286.218 182.783,287.808 183.160,289.393 183.553,290.975 183.962,292.553 184.386,294.127 184.826,295.696 185.282,297.261 185.754,298.822 186.241,300.377 186.743,301.928 187.261,303.473 187.795,305.014 188.343,306.548 188.908,308.078 189.487,309.601 190.082,311.119 190.691,312.631 191.316,314.136 191.956,315.635 192.611,317.128 193.281,318.614 193.965,320.093 194.664,321.566 195.378,323.031 196.107,324.489 196.850,325.940 197.608,327.383 198.380,328.818 199.166,330.246 199.967,331.666 200.781,333.078 201.610,334.481 202.453,335.877 203.310,337.263 204.180,338.641 205.064,340.011 205.962,341.371 206.874,342.722 207.799,344.064 208.737,345.397 209.689,346.721 210.654,348.035 211.631,349.339 212.622,350.633 213.626,351.917 214.643,353.191 215.672,354.455 216.714,355.709 217.768,356.952 218.835,358.184 219.914,359.406 221.005,360.617 222.108,361.817 223.223,363.006 224.350,364.184 225.489,365.350 226.639,366.505 227.801,367.648 228.974,368.780 230.158,369.900 231.354,371.007 232.560,372.103 233.778,373.187 235.006,374.259 236.245,375.318 237.494,376.365 238.754,377.399 240.024,378.421 241.305,379.430 242.595,380.426 243.895,381.409 245.205,382.379 246.525,383.336 247.854,384.279 249.192,385.209 250.540,386.126 251.897,387.030 253.262,387.919 254.637,388.795 256.020,389.658 257.412,390.506 258.812,391.340 260.221,392.161 261.637,392.967 263.062,393.759 264.495,394.537 265.935,395.300 267.383,396.049 268.838,396.783 270.300,397.503 271.770,398.208 273.246,398.899 274.730,399.574 276.220,400.235 277.716,400.881 279.219,401.512 280.729,402.127 282.244,402.728 283.765,403.314 285.292,403.884 286.825,404.439 288.363,404.978 289.906,405.502 291.455,406.011 293.008,406.504 294.567,406.982 296.130,407.444 297.698,407.890 299.270,408.321 300.846,408.736 302.426,409.135 304.011,409.518 305.599,409.886 307.190,410.237 308.785,410.573 310.384,410.893 311.985,411.196 313.590,411.484 315.197,411.756 316.807,412.011 318.419,412.250 320.034,412.474 321.650,412.681 323.269,412.872 324.890,413.046 326.512,413.205 328.136,413.347 329.761,413.473 331.387,413.583 333.015,413.676 334.643,413.754 336.272,413.815 337.901,413.859 339.531,413.887 341.161,413.900 342.791,413.895 344.420,413.875 346.050,413.838 347.679,413.785 349.308,413.715 350.935,413.630 352.562,413.528 354.188,413.409 355.812,413.275 357.435,413.124 359.057,412.957 360.676,412.774 362.294,412.575 363.910,412.359 365.523,412.127 367.134,411.880 368.743,411.616 370.349,411.336 371.952,411.040 373.551,410.728 375.148,410.400 376.741,410.056 378.331,409.696 379.917,409.320 381.499,408.929 383.078,408.521 384.652,408.098 386.222,407.659 387.787,407.205 389.348,406.734 390.904,406.249 392.455,405.747 394.000,405.231 395.541,404.698 397.076,404.151 398.606,403.588 400.130,403.010 401.648,402.416 403.160,401.808 404.666,401.184 406.166,400.545 407.659,399.892 409.146,399.223 410.626,398.540 412.099,397.842 413.564,397.129 415.023,396.402 416.474,395.660 417.918,394.903 419.354,394.132 420.783,393.347 422.203,392.548 423.616,391.734 425.020,390.906 426.416,390.065 427.803,389.209 429.182,388.340 430.552,387.456 431.913,386.560 433.265,385.649 434.608,384.725 435.942,383.788 437.266,382.838 438.580,381.874 439.885,380.897 441.180,379.907 442.465,378.904 443.740,377.889 445.005,376.861 446.259,375.820 447.503,374.766 448.737,373.701 449.959,372.623 451.171,371.533 452.372,370.430 453.562,369.316 454.740,368.190 455.907,367.052 457.063,365.903 458.207,364.742 459.340,363.570 460.461,362.386 461.570,361.192 462.667,359.986 463.751,358.769 464.824,357.542 465.884,356.304 466.932,355.055 467.967,353.796 468.990,352.527 470.000,351.248 470.997,349.958 471.981,348.659 472.952,347.350 473.910,346.031 474.855,344.702 475.786,343.365 476.704,342.018 477.608,340.662 478.499,339.297 479.376,337.923 480.239,336.540 481.089,335.149 481.924,333.749 482.746,332.342 483.553,330.926 484.346,329.502 485.125,328.070 485.890,326.630 486.640,325.183 487.375,323.728 488.096,322.267 488.803,320.798 489.494,319.322 490.171,317.839 490.833,316.349 491.480,314.853 492.112,313.351 492.729,311.842 493.331,310.327 493.918,308.806 494.489,307.280 495.045,305.748 495.586,304.210 496.111,302.667 496.621,301.119 497.116,299.566 497.594,298.008 498.058,296.445 498.505,294.877 498.937,293.306 499.353,291.730 499.754,290.150 500.138,288.566 500.507,286.978 500.860,285.387 501.197,283.792 501.518,282.194 501.823,280.592 502.112,278.988 502.385,277.381 502.641,275.772 502.882,274.160 503.106,272.545 503.315,270.928 503.507,269.310 503.683,267.689 503.843,266.067 503.986,264.444 504.114,262.819 504.225,261.192 504.320,259.565 504.398,257.937 504.460,256.308 504.506,254.679 504.536,253.049 504.549,251.419 "
       id="polyline29"
       style="fill:#000000;fill-opacity:0;stroke:#007fcc;stroke-width:5.42824507;stroke-miterlimit:4;stroke-dasharray:none;stroke-opacity:1"
       transform="matrix(0.8842637,0,0,0.8842637,47.626359,230.85462)" />
    <path
       sodipodi:type="arc"
       style="fill:#ff0051;fill-opacity:0;fill-rule:evenodd;stroke:#e00000;stroke-width:6.94884443;stroke-linecap:butt;stroke-linejoin:miter;stroke-miterlimit:4;stroke-dasharray:none;stroke-opacity:1"
       id="path2571"
       sodipodi:cx="182.96297"
       sodipodi:cy="232.64551"
       sodipodi:rx="163.7037"
       sodipodi:ry="174.709"
       d="M 344.21641,262.76006 A 163.7037,174.709 0 0 1 179.26173,407.30985"
       transform="matrix(0.8016398,0.3912106,-0.3665674,0.7511427,287.46967,203.75933)"
       sodipodi:start="0.17323495"
       sodipodi:end="1.5934076"
       sodipodi:open="true" />
    <path
       style="fill:none;fill-opacity:0;fill-rule:evenodd;stroke:#000000;stroke-width:4;stroke-linecap:butt;stroke-linejoin:miter;stroke-miterlimit:4;stroke-dasharray:none;stroke-opacity:1"
       d="M 182.48647,652.49596 L 518.50667,652.49596"
       id="path3345" />
    <path
       style="fill:#df0001;fill-opacity:0.96470588;fill-rule:evenodd;stroke:#e00000;stroke-width:6;stroke-linecap:butt;stroke-linejoin:miter;stroke-miterlimit:4;stroke-dasharray:none;stroke-opacity:1"
       d="M 282.66774,652.53213 L 469.54605,652.53213"
       id="path3348"
       sodipodi:nodetypes="cc" />
    <path
       style="fill:none;fill-opacity:0;fill-rule:evenodd;stroke:#000000;stroke-width:3;stroke-linecap:butt;stroke-linejoin:miter;marker-end:none;stroke-miterlimit:4;stroke-dasharray:none;stroke-opacity:1"
       d="M 417.16509,592.84959 L 426.47726,641.47393"
       id="path3350"
       sodipodi:nodetypes="cc" />
    <g
       clip-path="url(#ID000000)"
       id="g33"
       transform="matrix(0.8842637,0,0,0.8842637,44.118259,223.55594)">
      <g
         id="g35">
        <polyline
           points="516.850,71.600 524.850,71.600 "
           id="polyline37"
           style="fill:#fcfcfc;fill-opacity:1;stroke:#fcfcfc;stroke-width:0.5pt;stroke-dasharray:none;stroke-opacity:1" />
        <polyline
           points="520.850,67.600 520.850,75.600 "
           id="polyline39"
           style="fill:#fcfcfc;fill-opacity:1;stroke:#fcfcfc;stroke-width:0.5pt;stroke-dasharray:none;stroke-opacity:1" />
        <polyline
           points="518.050,74.400 523.650,68.800 "
           id="polyline41"
           style="fill:#fcfcfc;fill-opacity:1;stroke:#fcfcfc;stroke-width:0.5pt;stroke-dasharray:none;stroke-opacity:1" />
        <polyline
           points="518.050,68.800 523.650,74.400 "
           id="polyline43"
           style="fill:#fcfcfc;fill-opacity:1;stroke:#fcfcfc;stroke-width:0.5pt;stroke-dasharray:none;stroke-opacity:1" />
      </g>
    </g>
    <g
       clip-path="url(#ID000000)"
       id="g65"
       style="fill:#007fcc;fill-opacity:1;stroke:none"
       transform="matrix(1.3229338,0,0,1.3229338,-44.016421,253.83159)">
      <polyline
         points="396.810,95.878 396.785,95.390 396.712,94.906 396.591,94.433 396.424,93.974 396.211,93.533 395.956,93.117 395.660,92.728 395.327,92.370 394.959,92.047 394.562,91.763 394.138,91.520 393.692,91.320 393.228,91.166 392.751,91.059 392.266,91.000 391.777,90.990 391.290,91.029 390.809,91.116 390.339,91.250 389.885,91.431 389.451,91.657 389.042,91.924 388.662,92.231 388.314,92.575 388.002,92.951 387.730,93.357 387.499,93.788 387.312,94.240 387.172,94.708 387.079,95.188 387.034,95.674 387.038,96.163 387.091,96.649 387.192,97.127 387.340,97.593 387.535,98.042 387.773,98.469 388.052,98.870 388.370,99.241 388.723,99.579 389.109,99.879 389.522,100.140 389.960,100.358 390.417,100.531 390.889,100.658 391.371,100.737 391.859,100.767 392.348,100.749 392.832,100.682 393.307,100.567 393.768,100.405 394.211,100.198 394.631,99.948 395.023,99.657 395.385,99.328 395.712,98.965 396.002,98.571 396.250,98.150 396.455,97.706 396.615,97.244 396.728,96.769 396.793,96.284 "
         id="polyline67"
         style="fill:#007fcc;fill-opacity:1;stroke:none;stroke-width:0.5pt;stroke-dasharray:none;stroke-opacity:1" />
    </g>
    <g
       transform="matrix(0.8842637,0,0,0.8842637,550.21714,436.30267)"
       id="g93">
      <g
         id="g95">
        <text
           x="-46.772488"
           y="62.592594"
           font-size="20.0pt"
           id="text97"
           style="font-size:25px;line-height:125%;text-anchor:middle;fill:#000000;font-family:Helvetica"
           sodipodi:linespacing="125%">
          <tspan
             style="font-size:45px;font-style:normal;font-variant:normal;font-weight:normal;font-stretch:normal;text-align:center;line-height:125%;writing-mode:lr-tb;text-anchor:middle;font-family:Bitstream Vera Sans"
             id="tspan5895">1</tspan>
        </text>
      </g>
    </g>
    <g
       transform="matrix(1.1128368,0,0,1.1128368,473.59742,376.52965)"
       id="g5879">
      <g
         id="g5881">
        <text
           x="25.449736"
           y="5.5026455"
           font-size="20.0pt"
           id="text5883"
           sodipodi:linespacing="125%"
           style="font-size:25px;line-height:125%;text-anchor:middle;fill:#000000;font-family:Helvetica">
          <tspan
             style="font-size:36px;font-style:oblique;font-variant:normal;font-weight:normal;font-stretch:normal;text-align:center;line-height:125%;writing-mode:lr-tb;text-anchor:middle;font-family:Bitstream Vera Sans"
             id="tspan5885">z</tspan>
        </text>
      </g>
    </g>
    <g
       clip-path="url(#ID000000)"
       id="g5887"
       style="fill:#007fcc;fill-opacity:1;stroke:none"
       transform="matrix(1.3229338,0,0,1.3229338,-144.25943,184.19638)">
      <polyline
         points="396.810,95.878 396.785,95.390 396.712,94.906 396.591,94.433 396.424,93.974 396.211,93.533 395.956,93.117 395.660,92.728 395.327,92.370 394.959,92.047 394.562,91.763 394.138,91.520 393.692,91.320 393.228,91.166 392.751,91.059 392.266,91.000 391.777,90.990 391.290,91.029 390.809,91.116 390.339,91.250 389.885,91.431 389.451,91.657 389.042,91.924 388.662,92.231 388.314,92.575 388.002,92.951 387.730,93.357 387.499,93.788 387.312,94.240 387.172,94.708 387.079,95.188 387.034,95.674 387.038,96.163 387.091,96.649 387.192,97.127 387.340,97.593 387.535,98.042 387.773,98.469 388.052,98.870 388.370,99.241 388.723,99.579 389.109,99.879 389.522,100.140 389.960,100.358 390.417,100.531 390.889,100.658 391.371,100.737 391.859,100.767 392.348,100.749 392.832,100.682 393.307,100.567 393.768,100.405 394.211,100.198 394.631,99.948 395.023,99.657 395.385,99.328 395.712,98.965 396.002,98.571 396.250,98.150 396.455,97.706 396.615,97.244 396.728,96.769 396.793,96.284 "
         id="polyline5889"
         style="fill:#007fcc;fill-opacity:1;stroke:none;stroke-width:0.5pt;stroke-dasharray:none;stroke-opacity:1" />
    </g>
    <g
       clip-path="url(#ID000000)"
       id="g5891"
       style="fill:#007fcc;fill-opacity:1;stroke:none"
       transform="matrix(1.3229338,0,0,1.3229338,-231.34131,196.07158)">
      <polyline
         points="396.810,95.878 396.785,95.390 396.712,94.906 396.591,94.433 396.424,93.974 396.211,93.533 395.956,93.117 395.660,92.728 395.327,92.370 394.959,92.047 394.562,91.763 394.138,91.520 393.692,91.320 393.228,91.166 392.751,91.059 392.266,91.000 391.777,90.990 391.290,91.029 390.809,91.116 390.339,91.250 389.885,91.431 389.451,91.657 389.042,91.924 388.662,92.231 388.314,92.575 388.002,92.951 387.730,93.357 387.499,93.788 387.312,94.240 387.172,94.708 387.079,95.188 387.034,95.674 387.038,96.163 387.091,96.649 387.192,97.127 387.340,97.593 387.535,98.042 387.773,98.469 388.052,98.870 388.370,99.241 388.723,99.579 389.109,99.879 389.522,100.140 389.960,100.358 390.417,100.531 390.889,100.658 391.371,100.737 391.859,100.767 392.348,100.749 392.832,100.682 393.307,100.567 393.768,100.405 394.211,100.198 394.631,99.948 395.023,99.657 395.385,99.328 395.712,98.965 396.002,98.571 396.250,98.150 396.455,97.706 396.615,97.244 396.728,96.769 396.793,96.284 "
         id="polyline5893"
         style="fill:#007fcc;fill-opacity:1;stroke:none;stroke-width:0.5pt;stroke-dasharray:none;stroke-opacity:1" />
    </g>
    <g
       clip-path="url(#ID000000)"
       id="g5899"
       style="fill:#007fcc;fill-opacity:1;stroke:none"
       transform="matrix(1.3229338,0,0,1.3229338,-24.786591,325.59446)">
      <polyline
         points="396.810,95.878 396.785,95.390 396.712,94.906 396.591,94.433 396.424,93.974 396.211,93.533 395.956,93.117 395.660,92.728 395.327,92.370 394.959,92.047 394.562,91.763 394.138,91.520 393.692,91.320 393.228,91.166 392.751,91.059 392.266,91.000 391.777,90.990 391.290,91.029 390.809,91.116 390.339,91.250 389.885,91.431 389.451,91.657 389.042,91.924 388.662,92.231 388.314,92.575 388.002,92.951 387.730,93.357 387.499,93.788 387.312,94.240 387.172,94.708 387.079,95.188 387.034,95.674 387.038,96.163 387.091,96.649 387.192,97.127 387.340,97.593 387.535,98.042 387.773,98.469 388.052,98.870 388.370,99.241 388.723,99.579 389.109,99.879 389.522,100.140 389.960,100.358 390.417,100.531 390.889,100.658 391.371,100.737 391.859,100.767 392.348,100.749 392.832,100.682 393.307,100.567 393.768,100.405 394.211,100.198 394.631,99.948 395.023,99.657 395.385,99.328 395.712,98.965 396.002,98.571 396.250,98.150 396.455,97.706 396.615,97.244 396.728,96.769 396.793,96.284 "
         id="polyline5901"
         style="fill:#007fcc;fill-opacity:1;stroke:none;stroke-width:0.5pt;stroke-dasharray:none;stroke-opacity:1" />
    </g>
    <g
       transform="matrix(1.1128368,0,0,1.1128368,351.98444,289.19397)"
       id="g5911">
      <g
         id="g5913">
        <text
           x="25.449736"
           y="5.5026455"
           font-size="20.0pt"
           id="text5915"
           sodipodi:linespacing="125%"
           style="font-size:25px;line-height:125%;text-anchor:middle;fill:#000000;font-family:Helvetica">
          <tspan
             style="font-size:36px;font-style:oblique;font-variant:normal;font-weight:normal;font-stretch:normal;text-align:center;line-height:125%;writing-mode:lr-tb;text-anchor:middle;font-family:Bitstream Vera Sans"
             id="tspan5917">w</tspan>
        </text>
      </g>
    </g>
    <g
       transform="matrix(0.8842637,0,0,0.8842637,-17.094491,189.69234)"
       clip-path="url(#ID000000)"
       id="g5919">
      <g
         id="g5921">
        <polyline
           points="516.850,71.600 524.850,71.600 "
           id="polyline5923"
           style="fill:#fcfcfc;fill-opacity:1;stroke:#fcfcfc;stroke-width:0.5pt;stroke-dasharray:none;stroke-opacity:1" />
        <polyline
           points="520.850,67.600 520.850,75.600 "
           id="polyline5925"
           style="fill:#fcfcfc;fill-opacity:1;stroke:#fcfcfc;stroke-width:0.5pt;stroke-dasharray:none;stroke-opacity:1" />
        <polyline
           points="518.050,74.400 523.650,68.800 "
           id="polyline5927"
           style="fill:#fcfcfc;fill-opacity:1;stroke:#fcfcfc;stroke-width:0.5pt;stroke-dasharray:none;stroke-opacity:1" />
        <polyline
           points="518.050,68.800 523.650,74.400 "
           id="polyline5929"
           style="fill:#fcfcfc;fill-opacity:1;stroke:#fcfcfc;stroke-width:0.5pt;stroke-dasharray:none;stroke-opacity:1" />
      </g>
    </g>
    <g
       transform="matrix(1.1128368,0,0,1.1128368,254.01893,296.55684)"
       id="g5939">
      <g
         id="g5941">
        <text
           x="25.449736"
           y="5.5026455"
           font-size="20.0pt"
           id="text5943"
           sodipodi:linespacing="125%"
           style="font-size:25px;line-height:125%;text-anchor:middle;fill:#000000;font-family:Helvetica">
          <tspan
             style="font-size:36px;font-style:oblique;font-variant:normal;font-weight:normal;font-stretch:normal;text-align:center;line-height:125%;writing-mode:lr-tb;text-anchor:middle;font-family:Bitstream Vera Sans"
             id="tspan5945">zw</tspan>
        </text>
      </g>
    </g>
    <g
       transform="matrix(0.8842637,0,0,0.8842637,411.04187,432.70435)"
       id="g5947">
      <g
         id="g5949">
        <text
           x="-46.772488"
           y="62.592594"
           font-size="20.0pt"
           id="text5951"
           style="font-size:25px;line-height:125%;text-anchor:middle;fill:#000000;font-family:Helvetica"
           sodipodi:linespacing="125%">
          <tspan
             style="font-size:45px;font-style:normal;font-variant:normal;font-weight:normal;font-stretch:normal;text-align:center;line-height:125%;writing-mode:lr-tb;text-anchor:middle;font-family:Bitstream Vera Sans"
             id="tspan5953">0</tspan>
        </text>
      </g>
    </g>
    <g
       clip-path="url(#ID000000)"
       id="g2230"
       style="fill:#000000;fill-opacity:1;stroke:none"
       transform="matrix(0.8830227,0,0,0.8830227,2.6872286,368.07637)">
      <polyline
         points="396.810,95.878 396.785,95.390 396.712,94.906 396.591,94.433 396.424,93.974 396.211,93.533 395.956,93.117 395.660,92.728 395.327,92.370 394.959,92.047 394.562,91.763 394.138,91.520 393.692,91.320 393.228,91.166 392.751,91.059 392.266,91.000 391.777,90.990 391.290,91.029 390.809,91.116 390.339,91.250 389.885,91.431 389.451,91.657 389.042,91.924 388.662,92.231 388.314,92.575 388.002,92.951 387.730,93.357 387.499,93.788 387.312,94.240 387.172,94.708 387.079,95.188 387.034,95.674 387.038,96.163 387.091,96.649 387.192,97.127 387.340,97.593 387.535,98.042 387.773,98.469 388.052,98.870 388.370,99.241 388.723,99.579 389.109,99.879 389.522,100.140 389.960,100.358 390.417,100.531 390.889,100.658 391.371,100.737 391.859,100.767 392.348,100.749 392.832,100.682 393.307,100.567 393.768,100.405 394.211,100.198 394.631,99.948 395.023,99.657 395.385,99.328 395.712,98.965 396.002,98.571 396.250,98.150 396.455,97.706 396.615,97.244 396.728,96.769 396.793,96.284 "
         id="polyline2232"
         style="fill:#000000;fill-opacity:1;stroke:none;stroke-width:0.5pt;stroke-dasharray:none;stroke-opacity:1" />
    </g>
    <g
       id="g5778">
      <path
         d="M 430.44349,624.86696 L 427.03984,645.54279 L 416.23785,627.58752 C 421.02233,629.87023 426.75636,628.75366 430.44349,624.86696 z"
         style="font-size:12px;fill-rule:evenodd;stroke-width:0.625;stroke-linejoin:round"
         id="path5784" />
    </g>
  </g>
</svg>
