<?xml version="1.0" encoding="UTF-8" standalone="no"?>
<!-- Created with Inkscape (http://www.inkscape.org/) -->
<svg
   xmlns:dc="http://purl.org/dc/elements/1.1/"
   xmlns:cc="http://creativecommons.org/ns#"
   xmlns:rdf="http://www.w3.org/1999/02/22-rdf-syntax-ns#"
   xmlns:svg="http://www.w3.org/2000/svg"
   xmlns="http://www.w3.org/2000/svg"
   xmlns:sodipodi="http://sodipodi.sourceforge.net/DTD/sodipodi-0.dtd"
   xmlns:inkscape="http://www.inkscape.org/namespaces/inkscape"
   id="svg4982"
   sodipodi:version="0.32"
   inkscape:version="0.46"
   width="305"
   height="290"
   version="1.0"
   sodipodi:docname="Fundamental group.svg"
   inkscape:output_extension="org.inkscape.output.svg.inkscape">
  <metadata
     id="metadata4987">
    <rdf:RDF>
      <cc:Work
         rdf:about="">
        <dc:format>image/svg+xml</dc:format>
        <dc:type
           rdf:resource="http://purl.org/dc/dcmitype/StillImage" />
      </cc:Work>
    </rdf:RDF>
  </metadata>
  <defs
     id="defs4985">
    <inkscape:perspective
       sodipodi:type="inkscape:persp3d"
       inkscape:vp_x="0 : 526.18109 : 1"
       inkscape:vp_y="0 : 1000 : 0"
       inkscape:vp_z="744.09448 : 526.18109 : 1"
       inkscape:persp3d-origin="372.04724 : 350.78739 : 1"
       id="perspective4989" />
  </defs>
  <sodipodi:namedview
     inkscape:window-height="968"
     inkscape:window-width="1280"
     inkscape:pageshadow="2"
     inkscape:pageopacity="0.0"
     guidetolerance="10.0"
     gridtolerance="10.0"
     objecttolerance="10.0"
     borderopacity="1.0"
     bordercolor="#666666"
     pagecolor="#ffffff"
     id="base"
     showgrid="false"
     inkscape:zoom="1.5931034"
     inkscape:cx="301.09057"
     inkscape:cy="5.8349158"
     inkscape:window-x="-4"
     inkscape:window-y="-4"
     inkscape:current-layer="svg4982" />
  <path
     sodipodi:type="arc"
     style="opacity:1;fill:#0081cd;fill-opacity:1;fill-rule:evenodd;stroke:none;stroke-width:4;stroke-linecap:square;stroke-linejoin:miter;stroke-miterlimit:4;stroke-dasharray:none;stroke-dashoffset:2.60000000000000010;stroke-opacity:1"
     id="path4993"
     sodipodi:cx="225.20088"
     sodipodi:cy="79.113434"
     sodipodi:rx="2.9983304"
     sodipodi:ry="2.9983304"
     d="M 228.19921,79.113434 A 2.9983304,2.9983304 0 1 1 222.20255,79.113434 A 2.9983304,2.9983304 0 1 1 228.19921,79.113434 z"
     transform="translate(-0.2353896,-0.1176948)" />
  <path
     transform="translate(-0.2353896,-0.1176948)"
     d="M 239.69407,79.113434 A 14.493189,14.493189 0 1 1 210.70769,79.113434 A 14.493189,14.493189 0 1 1 239.69407,79.113434 z"
     sodipodi:ry="14.493189"
     sodipodi:rx="14.493189"
     sodipodi:cy="79.113434"
     sodipodi:cx="225.20088"
     id="path5504"
     style="opacity:1;fill:none;fill-opacity:1;fill-rule:evenodd;stroke:#0081cd;stroke-width:1;stroke-linecap:square;stroke-linejoin:miter;stroke-miterlimit:4;stroke-dasharray:none;stroke-dashoffset:2.6;stroke-opacity:1"
     sodipodi:type="arc" />
  <path
     sodipodi:type="arc"
     style="opacity:1;fill:none;fill-opacity:1;fill-rule:evenodd;stroke:#0081cd;stroke-width:1;stroke-linecap:square;stroke-linejoin:miter;stroke-miterlimit:4;stroke-dasharray:none;stroke-dashoffset:2.6;stroke-opacity:1"
     id="path5506"
     sodipodi:cx="225.20088"
     sodipodi:cy="79.113434"
     sodipodi:rx="28.453386"
     sodipodi:ry="28.453386"
     d="M 253.65427,79.113434 A 28.453386,28.453386 0 1 1 196.7475,79.113434 A 28.453386,28.453386 0 1 1 253.65427,79.113434 z"
     transform="translate(-0.2353896,-0.1176948)" />
  <path
     transform="translate(-0.2353896,-0.1176948)"
     d="M 268.68985,79.113434 A 43.488972,43.488972 0 1 1 181.71191,79.113434 A 43.488972,43.488972 0 1 1 268.68985,79.113434 z"
     sodipodi:ry="43.488972"
     sodipodi:rx="43.488972"
     sodipodi:cy="79.113434"
     sodipodi:cx="225.20088"
     id="path5508"
     style="opacity:1;fill:none;fill-opacity:1;fill-rule:evenodd;stroke:#0081cd;stroke-width:1;stroke-linecap:square;stroke-linejoin:miter;stroke-miterlimit:4;stroke-dasharray:none;stroke-dashoffset:2.6;stroke-opacity:1"
     sodipodi:type="arc" />
  <path
     sodipodi:type="arc"
     style="opacity:1;fill:none;fill-opacity:1;fill-rule:evenodd;stroke:#0081cd;stroke-width:1;stroke-linecap:square;stroke-linejoin:miter;stroke-miterlimit:4;stroke-dasharray:none;stroke-dashoffset:2.6;stroke-opacity:1"
     id="path5510"
     sodipodi:cx="225.20088"
     sodipodi:cy="79.113434"
     sodipodi:rx="57.470402"
     sodipodi:ry="57.470402"
     d="M 282.67128,79.113434 A 57.470402,57.470402 0 1 1 167.73048,79.113434 A 57.470402,57.470402 0 1 1 282.67128,79.113434 z"
     transform="translate(-0.2353896,-0.1176948)" />
  <path
     transform="translate(-0.2353896,-0.1176948)"
     d="M 298.26169,79.113434 A 73.060806,73.060806 0 1 1 152.14008,79.113434 A 73.060806,73.060806 0 1 1 298.26169,79.113434 z"
     sodipodi:ry="73.060806"
     sodipodi:rx="73.060806"
     sodipodi:cy="79.113434"
     sodipodi:cx="225.20088"
     id="path5512"
     style="opacity:1;fill:none;fill-opacity:1;fill-rule:evenodd;stroke:#0081cd;stroke-width:4;stroke-linecap:square;stroke-linejoin:miter;stroke-miterlimit:4;stroke-dasharray:none;stroke-dashoffset:2.6;stroke-opacity:1"
     sodipodi:type="arc" />
  <path
     sodipodi:type="arc"
     style="opacity:1;fill:#000000;fill-opacity:1;fill-rule:evenodd;stroke:none;stroke-width:4;stroke-linecap:square;stroke-linejoin:miter;stroke-miterlimit:4;stroke-dasharray:none;stroke-dashoffset:2.6;stroke-opacity:1"
     id="path5514"
     sodipodi:cx="225.20088"
     sodipodi:cy="79.113434"
     sodipodi:rx="4.4408588"
     sodipodi:ry="4.4408588"
     d="M 229.64174,79.113434 A 4.4408588,4.4408588 0 1 1 220.76002,79.113434 A 4.4408588,4.4408588 0 1 1 229.64174,79.113434 z"
     transform="translate(-188.70709,145.36513)" />
  <path
     transform="translate(-180.38481,142.0917)"
     d="M 239.69407,79.113434 A 14.493189,14.493189 0 1 1 210.70769,79.113434 A 14.493189,14.493189 0 1 1 239.69407,79.113434 z"
     sodipodi:ry="14.493189"
     sodipodi:rx="14.493189"
     sodipodi:cy="79.113434"
     sodipodi:cx="225.20088"
     id="path5516"
     style="opacity:1;fill:none;fill-opacity:1;fill-rule:evenodd;stroke:#ff9900;stroke-width:1;stroke-linecap:square;stroke-linejoin:miter;stroke-miterlimit:4;stroke-dasharray:none;stroke-dashoffset:2.60000000000000010;stroke-opacity:1"
     sodipodi:type="arc" />
  <path
     sodipodi:type="arc"
     style="opacity:1;fill:none;fill-opacity:1;fill-rule:evenodd;stroke:#ff9900;stroke-width:1;stroke-linecap:square;stroke-linejoin:miter;stroke-miterlimit:4;stroke-dasharray:none;stroke-dashoffset:2.6;stroke-opacity:1"
     id="path5518"
     sodipodi:cx="225.20088"
     sodipodi:cy="79.113434"
     sodipodi:rx="28.453386"
     sodipodi:ry="28.453386"
     d="M 253.65427,79.113434 A 28.453386,28.453386 0 1 1 196.7475,79.113434 A 28.453386,28.453386 0 1 1 253.65427,79.113434 z"
     transform="translate(-171.63772,138.80086)" />
  <path
     transform="translate(-163.07447,136.32159)"
     d="M 268.68985,79.113434 A 43.488972,43.488972 0 1 1 181.71191,79.113434 A 43.488972,43.488972 0 1 1 268.68985,79.113434 z"
     sodipodi:ry="43.488972"
     sodipodi:rx="43.488972"
     sodipodi:cy="79.113434"
     sodipodi:cx="225.20088"
     id="path5520"
     style="opacity:1;fill:none;fill-opacity:1;fill-rule:evenodd;stroke:#ff9900;stroke-width:1;stroke-linecap:square;stroke-linejoin:miter;stroke-miterlimit:4;stroke-dasharray:none;stroke-dashoffset:2.60000000000000010;stroke-opacity:1"
     sodipodi:type="arc" />
  <path
     sodipodi:type="arc"
     style="opacity:1;fill:none;fill-opacity:1;fill-rule:evenodd;stroke:#ff9900;stroke-width:1;stroke-linecap:square;stroke-linejoin:miter;stroke-miterlimit:4;stroke-dasharray:none;stroke-dashoffset:2.60000000000000010;stroke-opacity:1"
     id="path5522"
     sodipodi:cx="225.20088"
     sodipodi:cy="79.113434"
     sodipodi:rx="57.470402"
     sodipodi:ry="57.470402"
     d="M 282.67128,79.113434 A 57.470402,57.470402 0 1 1 167.73048,79.113434 A 57.470402,57.470402 0 1 1 282.67128,79.113434 z"
     transform="translate(-153.97544,133.43653)" />
  <path
     transform="translate(-145.75086,130.99268)"
     d="M 298.26169,79.113434 A 73.060806,73.060806 0 1 1 152.14008,79.113434 A 73.060806,73.060806 0 1 1 298.26169,79.113434 z"
     sodipodi:ry="73.060806"
     sodipodi:rx="73.060806"
     sodipodi:cy="79.113434"
     sodipodi:cx="225.20088"
     id="path5524"
     style="opacity:1;fill:none;fill-opacity:1;fill-rule:evenodd;stroke:#ff9900;stroke-width:4;stroke-linecap:square;stroke-linejoin:miter;stroke-miterlimit:4;stroke-dasharray:none;stroke-dashoffset:2.60000000000000010;stroke-opacity:1"
     sodipodi:type="arc" />
  <path
     transform="translate(-188.70709,145.36513)"
     d="M 225.86897,79.113434 A 0.66809213,0.66809213 0 1 1 224.53279,79.113434 A 0.66809213,0.66809213 0 1 1 225.86897,79.113434 z"
     sodipodi:ry="0.66809213"
     sodipodi:rx="0.66809213"
     sodipodi:cy="79.113434"
     sodipodi:cx="225.20088"
     id="path5526"
     style="opacity:1;fill:#bb1d46;fill-opacity:1;fill-rule:evenodd;stroke:none;stroke-width:4;stroke-linecap:square;stroke-linejoin:miter;stroke-miterlimit:4;stroke-dasharray:none;stroke-dashoffset:2.6;stroke-opacity:1"
     sodipodi:type="arc" />
</svg>
