<?xml version="1.0" encoding="utf-8"?><svg xmlns="http://www.w3.org/2000/svg" viewBox="0 0 296 76"><style type="text/css">.st0{fill:none;stroke:#000000;stroke-width:1.1626;stroke-linejoin:bevel;stroke-miterlimit:10;} .st1{fill:none;stroke:#000000;stroke-width:0.9301;stroke-linejoin:bevel;stroke-miterlimit:10;} .st2{fill:none;stroke:#000000;stroke-width:0.4313;stroke-linejoin:bevel;stroke-miterlimit:10;} .st3{fill-rule:evenodd;clip-rule:evenodd;} .st4{fill:none;stroke:#000000;stroke-width:0.6976;stroke-linejoin:bevel;stroke-miterlimit:10;}</style><path class="st0" d="M224.9 17v29.8"/><path d="M64.5 67.7c0-.5.2-1.3.5-2.4.3-.9.9-2.4.9-3.1 0-.3-.1-.4-.3-.4-.5 0-1 .5-1.5 1.6-.1.1-.4 1.2-1.1 3.2-.7 2-.9 2.5-2.1 2.5-.5 0-.7-.1-.7-.4 0-.5.2-1.4.7-2.8.4-1 1.2-2.7 1.2-3.5 0-.3-.1-.5-.4-.5-.5 0-.9.4-1.2 1.1-2.2 5.9-2.3 6-3.2 6h-.2c-.6 0-.9-.1-.9-.4 0-.8 2.2-6.5 2.2-6.7 0-.3-.1-.4-.3-.4-.4 0-.8.3-1.3.9-.3.4-1.4 2.5-1.5 2.5-.2 0-.3-.1-.3-.3v-.2c1.3-3.2 2.5-4 4.3-4 .6 0 1 .4 1 1.3 1.1-.9 2-1.3 2.8-1.3.6 0 1 .4 1.1 1.3.9-.8 1.8-1.1 2.5-1.1.9 0 1.3.5 1.3 1.5 0 .8-1.5 5.1-1.5 5.7 0 .4.2.6.5.6.6 0 1.5-2.1 1.7-2.1.1 0 .2.1.2.3v.2c-1.2 2.4-1.5 2.7-2.6 2.7-1.2-.2-1.8-.7-1.8-1.8z"/><path d="M77.5 57.7c0-.4.2-.8.5-1.1l.6-.6c0-.1-.5-.3-.7-.3-1.3.1-1.9 2.5-2.8 5.3h.7c1.5 0 1.7 0 1.7.2 0 0-.1.8-.4.8h-2.2c-3.1 9.1-5.4 12.8-9.6 12.8-1 0-1.9-.9-1.9-1.9 0-.9.6-1.5 1.4-1.5.7 0 1.2.5 1.2 1.2 0 .5-.7 1.4-.7 1.3 0 0 0 .1.1.1.3 0 .7-.2 1.3-.5 1.7-1 2.3-3.7 4.7-11.5h-2c-.2 0-.3-.1-.3-.4 0-.4.1-.6.4-.6h2.3c1.1-3.5 3.5-5.9 6.1-5.9 1.3 0 2.5.7 2.5 1.9 0 1-.6 1.7-1.5 1.7-.8 0-1.4-.4-1.4-1z"/><path class="st1" d="M83 65.4l60 4.9M83 65.4l60-4.7M158.4 70l60.4-4.6M158.4 60.7l60.4 4.7"/><path d="M46.9 28.1v1.4c0 .8.3.9 1.7 1l.1.9h-7.4l.1-.8c.9-.1 1.5-.3 1.7-.6.1-.1.1-.8.1-1.8H37V27c1.8-2.3 3.6-6.6 3.8-9.6h5.1c-.3 1.3-1.3 3-3.2 4.8-2 2-3.2 3.6-3.7 4.7h4v-3.4l3.8-3.3v6.7h1.9v1.3h-1.8zM46.9 43.2v1.4c0 .8.3.9 1.7 1l.1.9h-7.4l.1-.8c.9-.1 1.5-.3 1.7-.6.1-.2.1-.8.1-1.8H37V42c1.8-2.3 3.6-6.6 3.8-9.6h5.1c-.3 1.3-1.3 3-3.2 4.8-2 2-3.2 3.6-3.7 4.7h4v-3.4l3.8-3.3v6.7h1.9v1.3h-1.8z"/><path class="st2" d="M0 46.8h296M0 39.4h296M0 31.9h296M0 24.5h296M0 17h296"/><path d="M17.8 46.6c-6.3 0-12.1-4.7-12.1-10.3 0-4.8 3.4-10 10.2-15.7-.4-1.7-.7-3.5-.7-5.4C15.2 9.9 17 4.9 20 2.5c2.7 3.7 4 7.3 4 10.7 0 4.4-2 8.4-6.5 12.1l1.3 6.3c.7-.1 1.1-.1 1.2-.1 4 0 7.1 3 7.1 7 0 2.9-2.2 5.6-5.4 7.2 0-.2 1.3 5.7 1.3 6.5 0 3.7-3.4 6.3-7.4 6.3-3 0-5.4-2-5.4-5 0-2.2 1.5-3.8 3.7-3.8 1.9 0 3.4 1.9 3.4 3.7 0 2.1-1.7 3.5-4 3.7.9.4 1.8.7 2.8.7 3.2 0 6.2-2.4 6.2-5.4 0-.3 0-.6-.1-.9L21.1 46c-.9.3-1.9.6-3.3.6zm-3.3-7.9c0 1.5.8 2.8 2.4 3.8-2.7-.4-4.5-2.2-4.5-4.7 0-2.9 2.6-5.6 5.7-6.2l-1.3-6c-5.6 4.2-8.5 8.2-8.5 12.2 0 4.4 4.2 8 9 8 1.4 0 2.6-.2 3.6-.8l-2.1-10.2c-2.4.4-4.3 1.9-4.3 3.9zm6.1-32c-2.5 0-4.3 5.5-4.3 10.5 0 1 .1 2 .3 2.9 4-3.6 6.1-6.8 6.1-9.7 0-1.4-.5-2.6-1.5-3.6-.3-.1-.4-.1-.6-.1zm4.1 32.8c0-2.5-1.8-4.9-4.3-4.9-.1 0-.3 0-.7.1l2.1 9.9c1.9-1.4 2.9-3.1 2.9-5.1z"/><path class="st3" d="M119.6 18.9l20.2-1.9v-3.7l-20.2 1.9zM119.6 13.3l20.2-1.8V7.7l-20.2 1.9z"/><path class="st4" d="M70.5 34.5V9.6"/><path d="M60.5 36.9c0-2.7 3.8-5.2 6.8-5.2 2 0 3.4 1 3.4 2.6 0 2.6-3.8 5.2-6.8 5.2-2 0-3.4-.9-3.4-2.6zM77 35.6c0 .7-.6 1.3-1.4 1.3-.7 0-1.4-.7-1.4-1.3 0-.8.7-1.4 1.4-1.4.8 0 1.4.6 1.4 1.4z"/><path class="st4" d="M119.6 38.2V9.8"/><path d="M109.6 40.6c0-2.7 3.8-5.2 6.8-5.2 2 0 3.4 1 3.4 2.6 0 2.6-3.8 5.2-6.8 5.2-2 0-3.4-.9-3.4-2.6zM105.9 29.1v4.3l1.5-.5v2.7l-1.5.5v5.1l1.5-.5v2.7l-1.5.5v4.7h-.7v-4.5l-2.9 1v4.5h-.7v-4.3l-1.5.5v-2.7l1.5-.5v-5.1l-1.6.5v-2.7l1.5-.5v-4.7h.7v4.5l2.9-1v-4.5h.8zm-.7 7.2l-2.9 1v5.1l2.9-1v-5.1z"/><path class="st4" d="M139.8 34.5V8"/><path d="M129.8 36.9c0-2.7 3.8-5.2 6.8-5.2 2 0 3.4 1 3.4 2.6 0 2.6-3.8 5.2-6.8 5.2-2 0-3.4-.9-3.4-2.6z"/><path class="st4" d="M150 29.4v24.8"/><path d="M149.8 29.5c0-2.7 3.8-5.2 6.8-5.2 2 0 3.4 1 3.4 2.6 0 2.6-3.8 5.2-6.8 5.2-2 0-3.4-1-3.4-2.6zM166.3 28.2c0 .7-.6 1.3-1.4 1.3-.7 0-1.4-.7-1.4-1.3 0-.8.7-1.4 1.4-1.4.8 0 1.4.6 1.4 1.4z"/><path class="st4" d="M199.3 33.1V58"/><path d="M199.1 33.2c0-2.7 3.8-5.2 6.8-5.2 2 0 3.4 1 3.4 2.6 0 2.6-3.8 5.2-6.8 5.2-2 0-3.4-1-3.4-2.6zM199.4 50.5c1.3 0 1.4 0 3.2-1.5 1.5-1.2 2.3-1.9 2.6-2.1 1.3-1.4 2-3.1 2-4.9 0-1.3-.5-2.9-1.5-4.9-.1-.2-.2-.4-.2-.6 0-.2 0-.3.1-.3.7 0 1.9 2.9 2.3 4.4.2.8.3 1.6.3 2.4 0 1.5-.5 3.1-1.7 4.5-1.1 1.3-2.3 2.5-3.4 3.8-1.3 1.6-2.4 3.7-3.3 6v.5h-.4v-7.3z"/><path class="st4" d="M246.5 34.5V9.6"/><path d="M236.5 36.9c0-2.7 3.8-5.2 6.8-5.2 2 0 3.4 1 3.4 2.6 0 2.6-3.8 5.2-6.8 5.2-1.9 0-3.4-.9-3.4-2.6z"/></svg>