<?xml version="1.0" encoding="UTF-8"?>
<svg version="1.1" xmlns="http://www.w3.org/2000/svg" xmlns:xlink="http://www.w3.org/1999/xlink" viewBox="0 0 685 520" font-family="DejaVu Sans, sans-serif" font-size="20">

  <title>Anatomy of the Human Ear</title>
  <desc>Translations are included for Bangla, Basque, Chinese, Danish, English, Esperanto, Farsi, Finnish, French, German, Hebrew, Malayalam, Nepali, Punjabi, Russian, Spanish, Tamil, Telugu, Thai, Turkish. Other languages can easily be added.</desc>

  <defs>
    <linearGradient id="a" gradientTransform="matrix(1 0 0 .92286 100.75 41.36)" x1="629" x2="762.64" xlink:href="#b" y1="239.68" y2="241.42"/>
    <linearGradient id="b" gradientUnits="userSpaceOnUse">
      <stop offset="0" stop-color="#edd400"/>
      <stop offset="1" stop-color="#edd400" stop-opacity="0"/>
    </linearGradient>
    <linearGradient id="c" gradientTransform="matrix(1 0 0 .92286 104.25 14.36)" x1="629" x2="762.64" xlink:href="#b" y1="239.68" y2="241.42"/>
    <linearGradient id="d" gradientTransform="matrix(.83187 0 0 1 90.49 3.55)" gradientUnits="userSpaceOnUse" x1="321.73" x2="188.9" y1="313.69" y2="316.36">
      <stop offset="0" stop-color="#9fe859"/>
      <stop offset="1" stop-color="#9fe859" stop-opacity="0"/>
    </linearGradient>
    <linearGradient id="e" gradientTransform="matrix(.93767 0 0 1 35.6 3.55)" gradientUnits="userSpaceOnUse" x1="371.43" x2="187.14" y1="254.86" y2="-13.71">
      <stop offset="0" stop-color="#fce94f"/>
      <stop offset="1" stop-color="#fce94f" stop-opacity="0"/>
    </linearGradient>
    
    <marker id="dot" refX="5" refY="5" markerWidth="10" markerHeight="10">
      <circle cx="5" cy="5" r="1.5"/>
    </marker>
  </defs>
  
 <path d="m164.36 16.603 21.799-.066 6.363 69.682 17.383 85.499c13.881 14.188 27.273 28.908 51.226 32.107 34.201 1.035 68.129 2.008 107.82-6.278 0 0 29.038-13.183 42.599-21.492 14.395-8.82 24.106-27.842 40.859-29.927 10.706-1.332 13.583-4.948 32.896-.46 23.551 5.473 30.65 24.955 51.601 36.486 29.995 16.508 54.341 16.555 85.428 21.763l6.197 33.222 3.96 39.551.461 53.971-86.491 75.459-30.654 29.478-52.624 56.596-4.728-108.06s-49.09-27.647-62.404-17.307c-20.247 15.724-27.473 71.833-27.473 71.833-23.333 3.682-15.595 3.163-29.4-22.835l-25.203-48.752-31.604-6.006-14.287 4.294-16.174-11.916c-.154-3.542.046-28.196-.108-15.662 17.533-8.732 35.42-6.09 52.954-6.57l62.719 12.97 22.712-2.999-39.399-75.859c-17.104-9.864-38.945-7.094-58.568-10.241l-52.062 7.756-29.213-2.592-22.479-27.528c-9.149-19.531-4.741-44.314-6.279-65.537z" fill="#fea" fill-rule="evenodd" opacity=".5"/>
 <path d="m137.37 16.85h25.456l17.621 152.67 3.43 52.515 27.823 37.618 27.745 2.933c19.896 1.791 84.328-15.754 104.02-1.513 27.475 19.871 32.976 65.571 46.896 83.068 4.406 5.538-48.181.468-36.724.182 10.256-.256-65.089-20.161-101.92-2.724-.274 9.991 3.591 16.75 13.148 22.403 6.487 3.838 5.524-2.319 16.063-2.816 14.345-.678 20.223-1.579 34.643 8.154 9.923 6.698 32.697 61.971 43.192 69.931 15.938 12.089 19.064-46.363 30.628-65.411 4.474-7.37 8.135-11.974 21.276-10.169 6.522.896 41.731 6.961 47.495 23.66 12.727 36.873.02 97.415 3.767 100.43l-310.42 1.414-8.109-50.238c-5.359 26.558-11.822 47.755-30.163 11.259l-5.548-44.225c-1.536-6.366-4.736-11.901.892-21.85l19.7-5.232 7.848-36.786-3.634-67.668c-8.688-5.876-9.799-16.298-9.146-27.779l16.859-3.374c14.236-11.374 2.547-23.455-4.95-34.122l-24.142-4.246-4.433-14.819 11.832-21.25c-1.536-15.158-7.743-24.087-14.875-31.783 4.793-30.438 27.825-30.199 42.477-7.019z" fill="#ffd5d5" fill-rule="evenodd" opacity=".5"/>
 <path d="m536.15 230.63c6.319-8.401 47.536 1.044 92.907 6.5l8.608 39.322c-28.252 2.834-39.624 7.769-67.212 20.107-16.512 5.098-31.207-7.211-36.305-23.509-1.364-4.36-2.166-7.071-2.699-8.918-1.794-6.212 7.626-10.876 7.509-10.856-.897-.206-8.444-2.404-7.963-8.598.652-8.389 1.725-11.259 5.155-14.048z" fill="#dee3db"/>
 <path d="m633.28 275.83c-28.252 2.834-35.823 8.833-63.411 21.172-11.267 3.807-29.438-2.376-37.17-27.459-.944-3.064-1.303-4.992-1.33-7.129-.046-3.649 3.39-6.522 7.524-9.1-4.168-1.441-7.222-3.38-7.926-7.907-1.076-6.921 3.85-16.244 7.971-16.972 24.867-4.077 52.886 5.982 88.774 8.073" fill="none" stroke="#000" stroke-width="3.1"/>
 <path d="m834.51 257.29c-22.55 2.742-45.729 1.047-68.317-1.363-4.561-.487-10.278-.049-14.8-1.553-2.903-2.661-5.8-3.557-9.052-1.093-6.948-.78-14.607-1.383-21.626-2.133-18.259-1.032-36.519-3.006-54.778-2.327l-.177 4.22c20.813-1.889 59.591 1.801 71.667 2.914-13.917-.532-54.47.297-68.386 6.987l.72 3.848c9.313-3.19 19.147-5.02 28.927-6.146 12.825-1.478 30.287-.464 44.2.168 2.601 2.063 4.948 1.872 6.936.419 6.682-.095 13.108-.364 16.156.234 23.283 4.571 47.108 6.576 70.282 2.576" fill="url(#a)" transform="translate(-204.09 -13.67)"/>
 <path d="m630.88 244c-22.55 2.742-47.557-.366-70.145-2.777-4.561-.487-8.665.021-13.187-1.483-2.903-2.661-5.8-3.557-9.052-1.093-6.948-.78-14.607-.47-21.626-1.221-18.259-1.032-36.519-3.006-54.778-2.327l-.177 4.22c20.813-1.889 59.591 1.889 71.667 3.002-13.917-.532-54.47.21-68.386 6.9l.72 3.848c9.313-3.19 19.147-5.02 28.927-6.146 12.825-1.478 29.787-.627 43.7.005 2.601 3.256 6.198 3.34 8.185.419 6.682-.095 11.131-.35 14.223-.054 23.283 2.229 47.791 6.694 70.965 3.527" fill="none" stroke="#00610f" stroke-width="2.5"/>
 <path d="m847.99 274.45-10-9.75c-31.665-1.381-84.58 8.651-107.83 10.911-11.171-1.426-14.896-6.93-25.146-8.247-5.89-.701-19.748-.579-24.768 2.58s-8.986 7.888-11.51 13.255c-4.595 9.772-4.264 21.686.75 31.25 5.085 9.7 14.78 16.758 25.5 19 12.323 2.577 25.196-.958 36.5-6.5 7.723-3.787 15.011-8.538 21.275-14.432 4.874-4.586 9.228-9.771 14.657-13.683s11.849-6.171 18.318-7.885z" fill="url(#c)" transform="translate(-204.09 -13.67)"/>
 <path d="m632.67 251.07-105.23 8.629c-17.577 3.483-10.046-4.001-25.33-5.965-5.89-.701-21.163-.579-26.183 2.58s-8.986 7.888-11.51 13.255c-4.595 9.772-4.264 21.686.75 31.25 5.085 9.7 14.78 16.758 25.5 19 12.323 2.577 25.196-.958 36.5-6.5 7.723-3.787 15.011-8.538 21.275-14.432 4.874-4.586 9.228-9.771 14.657-13.683s11.849-6.171 18.318-7.885l52.343-12.672" fill="none" stroke="#00610f" stroke-width="2.5"/>
 <g stroke="#330080">
  <g stroke-width="2.8">
   <path d="m394.85 239.4c6.608 17.574 37.481 9.233 41.373 4.366.343 10.748 2.635 21.442.11 19.755-3.809-2.546-40.869 3.645-47.969-22.124-12.216-44.338 33.276-59.655 59.144-47.857 1.134 5.945-2.846 6.05-.359 7.707-32.285-8.258-61.195 3.995-52.299 38.153z" fill="#ad7fa8"/>
   <path d="m467.78 151.66c-13.502.178-26.267 34.768-19.272 69.295-30.707-5.952-50.086-.136-50.987 8.993-.699 7.088 9.789 12.283 31.139 12.317-16.406 13.271-9.755 17.425-10.28 25.031-1.022 14.815 3.661 33.746 13.21 41.958 9.978 8.583 24.436 17.889 41.975 22.583 64.689 17.311 93.243-53.563 37.691-84.833-8.85-4.982-24.128-4.618-32.751.485-1.117-8.031-3.911-6.896-9.116-10.725 2.874-8.249 8.091-20.784 9.307-26.76 3.962-19.469.449-54.575-10.916-58.344zm-1.911 11.588c3.627.049 5.25 18.105 5.158 24.927-.354 6.706-1.112 15.331-2.605 21.897-3.722-7.341-12.377-11.339-12.416-13.706.535.722.213 5.639 1.574 9.927.755 2.735 4.149 4.176 8.782 14.464-.953 2.903-1.583 4.354-3.494 8.11-1.296-2.947 1.346-4.671-.22-7.808-1.737-3.481-6.667-16.344-6.712-21.619-.156-17.782 5.419-36.252 9.933-36.192zm-37.822 63.594c5.413.171 15.346 1.867 15.606 4.828.384 4.381-13.105 2.748-18.286 2.694-5.96-.061-18.69-2.636-18.668-3.911.053-3.025 15.03-3.81 21.348-3.611z" fill="#ad7fa8"/>
   <path d="m478.54 247.29-8.324 5.579c-5.341 3.58-10.641 9.97-10.458 19.329.09 4.57 1.574 9.196 3.828 13.58" fill="none"/>
   <path d="m493.63 316.61c7.005.027 18.388-3.54 23.13-8.35 5.918-5.999 6.398-19.018 4.005-26.106-3.446-10.21-8.582-15.98-21.472-19.598-8.797-2.47-19.424-.429-26.43 6.085-3.813 3.545-9.804 14.278-9.814 20.649-.009 5.606 2.496 15.16 8.297 20.481 6.03 5.531 11.662 8.702 20.087 6.899 5.094-1.09 11.198-1.806 13.974-10.133 2.189-6.565 4.35-15.279-3.93-22.421-5.628-4.854-14.197-6.646-19.534-.662-2.449 2.746-3.74 7.483-2.572 11.363.746 2.48 3.776 5.376 5.948 5.899 3.305.797 5.469-1.469 8.078-4.872" fill="none"/>
   <path d="m445.13 265.24c-1.362 5.675-11.791 2.305-16.098.958-5.683-1.777-10.068-6.896-8.631-9.451 1.561-2.776 7.72-2.43 14.112.343 5.412 2.348 11.312 5.259 10.617 8.15z" fill="#743dda"/>
   <path d="m438.74 291.03c.105 2.096.053 2.837-.498 3.726-1.783 2.874-5.006 2.834-7.532 1.146-3.809-2.546-6.221-6.358-6.221-10.705.009-4.407 3.936-6.561 8.207-4.457 3.851 1.888 5.825 5.77 6.044 10.29z" fill="#ad7fa8"/>
  </g>
  <path d="m606.85-117.37c2.161 2.339 3.814 4.806 8.322 6.551 5.702 2.688 11.404 1.621 17.105 0 3.018-1.113 3.814-2.976 5.085-4.679m-18.412-10.402c3.853-1.046 7.617-4.136 11.469-1.757 2.999 1.248 4.07 2.496 4.623 3.743m-13.442-5.226 5.215-10.052" fill="none" stroke-width="3" transform="matrix(.94456 0 0 .92149 -142.92 349.77)"/>
 </g>
 <path d="m365.39 208.3c-13.323-1.529-28.114 5.212-31.237 9.215-4.198 5.379 6.826 23.981 8.905 30.744 1.228 3.996 2.974 7.92 3.971 15.125 0 0 21.281 18.016 35.928 28.875 12.279 34.949 15.712 38.26 14.5 46.619 14.647 13.132 45.367 12.209 45.367 12.209s18.94 10.103 48.234 39.145 41.795 57.578 41.795 57.578l24.179-16.509-22.536-23.897s-45.09-37.056-63.893-58.842c-17.445-20.213-20.268-20.391-23.662-31.121-2.74-8.663-3.716-16.811-2.6-29.816.41-4.778-1.162-5.624-.957-13.16.218-5.3-23.643-18.897-27.997-16.075l-17.029-8.363c-6.183-3.037-5.827-10.939-10.859-17.973-3.124-4.367-2.336-17.462-4.559-20.303-2.277-2.91-13.761-3.016-17.55-3.451zm60.498 73.594c2.492-2.324 6.709-2.502 10.658 2.647 4.456 5.81 4.681 9.94 1.389 12.756-3.613 3.09-8.012 2.18-12.995-4.603-3.814-5.192-2.034-8.242.948-10.8z" fill="#ff8080" opacity=".5"/>
 <path d="m364.46 207.67c-11.435.201-25.251 4.715-29.186 7.986-4.985 4.145 2.267 20.588 5.59 26.289 2.708 4.646 5.571 16.499 7.221 21.5 1.75.716 2.977 1.162 5.16 2.002.588-3.238 1.431-10.929-.367-17.574-2.83-10.458-9.772-22.733-6.824-24.68 5.572-3.68 19.324-8.388 29.734-.166 8.068 6.373 3.998 19.725 14.252 29.17 16.286 17.583 28.739 22.114 26.166 36.369-.793 14.367 24.76 45.69 32.287 45.088 0 0 16.465 17.88 45.76 46.922 29.294 29.042 49.599 54.241 49.599 54.241l11.01-9.088-24.95-19.141s-41.025-39.354-59.827-61.14c-17.445-20.213-20.237-24.524-25.041-34.702-5.482-11.613-2.382-21.652-1.578-39.481.05-1.209 2.447-6.125.728-7.935-3.555-3.744-12.738-6.824-18.9-8.765-3.913-1.232-9.121.659-10.956.71l-15.797-8.065c-5.541-4.093-6.97-12.905-10.506-16.945-3.536-4.041-1.862-9.377-5.127-19.428-3.472-1.263-14.636-3.235-18.448-3.167zm61.58 74.218c3.183-2.929 8.458-.216 11.395 4.297 3.316 5.096 4.001 8.455.546 11.426-3.496 3.005-9.487-.83-12.316-4.27-3.42-4.16-2.833-8.5.375-11.453z" fill="#ff4848" opacity=".5"/>
 <path d="m186.05 15.798 447.01-1.604-1.265 224.25c-3.509-1.577-7.057-10.946-7.591-18.023-.435-5.763-4.058-15.51-5.121-15.822-40.922-12.018-73.654-3.999-111.92-43.929 0 0-16.616-11.781-28.71-14.452-12.317-2.72-20.1-9.103-37.037 7.767-8.502 8.469-13.542 9.741-22.458 16.22-49.657 36.087-108.68 38.697-169.72 29.989-42.191-11.445-39.105-42.58-45.972-65.25-13.378-44.169-11.029-65.936-17.216-119.146z" fill="#dee3db"/>
 <path d="m50.79 41.933c17.243-17.173 24.293-26.013 45.433-13.958 26.122 14.895 47.707 105.28 47.707 105.28 16.872-22.856-44.322-33.215-42.57 3.748.098 2.076 7.487 3.133 7.973 7.621.813 7.517 13.64 17.077 7.507 25.784-7.549 10.716-8.212 23.091-6.731 31.096.319 1.725 4.174 1.436 4.493 3.384 33.326 6.245 27.971 4.274 31.908 21.592 4.352 19.146-1.407 17.642-22.463 18.183-3.272 8.159 2.109 27.358 10.76 29.173 26.052 5.846 87.326-.721 92.861.354-6.397 27.702-3.706 30.744-11.958 63.879-2.243 4.695-50.862 5.373-77.736 1.013-8.864 5.373-8.623 21.878-7.582 27.075 5.07 25.308-21.413 11.944-23.441 22.236-8.053 40.88 11.249 71.548 19.941 79.481 6.776 6.184 11.9-15.153 18.078-19.645 7.313 21.709-9.37 47.731-30.061 43.669-21.606-4.241-36.865-10.7-44.15-22.487-11.561-18.705-7.658-47.594-12.189-77.816-4.107-27.394-22.965-69.266-24.069-100.05-.662-18.459 3.184-36.192.252-54.657-9.648-60.765-30.356-148.75 16.037-194.955z" fill="#e9c6af"/>
 <path d="m132 274.19c30.025-1.977 48.312 2.101 92.985 0l-1.768 22.981c-14.889-3.117-55.854-3.74-86.974-6.187z" fill="#dca480" fill-rule="evenodd"/>
 <path d="m260.76 289.25c-10.579-.981-13.41.68-23.214.879-.165 11.549 8.804 33.239 1.908 39.527 4.832 7.861 7.787 18.164 13.122 25.361 17.797 8.673 41.518 4.425 59.794-1.099 22.944-5.299 37.446-12.184 60.082-14.051 25.916-2.935 48.668-1.839 73.154 9.318 7.822 2.797 37.184 13.133 47.082 9.522-13.398-6.595-30.203-19.154-35.009-28.181-6.054-11.746-11.882-37.779-9.14-44.707-18.086-5.622-33.382-8.461-51.935-5-21.024-2.471-43.444 5.389-63.913 8.366-26.618 3.871-50.559 2.046-71.931.065z" fill="url(#d)" transform="translate(-96.2 -15.75)"/>
 <path d="m388.73 227.15-8.132.53m-12.218-5.39 4.549-12.496m-20.439 11.176-1.487-11.192" fill="none" stroke="#867979" stroke-width="5"/>
 <path d="m353.97 269.55c-7.307 1.699-9.206 14.671-8.155 23.102 3.468 13.869 11.234 26.583 21.111 34.306 12.771 9.74 24.732 15.38 33.024 12.301-4.098-13.41-8.864-26.34-14.264-39.971-14.501-13.174-25.422-24.749-31.716-29.738z" fill="#4e9a06"/>
 <path d="m276.51 33.904c3.13 31.711 5.003 87.822 15.033 130.62 8.208 35.025 24.214 60.811 51.644 63.704 60.948 6.429 73.134-4.194 73.76 4.816.67 9.643 14.855 27.394 11.506 30.966-3.349 3.571-46.348-3.251-85.864 1.749s-34.414-3.615-42.9-15.95c-8.76-12.734-8.684-60.627-13.54-80.828-4.405-18.325-17.865-134.44-17.865-134.44z" fill="url(#e)" transform="translate(-96.2 -15.75)"/>
 <path d="m259.72 344.87c17.998 1.296 41.004-9.083 89.091 3.86-4.821 7.321-22.359 12.575-58.536 7.711-16.097-2.164-14.301-1.865-19.023-3.764-12.314-4.954-11.711-7.628-11.532-7.807z" fill="#fce94f"/>
 <path d="m354.26 249.43-9.968 1.686" fill="none" stroke="#867979" stroke-width="5"/>
 <path d="m348.07 221.61c-6.106 3.814-4.135 13.491-.063 18.156 4.179 4.397 4.837 15.002 4.969 26.687 4.73 5.277 28.706 28.732 33.244 32.043.634.948 4.182-2.53 1.747-4.707-8.791-7.862-21.626-26.318-22.741-30.711 1.106-9.749-1.072-3.336 6.813-17.687 3.841-7.937-3.667-16.312-9.094-20.719-4.024-4.762-10.364-4.378-14.875-3.062z" fill="#e6e6e6" stroke="#000" stroke-width="2.5"/>
 <path d="m353.56 270.15c11.45-8.733 33.008 7.551 39.756 17.678 20.39 30.605 14.094 46.307 6.612 51.244l-14.236-39.596z" fill="#4e9a06" opacity=".48"/>
 <path d="m186.91 16.732s2.459 49.676 5.973 74.259c1.256 8.784 8.885 42.57 8.885 42.57 6.022 29.151 3.36 39.433 21.5 53 27.648 20.677 57.099 18.211 90.5 16.75 56.111-2.454 78.618-13.076 104.27-31.568 11.795-8.504 17.352-14.835 28.293-22.111 8.609-5.725 29.792-6.783 39.5-3 17.892 6.972 15.346 6.052 26.439 18.929 9.112 10.577 20.736 13.811 30.151 19.676 22.746 14.17 52.608 11.71 76.69 17.684 4.597 1.14 5.904 27.483 7.659 32.64" fill="none" stroke="#000" stroke-width="3.5"/>
 <path d="m162.97 349.26c2.985.224 11.753.565 16.547 1.395 5.615.972 7.329 5.73 3.859 8.105-9.766 6.684-19.095-4.549-30.979 3.602-6.007 4.12.913 20.114-5.005 25.688-5.734 5.401-16.221 5.264-20.627 9.842-6.111 6.35-13.902 5.071-14.646 4.894-1.823-.436-5.649-2.84-.323-10.912 4.161-6.306 17.957-4.099 23.373-10.018 4.459-4.873 2.605-18.992 2.173-20.153-1.646-4.439 2.342-13.23 7.015-12.8 4.21.378 14.745.068 18.613.357zm-5.24-91.73c-4.25.935 17.947-2.95 27.903-.215 6.1 1.675 2.919 4.781.011 5.819-3.434 1.225-42.548 5.071-45.221 3.24-4.033-2.763-6.591-6.232-6.591-10.948 2.484-3.368.883-3.5 5.679-1.968 6.437 2.055 15.837-7.645 19.258-17.822 1.883-5.602.673-22.517-5.435-28.268-8.219-7.74-10.466-8.271-22.86-11.197-1.692-.399-10.512 1.073-11.177-2.729-.585-3.341-2.042-9.481 1.536-12.929 8.754-8.435 4.943-15.268 4.332-17.507-3.333-12.221-13.033-26.159-12.166-32.858 1.283-9.911 15.583-8.067 22.297 6.199 2.655 5.642 3.059 40.563 9.578 47.422 9.058 9.531 15.834 14.568 18.033 19.012 7.583 15.327 8.818 54.751-5.177 54.749z" fill="#9393ac"/>
 <path d="m164.38 17.526 11.424 106.69 5.024 35.743c2.784 20.237-.011 44.189 5.877 65.467 4.739 17.127 19.197 24.083 31.751 39.667 20.638 1.041 27.795-2.615 48.65-4.585 9.534-.9 24.846-5.664 36.738-4.642 17.541 1.507 27.065 2.348 32.431 4.203 6.181 2.136 11.583 4.485 16.548 7.23m45.757 74.771-24.749 3.536c-8.093 1.156-46.986-14.93-74.953-14.496-21.175.329-29.581-.87-47.73 6.718l1.061 16.263c6.323 5.758 15.014 11.74 19.092 10.607 10.06-2.797 5.693-4.419 18.385-2.828 7.907.991 15.769 5.06 22.627 5.657 17.839 8.592 11.067 8.726 16.642 16.741" fill="none" stroke="#000" stroke-width="4"/>
 <g fill-rule="evenodd">
  <path d="m129.09 354.95c.461.028 3.505 13.646 1.675 18.532-4.362 11.652-19.988 12.485-17.301 12.154-10.264-1.724-9.533 6.395-19.502-13.357-4.268-8.457-2.067-16.68-4.531-21.872-1.659-3.496-6.854-4.811-10.283-9.189-5.814-7.425-10.718-18.783-13.715-27.534-17.856-52.128 5.414-110.77 48.164-106.87 8.816.804 13.162-.318 22.363 4.984 10.903 6.283 7.379 11.141 10.925 16.891 5.284 8.568-9.51-10.11-41.137-3.422-13.2 2.792-27.436 30.898-28.44 40.835-2.396 23.709 7.744 45.761 14.83 55.739 8.564 12.06 22.782 32.258 36.952 33.109z" fill="#dca480"/>
  <path d="m225.92 275.96s52.764-9.677 78.622-10.388c14.889-.41 48.48 3.286 48.48 3.286-4.634 5.973-9.974 15.21-7.187 24.519 0 0-31.216-7.367-46.265-7.687-12.608-.267-32.087 4.286-47.681 6.78-15.53 2.483-30.03 4.674-30.03 4.674z" fill="#bcd35f"/>
  <path d="m88.33 25.265 17.171 15.874c18.454 29.248 31.786 50.668 35.891 77.743l-16-6.938-7.88-12zm-16.44 181.04c9.128-18.956 16.97-49.537 31.113-66.822 5.043 6.14 11.06 11.631 10.692 21.377-7.536 6.58-28.709 29.391-37.084 40.88-1.636 2.244-3.219 1.744-4.721 4.565z" fill="#dca480"/>
 </g>
 <g fill="none">
  <path d="m137.43 17.06c10.444 92.704 5.322 115.06 7.322 118.62-1.501-8.666-.944-16.654-9.336-20.086-8.425-3.445-19.1-3.968-26.768 2.343-4.104 3.378-5.213 11.926-5.896 18.743.836 3.221 6.206 5.5 8.524 10.532 1.96 4.256 5.608 11.783 5.417 24.07-.04 2.575-6.8 8.867-7.816 11.188-2.468 5.639-1.776 15.594 1.125 18.96 1.668 3.558 5.755 4.001 8.728 4.259 2.894.252 5.444.566 6.698.882 15.375 3.868 12.988 4.588 17.237 10.164 5.328 6.991 4.533 19.569 3.207 22.146-3.848 7.598-8.905 5.54-22.499 6.359-2.35 14.95 3.163 21.039 10.55 29.793 26.105-1.799 45.575 1.111 65.479.5 21.914-.673 52.444-4.145 74.114-7.475 14.704-2.259 30.673-5.876 44.75-3 10.646 2.175 34.441 4.07 34.441 4.07m38.803 73.292c.154.385-38.459-8.806-56.243-13.86-26.675-7.581-53.788-6.825-79.879-.257-17.378 4.498-24.593 6.529-42.118 10.411-32.336 6.421-45.65 4.758-69.896 1.488-16.73-.542-10.555 33.982-13.543 37.663-3.298 4.063-15.413 6.899-19.658 7.314-1.865.183-4.596 3.28-5.211 4.595-1.618 3.461-3.355 6.362 1.755 17.064.933 1.954 1.154 9.092 1.287 11.688 1.224 23.755 8.118 56.77 24.405 49.642 9.658-3.856 12.03-29.642 12.03-29.642l7 51.5" stroke="#000" stroke-width="4"/>
  <g stroke="#a00">
   <path d="m141.61 117.94s-5.967-16.224-12.824-32.018c-8.062-18.568-14.837-38.82-29.663-53.569-6.659-6.624-16.163-8.081-25.456-6.718-14.371 2.109-34.729 31.338-43.404 51.619-7.041 16.46-6.811 48.576-7.425 66.468-1.169 34.059 15.474 105.36 15.474 105.36" stroke-width="4"/>
   <path d="m145.39 461.19s.171 12.654-3.119 17.534c-5.17 7.67-12.91 10.49-21.772 11.819-13.032 1.954-27.869-1.286-38.855-8.898-12.482-8.649-17.457-23.792-19.781-39.3-2.395-15.987-7.38-85.725-10.519-86.195" stroke-width="4.09"/>
   <path d="m93.81 104.48c-17.176 19.753-34.804 69.481-38.891 90.863-3.945 19.888-11.048 33.875-15.203 51.619-2.987 12.755-6.188 25.802-5.657 38.891.598 14.74 3.694 29.065 8.132 43.134 5.28 16.739 3.095 14.027 10.253 30.052 4.815 10.78 16.263 27.577 16.263 27.577" stroke-width="4"/>
  </g>
 </g>
 <path d="m69.23 66.089 8.971-1.588c13.084 18.242 7.726 16.157 12.432 29.372-7.578-7.201-6.014-11.381-19.653-.4-16.404 15.022-16.573 76.199-17.742 100.92-.342 7.23-4.212 15.274-5.007 18.549-4.088-9.74-3.467-37.062-3.486-61.655-.03-37.686 3.358-75.526 24.485-85.198z" fill="#dca480" fill-rule="evenodd"/>
 <g fill="none">
  <path d="m102.3 129.94s-4.117-20.648-10.253-36.416c-4.018-10.326-6.62-30.051-17.678-30.759-6.688-.429-17.182 9.971-17.182 9.971-11.148 16.611-13.358 48.777-12.87 77.003" stroke="#a00" stroke-width="4"/>
  <path d="m64.12 245.55s-5.303 20.245-5.303 28.991c0 9.718 2.828 28.638 2.828 28.638m-.005 3.531c4.523 8.936 9.313 33.103 22.113 40.234 11.309 6.3 5.577 22.861 13.286 30.619 2.65 2.523 4.938 9.677 8.564 9.182m27.809-47.508s7.85-18.955 10.783-26.163c2.79-6.855-1.061-22.627-1.061-22.627m-22.451-44.548s-7.943.288-11.314 2.121c-5.712 3.107-13.435 14.142-13.435 14.142m17.453-56.654s-14.481 4.27-20.238 6.536c-12.52 4.928-22.699 19.97-26.206 26.784" stroke="#a00" stroke-width="2.2"/>
  <path d="m525.26 437.56s-11.368-17.799-17-25.5c-11.756-16.077-23.506-28.89-38.5-42-9.035-7.899-17.141-18.126-28.5-22-7.414-2.529-15.788 1.375-23.5 0-6.645-1.185-19-7-19-7m23.39-76.19 8.839 4.95m123.39 156.5s-11.965-11.578-22.117-22.257c-12.543-13.193-26.12-22.135-39-35-9.785-9.773-21.004-20.997-30.006-31.495-6.788-7.916-16.934-15.677-19.132-25.871-.912-4.228-1.429-15.81-2.498-25.045-2.304-6.232-3.143-10.921-3.625-14.725m-19.512-12.272c-14.343.414-28.207-15.639-31.692-31.759l-3.29-15.215c-.817-3.78-18.221-6.838-31.942-3.801-7.377 1.633-16.313 4.21-18.274 10.026-1.676 4.967 4.509 14.608 8.656 25.637.978 2.601 6.381 19.822 6.381 19.822" stroke="#800000" stroke-width="4"/>
 </g>
 <g stroke="#000">
  <path d="m425.35 255.46a20.427 20.427 0 0 0 -1.049.006l-1.526.469c-1.862 1.068-3.458 2.639-3.977 4.591-2.669 3.07-6.847 6.499-4.36 11.109-.094.718-6.429 4.199-6.344 4.824.134.993.914 3.412 3.071 3.469 2.599-1.166 5.572-3.197 6.509-3.933 1.584.669 3.674.732 6.551 1.538 5.628.513 10.587-3.282 14.765-6.45 1.892-1.398 5.925.856 7.301-2.25 1.674-4.114-3.416-7.179-6.46-8.905-4.878-2.479-9.293-4.371-14.481-4.468zm.953 4.496c.094.005.191.02.297.04 1.198.22-.29-.454-.29.053 0 .286 1.253-.158.279-.033-1.288.169-2.606 2.38-2.277 2.703 1.673 1.757 6.98 5.502 10.201 5.49 1.94-2.062 2.747-3.117 3.739-3.192.315.493.806.405-.361.273-.854-.096-1.033.073-1.826 1.212-1.7 2.417-5.466 4.759-9.12 5.669-2.351.588-5.908.544-7.33-.095-1.505-.668-1.97-1.278-1.933-2.541.038-1.601 1.139-3.128 4.74-6.573 2.693-2.584 3.224-3.041 3.881-3.006z" fill="#e6e6e6" stroke-width="2.35"/>
  <path d="m364.02 224.68c13.033 11.52 8.554 21.221 5.031 25.781-.796 5.8 6.707 1.685 7.563 7.094.709 2.764-1.851 5.988 1.665 7.884 4.951 2.222 8.322 4.715 11.21 8.866 5.451 2.957 9.647 7.011 12.972 8.161 2.266.573 6.814.736 8.776-1.323 1.376-3.683-2.46-5.19-4.123-6.432-4.49 1.928-11.783-5.417-15.531-12.938-2.157-4.923-9.136-6.604-8.125-12.875.642-14.652 1.242-17.873-6.063-25.719-4.454-3.589-15.804-1.414-13.375 1.501z" fill="#e6e6e6" stroke-width="2.5"/>
  <path d="m553.76 415.56s-9.812-9.922-23-23.5c-15.545-16.005-50-44.5-50-44.5m35.5 87.5s-16.154-21.428-25-31.5c-10.422-11.867-20.52-24.32-33-34-5.309-4.118-11.1-7.954-17.5-10-9.573-3.06-20.215-.706-30-3-9.192-2.155-26.5-10-26.5-10" fill="none" stroke-width="4"/>
 </g>
 <path d="m222.42 345.92c6.791-2.137-.419 12.11-20.068 15.792-8.51 1.595-14.31-2.82-15.318-7.073-1.022-4.313 3.775-7.128 7.901-6.082 3.717.942 24.147-1.587 27.485-2.637z" fill="#9393ac"/>
 <path d="m233.68 342.97c8.641-1.978 13.108-3.058 13.798 2.118.447 3.357-4.025 7.92-11.61 10.045-3.961 1.11-12.439 3.366-13.353-3.069-.763-5.365 1.825-6.955 11.165-9.094z" fill="#9393ac"/>
 <g fill="none">
  <path d="m400.61 338.3c-10.597 7.826-31.658-5.299-43.694-21.262-13.305-17.646-13.993-38.413-4.542-46.506 9.407-8.055 25.27-2.154 40.956 17.916 13.61 17.412 17.672 42.177 7.28 49.852z" stroke="#008000" stroke-dasharray="1.99,3.97" stroke-width="1.99"/>
  <path d="m399.49 337.69c-7.756 8.738-29.963-4.437-42.34-20.601-13.209-17.251-14.602-38.691-4.305-47.34" stroke="#008000" stroke-width="1.99"/>
  <path d="m408.82 260.77c-11.405-1.532-22.577-6.964-43.605-1.264" stroke="#867979" stroke-width="5"/>
 </g>
 <g fill-rule="evenodd">
  <path d="m385.78 215.88 3.404-6.687c-.914 9.224.367 44.913 28.704 45.655 1.894.05 5.538 1.611 7.407 1.925 8.131 1.366 11.784 6.414 16.766 11.838 1.73 1.884 2.042 5.178 2.558 7.799.495 2.511 1.449 4.426 1.651 8.431.384 7.61.801 16.728 3.383 22.833 8.059 19.054 24.664 38.068 33.075 39.833l-4.723 4.351c-11.492-15.04-29.873-32.319-33.008-44.643l-1.853-21.916-2.034-7.282c-.739-1.538-.93-6.473-2.055-7.597-4.7-4.696-7.373-9.709-15.102-10.699-2.189-.28-4.295-2.04-6.768-1.776-27.012-3.951-29.187-26.15-31.405-42.065z" fill="#fff" opacity=".68"/>
  <g fill="#8f5c8a">
   <path d="m456.69 319.44c41.932 21.1 78.987-.677 83.146-30.73-1.707 6.467.74 30.952-32.646 42.98-18.427 2.535-32.61-.766-45.75-5.5z"/>
   <path d="m519.8 285.67c.363 6.239 1.965 12.478-2.121 18.717-3.551 6.195-8.917 6.944-13.783 9.192 10.958-7.329 13.787-12.297 15.904-27.909zm-13.86 8.14c-.379 7.294 1.652 15.706-9.75 20.125-8.204 3.179-14.6 2.527-23.159-4.5 21.484 4.419 27.061 2.408 32.909-15.625z"/>
  </g>
 </g>
 <path d="m512.87 188.92c15.909 12.786 50.015 17.072 99.416 22.788-1.348 2.047.566 7.003-4.206 8.018-12.3 2.616-39.88-1.535-65.945-5.039-16.097-2.164-28.713 12.116-33.434 10.217-12.314-4.954 4.206-48.066 4.169-35.984z" fill="#fce94f"/>
 <path d="m153.77 18.694 9.082-.43c3.292 53.031 10.87 107.57 9.808 161.69h-5.358c-8.375-50.746-8.591-108.8-13.532-161.26z" fill="#de8787" fill-rule="evenodd"/>
 <path d="m167.18 179.45 5.592-1.076-2.151 55.709-3.872-29.253z" fill="#ac9393" fill-rule="evenodd"/>
  
 <g stroke="#000" stroke-linejoin="round" fill="none" stroke-width="2">
  <path id="Nervo_coclear" d="m571.97 268.85 20.332 33.547" marker-start="url(#dot)"/>
  <switch id="heliko" marker-start="url(#dot)">
   <path id="ta_நத்தைச்சுருள்" systemLanguage="ta" d="m511.73 321.21 37.298 34.157" marker-start="url(#dot)"/>
   <path id="heliko_default" d="m511.73 321.21 40.603 42.971" marker-start="url(#dot)"/>
  </switch>
  <switch id="Kanaloj_semicirculares" marker-start="url(#dot)">
   <path id="de_Kanaloj_semicirculares" systemLanguage="de" d="m476.31 182.2 37.693-91.569" marker-start="url(#dot)"/>
   <path id="Kanaloj_semicirculares_default" d="m476.31 182.2 87.693-71.569" marker-start="url(#dot)"/>
  </switch>
  <switch id="Nordo_Vestibular" marker-start="url(#dot)">
   <path id="Nordo_Vestibular_default" systemLanguage="de" d="m564.14 243.77 16.718-89.548" marker-start="url(#dot)"/>
   <path id="de_Nordo_Vestibular" d="m564.14 243.77 16.718-59.548" marker-start="url(#dot)"/>
  </switch>
  <switch id="piedingo_kunigitaj_al_ovala_fenestro" marker-end="url(#dot)">
   <path id="ta_ஸ்டேபிள்ஸ்_ஓவல்_சாளரத்துடன்_இணைக்கப்பட்டுள்ளது" systemLanguage="ta, te, th" d="m474.77 89.005-40.789 169.93" style="fill:none;marker-end:url(#dot);stroke-linejoin:round;stroke-width:2"/>
   <path id="piedingo_kunigitaj_al_ovala_fenestro_default" d="m386.63 92.31 47.347 166.62" marker-end="url(#dot)"/>
  </switch>
  <switch id="martelo" marker-start="url(#dot)">
   <path id="ta_சம்மட்டியுருவெலும்பு" systemLanguage="ta" d="m355.82 234.3-39.098-39.004" style="marker-start:url(#dot)"/>
   <path id="martelo_default" d="m355.82 234.3 -87.022-65.445" marker-start="url(#dot)"/>
  </switch>
  <path id="Inko" d="m378.43 239.92 -22.751 -84.909" marker-start="url(#dot)"/>
  <path id="Timpana_Membrano" d="m357.86 300.46 -75.378 147.59" marker-start="url(#dot)"/>
  <switch id="Ronda_Fenestro" marker-start="url(#dot)">
   <path id="ta_வட்ட_சாளரம்" systemLanguage="de, fi, ta, te" d="m435.8 295.69c28.466 76.327 58.638 105.09-7.1936 165.97" marker-start="url(#dot)"/>
   <path id="ru_Ronda_Fenestro" systemLanguage="ru" d="m435.8 295.69 c28 76 20 105 -7.1936 165.97" marker-start="url(#dot)"/>
   <path id="Ronda_Fenestro_default" d="m435.8 295.69 -9.397 150.55" marker-start="url(#dot)"/>
  </switch>
  <path id="Eustachia_Tubo" d="m507.8 397.73 -13.637 61.114" marker-start="url(#dot)"/>
  <path id="Ekstera_Okaza_Kanalo" d="m206.4 376.45 5.354-69.802" marker-end="url(#dot)"/>
  <path id="timpano" d="m370.11 391.92 41.5-62.5" marker-end="url(#dot)"/>
  <switch id="Auriklo" marker-end="url(#dot)">
   <path id="ta_வெளிக்காது" systemLanguage="ta" d="m38.872 407.02 30.122-55.564" style="fill:none;marker-end:url(#dot);stroke-linejoin:round;stroke-width:2"/>
   <path id="Auriklo_default" d="m32.64 416.76 36.354-65.302" marker-end="url(#dot)"/>
  </switch>
 </g>
  
  <switch transform="translate(324 145)">
    <text systemLanguage="bn">ইনকাস</text>
    <text systemLanguage="da" x="-10">Armbolt</text>
    <text systemLanguage="de" x="-10">Amboss</text>
    <text systemLanguage="en">Incus</text>
    <text systemLanguage="eo">Inko</text>
    <text systemLanguage="es">Yunque</text>
    <text systemLanguage="eu" x="-15">Ingudea</text>
    <text systemLanguage="fa">سندانی</text>
    <text systemLanguage="fi" text-anchor="middle" x="30">Alasin</text>
    <text systemLanguage="fr" text-anchor="middle" x="30">Enclume</text>
    <text systemLanguage="he">אינקוס</text>
    <text systemLanguage="ml" x="-25" y="-10">ഇൻകസ്</text>
    <text systemLanguage="ne">इन्सस</text>
    <text systemLanguage="pa">ਇਨਕਸ</text>
    <text systemLanguage="ru" x="-60">наковальня</text>
    <text systemLanguage="ta" text-anchor="middle"><tspan x="35" y="-20">பட்டை</tspan><tspan x="40" y="0">சிற்றெலும்பு</tspan></text>
    <text systemLanguage="te">దాగలి</text>
    <text systemLanguage="th">กระดูกรูปทั่ง</text>
    <text systemLanguage="tr">Örs</text>
    <text systemLanguage="zh">砧骨</text>
    <text>Incus</text>
  </switch>
  
  <switch transform="translate(222 162)">
    <text systemLanguage="bn">ম্যালিয়াস</text>
    <text systemLanguage="da">Hammer</text>
    <text systemLanguage="de">Hammer</text>
    <text systemLanguage="en">Malleus</text>
    <text systemLanguage="eo">martelo</text>
    <text systemLanguage="es">Martillo</text>
    <text systemLanguage="eu">Mailua</text>
    <text systemLanguage="fa">چکشی</text>
    <text systemLanguage="fi">Vasara</text>
    <text systemLanguage="fr">Marteau</text>
    <text systemLanguage="he">מאליוס</text>
    <text systemLanguage="ml">മാലിയസ്</text>
    <text systemLanguage="ne">हथौडा</text>
    <text systemLanguage="pa" x="-5">ਮੈਲੀਅਸ ਹੱਡੀ</text>
    <text systemLanguage="ru">молоточек</text>
    <text systemLanguage="ta" transform="rotate(56.201)" x="80" y="-54" text-anchor="end">சம்மட்டியுருவெலும்பு</text>
    <text systemLanguage="te">కూటకాస్థి</text>
    <text systemLanguage="th">กระดูกรูปค้อน</text>
    <text systemLanguage="tr">Çekiç</text>
    <text systemLanguage="zh">锤骨</text>
    <text>Malleus</text>
  </switch>
    
  <switch transform="translate(560 85)" text-anchor="middle">
    <text systemLanguage="bn">অর্ধবৃত্তাকার<tspan x="0" y="25">নালী</tspan></text>
    <text systemLanguage="da">Semicirkulære<tspan x="0" y="20">kanaler</tspan></text>
    <text systemLanguage="de">Bogengänge</text>
    <text systemLanguage="en">Semicircular<tspan x="0" y="20">canals</tspan></text>
    <text systemLanguage="eo">Kanaloj<tspan x="0" y="20">semicirculares</tspan></text>
    <text systemLanguage="es">Canales<tspan x="0" y="20">semicirculares</tspan></text>
    <text systemLanguage="eu">Hodi<tspan x="0" y="20">erdizirkularrak</tspan></text>
    <text systemLanguage="fa">کانال‌های<tspan x="0" y="20">نیم‌دایره</tspan></text>
    <text systemLanguage="fi"><tspan x="0" y="20">Kaarikäytävät</tspan></text>
    <text systemLanguage="fr">Canaux<tspan x="0" y="20">semi-circulaires</tspan></text>
    <text systemLanguage="he">תעלות<tspan x="0" y="20">בצורת חצי עיגול</tspan></text>
    <text systemLanguage="ml" x="10">അർദ്ധവൃത്താകാര<tspan x="10" y="20">നാളങ്ങൾ</tspan></text>
    <text systemLanguage="ne">अर्धरात्रिक<tspan x="0" y="20">नहर</tspan></text>
    <text systemLanguage="pa" y="-5">ਅਰਧ-ਚੱਕਰਾਕਾਰ<tspan x="0" y="20">ਨਾਲੀਆਂ</tspan></text>
    <text systemLanguage="ru">полукружные<tspan x="0" y="20">каналы</tspan></text>
    <text systemLanguage="ta"><tspan x="0" y="-20">அரை</tspan><tspan x="0" y="0">வட்ட</tspan><tspan x="0" y="20">வட்டங்கள்</tspan></text>
    <text systemLanguage="te">అర్థచంద్రాకార<tspan x="0" y="20">కాలువలు</tspan></text>
    <text systemLanguage="th">หลอดกึ่งวงกลม</text>
    <text systemLanguage="tr">Semisirküler<tspan x="0" y="20">kanallar</tspan></text>
    <text systemLanguage="zh">半规管</text>
    <text>Semicircular<tspan x="0" y="20">canals</tspan></text>
  </switch>
  
  <switch transform="translate(551 159)">
    <text systemLanguage="bn">ভেস্টিবুলার<tspan x="0" y="25">স্নায়ু</tspan></text>
    <text systemLanguage="da">Vestibulær<tspan x="0" y="20">nerven</tspan></text>
    <text systemLanguage="de" x="-30" y="-30">Nerv des<tspan x="-53" y="-10">Vestibular-Organs</tspan></text>
    <text systemLanguage="en">Vestibular<tspan x="0" y="20">nerve</tspan></text>
    <text systemLanguage="eo">Nordo<tspan x="0" y="20">Vestibular</tspan></text>
    <text systemLanguage="es">Nervio<tspan x="0" y="20">vestibular</tspan></text>
    <text systemLanguage="eu">Nerbio<tspan x="0" y="20">bestibularra</tspan></text>
    <text systemLanguage="fa">عصب<tspan x="0" y="20">دهلیزی</tspan></text>
    <text systemLanguage="fi"><tspan x="-35" y="10">Tasapainohermo</tspan></text>
    <text systemLanguage="fr">Nerf<tspan x="0" y="20">vestibulaire</tspan></text>
    <text systemLanguage="he">עצב<tspan x="0" y="20">שיווי המשקל</tspan></text>
    <text systemLanguage="ml" x="-30" y="0">വെസ്റ്റിബ്യൂളാർ<tspan x="5" y="22">നാഡി</tspan></text>
    <text systemLanguage="ne">दन्त<tspan x="0" y="20">तंत्रिका</tspan></text>
    <text systemLanguage="pa" y="-5">ਵੈਸਟੀਬਿਊਲਰ<tspan x="0" y="20">ਨਾੜੀਆਂ</tspan></text>
    <text systemLanguage="ru" x="-30">вестибулярный<tspan x="0" y="20">корешок</tspan></text>
    <text systemLanguage="ta"><tspan x="124" text-anchor="end">வெஸ்டிபுலார்</tspan><tspan x="0" y="20">நர்வ்</tspan></text>
    <text systemLanguage="te">నడవడిక</text>
    <text systemLanguage="th">เส้นประสาท<tspan x="0" y="20">รับการทรงตัว</tspan></text>
    <text systemLanguage="tr">Vestibüler<tspan x="0" y="20">sinir</tspan></text>
    <text systemLanguage="zh">前庭神经</text>
    <text>Vestibular<tspan x="0" y="20">nerve</tspan></text>
  </switch>
  
  <switch transform="translate(563 323)">
    <text systemLanguage="bn">ককলিয়ার<tspan x="0" y="25">স্নায়ু</tspan></text>
    <text systemLanguage="da">Hørenerven</text>
    <text systemLanguage="de">Hörnerv</text>
    <text systemLanguage="en">Cochlear<tspan x="0" y="20">nerve</tspan></text>
    <text systemLanguage="eo">Nervo<tspan x="0" y="20">coclear</tspan></text>
    <text systemLanguage="es">Nervio<tspan x="0" y="20">coclear</tspan></text>
    <text systemLanguage="eu">Entzumen-<tspan x="0" y="20">nerbioa</tspan></text>
    <text systemLanguage="fa">عصب<tspan x="0" y="20">حلزونی</tspan></text>
    <text systemLanguage="fi"><tspan x="-20" y="0">Kuulohermo</tspan></text>
    <text systemLanguage="fr">Nerf<tspan x="0" y="20">cochléaire</tspan></text>
    <text systemLanguage="he">עורק<tspan x="0" y="20">שבלול</tspan></text>
    <text systemLanguage="ml">കോക്ലിയർ<tspan x="0" y="25">നാഡി</tspan></text>
    <text systemLanguage="ne">cochlearis<tspan x="0" y="20">स्नायु</tspan></text>
    <text systemLanguage="pa">ਕੋਚਲੀਅਰ<tspan x="0" y="25">ਨਾੜੀ</tspan></text>
    <text systemLanguage="ru">улитковый<tspan x="0" y="20">корешок</tspan></text>
    <text systemLanguage="ta">கோக்ளிர்<tspan x="0" y="20">நரர்</tspan></text>
    <text systemLanguage="te">కంబునాడి</text>
    <text systemLanguage="th">เส้นประสาท<tspan x="0" y="20">รับการได้ยิน</tspan></text>
    <text systemLanguage="tr">Koklear<tspan x="0" y="20">sinir</tspan></text>
    <text systemLanguage="zh">蜗神经</text>
    <text>Cochlear<tspan x="0" y="20">nerve</tspan></text>
  </switch>
  
  <switch transform="translate(473 478)">
    <text systemLanguage="bn">ইউস্টেশিয়ান<tspan x="0" y="25">নালী</tspan></text>
    <text systemLanguage="da">Øretrompet</text>
    <text systemLanguage="de">Eustachische Röhre</text>
    <text systemLanguage="en">Eustachian tube</text>
    <text systemLanguage="eo">Eustachia Tubo</text>
    <text systemLanguage="es">Trompa de Eustaquio</text>
    <text systemLanguage="eu">Eustakioren tronpa</text>
    <text systemLanguage="fa">شیپور استاش</text>
    <text systemLanguage="fi">Korvatorvi</text>
    <text systemLanguage="fr">Trompe d'Eustache</text>
    <text systemLanguage="he">צינור אוסטאצ'יאני</text>
    <text systemLanguage="ml">യൂസ്റ്റേക്കിയൻ<tspan x="0" y="25">കുഴൽ</tspan></text>
    <text systemLanguage="ne">Eustachiana ट्यूब</text>
    <text systemLanguage="pa" y="5">ਗਲੇ ਨੂੰ ਜਾਂਦੀ ਹੋਈ ਨਾਲੀ</text>
    <text systemLanguage="ru">евстахиева труба</text>
    <text systemLanguage="ta">யூஸ்டிக் டூப்</text>
    <text systemLanguage="te" x="20">పటహపూరణనాడిక</text>
    <text systemLanguage="th">ท่อหู</text>
    <text systemLanguage="tr">Östaki borusu</text>
    <text systemLanguage="zh">咽鼓管</text>
    <text>Eustachian tube</text>
  </switch>
  
  <switch transform="translate(257 473)" text-anchor="middle">      
    <text systemLanguage="bn">টিমপেনিক পর্দা</text>
    <text systemLanguage="da">Trommehinden</text>
    <text systemLanguage="de">Trommelfell</text>
    <text systemLanguage="en">Tympanic<tspan x="0" y="20">membrane</tspan></text>
    <text systemLanguage="eo">Timpana<tspan x="0" y="20">Membrano</tspan></text>
    <text systemLanguage="es">Membrana<tspan x="0" y="20">timpánica</tspan></text>
    <text systemLanguage="eu">Tinpanoa</text>
    <text systemLanguage="fa">پرده<tspan x="0" y="20">گوش</tspan></text>
    <text systemLanguage="fi">Tärykalvo</text>
    <text systemLanguage="fr">Tympan</text>
    <text systemLanguage="he">ממברנה<tspan x="0" y="20">טימפאנית</tspan></text>
    <text systemLanguage="ml">റ്റിമ്പാനിക്<tspan x="0" y="20">സ്തരം</tspan></text>
    <text systemLanguage="ne">टेम्पाइनिक<tspan x="0" y="20">झिल्ली</tspan></text>
    <text systemLanguage="pa">ਟਿਮਪੈਨਿਕ ਮੈਂਬਰੇਨ</text>
    <text systemLanguage="ru">барабанная<tspan x="0" y="20">перепонка</tspan></text>
    <text systemLanguage="ta">டிமென்ட்பிக்<tspan x="0" y="20">மெம்பிரேன்</tspan></text>
    <text systemLanguage="te">కణభేరి పొర</text>
    <text systemLanguage="th">แก้วหู</text>
    <text systemLanguage="tr">Kulak<tspan x="0" y="20">zarı</tspan></text>
    <text systemLanguage="zh">鼓膜</text>
    <text>Tympanic<tspan x="0" y="20">membrane</tspan></text>
  </switch>
    
  <switch transform="translate(206 401)" text-anchor="middle">
    <text systemLanguage="bn">কর্ণকুহর</text>
    <text systemLanguage="da">Øregangen</text>
    <text systemLanguage="de">äußerer<tspan x="0" y="20">Gehörgang</tspan></text>
    <text systemLanguage="en">External<tspan x="0" y="20">auditory canal</tspan></text>
    <text systemLanguage="eo">Ekstera<tspan x="0" y="20">Okaza Kanalo</tspan></text>
    <text systemLanguage="es">Canal<tspan x="0" y="20">auditivo externo</tspan></text>
    <text systemLanguage="eu">Kanpo-entzunbidea</text>
    <text systemLanguage="fa">مجرای<tspan x="0" y="20">شنوایی خارجی</tspan></text>
    <text systemLanguage="fi" x="15">Korvakäytävä</text>
    <text systemLanguage="fr" x="5">Canal auditif<tspan x="0" y="20">externe</tspan></text>
    <text systemLanguage="he">תעלה<tspan x="0" y="20">שמיעה חיצונית</tspan></text>
    <text systemLanguage="ml">ബാഹ്യ<tspan x="0" y="20">ശ്രവണ നാളം</tspan></text>
    <text systemLanguage="ne">बाह्य लेखा<tspan x="0" y="20">परीक्षा नहर</tspan></text>
    <text systemLanguage="pa">ਬਾਹਰੀ ਸੁਣਨ<tspan x="0" y="25">ਵਾਲੀ ਨਾਲੀ</tspan></text>
    <text systemLanguage="ru">наружный<tspan x="-5" y="20">слуховой проход</tspan></text>
    <text systemLanguage="ta">அவுட்<tspan x="0" y="20">எக்ஸ்பிரஸ்</tspan><tspan x="0" y="40">சேனல்</tspan></text>
    <text systemLanguage="te">சேனல்</text>
    <text systemLanguage="th">รูหู</text>
    <text systemLanguage="tr">Dış<tspan x="0" y="20">işitme kanalı</tspan></text>
    <text systemLanguage="zh">外耳道</text>
    <text>External<tspan x="0" y="20">auditory canal</tspan></text>
  </switch>
    
  <switch transform="translate(380 45)" text-anchor="middle">
    <text systemLanguage="bn">স্টেপিস<tspan x="0" y="25">(ওভাল উইন্ডোতে</tspan><tspan x="0" y="50">যুক্ত)</tspan></text>
    <text systemLanguage="da">Stigbøjlen<tspan x="0" y="20">(Sidder på det</tspan><tspan x="0" y="40">ovale vindue)</tspan></text>
    <text systemLanguage="de">Steigbügel<tspan x="0" y="20">(anliegend am</tspan><tspan x="0" y="40">ovalen Fenster)</tspan></text>
    <text systemLanguage="en">Stapes<tspan x="0" y="20">(attached to</tspan><tspan x="0" y="40">oval window)</tspan></text>
    <text systemLanguage="eo">piedingo<tspan x="0" y="20">(kunigitaj al</tspan><tspan x="0" y="40">ovala fenestro)</tspan></text>
    <text systemLanguage="es">Estribo<tspan x="0" y="20">(pegado a la</tspan><tspan x="0" y="40">ventana oval)</tspan></text>
    <text systemLanguage="eu" y="40">Estribua</text>
    <text systemLanguage="fa">رکابی<tspan x="0" y="20">(متصل‌شده به</tspan><tspan x="0" y="40">پنجره بیضی)</tspan></text>
    <text systemLanguage="fi" y="40">Jalustin</text>
    <text systemLanguage="fr">Stapes<tspan x="0" y="20">(attaché à la</tspan><tspan x="0" y="40">fenêtre ovale)</tspan></text>
    <text systemLanguage="he">סטאפים<tspan x="0" y="20">(מחוברים</tspan><tspan x="0" y="40">לחלון אובאלי)</tspan></text>
    <text systemLanguage="ml" x="-30">സ്റ്റേപിസ്<tspan x="-30" y="20">(അണ്ഡാകാര ജാലകവുമായി</tspan><tspan x="-50" y="40">ബന്ധിച്ചിരിക്കുന്നു)</tspan></text>
    <text systemLanguage="ne">आकार <tspan x="0" y="20">(ओभरल</tspan><tspan x="0" y="40">सञ्झ्यालमा संलग्न)</tspan></text>
    <text systemLanguage="pa">ਸਟੇਪ (ਅੰਡਾਕਾਰ<tspan x="0" y="25">ਖਿੜਕੀ ਨਾਲ ਜੁੜੀ ਹੋਈ)</tspan></text>
    <text systemLanguage="ru">стремечко<tspan x="0" y="20">(соединённое с</tspan><tspan x="0" y="40">овальным окном)</tspan></text>
    <text systemLanguage="ta">ஸ்டேபிள்ஸ்<tspan x="0" y="20">(ஓவல் சாளரத்துடன்</tspan><tspan x="0" y="40">இணைக்கப்பட்டுள்ளது)</tspan></text>
    <text systemLanguage="te" x="60" y="40">అస్థిక</text>
    <text systemLanguage="th"><tspan x="30">กระดูกรูปโกลน</tspan><tspan x="30" y="20">(เชื่อมต่อไป</tspan><tspan x="30" y="40">ที่ช่องรูปไข่)</tspan></text>
    <text systemLanguage="tr">Üzengi<tspan x="0" y="20">(oval pencereye</tspan><tspan x="0" y="40">bağlı)</tspan></text>
    <text systemLanguage="zh">镫骨</text>
    <text>Stapes<tspan x="0" y="20">(attached to</tspan><tspan x="0" y="40">oval window)</tspan></text>
  </switch>
  
  <switch transform="translate(557 383)">
    <text systemLanguage="bn">ককলিয়া</text>
    <text systemLanguage="da">Cochlea</text>
    <text systemLanguage="de" x="-10">Hörschnecke</text>
    <text systemLanguage="en">Cochlea</text>
    <text systemLanguage="eo">heliko</text>
    <text systemLanguage="es">Cóclea</text>
    <text systemLanguage="eu">Koklea</text>
    <text systemLanguage="fa">حلزون</text>
    <text systemLanguage="fi">Simpukka</text>
    <text systemLanguage="fr">Limaçon</text>
    <text systemLanguage="he">שַׁבְּלוּל</text>
    <text systemLanguage="ml">കോക്ലിയ</text>
    <text systemLanguage="ne">चिप्लेकिरो</text>
    <text systemLanguage="pa">ਕੋਚਲੀਆ</text>
    <text systemLanguage="ru">улитка</text>
    <text systemLanguage="ta" x="118" y="-7" text-anchor="end">நத்தைச்சுருள்</text>
    <text systemLanguage="te">కర్ణావృత్తి</text>
    <text systemLanguage="th">ท่อรูปหอยโข่ง</text>
    <text systemLanguage="tr">Koklea</text>
    <text systemLanguage="zh">耳蜗</text>
    <text>Cochlea</text>
  </switch>
  
  <switch transform="translate(411 482)" text-anchor="middle">
    <text systemLanguage="bn">রাউন্ড<tspan x="0" y="25">উইন্ডো</tspan></text>
    <text systemLanguage="da">Runde<tspan x="0" y="20">vindue</tspan></text>
    <text systemLanguage="de">rundes<tspan x="0" y="20">Fenster</tspan></text>
    <text systemLanguage="en">Round<tspan x="0" y="20">window</tspan></text>
    <text systemLanguage="eo">Ronda<tspan x="0" y="20">Fenestro</tspan></text>
    <text systemLanguage="es">Ventana<tspan x="0" y="20">redonda</tspan></text>
    <text systemLanguage="eu">Leiho<tspan x="0" y="20">biribila</tspan></text>
    <text systemLanguage="fa">پنجره<tspan x="0" y="20">گرد</tspan></text>
    <text systemLanguage="fi">Pyöreä<tspan x="0" y="20">rakkula</tspan></text>
    <text systemLanguage="fr">Fenêtre<tspan x="0" y="20">ronde</tspan></text>
    <text systemLanguage="he">חלון<tspan x="0" y="20">עגול</tspan></text>
    <text systemLanguage="ml">വൃത്ത<tspan x="0" y="20">ജാലകം</tspan></text>
    <text systemLanguage="ne">राउन्ड<tspan x="0" y="20">विन्डो</tspan></text>
    <text systemLanguage="pa">ਗੋਲ ਖਿੜਕੀ</text>
    <text systemLanguage="ru">круглое<tspan x="0" y="20">окно</tspan></text>
    <text systemLanguage="ta">வட்ட<tspan x="0" y="20">சாளரம்</tspan></text>
    <text systemLanguage="te">గుండ్రని గవాక్షం</text>
    <text systemLanguage="th">ช่องรูปไข่<tspan x="0" y="20">(หน้าต่างรูปไข่)</tspan></text>
    <text systemLanguage="tr">Yuvarlak<tspan x="0" y="20">pencere</tspan></text>
    <text systemLanguage="zh">蜗窗</text>
    <text>Round<tspan x="0" y="20">window</tspan></text>
  </switch>
  
  <switch transform="rotate(-90) translate(-495 26)">
    <text systemLanguage="bn">কানের পাতা</text>
    <text systemLanguage="da">Det ydre øre</text>
    <text systemLanguage="de">Ohrmuschel</text>
    <text systemLanguage="en">Auricle</text>
    <text systemLanguage="eo">Auriklo</text>
    <text systemLanguage="es">Oreja</text>
    <text systemLanguage="eu">Kanpo-belarria</text>
    <text systemLanguage="fa">لاله گوش</text>
    <text systemLanguage="fi">Korvalehti</text>
    <text systemLanguage="fr">Auricule</text>
    <text systemLanguage="he">אֲפַרכֶּסֶת</text>
    <text systemLanguage="ml">ചെവിക്കുട</text>
    <text systemLanguage="ne">बाहिरी कान</text>
    <text systemLanguage="pa">ਕੰਨ ਦਾ ਉੱਪਰਲਾ ਖਾਨਾ</text>
    <text systemLanguage="ru">ушная раковина</text>
    <text systemLanguage="ta">வெளிக்காது</text>
    <text systemLanguage="te" x="40">కర్ణిక</text>
    <text systemLanguage="th" x="40">ใบหู</text>
    <text systemLanguage="tr">Kulak kepçesi</text>
    <text systemLanguage="zh" x="40">耳郭</text>
    <text>Auricle</text>
  </switch>
  
  <switch transform="translate(317 409)">
    <text systemLanguage="bn">টিমপেনিক<tspan x="0" y="25">ক্যাভিটি</tspan></text>
    <text systemLanguage="da">Tympanisk<tspan x="0" y="20">hulrum</tspan></text>
    <text systemLanguage="de">Paukenhöhle</text>
    <text systemLanguage="en">Tympanic<tspan x="0" y="20">cavity</tspan></text>
    <text systemLanguage="eo">timpano</text>
    <text systemLanguage="es">Cavidad<tspan x="0" y="20">timpánica</tspan></text>
    <text systemLanguage="eu">Barrunbe<tspan x="0" y="20">tinpanikoa</tspan></text>
    <text systemLanguage="fa">صندوق<tspan x="0" y="20">صماخ</tspan></text>
    <text systemLanguage="fi"><tspan x="-6" y="0">Välikorvaontelo</tspan></text>
    <text systemLanguage="fr">Cavité<tspan x="-15" y="20">tympanique</tspan></text>
    <text systemLanguage="he">חלל<tspan x="0" y="20">טימפאני</tspan></text>
    <text systemLanguage="ml" x="-5">റ്റിമ്പാനിക്<tspan x="0" y="20">അറ</tspan></text>
    <text systemLanguage="ne">टेस्मेन<tspan x="0" y="20">गुफा</tspan></text>
    <text systemLanguage="pa" y="5">ਟਿਮਪੈਨਿਕ ਛੇਕ</text>
    <text systemLanguage="ru">барабанная<tspan x="0" y="20">полость</tspan></text>
    <text systemLanguage="ta">டிமென்ட்பிக்<tspan x="0" y="20">கேவிட்டி</tspan></text>
    <text systemLanguage="te">కర్ణభేరి కుహరం</text>
    <text systemLanguage="th">ช่องหู<tspan x="0" y="20">(หลังแก้วหู)</tspan></text>
    <text systemLanguage="tr">Timpanik<tspan x="0" y="20">boşluk</tspan></text>
    <text systemLanguage="zh">鼓室</text>
    <text>Tympanic<tspan x="0" y="20">cavity</tspan></text>
 </switch>
</svg>