<?xml version="1.0" encoding="UTF-8"?>
<svg width="530" height="290" version="1.1" xmlns="http://www.w3.org/2000/svg">
 <path d="m211.08 106.48c-1.713-7.7083-10.563-16.559-10.563-16.559m15.702 79.367c8.2793-23.553 0.71373-46.107 0.71373-46.107m-77.654 109.49c51.531-7.7083 69.946-46.678 69.946-46.678m-134.18 27.264c19.556 17.13 47.677 19.413 47.677 19.413m-68.233-44.537c-15.988-25.98-9.9922-56.242-9.9922-56.242m7.7083-26.694c2.5694-6.9946 8.422-13.275 8.422-13.275m64.726-36.178c8.4787-1.0094 15.544 0.40375 15.544 0.40375m-66.416 20.793c14.535-12.92 34.117-17.967 34.117-17.967" fill="none" stroke="#000"/>
 <path d="m275.59 104.2v37.399m33.688 87.932h-33.688v-35.401m65.949 35.401h-16.559m41.396 0h-8.5648m127.9-22.268v22.268h-84.506m84.506-140.46v49.105m-58.24-77.368h58.24v12.562m-118.76-12.562h44.251m-105.92 0h18.842m-48.534 27.122v-27.122h12.562" fill="none" stroke="#000"/>
</svg>
