<?xml version="1.0" encoding="UTF-8"?>
<svg width="550" height="270" version="1.1" xmlns="http://www.w3.org/2000/svg">
 <path d="m366.55 213.09c0-3.2689 8.0019-6.6905 23.13-9.8905 6.4249-1.359 12.558-3.3902 13.799-4.5701 1.6715-1.589 2.4068-4.6301 2.9197-12.077 0.52933-7.6848 1.336-10.907 3.54-14.138 2.6068-3.8225 2.6704-4.2432 0.73249-4.8511-6.8762-2.1569-7.0766-2.5353-1.8176-3.4301 2.8456-0.48415 5.1674-0.96863 5.1594-1.0766-8e-3 -0.10799-0.82318-3.1946-1.8116-6.859-0.98846-3.6645-1.8037-7.0018-1.8116-7.4164-8e-3 -0.41455 2.1057-1.0911 4.697-1.5034 5.6164-0.89367 7.9957-3.3379 7.0189-7.2105-0.39349-1.56-4.7596-7.5336-9.7024-13.275l-8.987-10.438-0.6237-10.666c-0.67977-11.625-6.2231-30.485-10.868-36.976-4.1755-5.8351-11.678-10.513-18.251-11.381-16.459-2.1726-1.7527-2.8904 59.223-2.8904 44.018 0 66.237 0.40944 65.739 1.2114-0.41382 0.66627-2.5005 1.2234-4.6371 1.238-8.3674 0.05733-18.254 6.944-22.856 15.921-4.3925 8.5675-8.4195 25.065-8.4195 34.491v8.9805l-7.0248 7.5406c-15.224 16.342-16.27 21.629-4.649 23.506 5.0236 0.81121 4.9427 0.54614 2.5566 8.373-0.99709 3.2706-1.8188 6.349-1.8261 6.8409-7e-3 0.49182 2.298 1.262 5.1227 1.7114 5.194 0.82646 5.0032 1.1812-1.7795 3.3088-1.9241 0.60357-1.839 1.0804 0.91305 5.1158 2.3396 3.4306 3.0365 6.0073 3.0417 11.247 0.0103 10.373 1.8798 15.708 5.8304 16.64 27.319 6.4452 34.337 9.0418 34.337 12.705 0 2.2108-2.1477 2.2848-66.348 2.2848-65.922 0-66.348-0.0158-66.348-2.4658z"/>
 <g fill="none" stroke="#000" stroke-linecap="round" stroke-linejoin="round" stroke-width="3">
  <rect x="50" y="110" width="100" height="100"/>
  <rect x="110" y="50" width="100" height="100"/>
  <path d="m150 110 60-60"/>
  <path d="m50 110 60-60"/>
  <path d="m150 210 60-60"/>
  <path d="m50 210 60-60"/>
 </g>
</svg>
