<?xml version="1.0" encoding="UTF-8" standalone="no"?>
<!DOCTYPE svg PUBLIC "-//W3C//DTD SVG 1.1//EN" "http://www.w3.org/Graphics/SVG/1.1/DTD/svg11.dtd">
<!-- Generated by graphviz version 2.40.1 (20161225.0304)
 -->
<!-- Title: dependencies of stable Rust standard libraries Pages: 1 -->
<svg width="207pt" height="260pt" viewBox="0.00 0.00 207.15 260.00" xmlns="http://www.w3.org/2000/svg" xmlns:xlink="http://www.w3.org/1999/xlink">
<g id="graph0" class="graph" transform="scale(1 1) rotate(0) translate(4 256)">
<title>dependencies of stable Rust standard libraries</title>
<polygon fill="#ffffff" stroke="transparent" points="-4,4 -4,-256 203.1523,-256 203.1523,4 -4,4"/>
<!-- std -->
<g id="node1" class="node">
<title>std</title>
<ellipse fill="#96ff9c" stroke="#000000" cx="107.1523" cy="-162" rx="27" ry="18"/>
<text text-anchor="middle" x="107.1523" y="-157.8" font-family="Times,serif" font-size="14.00" fill="#000000">std</text>
</g>
<!-- core -->
<g id="node2" class="node">
<title>core</title>
<ellipse fill="none" stroke="#000000" cx="98.1523" cy="-18" rx="27.8073" ry="18"/>
<text text-anchor="middle" x="98.1523" y="-13.8" font-family="Times,serif" font-size="14.00" fill="#000000">core</text>
</g>
<!-- std&#45;&gt;core -->
<g id="edge1" class="edge">
<title>std-&gt;core</title>
<path fill="none" stroke="#000000" d="M99.2585,-144.4047C95.044,-134.0396 90.294,-120.5396 88.1523,-108 84.6122,-87.2731 87.5009,-63.6373 91.0671,-45.7899"/>
<polygon fill="#000000" stroke="#000000" points="94.4873,-46.5328 93.2017,-36.0163 87.6485,-45.0392 94.4873,-46.5328"/>
</g>
<!-- alloc -->
<g id="node3" class="node">
<title>alloc</title>
<ellipse fill="none" stroke="#000000" cx="127.1523" cy="-90" rx="29.6127" ry="18"/>
<text text-anchor="middle" x="127.1523" y="-85.8" font-family="Times,serif" font-size="14.00" fill="#000000">alloc</text>
</g>
<!-- std&#45;&gt;alloc -->
<g id="edge5" class="edge">
<title>std-&gt;alloc</title>
<path fill="none" stroke="#000000" d="M112.0961,-144.2022C114.3317,-136.1541 117.0248,-126.4588 119.5115,-117.5067"/>
<polygon fill="#000000" stroke="#000000" points="122.8918,-118.4145 122.196,-107.8425 116.1472,-116.541 122.8918,-118.4145"/>
</g>
<!-- alloc&#45;&gt;core -->
<g id="edge2" class="edge">
<title>alloc-&gt;core</title>
<path fill="none" stroke="#000000" d="M119.9837,-72.2022C116.6826,-64.0064 112.6935,-54.1024 109.0331,-45.0145"/>
<polygon fill="#000000" stroke="#000000" points="112.2211,-43.5612 105.2384,-35.593 105.728,-46.1766 112.2211,-43.5612"/>
</g>
<!-- proc_macro -->
<g id="node4" class="node">
<title>proc_macro</title>
<ellipse fill="none" stroke="#000000" cx="57.1523" cy="-234" rx="57.305" ry="18"/>
<text text-anchor="middle" x="57.1523" y="-229.8" font-family="Times,serif" font-size="14.00" fill="#000000">proc_macro</text>
</g>
<!-- proc_macro&#45;&gt;std -->
<g id="edge6" class="edge">
<title>proc_macro-&gt;std</title>
<path fill="none" stroke="#000000" d="M69.5118,-216.2022C75.6227,-207.4025 83.101,-196.6338 89.7771,-187.0202"/>
<polygon fill="#000000" stroke="#000000" points="92.7913,-188.8159 95.6205,-178.6058 87.0417,-184.8231 92.7913,-188.8159"/>
</g>
<!-- proc_macro&#45;&gt;core -->
<g id="edge3" class="edge">
<title>proc_macro-&gt;core</title>
<path fill="none" stroke="#000000" d="M59.3503,-215.8894C63.1592,-185.8071 71.691,-123.7274 83.1523,-72 85.0677,-63.3554 87.5167,-54.0332 89.878,-45.6075"/>
<polygon fill="#000000" stroke="#000000" points="93.2751,-46.4581 92.6729,-35.8804 86.5473,-44.5249 93.2751,-46.4581"/>
</g>
<!-- test -->
<g id="node5" class="node">
<title>test</title>
<ellipse fill="none" stroke="#000000" cx="172.1523" cy="-234" rx="27" ry="18"/>
<text text-anchor="middle" x="172.1523" y="-229.8" font-family="Times,serif" font-size="14.00" fill="#000000">test</text>
</g>
<!-- test&#45;&gt;std -->
<g id="edge7" class="edge">
<title>test-&gt;std</title>
<path fill="none" stroke="#000000" d="M158.0482,-218.3771C149.275,-208.659 137.835,-195.987 128.0237,-185.1191"/>
<polygon fill="#000000" stroke="#000000" points="130.5278,-182.6698 121.2288,-177.5924 125.3319,-187.3605 130.5278,-182.6698"/>
</g>
<!-- test&#45;&gt;core -->
<g id="edge4" class="edge">
<title>test-&gt;core</title>
<path fill="none" stroke="#000000" d="M176.1627,-215.7755C182.0766,-184.45 190.0365,-119.2138 166.1523,-72 158.1697,-56.2203 143.225,-43.5636 129.3746,-34.481"/>
<polygon fill="#000000" stroke="#000000" points="130.8665,-31.2896 120.5151,-29.0317 127.1991,-37.2521 130.8665,-31.2896"/>
</g>
</g>
</svg>