<?xml version="1.0" encoding="UTF-8" standalone="no"?>
<!-- Creator: CorelDRAW X7 -->

<svg
   xmlns:dc="http://purl.org/dc/elements/1.1/"
   xmlns:cc="http://creativecommons.org/ns#"
   xmlns:rdf="http://www.w3.org/1999/02/22-rdf-syntax-ns#"
   xmlns:svg="http://www.w3.org/2000/svg"
   xmlns="http://www.w3.org/2000/svg"
   xmlns:sodipodi="http://sodipodi.sourceforge.net/DTD/sodipodi-0.dtd"
   xmlns:inkscape="http://www.inkscape.org/namespaces/inkscape"
   xml:space="preserve"
   width="149.653mm"
   height="47.5787mm"
   version="1.1"
   style="shape-rendering:geometricPrecision; text-rendering:geometricPrecision; image-rendering:optimizeQuality; fill-rule:evenodd; clip-rule:evenodd"
   viewBox="0 0 14965 4758"
   id="svg2"
   inkscape:version="0.91 r13725"
   sodipodi:docname="Vajra Guru Mantra vector.svg"><title
     id="title3365">Vajra Guru Mantra</title><metadata
     id="metadata37"><rdf:RDF><cc:Work
         rdf:about=""><dc:format>image/svg+xml</dc:format><dc:type
           rdf:resource="http://purl.org/dc/dcmitype/StillImage" /><dc:title>Vajra Guru Mantra</dc:title><dc:date>2017-08-25</dc:date><dc:creator><cc:Agent><dc:title>Christopher J. Fynn</dc:title></cc:Agent></dc:creator><dc:rights><cc:Agent><dc:title>Copyright by Christopher J. Fynn - All Rights Reserved</dc:title></cc:Agent></dc:rights><dc:publisher><cc:Agent><dc:title>Christopher J. Fynn</dc:title></cc:Agent></dc:publisher><dc:description>Vajra Guru Mantra: OṀ ĀḤ HŪṀ VAJRA GURU PADMA SIDDHI HŪṀ in Tibetan Script.</dc:description><dc:contributor><cc:Agent><dc:title>Christopher J. Fynn</dc:title></cc:Agent></dc:contributor><cc:license
           rdf:resource="http://creativecommons.org/licenses/by/3.0/" /></cc:Work><cc:License
         rdf:about="http://creativecommons.org/licenses/by/3.0/"><cc:permits
           rdf:resource="http://creativecommons.org/ns#Reproduction" /><cc:permits
           rdf:resource="http://creativecommons.org/ns#Distribution" /><cc:requires
           rdf:resource="http://creativecommons.org/ns#Notice" /><cc:requires
           rdf:resource="http://creativecommons.org/ns#Attribution" /><cc:permits
           rdf:resource="http://creativecommons.org/ns#DerivativeWorks" /></cc:License></rdf:RDF></metadata><sodipodi:namedview
     pagecolor="#ffffff"
     bordercolor="#666666"
     borderopacity="1"
     objecttolerance="10"
     gridtolerance="10"
     guidetolerance="10"
     inkscape:pageopacity="0"
     inkscape:pageshadow="2"
     inkscape:window-width="1536"
     inkscape:window-height="801"
     id="namedview35"
     showgrid="false"
     inkscape:zoom="2.1687207"
     inkscape:cx="265.13327"
     inkscape:cy="84.292974"
     inkscape:window-x="-8"
     inkscape:window-y="-8"
     inkscape:window-maximized="1"
     inkscape:current-layer="svg2" /><defs
     id="defs4"><style
       type="text/css"
       id="style6"><![CDATA[
    .str0 {stroke:#5CC6D0;stroke-width:50}
    .str2 {stroke:#FEFEFE;stroke-width:7.62001}
    .str3 {stroke:#FFF212;stroke-width:7.62001}
    .str1 {stroke:#ED3237;stroke-width:7.62001}
    .str4 {stroke:#00A859;stroke-width:7.62001}
    .str5 {stroke:#FFCC29;stroke-width:7.62001}
    .fil3 {fill:#FEFEFE}
    .fil4 {fill:#FFF212}
    .fil2 {fill:#ED3237}
    .fil5 {fill:#119E54}
    .fil0 {fill:#0098DA}
    .fil1 {fill:#32416F}
    .fil6 {fill:#CC9933}
   ]]></style></defs><g
     id="g3374"><rect
       style="fill:#0098da;stroke:#5cc6d0;stroke-width:50"
       id="rect11"
       height="4708"
       width="14915"
       y="25"
       x="25"
       class="fil0 str0" /><g
       transform="translate(112.89197,0)"
       id="g13"><g
         id="g15"><path
           style="fill:#32416f"
           inkscape:connector-curvature="0"
           id="path17"
           d="m 4103,631 c 8,-11 24,-59 24,-74 0,-17 -6,-34 -15,-54 -12,-26 -42,-75 -82,-72 -49,3 -162,68 -171,129 -4,26 13,55 28,76 23,31 46,43 85,43 50,0 113,-23 131,-48 z M 3956,311 c 9,0 17,1 25,2 178,23 249,103 262,275 8,117 -95,194 -204,189 -133,-6 -309,-74 -324,-226 -13,-141 138,-192 241,-240 z m 372,2393 c 17,87 23,151 22,198 -4,161 -89,122 -152,209 55,78 128,241 128,336 0,12 -2,23 -6,33 -4,15 -9,28 -9,44 54,37 91,117 93,188 7,207 -158,374 -368,376 -303,2 -424,-269 -440,-519 -6,-107 6,-219 4,-329 -2,-75 -6,-154 -12,-232 -9,-113 -11,-223 -25,-308 l -29,-243 c -2,-15 -20,-99 -24,-112 -4,-16 -27,-101 -10,-107 6,-1 -4,-6 3,2 4,3 1,0 4,5 3,4 7,11 9,14 3,7 7,25 9,35 13,52 59,185 68,219 3,14 72,272 73,274 -11,52 -11,107 -2,160 12,72 38,141 72,193 0,132 21,324 42,458 28,176 48,351 302,348 77,0 202,-89 200,-169 0,-9 -1,-21 -4,-34 -7,-42 -29,-72 -63,-95 -5,-4 -9,-11 -15,-12 -44,6 -77,23 -94,68 -4,12 1,19 1,37 2,16 4,41 -19,40 -35,-1 -97,-48 -98,-123 -2,-108 92,-135 196,-146 24,-2 52,-3 87,-1 2,-13 1,-6 4,-17 5,-16 3,-28 0,-48 -13,-78 -105,-247 -209,-254 -39,-2 -69,16 -71,19 2,-50 24,-89 41,-106 35,-36 61,-26 93,-50 74,-54 104,-108 110,-156 10,-86 -76,-225 -178,-221 -71,4 -134,27 -214,100 -26,24 -50,69 -48,107 2,21 22,65 39,75 20,11 60,32 75,59 3,4 5,8 5,10 0,12 -77,121 -109,127 -46,-26 -106,-198 -109,-249 -1,-15 0,-41 6,-85 15,-105 93,-266 253,-302 31,-7 110,-10 157,-5 29,3 30,5 44,-23 13,-28 8,-37 18,-62 15,-42 61,-233 59,-276 -6,-114 -108,-207 -219,-202 -64,3 -222,91 -190,134 11,15 24,18 41,11 7,22 19,92 18,118 0,13 4,43 -16,81 -85,-133 -206,-252 -374,-253 -24,0 -72,16 -77,11 7,-193 30,-410 172,-561 23,-14 35,-3 45,-17 3,-5 6,-14 10,-29 -2,2 -25,-7 -47,-24 -41,-34 -143,-151 -135,-210 2,-8 5,-16 10,-24 64,-1 196,-8 326,-6 111,2 232,-9 333,-7 121,2 233,16 277,7 8,13 9,35 6,49 -19,94 -76,149 -132,181 -77,44 -182,43 -294,36 -40,-2 -80,-5 -119,-6 -21,-1 -35,-1 -46,6 -7,5 -27,21 -32,31 l 16,13 c -29,-18 -221,191 -230,356 0,6 -1,14 -3,24 -2,23 -3,51 23,45 8,-2 17,-9 24,-18 72,-41 126,68 141,74 9,3 19,5 35,4 0,-7 0,-11 -2,-18 99,-308 557,-233 596,71 18,147 -110,325 -159,446 -5,12 -15,20 -12,45 l 157,16 c 18,-1 28,9 29,24 4,44 -82,128 -81,142 z m 71,-2010 c 3,12 -9,39 -13,58 -44,168 -177,395 -376,384 -168,-10 -314,-95 -375,-245 -29,-70 -68,-173 -69,-206 98,133 270,213 424,230 203,23 292,-92 409,-221 z"
           class="fil1" /><path
           style="fill:#ed3237;stroke:#ed3237;stroke-width:7.6200099"
           inkscape:connector-curvature="0"
           id="path19"
           d="m 2932,2202 c 0,83 57,131 139,130 69,-1 161,-63 161,-134 0,-45 -73,-127 -128,-131 -102,-8 -172,67 -172,135 z m 21,-739 c -6,75 78,119 137,117 70,-2 126,-47 127,-128 0,-48 -51,-110 -101,-120 -80,-16 -157,46 -163,131 z m -243,1057 c -1,6 13,8 27,9 23,1 21,16 15,45 -7,42 -59,120 -59,131 -1,10 23,50 30,68 17,47 -56,240 -84,246 -16,2 -25,-8 -43,8 -12,10 -22,16 -25,32 l 8,4 c 1,1 2,1 3,1 1,1 1,1 2,2 31,14 48,15 73,40 31,30 59,92 69,143 19,94 17,294 19,399 0,25 1,207 -7,219 -20,-170 -44,-556 -254,-700 -14,-11 -60,-24 -64,-22 -14,-21 28,-124 45,-136 124,-32 139,-59 155,-175 8,-63 -42,-181 -130,-174 -114,9 -251,63 -267,193 -10,74 11,95 61,137 13,11 24,22 24,31 0,8 -2,16 -4,24 -10,31 -52,99 -83,115 -56,-80 -95,-258 -95,-361 0,-158 218,-304 343,-308 17,-1 32,1 45,6 11,4 30,12 39,13 10,-5 18,-4 18,-15 0,-34 -11,-80 -29,-112 -72,-127 -143,-313 -202,-443 -39,-108 -180,-327 -195,-392 -3,-13 2,-29 3,-42 0,-11 -2,-20 -15,-22 -16,-3 -10,10 -18,21 -6,7 -13,12 -19,18 -28,31 -166,260 -176,295 -4,18 -10,21 -15,39 34,0 101,-41 145,-37 122,5 205,125 209,239 8,211 -107,365 -317,398 -266,43 -395,-174 -383,-409 3,-65 -23,-749 -18,-767 l 0,-52 c -1,-34 -5,-45 2,-49 16,-9 198,-7 212,1 -2,19 -7,15 -7,29 0,54 1,138 13,191 -3,22 -29,49 -37,72 -26,77 -93,457 -75,572 19,124 92,252 235,252 185,0 263,-331 43,-349 -43,-4 -77,3 -113,26 -9,3 -17,0 -21,-8 0,-1 14,-295 21,-314 13,-36 93,-154 125,-169 39,5 77,-43 9,-45 -23,-1 -44,8 -75,-16 -30,-24 -34,-40 -50,-72 -10,-19 -11,-23 -14,-49 -6,-54 -7,-85 0,-103 6,-18 21,-23 46,-23 124,0 548,-22 639,10 15,56 15,152 -17,207 -32,53 -151,110 -169,154 15,22 44,37 55,59 44,88 224,579 241,631 15,27 17,21 32,63 7,19 16,25 24,22 10,-2 17,-16 15,-31 -32,-250 -42,-656 -125,-876 -3,-10 -6,-14 -14,-16 -5,-2 -10,-3 -15,-4 28,-72 43,-137 36,-215 61,15 106,23 190,9 9,14 14,31 14,54 l 4,144 c -16,124 1,107 8,207 l -63,927 z m 382,-1326 c 113,3 254,144 257,255 3,89 -135,259 -250,261 -152,4 -307,-117 -278,-278 21,-116 187,-252 271,-238 z m 249,1012 c 16,137 -83,264 -226,267 -136,3 -304,-107 -305,-253 -1,-123 121,-272 240,-272 171,0 271,87 291,258 z"
           class="fil2 str1" /><path
           style="fill:#fefefe;stroke:#fefefe;stroke-width:7.6200099"
           inkscape:connector-curvature="0"
           id="path21"
           d="m 284,1181 c 8,-18 173,-12 184,-1 4,5 2,30 -6,52 -10,28 -5,83 7,118 -3,62 -73,143 -73,225 0,153 -24,316 -47,466 -22,148 88,256 234,256 105,0 173,-67 189,-164 13,-82 -63,-182 -151,-173 -47,5 -49,32 -82,39 -5,-17 -4,-20 -5,-33 l -9,-103 c -9,-73 -12,-88 1,-164 12,-69 33,-127 89,-188 l 24,-27 c 3,-4 2,-2 4,-7 4,-8 3,-32 2,-44 8,-12 4,-31 -6,-37 -71,-44 -119,-71 -115,-165 0,-20 14,-48 32,-53 4,-2 618,-10 646,2 -5,37 -10,64 -14,106 -4,35 -41,103 -71,122 -20,13 -44,20 -63,27 -21,7 -45,10 -48,34 -1,7 0,16 1,26 2,15 6,31 11,41 8,20 15,29 25,49 95,191 175,404 270,602 13,27 -5,107 47,84 1,-30 7,-28 3,-53 -22,-143 -2,-322 -15,-466 -2,-29 -6,-57 -12,-83 -9,-40 -74,-271 -73,-286 2,-52 3,-108 -3,-161 -2,-13 2,-30 4,-43 54,8 170,13 221,3 6,22 0,34 0,56 0,295 -2,596 3,900 -27,366 0,669 -14,968 3,63 13,181 9,195 -3,10 -13,-28 -37,-160 -6,-91 -88,-418 -112,-528 -15,-66 -82,-240 -127,-347 -103,-247 -227,-495 -348,-736 -6,-12 -10,-30 -19,-38 -6,-5 -15,-6 -28,4 -115,73 -140,194 -161,312 -6,15 4,40 -11,71 29,0 67,-25 105,-25 86,0 191,148 206,231 34,182 -160,359 -341,338 -143,-16 -281,-61 -330,-206 -47,-137 -23,-253 -18,-387 5,-158 -1,-322 6,-487 2,-62 10,-128 16,-162 z M 897,663 c 17,1 43,-17 54,-30 6,-8 22,-8 28,-12 2,-1 4,-3 7,-9 10,-14 23,-73 22,-90 -2,-55 -49,-116 -108,-115 -26,0 -44,7 -66,21 -38,26 -73,69 -88,101 -7,13 -10,22 -10,30 -2,88 97,103 161,104 z M 1114,550 C 1146,677 1012,762 898,750 795,739 584,649 612,510 629,425 777,318 868,320 c 105,4 169,48 201,93 26,37 32,94 45,137 z M 911,955 c 68,-66 132,-125 204,-189 11,-9 49,-20 67,-17 0,2 651,0 714,-8 224,-29 386,-76 599,-133 63,-17 119,-38 180,-61 -1,3 -10,13 -16,19 -20,18 -63,44 -69,48 -203,144 -403,262 -655,317 -33,7 -44,6 -76,8 -173,10 -491,-17 -623,4 -55,9 -68,0 -107,39 -39,38 -92,96 -97,101 -33,35 -13,48 -71,51 l -106,0 C 777,1002 644,873 480,865 c -63,-3 -105,15 -174,31 -1,-22 164,-182 186,-180 96,9 308,192 372,258 7,8 17,9 25,9 6,-1 35,-12 34,-20 -1,-2 -5,-4 -12,-8 z"
           class="fil3 str2" /><path
           style="fill:#fefefe;stroke:#fefefe;stroke-width:7.6200099"
           inkscape:connector-curvature="0"
           id="path23"
           d="m 4696,1547 c -57,46 -105,137 -113,212 -3,28 0,54 10,74 8,15 1,6 14,16 -25,32 -66,29 -51,82 45,-4 5,-5 67,-45 39,-25 97,-37 142,-38 185,-5 351,336 433,376 24,13 5,-3 24,20 10,13 43,21 43,-28 0,-25 -14,-29 -14,-66 0,-45 -67,-580 -72,-596 -6,-16 -1,-51 -2,-81 -50,8 -221,-4 -321,2 -15,0 -29,1 -40,3 -46,7 -84,40 -120,69 z m 696,-352 c 30,1 27,1 31,10 4,19 13,54 12,98 -3,126 -17,322 -5,389 1,8 0,0 3,8 7,26 6,98 7,116 5,92 -16,890 -17,984 0,177 -5,326 -35,513 -4,-18 -2,-37 -9,-56 -111,-336 -135,-1184 -662,-1173 -76,11 -163,18 -230,44 -10,3 -15,6 -17,6 -5,0 -3,-5 -3,-23 0,-19 1,-36 3,-59 2,-45 -2,-101 -3,-147 -6,-187 11,-202 149,-393 17,-23 28,-43 25,-59 -2,-7 -84,-76 -115,-148 -7,-17 -31,-53 -30,-71 1,-19 9,-32 18,-42 40,-18 756,-1 878,3 z M 6669,664 c 5,22 -13,80 -40,137 -25,54 -57,108 -87,130 -78,58 -194,35 -250,95 -21,22 -33,54 -33,106 0,11 -8,18 -8,33 0,18 4,27 11,30 5,3 126,-9 189,-2 7,20 -25,79 -32,98 -23,66 -77,122 -144,135 -83,16 -209,22 -293,22 -28,-2 -67,-2 -89,20 -9,8 -14,11 -21,19 -36,43 -70,139 -84,194 -1,4 -12,10 -14,14 -5,16 -13,36 -7,47 4,7 13,11 32,9 5,-11 5,-15 9,-19 2,-2 6,-5 13,-9 86,-45 197,-41 292,-45 68,-2 147,14 221,-1 21,-4 40,-13 53,-18 10,-4 16,-5 16,0 0,1 -69,120 -78,142 -7,17 -14,29 -22,39 -34,41 -209,24 -268,18 -36,-3 -146,-1 -221,13 -30,6 -54,13 -66,23 -53,42 -96,170 -110,235 -9,26 -3,36 10,51 15,4 31,-9 41,-12 81,-22 92,-57 259,-63 239,-9 309,75 354,199 12,34 22,71 34,110 92,310 39,1026 16,1377 -9,-9 -83,-248 -98,-287 -112,-283 -314,-585 -644,-610 -80,-6 -83,30 -134,37 -1,-5 5,-115 6,-118 17,-75 88,-116 166,-128 196,-28 425,191 520,359 14,24 28,49 45,65 9,8 44,36 58,33 7,-5 15,-15 15,-24 0,0 -2,-16 -2,-16 -4,-56 -11,-112 -17,-168 -11,-112 -64,-486 -145,-560 -72,-65 -235,-90 -317,-88 -82,3 -260,33 -320,88 3,-172 6,-324 9,-495 0,-42 61,-159 80,-208 26,-65 32,-85 73,-141 5,-6 8,-11 12,-16 3,-4 8,-6 14,-10 12,-7 17,-19 17,-28 0,-10 -4,-18 -13,-21 -19,-4 -30,-8 -39,-10 -73,-17 -129,-139 -129,-175 0,-20 1,-51 4,-69 19,-11 509,-6 560,-5 22,1 34,0 44,-4 28,-10 52,-21 52,-50 2,-63 -54,-147 -85,-212 -4,-10 -13,-28 -8,-39 7,-12 29,-12 45,-20 1,0 170,5 211,-4 80,-19 182,-45 242,-114 14,-16 62,-44 95,-89 z"
           class="fil3 str2" /><path
           style="fill:#ed3237;stroke:#ed3237;stroke-width:7.6200099"
           inkscape:connector-curvature="0"
           id="path25"
           d="m 10701,3358 c 2,19 -1,23 9,43 l 10,-90 c -13,-45 -4,-548 -4,-761 0,-102 -6,-133 -49,-229 -92,-202 -273,-393 -588,-471 -35,-8 -100,-17 -161,-12 -37,3 -150,26 -173,67 -13,24 -28,36 -39,34 -33,-6 -9,-104 4,-131 52,-101 81,-170 162,-263 21,-16 40,-44 66,-63 69,-26 356,32 481,-28 44,-20 92,-124 115,-198 9,-27 14,-50 15,-63 -291,-9 -586,10 -879,1 -39,-1 -39,0 -69,18 -20,11 -27,23 -30,46 -5,37 45,102 61,137 6,13 15,20 24,26 24,14 52,12 53,44 1,27 -12,34 -25,48 -95,107 -89,115 -127,242 -8,26 -18,55 -15,80 3,22 0,33 4,55 6,38 -8,96 -2,117 6,21 6,75 29,86 25,8 65,-23 94,-22 40,-18 169,-23 243,-20 264,11 522,111 665,314 69,97 54,105 63,221 20,259 32,513 63,772 z m -853,244 c 98,0 156,-68 150,-147 -4,-51 -26,-107 -117,-152 -9,-2 -19,-3 -28,-3 -94,4 -180,77 -172,173 7,78 90,129 167,129 z M 9304,1245 c 0,-12 -18,-47 14,-53 16,-2 130,3 153,0 13,-2 22,-4 26,-1 3,3 3,8 -2,18 0,22 -4,22 -4,63 l 0,102 c 0,71 -4,63 -5,106 -11,277 -6,639 -1,903 -1,23 -3,69 -4,92 -5,243 -7,511 -12,754 -13,-2 -33,-111 -37,-131 -69,-289 -249,-1025 -691,-1025 -98,0 -109,9 -187,37 -13,5 -3,7 -20,2 8,-67 0,-30 0,-71 2,-62 13,-241 24,-285 l 8,-30 c 19,-74 31,-149 125,-199 10,-6 13,-7 25,-12 18,-8 24,-15 23,-36 -1,-17 -12,-16 -35,-25 -22,-9 -38,-19 -51,-31 -12,-10 -22,-21 -33,-35 -8,-12 -40,-52 -45,-61 -12,-27 5,-88 23,-107 21,-22 83,-24 110,-24 l 31,-1 c 140,6 297,0 440,0 13,0 54,-1 64,7 12,29 7,111 -3,143 -2,7 -5,15 -9,23 -14,33 -102,115 -142,115 -27,0 -73,2 -120,4 -41,2 -56,5 -76,21 -67,51 -137,153 -153,234 -7,36 -7,74 -8,111 -1,21 -20,77 17,68 15,-4 22,-16 34,-25 35,-24 70,-35 113,-38 292,-19 410,467 497,467 22,0 23,-5 18,-24 -4,-20 -2,-26 -5,-43 -4,-19 -11,-25 -14,-43 -30,-206 -50,-486 -88,-728 0,-3 -27,-111 -26,-116 7,-24 26,-98 26,-126 z m 238,1292 c 1,-2 1,-4 3,-5 8,-4 594,20 695,8 12,-1 10,-1 19,1 22,5 26,-1 33,15 8,17 2,37 0,53 l -7,75 c -10,54 -59,96 -107,116 -30,12 -62,26 -74,58 25,36 25,48 41,86 32,76 -19,223 -50,298 4,4 12,11 17,15 61,41 98,90 127,165 10,27 34,56 41,79 26,78 70,142 85,203 13,50 17,102 39,118 16,-10 21,-11 21,-26 1,-33 -16,-81 -21,-128 -32,-266 -33,-599 -67,-862 -4,-33 -5,-56 -5,-74 -1,-57 16,-52 19,-148 0,-3 1,-18 1,-28 1,-11 3,-13 22,-12 47,2 139,-1 172,-1 1,46 -3,114 -2,160 1,48 -24,86 -24,142 -43,327 -17,708 -28,1060 -1,14 7,39 6,53 -1,34 -3,309 -10,322 -48,-182 -288,-568 -313,-658 -4,-11 -5,-26 -5,-45 1,-12 0,-34 -2,-52 -13,0 -14,3 -20,14 -2,3 -5,8 -7,12 l -38,75 c -26,69 -187,131 -251,131 -119,2 -333,-102 -340,-272 -8,-169 106,-389 288,-387 77,1 149,78 214,75 33,-51 56,-115 45,-178 -4,-24 -18,-50 -48,-108 -4,-7 -12,-12 -12,-24 0,-17 4,-10 6,-13 5,-9 1,8 6,-9 -9,-12 -12,-18 -20,-29 -19,-1 -20,4 -35,8 -116,29 -403,-71 -418,-232 -1,-17 -1,-35 4,-51 z"
           class="fil2 str1" /><path
           style="fill:#fff212;stroke:#fff212;stroke-width:7.6200099"
           inkscape:connector-curvature="0"
           id="path27"
           d="m 6791,1485 c -6,9 -12,18 -18,27 -117,134 -175,269 -184,398 -1,16 -12,48 -9,48 3,0 10,-9 21,-15 108,-56 213,34 297,89 12,8 14,3 21,16 13,24 12,25 44,21 4,-21 8,-31 1,-51 -3,-10 -27,-498 -27,-505 0,-22 -8,-31 -24,-35 -26,-5 -95,2 -122,7 z m 1390,-19 c -22,-4 -44,0 -51,13 -2,5 -2,11 1,20 19,62 24,90 26,171 1,64 -9,91 -22,149 -7,33 -12,22 -6,60 21,11 64,-5 103,0 218,26 234,357 237,518 7,354 -22,936 -14,1180 7,42 64,170 62,242 -4,216 -216,274 -413,287 -258,17 -394,-342 -406,-548 -1,-26 0,-57 7,-94 7,-120 43,-237 10,-444 -21,-128 -18,-258 -47,-389 -18,-86 -49,-173 -68,-264 64,5 226,504 230,634 4,172 25,304 40,419 13,101 15,134 29,249 17,137 122,291 254,282 91,-5 229,-34 230,-136 0,-44 -28,-159 -113,-156 -57,1 -85,15 -97,33 -25,38 51,107 28,122 -35,24 -125,-5 -135,-121 -6,-73 88,-163 153,-166 51,-3 92,10 110,17 62,23 77,5 59,-34 l -17,-107 c -14,-302 -85,-837 -181,-1132 -4,-16 -7,-11 -12,-24 -19,-55 -45,-86 -78,-103 -63,-34 -147,-41 -253,-43 -28,0 -306,29 -313,41 44,-69 86,-144 133,-215 12,-18 28,-29 44,-39 17,-10 33,-8 55,-13 47,-10 57,-4 99,-4 14,-1 31,7 47,7 19,1 33,-13 37,-30 3,-13 -2,-25 -3,-38 -2,-27 23,-122 18,-223 -2,-25 -11,-25 -22,-64 -6,-24 15,-64 10,-68 -6,-5 -30,11 -52,5 -119,-3 -335,-143 -334,-247 0,-29 39,-16 59,-15 182,-5 681,0 842,-6 10,0 13,-1 13,4 0,91 -69,267 -179,273 -37,1 -93,2 -120,-3 z M 6879,1192 c 162,10 414,-9 570,1 15,2 42,13 41,32 -12,246 -14,607 -18,977 -7,555 -13,1084 -32,1387 56,48 79,119 73,192 -14,159 -165,332 -413,320 -283,-14 -398,-232 -402,-469 -1,-57 5,-115 16,-172 28,-142 -1,-299 0,-405 2,-166 -33,-319 -68,-454 -30,-110 -72,-209 -72,-209 166,325 198,364 262,671 16,74 29,228 36,340 4,75 -7,222 18,347 25,131 159,236 271,230 112,-6 173,-50 181,-144 8,-95 -62,-162 -124,-168 -40,-4 -77,11 -83,38 -4,19 17,70 13,78 -2,3 -27,25 -36,22 -38,-9 -64,-64 -62,-125 2,-106 63,-155 141,-162 48,-5 103,6 153,29 15,7 32,-4 34,-18 1,-7 -2,-15 -11,-22 8,-9 8,-22 11,-38 12,-95 -26,-1689 -95,-1960 l 1,-41 c 0,-14 -19,-11 -31,-9 -9,2 -24,7 -37,8 l -148,4 c -14,1 -39,31 -41,44 -15,123 98,848 49,863 -14,0 -318,-337 -594,-286 -29,5 -50,14 -66,4 -16,-2 1,-59 59,-107 12,-10 10,-28 10,-39 15,-114 7,-191 65,-295 27,-49 76,-129 93,-163 9,-19 18,-32 17,-47 -1,-9 -7,-19 -20,-31 -31,-30 -62,-69 -85,-105 -8,-13 -16,-39 -18,-51 -3,-20 -9,-43 -8,-65 l 93,-1 c 101,-3 153,-3 257,-1 z"
           class="fil4 str3" /><path
           style="fill:#119e54;stroke:#00a859;stroke-width:7.6200099"
           inkscape:connector-curvature="0"
           id="path29"
           d="m 12584,2770 c -4,26 -51,121 -66,139 l -53,61 c -4,2 -9,4 -14,4 -19,2 -41,-10 -60,-11 -42,-4 -104,-4 -166,-2 -63,2 -126,7 -171,13 -59,8 -136,27 -173,76 -27,36 -76,109 -92,151 -4,11 -8,21 -11,33 -4,18 -4,41 0,53 28,-4 36,-38 52,-52 56,-49 145,87 163,95 18,12 59,15 50,-25 0,-48 124,-157 200,-160 721,-30 52,887 -5,1104 -5,-48 206,-528 224,-673 2,-19 1,-40 -2,-62 -19,-116 -115,-254 -231,-229 -64,13 -125,43 -174,89 28,81 44,137 52,202 -36,-31 -72,-97 -108,-128 -102,-89 -221,-151 -355,-129 9,-64 27,-142 64,-219 12,-31 65,-87 90,-108 27,-21 31,-2 32,-45 -24,0 -35,2 -57,6 -46,-39 -142,-124 -138,-186 14,-9 57,-1 75,0 149,8 875,-11 874,3 z M 11359,1192 c -3,95 -8,118 -44,211 -18,45 -157,96 -159,129 -1,22 239,722 266,830 6,17 65,115 84,109 9,-3 13,-15 13,-31 -2,-118 -108,-731 -93,-833 8,-54 -20,-180 -64,-217 12,22 61,-163 39,-201 61,4 123,7 184,10 5,9 9,58 9,71 5,104 -11,217 0,325 1,23 6,33 5,45 -2,42 -10,75 -6,133 0,202 -16,484 0,681 4,53 -12,97 -12,104 0,9 2,2 7,13 7,15 1,122 2,164 0,77 4,376 -8,402 -20,-58 -25,-92 -40,-149 -19,-74 -46,-153 -67,-228 -81,-317 -294,-842 -414,-1158 l -36,-66 c -11,-20 -40,-30 -61,-15 -13,10 -25,19 -38,28 -33,21 -8,13 -29,36 -55,60 -148,270 -187,345 -5,25 20,46 41,34 33,-18 10,-35 31,-54 25,-21 62,-39 90,-36 97,8 189,137 242,270 34,87 57,191 61,256 -10,-9 -34,-48 -41,-58 -54,-84 -319,-279 -427,-278 -27,0 -77,28 -94,18 -8,-5 -14,-21 -14,-56 0,-105 119,-494 206,-531 8,-3 28,-34 30,-44 -11,-10 -10,-4 -22,-10 -82,-18 -191,-103 -202,-202 -4,-29 -1,-23 9,-43 144,0 675,17 739,-4 z m 1362,1783 c 0,42 -2,88 -13,110 -12,-24 -24,-69 -29,-111 -9,-68 -28,-177 -55,-229 -83,-156 -244,-238 -423,-255 -195,-18 -410,28 -568,106 -2,-40 5,-69 4,-105 -1,-15 -2,2 1,-17 1,-8 91,-257 97,-263 5,-32 -86,-107 -91,-121 -1,-5 1,-63 4,-85 2,-23 24,-16 49,-16 171,-6 599,4 697,12 28,1 44,-6 73,6 3,21 -8,88 -15,102 -33,67 -126,84 -188,85 -86,3 -194,-17 -236,-17 -18,0 -53,-6 -81,-4 -14,1 -24,6 -32,11 -61,39 -125,133 -135,206 -7,19 -14,28 -5,51 l 4,0 c 73,3 249,-90 458,-73 268,21 478,244 484,607 z m -982,-1512 1,2 c -4,4 -2,1 -1,-2 z m 410,287 c -137,-14 -422,-3 -508,105 -1,-45 -2,-38 -1,-87 -5,-21 2,-108 14,-126 51,-82 65,-90 108,-132 11,-6 41,-25 48,-35 4,-4 -5,-29 -12,-35 l -32,-19 c -27,-19 -109,-138 -111,-197 0,-9 2,-17 7,-24 6,-10 15,-12 30,-9 19,4 21,2 43,2 242,3 482,8 725,-3 30,-1 139,-5 163,5 -2,17 -4,33 -8,48 -34,139 -136,196 -272,213 -108,14 -231,-7 -330,19 -12,3 -18,-2 -28,8 -7,6 -16,16 -27,17 -33,2 -139,115 -163,148 -8,9 -10,22 -7,38 2,13 1,13 14,10 15,-4 17,-10 29,-21 3,-3 5,-5 6,-5 153,-50 217,-50 376,-32 291,31 379,91 433,411 4,23 20,301 -5,336 -19,-16 -27,-94 -34,-135 -11,-61 -27,-224 -48,-268 -70,-149 -202,-209 -410,-232 z M 11078,703 c 119,128 261,240 429,292 23,5 296,82 306,81 l 95,-6 c -5,33 -127,33 -166,34 -66,0 -226,-22 -284,-40 -175,-53 -256,-78 -340,-124 -113,-61 -279,-216 -365,-257 -31,-14 -123,-40 -156,-37 -65,7 -147,83 -146,149 2,66 63,127 125,121 58,-5 85,-69 90,-69 6,0 15,28 19,38 7,13 10,26 9,39 -2,57 -68,104 -126,103 -160,-2 -229,-115 -229,-234 -1,-189 162,-281 355,-276 142,3 287,82 384,186 z m 1938,374 c -33,37 -84,29 -96,29 -45,2 -111,-8 -185,-25 -179,-40 -404,-120 -476,-179 -99,-80 -280,-269 -414,-278 -84,-6 -132,60 -136,137 -3,58 37,89 102,99 65,9 89,-69 116,-54 14,9 28,63 23,90 -9,53 -97,68 -141,69 -100,-24 -282,-93 -260,-225 28,-210 196,-248 377,-247 162,2 269,114 377,219 218,212 341,285 588,359 42,9 84,17 125,6 z"
           class="fil5 str4" /><path
           style="fill:#32416f"
           inkscape:connector-curvature="0"
           id="path31"
           d="m 13401,624 c 8,-10 24,-59 24,-73 0,-18 -6,-35 -15,-55 -12,-26 -42,-75 -83,-72 -48,4 -161,68 -171,130 -4,26 13,55 29,76 22,30 46,42 84,42 51,0 114,-23 132,-48 z m -147,-319 c 9,0 17,0 25,1 178,23 249,103 261,275 9,117 -94,194 -203,189 -133,-6 -309,-74 -324,-226 -13,-140 138,-191 241,-239 z m 442,383 c 4,12 -8,39 -12,57 -44,168 -177,395 -376,384 -169,-9 -314,-95 -376,-245 -28,-70 -67,-172 -68,-206 98,133 269,214 423,231 204,22 293,-93 409,-221 z m 666,2050 c 0,170 -138,237 -317,239 -106,1 -261,-128 -253,-267 8,-134 124,-233 284,-239 141,-6 286,116 286,267 z m -268,108 c 74,4 113,-55 123,-108 17,-90 -69,-156 -151,-156 -102,-1 -158,67 -147,142 11,82 98,118 175,122 z m -293,-1321 c 0,-166 136,-233 311,-234 104,-2 256,125 248,261 -7,132 -121,229 -278,235 -138,5 -281,-114 -281,-262 z m 264,-106 c -73,-3 -112,54 -121,106 -17,88 67,153 147,153 101,0 156,-65 145,-139 -11,-81 -96,-116 -171,-120 z m 358,435 c -96,126 -176,197 -344,204 -132,6 -274,-81 -355,-211 4,190 182,408 373,418 143,8 313,-265 326,-411 z m -797,844 c 4,58 28,113 21,168 -8,61 -36,121 -100,185 -24,24 -51,36 -55,52 96,138 77,146 129,302 2,9 1,18 2,26 5,32 -14,57 -14,86 54,37 90,117 93,188 7,208 -158,374 -368,376 -352,3 -458,-362 -440,-635 8,-119 4,-286 -8,-445 -9,-113 -11,-222 -25,-308 l -29,-242 c -2,-16 -30,-106 -34,-119 -3,-14 -14,-38 -18,-60 -2,-11 -3,-22 2,-30 12,15 40,68 43,82 12,53 57,148 66,182 3,14 63,260 64,262 -10,26 -12,79 -10,124 4,86 36,192 88,260 1,132 21,305 43,440 28,175 83,319 284,338 122,11 220,-80 218,-160 0,-9 -2,-20 -4,-34 -5,-33 -49,-97 -79,-97 -44,0 -76,14 -93,58 -4,13 0,19 1,37 0,6 11,13 11,20 -1,11 -16,21 -30,20 -35,-1 -107,-47 -108,-122 -3,-109 101,-136 206,-146 23,-3 52,-4 86,-2 2,-12 1,-6 5,-16 5,-17 3,-29 -1,-49 -12,-78 -105,-247 -208,-253 -39,-3 -70,15 -71,18 1,-50 24,-89 40,-106 58,-59 92,8 168,-160 27,-60 39,-103 35,-133 -9,-79 -110,-147 -177,-133 -93,21 -134,27 -214,100 -26,23 -50,68 -48,107 2,21 22,65 39,74 20,12 47,48 63,75 3,5 4,8 4,11 0,11 -64,104 -96,110 -46,-26 -106,-198 -109,-249 -1,-15 0,-40 6,-85 15,-105 93,-266 253,-302 39,-9 111,-11 145,0 54,-84 137,-279 132,-366 -6,-114 -107,-207 -218,-202 -64,3 -177,73 -177,121 0,5 1,10 3,14 4,9 13,15 25,11 7,21 19,91 18,117 -1,13 3,43 -17,81 -121,-190 -245,-241 -336,-248 -82,-6 -137,24 -139,23 4,-46 14,-87 27,-119 58,-148 83,-100 124,-321 9,-46 21,-93 46,-137 l 21,-56 c 3,-8 -16,-8 -23,-13 -18,-15 -70,-36 -101,-70 -41,-45 -69,-108 -64,-142 1,-8 5,-16 10,-23 63,-2 236,-8 366,-6 110,2 231,-10 333,-8 121,2 257,17 301,7 18,29 -14,172 -162,237 -111,48 -263,27 -402,23 -20,0 -40,3 -50,10 -8,6 -23,17 -27,27 -9,12 -18,23 -27,34 -54,68 -180,209 -187,335 0,-5 -40,58 10,59 27,1 50,-15 88,-10 61,9 55,64 87,76 9,3 19,5 35,4 2,-80 164,-211 245,-214 201,-6 296,101 314,229 23,163 -70,366 -155,485 -7,10 -14,19 -11,44 l 187,16 c 17,0 27,9 29,25 4,44 -82,127 -81,142 z"
           class="fil1" /></g><path
         style="fill:#cc9933;stroke:#ffcc29;stroke-width:7.6200099"
         inkscape:connector-curvature="0"
         id="path33"
         d="m 3845,2872 c 0,-61 154,-145 213,-145 96,-1 133,78 131,155 -2,55 -30,124 -84,148 -23,11 -50,-3 -105,36 -21,15 -49,107 -51,137 -5,48 -29,50 -29,63 0,5 3,11 10,20 50,13 82,-37 118,-42 42,-5 161,102 187,182 6,20 7,37 2,49 -17,2 -36,-11 -64,-9 -112,8 -232,78 -237,193 -3,90 97,168 159,155 67,-14 21,-115 85,-122 24,-2 25,9 39,25 19,24 5,51 6,65 3,40 -61,102 -118,97 -228,-24 -246,-91 -287,-290 -20,-98 -46,-319 -36,-404 20,2 25,14 32,19 4,2 9,3 16,-2 32,-19 128,-162 126,-189 -2,-43 -113,-69 -113,-141 z m 9298,-7 c 0,-61 154,-145 213,-145 34,-1 125,57 132,96 3,17 -2,47 -22,101 -63,170 -69,73 -168,142 -22,15 -49,108 -52,137 -4,49 -28,50 -28,64 0,4 3,10 9,19 50,14 82,-37 119,-41 42,-6 161,102 187,182 6,19 7,36 1,49 -16,2 -35,-12 -64,-9 -111,8 -231,77 -236,193 -3,89 97,168 159,154 20,-4 50,-17 56,-32 8,-22 -12,-51 -2,-70 6,-10 15,-18 31,-19 36,-4 67,62 63,93 -12,99 -134,108 -211,97 -122,-17 -177,-126 -212,-294 -20,-98 -46,-318 -37,-404 20,2 26,14 33,19 4,2 9,3 16,-2 32,-18 127,-162 126,-189 -2,-43 -113,-69 -113,-141 z m 553,-2177 c 4,12 -8,39 -12,57 -44,168 -177,395 -376,384 -169,-9 -314,-95 -376,-245 -28,-70 -67,-172 -68,-206 98,133 269,214 423,231 204,22 293,-93 409,-221 z m -70,2010 c 4,58 28,113 21,168 -8,61 -36,121 -100,185 -24,24 -51,36 -55,52 96,138 77,146 129,302 2,9 1,18 2,26 5,32 -14,57 -14,86 54,37 90,117 93,188 7,208 -158,374 -368,376 -352,3 -458,-362 -440,-635 8,-119 4,-286 -8,-445 -9,-113 -11,-222 -25,-308 l -29,-242 c -2,-16 -30,-106 -34,-119 -3,-14 -14,-38 -18,-60 -2,-11 -3,-22 2,-30 12,15 40,68 43,82 12,53 57,148 66,182 3,14 63,260 64,262 -10,26 -12,79 -10,124 4,86 36,192 88,260 1,132 21,305 43,440 28,175 83,319 284,338 122,11 220,-80 218,-160 0,-9 -2,-20 -4,-34 -5,-33 -49,-97 -79,-97 -44,0 -76,14 -93,58 -4,13 0,19 1,37 0,6 11,13 11,20 -1,11 -16,21 -30,20 -35,-1 -107,-47 -108,-122 -3,-109 101,-136 206,-146 23,-3 52,-4 86,-2 2,-12 1,-6 5,-16 5,-17 3,-29 -1,-49 -12,-78 -105,-247 -208,-253 -39,-3 -70,15 -71,18 1,-50 24,-89 40,-106 58,-59 92,8 168,-160 27,-60 39,-103 35,-133 -9,-79 -110,-147 -177,-133 -93,21 -134,27 -214,100 -26,23 -50,68 -48,107 2,21 22,65 39,74 20,12 47,48 63,75 3,5 4,8 4,11 0,11 -64,104 -96,110 -46,-26 -106,-198 -109,-249 -1,-15 0,-40 6,-85 15,-105 93,-266 253,-302 39,-9 111,-11 145,0 54,-84 137,-279 132,-366 -6,-114 -107,-207 -218,-202 -64,3 -177,73 -177,121 0,5 1,10 3,14 4,9 13,15 25,11 7,21 19,91 18,117 -1,13 3,43 -17,81 -121,-190 -245,-241 -336,-248 -82,-6 -137,24 -139,23 4,-46 14,-87 27,-119 58,-148 83,-100 124,-321 9,-46 21,-93 46,-137 23,-15 35,-4 44,-18 4,-5 7,-14 10,-29 -1,2 -34,-5 -56,-22 -18,-15 -70,-36 -101,-70 -41,-45 -69,-108 -64,-142 1,-8 5,-16 10,-23 63,-2 236,-8 366,-6 110,2 231,-10 333,-8 121,2 257,17 301,7 18,29 -14,172 -162,237 -111,48 -263,27 -402,23 -20,0 -40,3 -50,10 -8,6 -23,17 -27,27 -9,12 -18,23 -27,34 -54,68 -180,209 -187,335 0,-5 -40,58 10,59 27,1 50,-15 88,-10 61,9 55,64 87,76 9,3 19,5 35,4 2,-80 164,-211 245,-214 201,-6 296,101 314,229 23,163 -70,366 -155,485 -7,10 -14,19 -11,44 l 187,16 c 17,0 27,9 29,25 4,44 -82,127 -81,142 z m -949,-577 c 49,-23 98,-31 145,-29 143,8 267,117 318,230 9,19 27,45 46,50 10,-10 14,-19 18,-33 10,-30 28,-77 27,-106 -3,-70 -12,-114 -24,-172 28,-32 61,-69 114,-67 91,3 157,95 161,184 5,90 -57,214 -99,279 -62,-10 -88,-15 -149,4 -113,36 -186,141 -244,230 -1,-1 -61,-197 -64,-207 -10,-41 -85,-208 -106,-244 -13,-25 -47,-97 -82,-90 -25,5 -1,67 4,87 9,51 52,219 57,258 19,135 5,302 25,439 4,28 9,139 8,162 -3,114 8,222 -2,340 -30,336 126,680 482,697 260,12 446,-190 442,-435 -1,-55 -39,-177 -95,-201 10,-25 11,-40 8,-79 -5,-108 -49,-196 -117,-302 74,-53 140,-171 146,-253 3,-36 -11,-108 -11,-153 0,-27 21,-55 32,-79 13,-30 34,-40 39,-91 3,-36 -39,-59 -73,-59 l -129,-7 c 75,-129 166,-319 152,-481 60,173 211,328 391,320 189,-9 357,-256 373,-467 0,-20 0,-33 -2,-45 -2,-14 -6,-26 -15,-47 -119,139 -213,254 -388,250 -146,-4 -220,-71 -331,-225 -3,-6 -4,-7 -8,-13 -9,-1 -12,-3 -17,-2 -18,2 -29,18 -30,36 -2,19 -2,38 -1,57 1,13 2,25 4,37 -44,-99 -145,-176 -326,-187 -116,-7 -277,87 -273,227 -19,-32 -94,-94 -130,-94 -8,1 -17,1 -27,3 6,-147 100,-243 216,-334 41,-19 98,-11 139,-12 79,-1 244,-9 312,-48 125,-72 171,-142 188,-249 6,-42 -9,-61 -67,-69 -75,-11 -189,-4 -265,-2 183,-86 280,-300 291,-417 0,-19 0,-32 -2,-44 -3,-13 -8,-26 -18,-46 -15,6 -25,20 -28,33 -14,22 -95,100 -117,116 -88,62 -209,96 -303,94 -169,-4 -255,-68 -383,-218 -4,-6 -4,-7 -9,-13 -10,-1 -15,-3 -20,-2 -21,2 -24,17 -25,35 -7,57 27,155 72,242 36,71 75,116 111,147 -34,6 -82,3 -115,-8 -54,-19 -109,-37 -162,-60 -124,-54 -311,-206 -399,-291 -130,-127 -234,-264 -432,-257 -179,7 -421,78 -421,297 0,164 169,250 292,264 48,6 214,-32 213,-103 0,-18 -46,-120 -59,-130 -28,-21 -96,55 -131,48 -34,-3 -56,-9 -57,-50 -2,-45 44,-83 88,-86 105,-9 329,231 414,273 101,51 294,120 470,156 63,13 123,21 177,23 -64,0 -126,0 -167,0 -19,0 -54,-3 -63,19 -1,-8 -3,-14 -7,-17 -174,29 -511,10 -634,6 -70,-1 -159,-9 -225,-6 36,-6 141,-36 164,-62 7,-8 8,-16 5,-22 -4,-8 -14,-14 -25,-16 -1,-1 -89,7 -111,8 -28,0 -179,-39 -297,-81 -143,-51 -291,-143 -389,-260 -100,-119 -245,-230 -415,-228 -324,5 -440,95 -446,335 -4,137 130,284 267,273 110,-9 179,-53 179,-156 0,-30 -25,-126 -63,-131 -22,-2 -37,71 -112,71 -29,0 -52,-51 -51,-80 2,-46 56,-73 101,-78 24,-3 116,18 131,27 134,85 197,160 357,250 122,68 144,71 370,119 25,5 137,25 160,34 -32,4 -867,-5 -967,-3 -22,1 -53,13 -70,19 -3,1 -12,1 -17,1 -9,-2 -16,-10 -24,-16 -4,-2 -847,-5 -889,-2 -27,1 -52,-6 -82,2 -9,2 -43,21 -47,21 -13,0 -9,-10 -19,-20 -45,1 -174,8 -215,0 -15,-3 -20,15 -34,15 -24,0 -36,-16 -56,-15 -157,1 -384,-3 -541,-2 -48,0 -55,20 -103,20 -19,0 -4,-15 -55,-15 -298,2 -592,-12 -886,-12 -9,0 -37,29 -47,27 -21,-4 -8,-16 -28,-19 -18,-4 -62,-11 -74,-9 -296,2 -621,3 -919,8 -10,1 -21,5 -30,10 -5,2 -11,4 -16,4 -6,0 -13,-1 -19,-3 -11,-4 -26,-13 -38,-12 -49,3 -89,-4 -151,0 -2,-4 -3,-9 -4,-15 -1,-25 15,-55 25,-69 17,-25 70,-23 99,-30 62,-15 111,-35 151,-67 40,-33 69,-77 92,-140 20,-56 36,-117 50,-175 7,-32 11,-46 9,-77 -35,-10 -39,26 -55,44 -42,46 -62,65 -105,107 -71,59 -165,99 -231,108 -70,9 -151,-4 -202,-1 l -36,2 c -36,2 -66,16 -71,48 -5,32 6,42 17,63 18,40 86,171 83,208 -170,7 -375,-11 -531,-2 -22,2 -47,6 -64,11 -18,4 -24,8 -38,8 -7,0 -14,-2 -25,-4 -13,-3 -43,-20 -54,-19 l -913,4 c -27,-12 -47,10 -46,39 -2,-26 -13,-40 -54,-46 -23,-4 -163,1 -243,3 183,-86 280,-300 290,-417 0,-20 0,-32 -2,-44 -2,-13 -7,-26 -18,-46 -15,6 -25,20 -28,33 -14,22 -95,100 -117,116 -88,62 -209,96 -303,93 -169,-4 -255,-68 -382,-217 -4,-6 -5,-7 -10,-13 -10,-2 -14,-3 -19,-3 -21,3 -24,18 -26,36 -6,56 27,155 72,242 92,179 204,196 222,224 -79,0 -351,-2 -403,-1 -4,8 -6,10 -9,17 0,0 -7,19 -7,19 6,74 58,202 124,258 11,11 14,20 14,28 -106,74 -189,456 -184,580 2,32 14,48 26,65 2,3 8,14 12,13 1,0 17,-11 22,-14 22,-10 55,-16 73,-15 111,7 298,137 344,239 8,18 26,45 45,50 10,-10 14,-19 19,-33 9,-30 28,-77 26,-107 -3,-70 -12,-113 -24,-171 28,-32 61,-69 114,-67 91,2 157,94 161,184 5,90 -36,214 -79,278 -62,-9 -108,-15 -169,5 -113,36 -185,141 -244,230 0,-1 -61,-197 -63,-208 -10,-41 -70,-219 -91,-254 -10,-21 -5,-11 -15,-31 -8,-16 -38,-39 -51,-39 -13,1 -23,11 -18,32 3,8 3,24 6,35 9,50 36,230 41,269 19,135 5,302 25,439 4,28 9,139 8,162 -1,45 2,89 4,134 8,121 -4,226 1,340 14,289 165,548 476,563 259,12 445,-191 441,-435 -1,-55 -39,-177 -95,-201 10,-26 11,-40 8,-79 -4,-109 -45,-196 -112,-301 107,-56 147,-116 153,-198 4,-57 -7,-125 -23,-209 0,-27 21,-55 32,-79 13,-30 34,-41 39,-92 3,-36 -39,-59 -73,-58 l -99,-7 c 32,-91 105,-209 141,-325 l -1,21 c -2,30 -2,41 46,29 69,-18 143,-43 212,-43 509,4 543,719 653,1132 9,34 12,62 21,92 14,14 24,20 33,25 29,14 41,15 47,8 6,-9 3,-28 5,-54 8,-120 2,-249 34,-369 3,-10 7,-18 16,-24 66,-46 61,-37 141,-31 283,21 494,325 580,570 41,119 97,251 133,370 -6,74 27,114 37,32 1,-4 30,-21 5,-63 -1,-3 -2,-15 -1,-22 30,-297 103,-1162 11,-1436 -12,-34 -28,-73 -41,-108 -72,-193 -173,-218 -386,-240 -81,-9 -217,20 -282,67 -4,-34 52,-178 97,-182 86,-9 159,-23 246,-15 21,2 203,3 212,1 60,3 95,-36 106,-52 26,-40 78,-198 113,-239 11,-13 2,-7 9,-20 -9,-10 -16,-11 -22,-8 -6,3 -12,8 -20,11 -50,24 -198,22 -322,23 -84,1 -205,-3 -280,42 -2,-33 55,-158 88,-168 7,-3 16,-4 28,-4 92,-1 196,-8 285,-3 107,6 211,-133 249,-231 22,44 53,115 127,191 -25,64 -63,127 -97,178 -57,83 -58,209 -75,312 -5,33 -53,85 -54,139 0,31 5,76 23,86 11,6 17,3 30,1 42,-5 53,-20 72,-26 198,-57 469,185 575,327 1,2 20,78 52,39 13,-16 7,-28 1,-40 11,-93 -33,-760 -48,-896 -5,-27 44,-59 70,-58 18,2 56,-6 76,-3 11,20 10,43 13,67 48,427 84,1674 78,1878 -1,19 -2,29 -3,29 -1,0 -67,-26 -138,-25 -86,2 -180,43 -179,215 0,92 50,176 139,174 10,-1 41,-33 40,-50 -1,-20 -17,-46 -15,-65 2,-23 34,-25 67,-14 34,12 67,64 67,104 0,40 -42,90 -141,89 -100,0 -202,-74 -224,-182 -23,-115 -11,-257 -17,-334 -8,-118 -33,-284 -42,-359 -40,-338 -117,-406 -260,-658 -7,-12 -14,-19 -20,-31 -11,-21 -81,-97 -104,-109 -12,-6 -25,-13 -35,-11 -16,4 -20,13 -18,23 1,5 4,11 8,15 27,33 31,28 59,73 75,153 94,227 117,342 25,131 50,233 48,365 -1,123 7,270 -10,401 -7,55 -11,113 -10,170 6,276 124,540 462,537 314,-3 453,-206 453,-383 0,-79 -27,-153 -79,-201 41,-434 15,-771 25,-1368 103,-32 231,-48 339,-43 92,3 169,2 227,48 20,16 37,37 52,67 118,227 159,772 183,1046 8,89 16,126 17,158 -28,-4 -82,-23 -109,-20 -85,8 -216,121 -216,215 0,93 83,185 195,174 28,-3 20,-10 36,-26 1,-30 1,-26 -13,-53 -8,-16 -14,-11 -14,-30 0,-28 24,-43 51,-45 49,-4 60,51 75,89 32,80 -100,117 -180,110 -137,-13 -172,-95 -204,-214 -6,-25 -35,-243 -37,-277 -7,-117 -35,-259 -47,-402 -22,-255 -71,-403 -216,-642 -6,-15 -37,-43 -52,-54 l -25,-30 c -7,-17 -19,-24 -30,-24 -10,0 -18,7 -15,21 2,7 7,16 14,26 12,17 17,35 21,54 18,109 43,221 61,331 21,126 31,263 38,325 21,188 9,383 -1,457 -3,30 -11,54 -12,88 -11,255 161,606 452,606 225,1 470,-116 467,-346 -1,-61 -56,-165 -68,-221 1,-8 -3,-42 -2,-50 42,-382 21,-896 27,-1296 -1,-12 -1,-16 1,-31 3,-49 149,-101 187,-92 454,22 590,660 694,1050 8,27 9,47 12,74 8,53 37,99 42,155 -1,6 -1,67 -1,76 0,185 204,320 387,317 81,-1 248,-61 287,-140 56,38 298,548 327,675 17,32 -1,37 53,72 2,-20 16,-15 20,-32 1,-1 -5,-139 -5,-158 -1,-94 5,-163 7,-256 0,-5 -6,-35 -6,-41 8,-351 -1,-748 36,-1077 1,-8 14,-59 16,-118 4,-78 8,-168 5,-182 -3,-20 -2,-47 -30,-50 -32,-3 -173,-9 -201,-3 -13,7 -27,24 -33,23 -18,0 -33,-27 -80,-23 -211,-5 -473,-3 -681,-3 -24,0 -22,5 -44,12 5,-59 2,-240 1,-323 30,-10 16,4 36,-20 15,-17 16,-15 40,-22 10,-3 15,-5 26,-8 l 17,-4 c 12,-2 13,-3 23,-6 64,-19 202,-19 281,-9 111,15 305,71 389,108 89,54 212,194 249,293 17,47 86,834 88,852 9,90 47,99 58,90 13,-10 24,-40 26,-123 0,-8 0,-550 4,-793 2,-105 7,-147 -37,-245 -25,-56 -58,-111 -99,-163 26,-7 65,-11 88,-10 169,4 344,203 436,303 12,14 16,26 29,38 10,10 20,26 38,16 4,-43 -17,-72 -17,-114 0,-77 -31,-155 -55,-228 -26,-78 -121,-307 -234,-307 -26,-1 -75,-1 -117,39 2,-9 32,-67 35,-72 42,-100 62,-133 131,-225 5,-7 11,-12 19,-15 3,7 3,12 6,18 7,21 20,37 29,56 1,1 1,2 2,2 136,321 296,751 397,1087 l 21,53 c 40,85 102,317 123,398 6,64 32,99 32,190 0,23 -19,12 8,51 20,-4 21,-14 35,-31 6,-5 6,-10 13,-13 61,-23 234,52 285,90 43,41 160,132 178,189 l 6,20 c 30,7 42,-37 42,-60 0,-46 -20,-139 -24,-196 15,-17 96,-54 125,-53 80,2 134,101 151,180 7,30 8,57 3,74 -44,155 -184,609 -278,837 l -17,34 c -6,12 -8,7 -3,23 17,7 24,6 36,-8 10,-11 19,-15 23,-25 34,-74 38,-102 95,-194 37,-37 355,-714 363,-842 13,-208 -147,-348 -347,-334 -117,8 -214,83 -273,178 -13,-8 -15,-17 -28,-26 -43,-51 -52,-74 -134,-63 -1,-22 22,-46 44,-83 44,-72 60,-69 150,-88 61,-14 124,-23 191,-26 71,-3 146,4 223,15 10,2 16,0 21,0 29,-1 117,-138 132,-170 11,-24 15,-35 16,-43 15,34 24,141 27,183 5,61 24,94 54,157 l 22,-12 c 20,-50 32,-81 28,-138 -26,-441 -260,-645 -496,-662 -155,-11 -318,27 -436,57 -3,0 -4,-2 -4,-6 -1,-5 1,-13 4,-25 14,-49 79,-121 132,-131 7,-2 18,-1 60,0 88,2 218,16 243,18 47,4 187,-31 215,-77 21,-35 34,-51 45,-91 3,-10 4,-36 4,-67 0,-3 0,-6 0,-9 29,43 50,205 62,267 11,61 28,101 58,165 l 9,0 c 28,-65 39,-94 37,-158 -1,-28 -4,-90 -7,-141 z m 355,-1053 c 48,38 87,50 97,65 -35,0 -115,0 -198,0 22,-1 41,-3 59,-7 l 32,-20 c 1,-3 3,-7 6,-13 6,-11 6,-19 4,-25 z m -366,84 c 1,4 4,16 4,16 4,56 37,153 86,217 20,26 47,34 91,70 -23,32 -33,92 -42,156 -29,220 -36,152 -116,309 -10,21 -19,45 -26,75 -57,-280 -127,-385 -423,-407 -158,-12 -233,-12 -384,43 1,-3 97,-91 111,-94 95,-23 294,-29 395,-29 14,0 14,1 29,0 114,-6 256,-147 269,-279 3,-24 8,-56 6,-77 z m 588,-847 c 9,0 17,0 25,1 178,23 249,103 261,275 9,117 -94,194 -203,189 -133,-6 -309,-74 -324,-226 -13,-140 138,-191 241,-239 z m 90,505 c 150,-4 250,-92 250,-216 0,-214 -58,-292 -289,-337 -15,-4 -6,-4 -23,-1 -129,16 -326,135 -323,282 4,200 212,276 385,272 z m 31,-203 c -6,3 -19,15 -33,17 -29,3 -77,0 -101,-18 -21,-17 -35,-48 -32,-70 3,-34 89,-62 117,-65 14,-1 24,27 39,50 6,9 13,29 16,47 3,17 2,34 -6,39 z m 26,17 c 8,-10 24,-59 24,-73 0,-18 -6,-35 -15,-55 -12,-26 -42,-75 -83,-72 -48,4 -161,68 -171,130 -4,26 13,55 29,76 22,30 46,42 84,42 51,0 114,-23 132,-48 z m -385,453 c -33,37 -84,29 -96,29 -45,2 -111,-8 -185,-25 -179,-40 -404,-120 -476,-179 -99,-80 -280,-269 -414,-278 -84,-6 -132,60 -136,137 -3,58 37,89 102,99 65,9 89,-69 116,-54 14,9 28,63 23,90 -9,53 -97,68 -141,69 -100,-24 -282,-93 -260,-225 28,-210 196,-248 377,-247 162,2 269,114 377,219 218,212 341,285 588,359 42,9 84,17 125,6 z M 11078,703 c 119,128 261,240 429,292 23,5 296,82 306,81 l 95,-6 c -5,33 -127,33 -166,34 -66,0 -226,-22 -284,-40 -175,-53 -256,-78 -340,-124 -113,-61 -279,-216 -365,-257 -31,-14 -123,-40 -156,-37 -65,7 -147,83 -146,149 2,66 63,127 125,121 58,-5 85,-69 90,-69 6,0 15,28 19,38 7,13 10,26 9,39 -2,57 -68,104 -126,103 -160,-2 -229,-115 -229,-234 -1,-189 162,-281 355,-276 142,3 287,82 384,186 z m 1071,1047 c -137,-14 -422,-3 -508,105 -1,-45 -2,-38 -1,-87 -5,-21 2,-108 14,-126 51,-82 65,-90 108,-132 l 31,-18 c 6,-5 2,-2 8,-6 7,-5 9,-8 15,-13 -4,-15 1,1 -5,-9 -6,-12 -1,-14 -13,-24 l -32,-19 c -27,-19 -109,-138 -111,-197 0,-9 2,-17 7,-24 6,-10 15,-12 30,-9 19,4 21,2 43,2 242,3 482,8 725,-3 30,-1 139,-5 163,5 -2,17 -4,33 -8,48 -34,139 -136,196 -272,213 -108,14 -231,-7 -330,19 -12,3 -18,-2 -28,8 -9,8 -22,24 -38,14 -24,23 -144,140 -152,151 -8,9 -10,22 -7,38 2,13 1,13 14,10 15,-4 17,-10 29,-21 3,-3 5,-5 6,-5 153,-50 217,-50 376,-32 291,31 379,91 433,411 4,23 20,301 -5,336 -19,-16 -27,-94 -34,-135 -11,-61 -27,-224 -48,-268 -70,-149 -202,-209 -410,-232 z m -410,-287 1,2 c -4,4 -2,1 -1,-2 z m -35,-25 c 14,12 30,15 35,24 -71,33 -88,121 -95,122 -2,-12 0,-70 -3,-79 0,-21 2,-189 5,-193 18,74 22,95 58,126 z m -489,87 c 7,-7 123,-58 123,-82 11,1 16,9 17,15 3,27 31,76 19,135 3,256 94,512 105,745 1,24 13,47 7,73 l -23,-41 c -4,-8 -1,-2 -3,-12 -38,-272 -232,-677 -245,-833 z m 1506,1450 c 0,42 -2,88 -13,110 -12,-24 -24,-69 -29,-111 -9,-68 -28,-177 -55,-229 -83,-156 -244,-238 -423,-255 -195,-18 -410,28 -568,106 -2,-40 5,-69 4,-105 -1,-15 -2,2 1,-17 1,-8 91,-257 97,-263 5,-32 -86,-107 -91,-121 -1,-5 1,-63 4,-85 2,-23 24,-16 49,-16 171,-6 599,4 697,12 28,1 44,-6 73,6 3,21 -8,88 -15,102 -33,67 -126,84 -188,85 -86,3 -194,-17 -236,-17 -18,0 -53,-6 -81,-4 -14,1 -24,6 -32,11 -61,39 -125,133 -135,206 -7,19 -14,28 -5,51 l 4,0 c 73,3 249,-90 458,-73 268,21 478,244 484,607 z m -1020,-755 c -15,15 -42,114 -63,162 -2,-15 -2,-221 1,-223 15,14 54,46 62,61 z m -342,-1028 c -3,95 -8,118 -44,211 -18,45 -157,96 -159,129 -1,22 239,722 266,830 6,17 65,115 84,109 9,-3 13,-15 13,-31 -2,-118 -108,-731 -93,-833 8,-54 -20,-180 -64,-217 12,22 61,-163 39,-201 61,4 123,7 184,10 5,9 9,58 9,71 5,104 -11,217 0,325 1,23 6,33 5,45 -2,42 -10,75 -6,133 0,202 -16,484 0,681 4,53 -12,97 -12,104 0,9 2,2 7,13 7,15 1,122 2,164 0,77 4,376 -8,402 -20,-58 -25,-92 -40,-149 -19,-74 -46,-153 -67,-228 -81,-317 -294,-842 -414,-1158 l -36,-66 c -11,-20 -40,-30 -61,-15 -13,10 -25,19 -38,28 -33,21 -8,13 -29,36 -55,60 -148,270 -187,345 -5,25 20,46 41,34 33,-18 10,-35 31,-54 25,-21 62,-39 90,-36 97,8 189,137 242,270 34,87 57,191 61,256 -10,-9 -34,-48 -41,-58 -54,-84 -319,-279 -427,-278 -27,0 -77,28 -94,18 -8,-5 -14,-21 -14,-56 0,-105 119,-494 206,-531 8,-3 28,-34 30,-44 -11,-10 -10,-4 -22,-10 -82,-18 -191,-103 -202,-202 -4,-29 -1,-23 9,-43 144,0 675,17 739,-4 z m 1225,1578 c -4,26 -51,121 -66,139 l -53,61 c -4,2 -9,4 -14,4 -19,2 -41,-10 -60,-11 -42,-4 -104,-4 -166,-2 -63,2 -126,7 -171,13 -59,8 -136,27 -173,76 -27,36 -76,109 -92,151 -4,11 -8,21 -11,33 -4,18 -4,41 0,53 28,-4 36,-38 52,-52 56,-49 145,87 163,95 18,12 59,15 50,-25 0,-48 124,-157 200,-160 721,-30 52,887 -5,1104 -5,-48 206,-528 224,-673 2,-19 1,-40 -2,-62 -19,-116 -115,-254 -231,-229 -64,13 -125,43 -174,89 28,81 44,137 52,202 -36,-31 -72,-97 -108,-128 -102,-89 -221,-151 -355,-129 9,-64 27,-142 64,-219 12,-31 65,-87 90,-108 27,-21 31,-2 32,-45 -24,0 -35,2 -57,6 -46,-39 -142,-124 -138,-186 14,-9 57,-1 75,0 149,8 875,-11 874,3 z m -856,218 c -32,35 -60,63 -79,108 -14,31 -22,97 -29,132 -2,-4 6,-327 12,-350 2,30 86,105 96,110 z M 10574,1289 c 4,13 7,22 8,24 51,86 96,115 119,131 19,13 35,17 59,38 6,8 -12,24 -25,40 -75,89 -155,234 -155,354 l -20,76 c -5,18 -8,40 -3,102 -128,-131 -303,-231 -490,-258 -19,-3 -84,-12 -147,-8 -28,2 -170,41 -170,41 38,-100 75,-166 130,-248 19,-27 58,-40 88,-46 89,-17 354,1 456,-30 94,-30 140,-224 150,-206 l 0,-10 z m 1925,673 c -11,-4 -27,-3 -48,-4 l -811,-12 c -2,-5 -1,-11 -1,-23 -1,-11 0,-15 3,-24 29,-106 375,-107 485,-101 149,9 287,57 372,164 z m 78,755 c -203,-14 -733,-15 -894,5 -5,0 -26,3 -30,5 -11,3 -8,5 -27,9 0,-17 -3,-66 1,-82 3,-11 2,28 2,14 5,-8 4,-7 8,-7 114,-96 343,-147 554,-124 156,16 302,73 386,180 z m 1846,-863 c -96,126 -176,197 -344,204 -132,6 -274,-81 -355,-211 4,190 182,408 373,418 143,8 313,-265 326,-411 z m -327,-626 c -182,-5 -337,88 -343,291 -4,137 146,350 311,334 169,-17 330,-90 343,-265 15,-198 -156,-356 -311,-360 z m -31,191 c -73,-3 -112,54 -121,106 -17,88 67,153 147,153 101,0 156,-65 145,-139 -11,-81 -96,-116 -171,-120 z m 25,47 c 28,4 83,54 87,67 22,67 -23,98 -80,102 -55,4 -124,-55 -108,-118 10,-36 67,-57 101,-51 z m -289,59 c 0,-166 136,-233 311,-234 104,-2 256,125 248,261 -7,132 -121,229 -278,235 -138,5 -281,-114 -281,-262 z m 970,992 c 3,-4 2,5 1,1 0,0 -7,7 -1,-1 z m -709,524 c 186,5 344,-89 350,-296 3,-140 -150,-358 -318,-341 -172,16 -337,91 -350,270 -15,202 159,363 318,367 z m 32,-195 c 74,4 113,-55 123,-108 17,-90 -69,-156 -151,-156 -102,-1 -158,67 -147,142 11,82 98,118 175,122 z m -26,-47 c -29,-5 -85,-56 -89,-69 -23,-68 23,-100 82,-104 56,-4 127,56 109,121 -9,36 -67,57 -102,52 z m 294,-61 c 0,170 -138,237 -317,239 -106,1 -261,-128 -253,-267 8,-134 124,-233 284,-239 141,-6 286,116 286,267 z M 4469,1314 c 23,54 61,105 99,147 10,14 10,33 -3,51 -150,195 -153,200 -141,385 l 1,29 c -114,-286 -648,-275 -640,15 -19,-33 -94,-95 -130,-94 -8,0 -17,1 -27,2 7,-146 100,-243 217,-334 40,-18 97,-10 138,-11 99,-2 231,-8 326,-59 67,-35 131,-91 139,-181 0,-7 1,-15 2,-23 2,24 9,48 19,73 z m 5705,1896 c 4,-13 29,-140 34,-177 -1,-43 -54,-162 -36,-171 46,-23 88,-73 117,-93 l 8,94 c 16,50 78,791 78,791 -23,-41 -59,-188 -72,-216 -5,-10 -8,-16 -12,-25 -6,-12 -4,-14 -7,-25 -19,-63 -81,-122 -110,-178 z m -229,-132 c -32,-26 -99,-35 -147,-34 -114,0 -216,82 -274,176 -7,12 -13,42 -17,66 -2,-55 -4,-185 0,-240 4,-64 4,-166 4,-233 0,-19 -3,-137 3,-154 2,-5 2,-5 4,-7 64,144 133,190 389,218 42,15 30,17 57,57 40,21 81,162 41,192 l -60,-41 z m -403,-541 c 1,-2 1,-4 3,-5 8,-4 594,20 695,8 12,-1 10,-1 19,1 22,5 26,-1 33,15 8,17 2,37 0,53 l -7,75 c -10,54 -59,96 -107,116 -30,12 -62,26 -74,58 25,36 25,48 41,86 32,76 -19,223 -50,298 4,4 12,11 17,15 61,41 98,90 127,165 10,27 34,56 41,79 26,78 70,142 85,203 13,50 17,102 39,118 16,-10 21,-11 21,-26 1,-33 -16,-81 -21,-128 -32,-266 -33,-599 -67,-862 -4,-33 -5,-56 -5,-74 -1,-57 16,-52 19,-148 0,-3 1,-18 1,-28 1,-11 3,-13 22,-12 47,2 139,-1 172,-1 1,46 -3,114 -2,160 1,48 -24,86 -24,142 -43,327 -17,708 -28,1060 -1,14 7,39 6,53 -1,34 -3,309 -10,322 -48,-182 -288,-568 -313,-658 -4,-11 -5,-26 -5,-45 1,-12 0,-34 -2,-52 -13,0 -14,3 -20,14 -2,3 -5,8 -7,12 l -38,75 c -26,69 -187,131 -251,131 -119,2 -333,-102 -340,-272 -8,-169 106,-389 288,-387 77,1 149,78 214,75 33,-51 56,-115 45,-178 -4,-24 -18,-50 -48,-108 -4,-7 -12,-12 -12,-24 0,-17 4,-10 6,-13 5,-9 1,8 6,-9 -9,-12 -12,-18 -20,-29 -19,-1 -20,4 -35,8 -116,29 -403,-71 -418,-232 -1,-17 -1,-35 4,-51 z m -4060,198 c -8,-36 2,-227 8,-289 34,-71 219,-98 304,-113 57,-10 239,41 280,87 102,112 121,308 140,447 8,63 17,126 25,190 -12,-6 -24,-16 -32,-29 -102,-152 -244,-415 -563,-404 -126,5 -130,97 -162,111 z M 8878,1580 c 5,-7 19,-22 38,-34 14,-9 32,-17 51,-19 36,-3 81,0 118,-3 39,-3 163,-87 159,-101 4,19 8,37 12,56 11,62 89,675 93,719 -76,-115 -133,-400 -439,-388 -26,1 -50,-3 -134,32 5,-23 10,-77 18,-109 15,-58 50,-108 84,-153 z M 5492,1351 c 41,90 20,90 114,142 2,1 5,3 4,4 -29,26 -110,227 -129,294 1,-119 2,-201 3,-320 0,-34 8,-86 8,-120 z m 4036,332 c -8,-13 3,-73 -1,-99 4,-81 8,-163 12,-244 15,64 107,142 107,150 0,0 -98,121 -118,193 z m -1336,129 c 11,-46 17,-91 17,-136 1,-50 -4,-100 -12,-152 14,-27 55,4 122,-9 121,-16 150,-74 187,-213 35,46 32,67 78,122 13,15 77,53 79,64 1,11 -9,18 -9,18 -82,57 -129,150 -139,222 -16,123 -14,249 -21,373 -64,-156 -58,-245 -247,-281 -15,-2 -38,-2 -55,-8 z m -649,-516 3,5 c 1,1 1,2 2,3 69,134 203,173 336,222 49,61 33,203 27,282 -60,0 -173,-4 -224,18 -41,18 -64,60 -80,99 -8,19 -10,26 -19,44 -4,13 -48,90 -67,120 0,-12 0,-25 0,-37 l 22,-756 z m -664,-104 c 162,10 414,-9 570,1 15,2 42,13 41,32 -12,246 -14,607 -18,977 -7,555 -13,1084 -32,1387 56,48 79,119 73,192 -14,159 -165,332 -413,320 -283,-14 -398,-232 -402,-469 -1,-57 5,-115 16,-172 28,-142 -1,-299 0,-405 2,-166 -33,-319 -68,-454 -30,-110 -72,-209 -72,-209 166,325 198,364 262,671 16,74 29,228 36,340 4,75 -7,222 18,347 25,131 159,236 271,230 112,-6 173,-50 181,-144 8,-95 -62,-162 -124,-168 -40,-4 -77,11 -83,38 -4,19 17,70 13,78 -2,3 -27,25 -36,22 -38,-9 -64,-64 -62,-125 2,-106 63,-155 141,-162 48,-5 103,6 153,29 15,7 32,-4 34,-18 1,-7 -2,-15 -11,-22 8,-9 8,-22 11,-38 12,-95 -26,-1689 -95,-1960 l 1,-41 c 0,-14 -19,-11 -31,-9 -9,2 -24,7 -37,8 l -148,4 c -14,1 -39,31 -41,44 -15,123 98,848 49,863 -14,0 -318,-337 -594,-286 -29,5 -50,14 -66,4 -16,-2 1,-59 59,-107 12,-10 10,-28 10,-39 15,-114 7,-191 65,-295 27,-49 76,-129 93,-163 9,-19 18,-32 17,-47 -1,-9 -7,-19 -20,-31 -31,-30 -62,-69 -85,-105 -8,-13 -16,-39 -18,-51 -3,-20 -9,-43 -8,-65 l 93,-1 c 101,-3 153,-3 257,-1 z m 1302,274 c -22,-4 -44,0 -51,13 -2,5 -2,11 1,20 19,62 24,90 26,171 1,64 -9,91 -22,149 -7,33 -12,22 -6,60 21,11 64,-5 103,0 218,26 234,357 237,518 7,354 -22,936 -14,1180 7,42 64,170 62,242 -4,216 -216,274 -413,287 -258,17 -394,-342 -406,-548 -1,-26 0,-57 7,-94 7,-120 43,-237 10,-444 -21,-128 -18,-258 -47,-389 -18,-86 -49,-173 -68,-264 64,5 226,504 230,634 4,172 25,304 40,419 13,101 15,134 29,249 17,137 122,291 254,282 91,-5 229,-34 230,-136 0,-44 -28,-159 -113,-156 -57,1 -85,15 -97,33 -25,38 51,107 28,122 -35,24 -125,-5 -135,-121 -6,-73 88,-163 153,-166 51,-3 92,10 110,17 62,23 77,5 59,-34 l -17,-107 c -14,-302 -85,-837 -181,-1132 -4,-16 -7,-11 -12,-24 -19,-55 -45,-86 -78,-103 -63,-34 -147,-41 -253,-43 -28,0 -306,29 -313,41 44,-69 86,-144 133,-215 12,-18 28,-29 44,-39 17,-10 33,-8 55,-13 47,-10 57,-4 99,-4 14,-1 31,7 47,7 19,1 33,-13 37,-30 3,-13 -2,-25 -3,-38 -2,-27 23,-122 18,-223 -2,-25 -11,-25 -22,-64 -6,-24 15,-64 10,-68 -6,-5 -30,11 -52,5 -119,-3 -335,-143 -334,-247 0,-29 39,-16 59,-15 182,-5 681,0 842,-6 10,0 13,-1 13,4 0,91 -69,267 -179,273 -37,1 -93,2 -120,-3 z m 1123,-221 c 0,-12 -18,-47 14,-53 16,-2 130,3 153,0 13,-2 22,-4 26,-1 3,3 3,8 -2,18 0,22 -4,22 -4,63 l 0,102 c 0,71 -4,63 -5,106 -11,277 -6,639 -1,903 -1,23 -3,69 -4,92 -5,243 -7,511 -12,754 -13,-2 -33,-111 -37,-131 -69,-289 -249,-1025 -691,-1025 -98,0 -109,9 -187,37 -13,5 -3,7 -20,2 8,-67 0,-30 0,-71 2,-62 13,-241 24,-285 l 8,-30 c 19,-74 31,-149 125,-199 10,-6 13,-7 25,-12 18,-8 24,-15 23,-36 -1,-17 -12,-16 -35,-25 -22,-9 -38,-19 -51,-31 -12,-10 -22,-21 -33,-35 -8,-12 -40,-52 -45,-61 -12,-27 5,-88 23,-107 21,-22 83,-24 110,-24 l 31,-1 c 140,6 297,0 440,0 13,0 54,-1 64,7 12,29 7,111 -3,143 -2,7 -5,15 -9,23 -14,33 -102,115 -142,115 -27,0 -73,2 -120,4 -41,2 -56,5 -76,21 -67,51 -137,153 -153,234 -7,36 -7,74 -8,111 -1,21 -20,77 17,68 15,-4 22,-16 34,-25 35,-24 70,-35 113,-38 292,-19 410,467 497,467 22,0 23,-5 18,-24 -4,-20 -2,-26 -5,-43 -4,-19 -11,-25 -14,-43 -30,-206 -50,-486 -88,-728 0,-3 -27,-111 -26,-116 7,-24 26,-98 26,-126 z M 6669,664 c 5,22 -13,80 -40,137 -25,54 -57,108 -87,130 -78,58 -194,35 -250,95 -21,22 -33,54 -33,106 0,11 -8,18 -8,33 0,18 4,27 11,30 5,3 126,-9 189,-2 7,20 -25,79 -32,98 -23,66 -77,122 -144,135 -83,16 -209,22 -293,22 -28,-2 -67,-2 -89,20 -9,8 -14,11 -21,19 -36,43 -70,139 -84,194 -1,4 -12,10 -14,14 -5,16 -13,36 -7,47 4,7 13,11 32,9 5,-11 5,-15 9,-19 2,-2 6,-5 13,-9 86,-45 197,-41 292,-45 68,-2 147,14 221,-1 21,-4 40,-13 53,-18 10,-4 16,-5 16,0 0,1 -69,120 -78,142 -7,17 -14,29 -22,39 -34,41 -209,24 -268,18 -36,-3 -146,-1 -221,13 -30,6 -54,13 -66,23 -53,42 -96,170 -110,235 -9,26 -3,36 10,51 15,4 31,-9 41,-12 81,-22 92,-57 259,-63 239,-9 309,75 354,199 12,34 22,71 34,110 92,310 39,1026 16,1377 -9,-9 -83,-248 -98,-287 -112,-283 -314,-585 -644,-610 -80,-6 -83,30 -134,37 -1,-5 5,-115 6,-118 17,-75 88,-116 166,-128 196,-28 425,191 520,359 14,24 28,49 45,65 9,8 44,36 58,33 7,-5 15,-15 15,-24 0,0 -2,-16 -2,-16 -4,-56 -11,-112 -17,-168 -11,-112 -64,-486 -145,-560 -72,-65 -235,-90 -317,-88 -82,3 -260,33 -320,88 3,-172 6,-324 9,-495 0,-42 61,-159 80,-208 26,-65 32,-85 73,-141 5,-6 8,-11 12,-16 3,-4 8,-6 14,-10 12,-7 17,-19 17,-28 0,-10 -4,-18 -13,-21 -19,-4 -30,-8 -39,-10 -73,-17 -129,-139 -129,-175 0,-20 1,-51 4,-69 19,-11 509,-6 560,-5 22,1 34,0 44,-4 28,-10 52,-21 52,-50 2,-63 -54,-147 -85,-212 -4,-10 -13,-28 -8,-39 7,-12 29,-12 45,-20 1,0 170,5 211,-4 80,-19 182,-45 242,-114 14,-16 62,-44 95,-89 z m -1533,863 c 32,210 58,436 84,648 -141,-75 -207,-359 -430,-376 -35,-2 -117,36 -163,7 -2,-115 67,-255 187,-278 12,-2 31,-4 54,-6 88,-6 230,-6 268,5 z m 1778,460 c -65,-21 -75,-129 -230,-111 -17,2 -36,14 -40,8 -4,-7 -2,-24 4,-48 22,-88 152,-297 161,-311 l 77,-4 c 14,127 41,347 28,466 z m -123,-502 c -6,9 -12,18 -18,27 -117,134 -175,269 -184,398 -1,16 -12,48 -9,48 3,0 10,-9 21,-15 108,-56 213,34 297,89 12,8 14,3 21,16 13,24 12,25 44,21 4,-21 8,-31 1,-51 -3,-10 -27,-498 -27,-505 0,-22 -8,-31 -24,-35 -26,-5 -95,2 -122,7 z m 3040,1864 c 7,-2 31,-10 42,-9 22,2 87,78 89,110 4,59 -56,108 -113,108 -44,-1 -120,-39 -118,-84 3,-56 68,-113 100,-125 z m 17,253 c 98,0 156,-68 150,-147 -4,-51 -26,-107 -117,-152 -9,-2 -19,-3 -28,-3 -94,4 -180,77 -172,173 7,78 90,129 167,129 z m 853,-244 c 2,19 -1,23 9,43 l 10,-90 c -13,-45 -4,-548 -4,-761 0,-102 -6,-133 -49,-229 -92,-202 -273,-393 -588,-471 -35,-8 -100,-17 -161,-12 -37,3 -150,26 -173,67 -13,24 -28,36 -39,34 -33,-6 -9,-104 4,-131 52,-101 81,-170 162,-263 21,-16 40,-44 66,-63 69,-26 356,32 481,-28 44,-20 92,-124 115,-198 9,-27 14,-50 15,-63 -291,-9 -586,10 -879,1 -39,-1 -39,0 -69,18 -20,11 -27,23 -30,46 -5,37 45,102 61,137 6,13 15,20 24,26 24,14 52,12 53,44 1,27 -12,34 -25,48 -95,107 -89,115 -127,242 -8,26 -18,55 -15,80 3,22 0,33 4,55 6,38 -8,96 -2,117 6,21 6,75 29,86 25,8 65,-23 94,-22 40,-18 169,-23 243,-20 264,11 522,111 665,314 69,97 54,105 63,221 20,259 32,513 63,772 z M 5392,1195 c 30,1 27,1 31,10 4,19 13,54 12,98 -3,126 -17,322 -5,389 1,8 0,0 3,8 7,26 6,98 7,116 5,92 -16,890 -17,984 0,177 -5,326 -35,513 -4,-18 -2,-37 -9,-56 -111,-336 -135,-1184 -662,-1173 -76,11 -163,18 -230,44 -10,3 -15,6 -17,6 -5,0 -3,-5 -3,-23 0,-19 1,-36 3,-59 2,-45 -2,-101 -3,-147 -6,-187 11,-202 149,-393 17,-23 28,-43 25,-59 -2,-7 -84,-76 -115,-148 -7,-17 -31,-53 -30,-71 1,-19 9,-32 18,-42 40,-18 756,-1 878,3 z m -696,352 c -57,46 -105,137 -113,212 -3,28 0,54 10,74 8,15 1,6 14,16 -25,32 -66,29 -51,82 45,-4 5,-5 67,-45 39,-25 97,-37 142,-38 185,-5 351,336 433,376 24,13 5,-3 24,20 10,13 43,21 43,-28 0,-25 -14,-29 -14,-66 0,-45 -67,-580 -72,-596 -6,-16 -1,-51 -2,-81 -50,8 -221,-4 -321,2 -15,0 -29,1 -40,3 -46,7 -84,40 -120,69 z m -1355,659 c 16,137 -83,264 -226,267 -136,3 -304,-107 -305,-253 -1,-123 121,-272 240,-272 171,0 271,87 291,258 z m -697,39 c -48,-112 -123,-418 -235,-648 -7,-14 -31,-32 -38,-47 27,-34 91,-75 119,-112 8,0 14,3 19,12 46,91 91,439 115,622 5,39 12,135 20,173 z M 1207,1395 c 25,64 94,411 96,441 1,20 7,115 6,179 0,29 -2,52 -6,57 -15,-5 -10,-50 -16,-62 -24,-47 -228,-500 -221,-521 20,-5 118,-61 141,-94 z m 1885,-201 c 113,3 254,144 257,255 3,89 -135,259 -250,261 -152,4 -307,-117 -278,-278 21,-116 187,-252 271,-238 z M 284,1181 c 8,-18 173,-12 184,-1 4,5 2,30 -6,52 -10,28 -5,83 7,118 -3,62 -73,143 -73,225 0,153 -24,316 -47,466 -22,148 88,256 234,256 105,0 173,-67 189,-164 13,-82 -63,-182 -151,-173 -47,5 -49,32 -82,39 -5,-17 -4,-20 -5,-33 l -9,-103 c -9,-73 -12,-88 1,-164 12,-69 33,-127 89,-188 l 24,-27 c 3,-4 2,-2 4,-7 4,-8 3,-32 2,-44 8,-12 4,-31 -6,-37 -71,-44 -119,-71 -115,-165 0,-20 14,-48 32,-53 4,-2 618,-10 646,2 -5,37 -10,64 -14,106 -4,35 -41,103 -71,122 -20,13 -44,20 -63,27 -21,7 -45,10 -48,34 -1,7 0,16 1,26 2,15 6,31 11,41 8,20 15,29 25,49 95,191 175,404 270,602 13,27 -5,107 47,84 1,-30 7,-28 3,-53 -22,-143 -2,-322 -15,-466 -2,-29 -6,-57 -12,-83 -9,-40 -74,-271 -73,-286 2,-52 3,-108 -3,-161 -2,-13 2,-30 4,-43 54,8 170,13 221,3 6,22 0,34 0,56 0,295 -2,596 3,900 -27,366 0,669 -14,968 3,63 13,181 9,195 -3,10 -13,-28 -37,-160 -6,-91 -88,-418 -112,-528 -15,-66 -82,-240 -127,-347 -103,-247 -227,-495 -348,-736 -6,-12 -10,-30 -19,-38 -6,-5 -15,-6 -28,4 -115,73 -140,194 -161,312 -6,15 4,40 -11,71 29,0 67,-25 105,-25 86,0 191,148 206,231 34,182 -160,359 -341,338 -143,-16 -281,-61 -330,-206 -47,-137 -23,-253 -18,-387 5,-158 -1,-322 6,-487 2,-62 10,-128 16,-162 z m 325,260 c 0,14 2,27 0,39 -2,8 -5,15 -12,21 -58,63 -92,106 -107,186 -18,97 -12,117 -1,212 4,35 -5,61 -1,90 3,26 18,43 37,59 14,-3 13,-7 23,-17 19,-18 44,-22 72,-16 106,23 196,209 -8,228 -89,9 -254,-106 -214,-216 29,-83 34,-316 53,-444 10,-65 21,-128 58,-208 26,27 72,58 100,66 z m 2101,1079 c -1,6 13,8 27,9 23,1 21,16 15,45 -7,42 -59,120 -59,131 -1,10 23,50 30,68 17,47 -56,240 -84,246 -16,2 -25,-8 -43,8 -12,10 -22,16 -25,32 l 8,4 c 1,1 2,1 3,1 1,1 1,1 2,2 31,14 48,15 73,40 31,30 59,92 69,143 19,94 17,294 19,399 0,25 1,207 -7,219 -20,-170 -44,-556 -254,-700 -14,-11 -60,-24 -64,-22 -14,-21 28,-124 45,-136 124,-32 139,-59 155,-175 8,-63 -42,-181 -130,-174 -114,9 -251,63 -267,193 -10,74 11,95 61,137 13,11 24,22 24,31 0,8 -2,16 -4,24 -10,31 -52,99 -83,115 -56,-80 -95,-258 -95,-361 0,-158 218,-304 343,-308 17,-1 32,1 45,6 11,4 30,12 39,13 10,-5 18,-4 18,-15 0,-34 -11,-80 -29,-112 -72,-127 -143,-313 -202,-443 -39,-108 -180,-327 -195,-392 -3,-13 2,-29 3,-42 0,-11 -2,-20 -15,-22 -16,-3 -10,10 -18,21 -6,7 -13,12 -19,18 -28,31 -166,260 -176,295 -4,18 -10,21 -15,39 34,0 101,-41 145,-37 122,5 205,125 209,239 8,211 -107,365 -317,398 -266,43 -395,-174 -383,-409 3,-65 -23,-749 -18,-767 l 0,-52 c -1,-34 -5,-45 2,-49 16,-9 198,-7 212,1 -2,19 -7,15 -7,29 0,54 1,138 13,191 -3,22 -29,49 -37,72 -26,77 -93,457 -75,572 19,124 92,252 235,252 185,0 263,-331 43,-349 -43,-4 -77,3 -113,26 -9,3 -17,0 -21,-8 0,-1 14,-295 21,-314 13,-36 93,-154 125,-169 39,5 77,-43 9,-45 -23,-1 -44,8 -75,-16 -30,-24 -34,-40 -50,-72 -10,-19 -11,-23 -14,-49 -6,-54 -7,-85 0,-103 6,-18 21,-23 46,-23 124,0 548,-22 639,10 15,56 15,152 -17,207 -32,53 -151,110 -169,154 15,22 44,37 55,59 44,88 224,579 241,631 15,27 17,21 32,63 7,19 16,25 24,22 10,-2 17,-16 15,-31 -32,-250 -42,-656 -125,-876 -3,-10 -6,-14 -14,-16 -5,-2 -10,-3 -15,-4 28,-72 43,-137 36,-215 61,15 106,23 190,9 9,14 14,31 14,54 l 4,144 c -16,124 1,107 8,207 l -63,927 z m -909,-495 c 40,1 49,-56 137,-21 37,14 64,42 73,87 16,77 -31,166 -120,147 -90,-19 -172,-115 -193,-198 -26,-103 48,-432 64,-529 2,-9 4,-15 7,-20 2,-4 37,-57 37,-57 50,41 53,33 82,39 -35,46 -104,137 -116,188 -9,43 -17,101 -17,145 l -7,128 c -2,32 1,50 4,57 8,24 27,32 49,34 z M 911,955 c 68,-66 132,-125 204,-189 11,-9 49,-20 67,-17 0,2 651,0 714,-8 224,-29 386,-76 599,-133 63,-17 119,-38 180,-61 -1,3 -10,13 -16,19 -20,18 -63,44 -69,48 -203,144 -403,262 -655,317 -33,7 -44,6 -76,8 -173,10 -491,-17 -623,4 -55,9 -68,0 -107,39 -39,38 -92,96 -97,101 -33,35 -13,48 -71,51 l -106,0 C 777,1002 644,873 480,865 c -63,-3 -105,15 -174,31 -1,-22 164,-182 186,-180 96,9 308,192 372,258 7,8 17,9 25,9 6,-1 35,-12 34,-20 -1,-2 -5,-4 -12,-8 z M 1114,550 C 1146,677 1012,762 898,750 795,739 584,649 612,510 629,425 777,318 868,320 c 105,4 169,48 201,93 26,37 32,94 45,137 z M 570,538 c 14,159 193,262 325,256 21,-1 7,-5 27,-4 107,3 248,-148 251,-248 1,-37 -19,-133 -40,-166 -46,-72 -181,-97 -260,-97 -99,0 -313,144 -303,259 z m 2521,834 c 59,-3 83,84 83,101 1,45 -48,76 -86,68 -75,-16 -90,-56 -92,-72 -5,-58 49,-94 95,-97 z m -138,91 c -6,75 78,119 137,117 70,-2 126,-47 127,-128 0,-48 -51,-110 -101,-120 -80,-16 -157,46 -163,131 z M 931,629 c -14,-1 -18,-7 -37,-8 -45,-5 -110,-48 -109,-101 0,-32 91,-70 114,-62 21,7 48,52 51,80 5,38 12,59 -19,91 z m -34,34 c 17,1 43,-17 54,-30 6,-8 22,-8 28,-12 2,-1 4,-3 7,-9 10,-14 23,-73 22,-90 -2,-55 -49,-116 -108,-115 -26,0 -44,7 -66,21 -38,26 -73,69 -88,101 -7,13 -10,22 -10,30 -2,88 97,103 161,104 z m 2205,1445 c 39,23 91,52 95,102 3,26 -47,85 -96,81 -61,-4 -126,-46 -123,-115 2,-46 98,-83 124,-68 z m -46,-204 c -182,6 -274,149 -285,318 -12,192 197,320 340,306 174,-16 280,-170 280,-345 0,-178 -162,-285 -335,-279 z m -310,575 c 0,6 24,19 43,17 15,-1 19,11 17,36 -7,82 -60,165 -61,196 -1,20 7,45 11,70 14,109 -64,232 -89,235 52,33 104,136 115,208 19,115 1,558 -3,700 -1,27 -3,52 -6,64 -6,21 -22,39 -46,25 -5,-4 -8,-51 -10,-60 -8,-34 -23,-133 -25,-173 -19,-213 -75,-442 -247,-593 -4,-4 -9,-5 -30,-5 -24,0 -40,14 -52,-8 l -4,-10 c -4,-6 -20,-31 -11,-28 7,-9 15,-6 22,-17 21,-51 24,-95 62,-153 76,-16 151,-61 135,-149 -10,-59 -22,-133 -95,-126 -71,6 -178,82 -204,116 -6,10 -8,21 -8,31 0,77 99,104 99,130 0,14 -2,27 -4,40 -5,20 -11,37 -17,51 -25,48 -61,66 -88,115 -5,10 -16,22 -29,28 -77,-37 -144,-324 -144,-418 0,-188 261,-352 395,-357 19,0 35,2 48,8 0,-9 -11,-25 -24,-57 -27,-66 -105,-256 -190,-437 -74,-160 -153,-314 -206,-373 -10,5 -123,185 -127,196 -2,5 -8,18 -6,24 40,-10 78,-36 118,-31 98,13 206,169 214,291 17,245 -152,390 -370,441 -231,53 -304,-109 -392,-234 -8,291 -16,581 -24,872 0,118 -5,226 -5,321 1,22 6,31 -3,52 -35,9 -19,5 -34,-49 -36,-126 -49,-280 -86,-422 -58,-232 -106,-511 -199,-735 -53,-128 -360,-746 -386,-757 -37,35 -111,218 -104,261 2,1 77,-16 88,-15 84,5 212,190 235,271 48,176 -200,399 -390,398 -184,-1 -325,-50 -404,-233 -28,-63 -36,-134 -32,-227 8,-175 11,-618 27,-789 7,-65 21,-91 82,-87 45,6 140,-20 171,-3 16,8 29,21 45,23 23,3 37,-18 56,-22 67,-14 163,5 232,0 -19,-81 -247,-212 -328,-218 -62,-5 -124,1 -182,23 -10,3 -21,8 -39,17 l -17,-16 c 10,-15 19,-21 29,-35 44,-85 96,-167 176,-213 26,-18 30,-29 42,-27 53,7 361,235 408,281 65,-79 126,-130 204,-196 30,-26 73,-33 86,-29 10,2 763,-23 780,-26 179,-25 369,-76 539,-118 48,-12 101,-21 145,-44 29,-16 62,-30 88,-48 7,-5 10,-11 15,-9 5,4 9,7 8,10 -2,11 -16,31 -22,40 -5,5 -11,9 -25,14 -71,90 -154,146 -246,215 -116,88 -395,186 -499,211 -107,44 -603,34 -753,31 -59,-1 -138,65 -164,114 -7,13 -7,19 -3,23 l 56,2 c 19,-1 66,1 81,8 17,8 28,10 36,9 13,-1 20,-11 43,-13 83,-1 122,-9 202,-9 18,0 15,18 47,18 14,-1 19,-11 37,-11 29,1 91,-1 122,-1 41,0 71,7 111,-4 112,-30 583,-2 706,-2 l 88,0 c 51,1 169,-12 221,-21 l 40,41 c -13,11 -19,14 -23,17 -5,6 -2,15 -2,66 0,32 -2,74 10,97 32,-61 125,-186 299,-186 110,1 276,169 276,305 1,142 -143,312 -296,317 -119,5 -175,1 -284,-133 l -72,848 z m 186,-277 c 0,83 57,131 139,130 69,-1 161,-63 161,-134 0,-45 -73,-127 -128,-131 -102,-8 -172,67 -172,135 z M 4399,694 c 3,12 -9,39 -13,58 -44,168 -177,395 -376,384 -168,-10 -314,-95 -375,-245 -29,-70 -68,-173 -69,-206 98,133 270,213 424,230 203,23 292,-92 409,-221 z m -71,2010 c 17,87 23,151 22,198 -4,161 -89,122 -152,209 55,78 128,241 128,336 0,12 -2,23 -6,33 -4,15 -9,28 -9,44 54,37 91,117 93,188 7,207 -158,374 -368,376 -303,2 -424,-269 -440,-519 -6,-107 6,-219 4,-329 -2,-75 -6,-154 -12,-232 -9,-113 -11,-223 -25,-308 l -29,-243 c -2,-15 -20,-99 -24,-112 -4,-16 -27,-101 -10,-107 6,-1 -4,-6 3,2 4,3 1,0 4,5 3,4 7,11 9,14 3,7 7,25 9,35 13,52 59,185 68,219 3,14 72,272 73,274 -11,52 -11,107 -2,160 12,72 38,141 72,193 0,132 21,324 42,458 28,176 48,351 302,348 77,0 202,-89 200,-169 0,-9 -1,-21 -4,-34 -7,-42 -29,-72 -63,-95 -5,-4 -9,-11 -15,-12 -44,6 -77,23 -94,68 -4,12 1,19 1,37 2,16 4,41 -19,40 -35,-1 -97,-48 -98,-123 -2,-108 92,-135 196,-146 24,-2 52,-3 87,-1 2,-13 1,-6 4,-17 5,-16 3,-28 0,-48 -13,-78 -105,-247 -209,-254 -39,-2 -69,16 -71,19 2,-50 24,-89 41,-106 35,-36 61,-26 93,-50 74,-54 104,-108 110,-156 10,-86 -76,-225 -178,-221 -71,4 -134,27 -214,100 -26,24 -50,69 -48,107 2,21 22,65 39,75 20,11 60,32 75,59 3,4 5,8 5,10 0,12 -77,121 -109,127 -46,-26 -106,-198 -109,-249 -1,-15 0,-41 6,-85 15,-105 93,-266 253,-302 31,-7 110,-10 157,-5 29,3 30,5 44,-23 13,-28 8,-37 18,-62 15,-42 61,-233 59,-276 -6,-114 -108,-207 -219,-202 -64,3 -222,91 -190,134 11,15 24,18 41,11 7,22 19,92 18,118 0,13 4,43 -16,81 -85,-133 -206,-252 -374,-253 -24,0 -72,16 -77,11 7,-193 30,-410 172,-561 23,-14 35,-3 45,-17 3,-5 6,-14 10,-29 -2,2 -25,-7 -47,-24 -41,-34 -143,-151 -135,-210 2,-8 5,-16 10,-24 64,-1 196,-8 326,-6 111,2 232,-9 333,-7 121,2 233,16 277,7 8,13 9,35 6,49 -19,94 -76,149 -132,181 -77,44 -182,43 -294,36 -40,-2 -80,-5 -119,-6 -21,-1 -35,-1 -46,6 -7,5 -27,21 -32,31 l 16,13 c -29,-18 -221,191 -230,356 0,6 -1,14 -3,24 -2,23 -3,51 23,45 8,-2 17,-9 24,-18 72,-41 126,68 141,74 9,3 19,5 35,4 0,-7 0,-11 -2,-18 99,-308 557,-233 596,71 18,147 -110,325 -159,446 -5,12 -15,20 -12,45 l 157,16 c 18,-1 28,9 29,24 4,44 -82,128 -81,142 z M 3956,311 c 9,0 17,1 25,2 178,23 249,103 262,275 8,117 -95,194 -204,189 -133,-6 -309,-74 -324,-226 -13,-141 138,-192 241,-240 z m 90,505 c 150,-3 250,-91 250,-215 0,-214 -58,-292 -289,-338 -14,-3 -6,-3 -23,-1 -129,17 -326,136 -323,283 4,200 212,276 385,271 z m 31,-203 c -6,4 -19,16 -33,17 -29,3 -77,1 -101,-18 -20,-16 -35,-47 -32,-69 4,-34 89,-62 117,-65 14,-1 24,26 39,50 6,9 13,28 16,47 3,17 3,33 -6,38 z m 26,18 c 8,-11 24,-59 24,-74 0,-17 -6,-34 -15,-54 -12,-26 -42,-75 -82,-72 -49,3 -162,68 -171,129 -4,26 13,55 28,76 23,31 46,43 85,43 50,0 113,-23 131,-48 z"
         class="fil6 str5" /></g></g></svg>